<?xml version="1.0" standalone="no"?>
<!DOCTYPE svg PUBLIC "-//W3C//DTD SVG 1.1//EN" "http://www.w3.org/Graphics/SVG/1.1/DTD/svg11.dtd" >
<svg xmlns="http://www.w3.org/2000/svg" xmlns:xlink="http://www.w3.org/1999/xlink" version="1.1">
<metadata>
Created by FontForge 20170731 at Fri Jul 20 05:06:45 2012
 By Aleksey,,,
Copyright (c) 2007-2010 Typodermic Fonts. This font is not freely distributable. Visit typodermic.com for more info.
</metadata>
<defs>
<font id="GnuolaneRg-Regular" horiz-adv-x="470" >
  <font-face 
    font-family="Gnuolane Rg"
    font-weight="400"
    font-stretch="normal"
    units-per-em="1000"
    panose-1="2 11 5 6 4 0 0 2 0 4"
    ascent="800"
    descent="-200"
    x-height="543"
    cap-height="745"
    bbox="-119 -226 746 974"
    underline-thickness="50"
    underline-position="-150"
    unicode-range="U+000D-FB04"
  />
<missing-glyph horiz-adv-x="584" 
d="M365 604q-13 -49 -43.5 -82t-66 -64.5t-67.5 -69.5t-48 -97q-7 -25 -7 -50v-14.5t2 -13.5l112 -29q0 51 15.5 84.5t39.5 59t53.5 46.5t58.5 46.5t54 60t39 87.5q18 66 18 112q0 57 -32 90.5t-111 55.5q-47 12 -82 12q-38 0 -64.5 -14t-46.5 -41t-36.5 -68t-33.5 -95
l123 -51q23 74 42 111.5t48 37.5q24 0 35 -14t11 -32q0 -13 -3.5 -29.5t-9.5 -38.5zM228 75l-135 37l-39 -145l135 -35zM30 974h528v-1200h-528v1200z" />
    <glyph glyph-name="copyright" unicode="&#x28;C&#x29;" horiz-adv-x="776" 
d="M393 756q176 0 264.5 -95t88.5 -290t-92.5 -290t-260.5 -95q-175 0 -269 95t-94 290q0 193 93 289t270 96zM393 708q-59 0 -113.5 -18.5t-96.5 -58.5t-67 -104.5t-25 -155.5q0 -92 25 -155.5t67 -103.5t96.5 -58t113.5 -18q58 0 111 18t93 58t63.5 104t23.5 155
t-23.5 155t-63 104.5t-92.5 59t-112 18.5zM387 536q-26 0 -48.5 -9.5t-39.5 -29.5t-27 -52t-10 -77t9.5 -77t26.5 -52t39.5 -29t49.5 -9q22 0 42 5t36 17t26 32t11 50l55 -4q-9 -145 -170 -145q-183 0 -183 212q0 106 48 159.5t135 53.5q81 0 124 -32t46 -112l-55 -7
q-1 34 -10.5 54.5t-25.5 32t-36.5 15.5t-42.5 4z" />
    <glyph glyph-name="registered" unicode="&#x28;R&#x29;" horiz-adv-x="503" 
d="M302 412l-43 100h-40v-100h-43v234h85q41 0 59 -16t18 -48q0 -8 -2.5 -17t-8 -18t-13 -16t-17.5 -10l54 -109h-49zM267 548q17 0 24 9.5t7 23.5q0 17 -9.5 23.5t-26.5 6.5h-43v-63h48zM255 755q218 0 218 -228q0 -119 -56.5 -174t-161.5 -55q-109 0 -167 57t-58 172
q0 112 58 170t167 58zM255 723q-38 0 -72.5 -10.5t-60.5 -34t-42 -61t-16 -90.5t16 -90.5t42.5 -61.5t61 -35t71.5 -11q36 0 69.5 11t59 35t40.5 61.5t15 90.5q0 52 -15 89.5t-40 61t-58.5 34.5t-70.5 11z" />
    <glyph glyph-name="uni2117" unicode="&#x28;P&#x29;" horiz-adv-x="776" 
d="M393 756q176 0 264.5 -95t88.5 -290t-92.5 -290t-260.5 -95q-175 0 -269 95t-94 290q0 193 93 289t270 96zM393 708q-59 0 -113.5 -18.5t-96.5 -58.5t-67 -104.5t-25 -155.5q0 -92 25 -155.5t67 -103.5t96.5 -58t113.5 -18q58 0 111 18t93 58t63.5 104t23.5 155
t-23.5 155t-63 104.5t-92.5 59t-112 18.5zM376 587q51 0 83.5 -7.5t51.5 -21.5t26.5 -35t7.5 -48q0 -65 -37 -101.5t-115 -36.5h-72v-173h-57v417q32 2 59.5 4t52.5 2zM398 539q-17 0 -37 -1.5t-40 -3.5v-152h78q44 0 66 22.5t22 64.5q0 35 -20 52.5t-69 17.5z" />
    <glyph glyph-name="ff" unicode="ff" horiz-adv-x="474" 
d="M462 476h-106v-476h-93v476h-132v-476h-94v476h-43l8 67h35v76q0 54 7 89.5t22 56t39 29t59 8.5q34 0 55 -9.5t32 -22.5l-17 -67q-21 26 -52 26q-15 0 -24.5 -3.5t-15.5 -16t-8.5 -36t-2.5 -63.5v-67h132v76q0 54 7 89.5t22 56t39 29t59 8.5q34 0 55 -9.5t32 -22.5
l-18 -67q-21 26 -51 26q-15 0 -25 -3.5t-16 -16t-8.5 -36t-2.5 -63.5v-67h114z" />
    <glyph glyph-name="fi" unicode="fi" horiz-adv-x="421" 
d="M381 0h-94v476h-156v-476h-94v476h-43q2 17 4 33.5t4 33.5h35v76q0 54 6.5 89.5t21 56t37.5 29t55 8.5t54.5 -9.5t32.5 -22.5l-1 -67q-9 11 -24.5 17.5t-33.5 6.5q-19 0 -30 -7t-16 -21.5t-6.5 -36.5t-1.5 -52v-67h250v-543zM381 654h-94v130h94v-130z" />
    <glyph glyph-name="fl" unicode="fl" horiz-adv-x="421" 
d="M286 0v695q-14 9 -29.5 14.5t-30 8.5t-26 4.5t-15.5 1.5q-17 0 -27.5 -4.5t-16.5 -17.5t-8 -35t-2 -57v-67h98l-8 -67h-90v-476h-94v476h-43l8 67h35v76q0 54 7 89.5t24.5 56t46.5 29t73 8.5q19 0 43.5 -7t41.5 -16q26 8 52.5 12.5t54.5 7.5v-799h-94z" />
    <glyph glyph-name="ffi" unicode="ffi" horiz-adv-x="646" 
d="M131 543h132v76q0 54 6.5 89.5t21 56t37 29t54.5 8.5t54.5 -9.5t32.5 -22.5l-1 -67q-10 9 -26 15.5t-39 6.5q-14 0 -23 -3.5t-14 -15.5t-7.5 -35t-2.5 -61v-67h250v-543h-93v476h-157v-476h-93v476h-132v-476h-94v476h-43l8 67h35v76q0 54 7 89.5t22 56t39 29t59 8.5
q34 0 55 -9.5t32 -22.5l-17 -67q-20 23 -58 23q-13 0 -21.5 -4t-14 -16t-7.5 -35t-2 -61v-67zM606 654h-93v130h93v-130z" />
    <glyph glyph-name="ffl" unicode="ffl" horiz-adv-x="663" 
d="M131 543h132v76q0 54 7 89.5t24.5 56t46 29t72.5 8.5q19 0 43.5 -7t42.5 -16q26 8 53 12.5t53 7.5v-799h-94v698q-16 11 -40 21t-50 10q-20 0 -32.5 -4t-19.5 -16.5t-10 -36t-3 -62.5v-67h98l-7 -67h-91v-476h-93v476h-132v-476h-94v476h-43l8 67h35v76q0 54 7 89.5
t22 56t39 29t59 8.5q34 0 55 -9.5t32 -22.5l-17 -67q-20 23 -58 23q-13 0 -21.5 -4t-14 -16t-7.5 -35t-2 -61v-67z" />
    <glyph glyph-name=".notdef" horiz-adv-x="584" 
d="M365 604q-13 -49 -43.5 -82t-66 -64.5t-67.5 -69.5t-48 -97q-7 -25 -7 -50v-14.5t2 -13.5l112 -29q0 51 15.5 84.5t39.5 59t53.5 46.5t58.5 46.5t54 60t39 87.5q18 66 18 112q0 57 -32 90.5t-111 55.5q-47 12 -82 12q-38 0 -64.5 -14t-46.5 -41t-36.5 -68t-33.5 -95
l123 -51q23 74 42 111.5t48 37.5q24 0 35 -14t11 -32q0 -13 -3.5 -29.5t-9.5 -38.5zM228 75l-135 37l-39 -145l135 -35zM30 974h528v-1200h-528v1200z" />
    <glyph glyph-name=".null" horiz-adv-x="0" 
 />
    <glyph glyph-name=".null" horiz-adv-x="0" 
 />
    <glyph glyph-name="nonmarkingreturn" unicode="&#xd;" horiz-adv-x="472" 
 />
    <glyph glyph-name="space" unicode=" " horiz-adv-x="212" 
 />
    <glyph glyph-name="exclam" unicode="!" horiz-adv-x="197" 
d="M157 782l-19 -549h-80l-19 549h118zM144 0h-93v130h93v-130z" />
    <glyph glyph-name="quotedbl" unicode="&#x22;" horiz-adv-x="256" 
d="M164 778h81l-8 -292h-63zM11 778h81l-10 -292h-61z" />
    <glyph glyph-name="numbersign" unicode="#" horiz-adv-x="490" 
d="M465 721l-53 -182h61v-64h-79l-47 -170h86v-65h-104l-53 -193l-75 19l51 174h-98l-54 -193l-74 19q13 44 25.5 87t24.5 87h-61v65h78l47 170h-84v64h104l56 202l73 -20l-51 -182h96l56 202zM171 305h96l47 170h-94z" />
    <glyph glyph-name="dollar" unicode="$" horiz-adv-x="363" 
d="M149 0v85q-62 7 -94 46.5t-32 122.5l81 12q0 -23 2.5 -42.5t9.5 -34t20.5 -23t35.5 -8.5q48 0 63 21t15 58q0 23 -5.5 39.5t-16.5 29t-26.5 22t-36.5 19.5q-30 14 -53 29.5t-38.5 35t-24 44.5t-8.5 58q0 54 22.5 90t85.5 43v98h58v-96q31 -3 52 -10.5t34 -21.5
t20.5 -36.5t12.5 -54.5l-74 -14q-5 33 -18 48t-46 15q-26 0 -42.5 -11.5t-16.5 -46.5q0 -34 15.5 -56t53.5 -40q30 -15 55 -29t43 -33t27.5 -46t9.5 -67q0 -70 -30 -110.5t-96 -48.5v-87h-58z" />
    <glyph glyph-name="percent" unicode="%" horiz-adv-x="619" 
d="M149 766q43 0 67 -14.5t35.5 -41.5t14 -65t2.5 -85q0 -44 -2.5 -81t-14 -65t-35.5 -43.5t-67 -15.5q-42 0 -66 15.5t-36 43.5t-14.5 65t-2.5 81q0 47 2.5 85t14.5 65t36 41.5t66 14.5zM116 0l321 756h67l-320 -756h-68zM149 705q-19 0 -29.5 -8t-16 -25t-6.5 -45t-1 -67
t1 -66.5t6.5 -45.5t16 -26t29.5 -8t29.5 8t15.5 26t6 45.5t1 66.5t-1 67t-6 45t-15.5 25t-29.5 8zM470 400q43 0 67 -14.5t35.5 -41t14 -64.5t2.5 -85q0 -44 -2.5 -81.5t-14 -65t-35.5 -43t-67 -15.5q-42 0 -66 15.5t-36 43t-14.5 65t-2.5 81.5q0 47 2.5 85t14.5 64.5t36 41
t66 14.5zM470 340q-19 0 -29.5 -8t-16 -25t-6.5 -45t-1 -67t1 -66.5t6.5 -45.5t16 -26t29.5 -8t29.5 8t15.5 26t6 45.5t1 66.5t-1 67t-6 45t-15.5 25t-29.5 8z" />
    <glyph glyph-name="ampersand" unicode="&#x26;" horiz-adv-x="519" 
d="M124 631q0 22 3.5 44.5t15.5 41t35.5 30t63.5 11.5q68 0 91.5 -31.5t23.5 -94.5q0 -39 -8.5 -70t-23 -56.5t-33.5 -46t-39 -38.5q31 -56 62.5 -104.5t64.5 -93.5q17 44 23.5 92t9.5 93l81 -15q-8 -60 -20.5 -123t-35.5 -120q17 -19 40 -42.5t40 -41.5l-61 -73
q-15 16 -35 37.5t-34 38.5q-31 -38 -71.5 -61t-97.5 -23q-56 0 -93 16t-59.5 41.5t-32 56t-9.5 60.5q0 51 10.5 92.5t30 75t47 60.5t60.5 51q-26 49 -37.5 99t-11.5 94zM215 64q42 0 72 20t52 53q-39 53 -73.5 110.5t-64.5 116.5q-38 -32 -60.5 -75.5t-22.5 -106.5
q0 -24 4.5 -45.5t16 -37.5t30 -25.5t46.5 -9.5zM194 623q0 -29 8 -64t22 -70q27 26 46 60t19 75q0 29 -9.5 47.5t-37.5 18.5q-30 0 -39 -21t-9 -46z" />
    <glyph glyph-name="quotesingle" unicode="'" horiz-adv-x="103" 
d="M11 778h81l-9 -292h-62z" />
    <glyph glyph-name="parenleft" unicode="(" horiz-adv-x="315" 
d="M260 739q-37 -26 -65 -69t-47 -98t-29 -119t-10 -133q0 -76 11.5 -142t33.5 -119t55 -90t76 -55l-36 -54q-61 22 -102.5 66.5t-67.5 104.5t-37.5 133.5t-11.5 155.5q0 74 9 144.5t30.5 132.5t57 112t89.5 82z" />
    <glyph glyph-name="parenright" unicode=")" horiz-adv-x="315" 
d="M56 -90q37 27 65 69.5t47 96.5t28.5 118t9.5 134q0 76 -11.5 142.5t-34 119t-55.5 89.5t-75 55l36 55q61 -23 103 -67t68 -105t37 -134.5t11 -154.5q0 -73 -9 -143.5t-30.5 -132.5t-57 -112t-89.5 -82z" />
    <glyph glyph-name="asterisk" unicode="*" horiz-adv-x="488" 
d="M291 745l-15 -162l158 65l24 -76l-169 -40l111 -122l-76 -53l-79 138l-88 -136l-71 53l112 119l-168 43l27 75l156 -65l-17 161h95z" />
    <glyph glyph-name="plus" unicode="+" horiz-adv-x="530" 
d="M233 340h-203v63h203v204h63v-204h204v-63h-204v-204h-63v204z" />
    <glyph glyph-name="comma" unicode="," horiz-adv-x="163" 
d="M134 25q0 -70 -74 -147l-27 21q52 52 52 107h-46v124h95v-105z" />
    <glyph glyph-name="hyphen" unicode="-" horiz-adv-x="219" 
d="M11 262l8 63h190l-8 -63h-190z" />
    <glyph glyph-name="period" unicode="." horiz-adv-x="153" 
d="M124 0h-94v130h94v-130z" />
    <glyph glyph-name="slash" unicode="/" horiz-adv-x="250" 
d="M187 745h59l-183 -745h-59z" />
    <glyph glyph-name="zero" unicode="0" horiz-adv-x="439" 
d="M219 758q70 0 108.5 -18.5t56.5 -63t21.5 -118.5t3.5 -186q0 -111 -3.5 -185.5t-21.5 -118.5t-56.5 -62.5t-108.5 -18.5t-108.5 18.5t-56.5 63t-21 118.5t-3 185t3 185.5t21 119t56.5 63t108.5 18.5zM219 680q-33 0 -51 -14t-26.5 -49.5t-10.5 -95t-2 -149.5t1.5 -149.5
t10.5 -94t27 -48.5t51 -14q32 0 50 14t26.5 48.5t10.5 94t2 149.5t-2 149.5t-10.5 95t-26.5 49.5t-50 14z" />
    <glyph glyph-name="one" unicode="1" horiz-adv-x="248" 
d="M9 646q55 11 87.5 38t58.5 74h63v-758h-99v624q-10 -17 -35.5 -33t-62.5 -19z" />
    <glyph glyph-name="two" unicode="2" horiz-adv-x="399" 
d="M194 680q-24 0 -38 -9t-22 -30t-11.5 -55.5t-6.5 -85.5l-91 13q3 61 7.5 107t22 76.5t51.5 46t96 15.5q47 0 77.5 -11.5t48.5 -37t25 -65t7 -96.5q0 -69 -20 -136t-51.5 -128.5t-69.5 -114.5t-74 -93h230l-5 -76h-340v74q46 43 89 97.5t75.5 116t52 128t19.5 132.5
q0 74 -16.5 103t-55.5 29z" />
    <glyph glyph-name="three" unicode="3" horiz-adv-x="405" 
d="M197 758q57 0 89 -15t48.5 -42t20.5 -64.5t4 -83.5q0 -27 -4 -53.5t-12 -49.5t-20.5 -39t-29.5 -22q25 -8 42 -24t27 -38.5t14 -51t4 -60.5q0 -47 -4.5 -88t-22.5 -72.5t-55 -49.5t-102 -18q-50 0 -82.5 10.5t-52 31t-28.5 49.5t-12 65l81 27q4 -26 9 -45t15 -32.5
t26 -20t42 -6.5q31 0 49 9.5t27.5 29t12.5 49t3 68.5q0 33 -3.5 57t-13.5 39t-28.5 22.5t-47.5 7.5h-53l8 76h45q22 0 36 6t22 19.5t11 36.5t3 58q0 36 -2 62t-8.5 42.5t-20 24t-37.5 7.5q-21 0 -34.5 -5.5t-22 -18t-13 -33.5t-7.5 -51l-84 8q3 50 10.5 84t25 55t47.5 30
t78 9z" />
    <glyph glyph-name="four" unicode="4" horiz-adv-x="381" 
d="M13 217l205 528h117v-514h42l-8 -79h-34v-152h-97v152h-225v65zM238 231v358l-140 -358h140z" />
    <glyph glyph-name="five" unicode="5" horiz-adv-x="403" 
d="M161 661l-13 -209q34 25 106 25q39 0 63.5 -14t38 -42.5t18.5 -70.5t5 -99q0 -63 -4.5 -112t-23.5 -82.5t-56.5 -51.5t-104.5 -18q-36 0 -63 7.5t-48 22.5t-37 38t-31 54l67 49q17 -44 40.5 -68t64.5 -24q34 0 53 11t28 33t10.5 55.5t1.5 78.5q0 40 -2 69t-9.5 47
t-22.5 26.5t-40 8.5q-54 0 -88 -33l-65 33l22 350h282l-9 -84h-183z" />
    <glyph glyph-name="six" unicode="6" horiz-adv-x="433" 
d="M219 680q-32 0 -51.5 -15t-29.5 -48t-13.5 -86t-3.5 -129q23 40 63 60t80 20q50 0 78.5 -18t43 -49.5t18 -75.5t3.5 -95q0 -58 -5 -105.5t-24 -81t-56.5 -52t-102.5 -18.5q-69 0 -107 29.5t-56.5 79.5t-22 115t-3.5 137q0 121 9 200t30.5 125.5t57 65.5t87.5 19
q46 0 78 -8t52.5 -26t30 -45.5t11.5 -66.5l-77 -30q-2 24 -6.5 42t-14 30.5t-26.5 19t-43 6.5zM225 402q-32 0 -58 -24.5t-38 -68.5q1 -66 3 -112t11 -75t26 -42.5t48 -13.5t49 12.5t27 35t11 53.5t2 68q0 44 -2 75.5t-10 52t-24.5 30t-44.5 9.5z" />
    <glyph glyph-name="seven" unicode="7" horiz-adv-x="333" 
d="M25 745h296v-61q-36 -46 -62 -122.5t-44 -169.5t-29 -194.5t-15 -197.5h-116q4 96 18.5 193t36.5 184.5t52 162t66 127.5h-211z" />
    <glyph glyph-name="eight" unicode="8" horiz-adv-x="426" 
d="M288 401q57 -19 86 -65.5t29 -140.5q0 -59 -10.5 -99t-33.5 -64t-59 -34.5t-86 -10.5t-86 10.5t-59 34.5t-33.5 64t-10.5 99q0 47 5 81.5t18 59t35.5 40t57.5 24.5q-27 7 -44.5 20t-27 34t-13.5 52t-4 75q0 42 8 75t27 55.5t50 34.5t77 12q89 0 125.5 -45.5t36.5 -131.5
q0 -44 -4.5 -75t-15 -52t-27.5 -33.5t-41 -19.5zM209 362q-25 -8 -42 -19.5t-27.5 -30t-15 -46.5t-4.5 -68q0 -71 18.5 -104.5t71.5 -33.5t71 33.5t18 104.5q0 39 -4.5 66t-15 45.5t-28 30.5t-42.5 22zM218 436q19 9 32.5 18.5t22.5 25t13 40.5t4 64q0 59 -16 82.5t-55 23.5
t-56.5 -23.5t-17.5 -82.5q0 -39 4 -63.5t12.5 -40t22.5 -25.5t34 -19z" />
    <glyph glyph-name="nine" unicode="9" horiz-adv-x="433" 
d="M209 63q32 0 51.5 18t31 54.5t15.5 91.5t4 128q-22 -30 -60 -51t-83 -21q-50 0 -78 18t-42.5 49.5t-18 74.5t-3.5 94q0 59 5 103.5t24 74.5t56.5 45t102.5 15q69 0 107 -26.5t56.5 -72t22 -107.5t3.5 -134q0 -121 -10 -203.5t-32 -133t-58.5 -72.5t-88.5 -22
q-93 0 -136 41t-47 120l76 29q2 -24 8.5 -44.5t18.5 -35.5t30.5 -24t44.5 -9zM209 362q31 0 55.5 24t38.5 59q0 67 -2 111.5t-10.5 71.5t-26 38t-48.5 11t-49 -9.5t-27 -28.5t-11.5 -48t-2.5 -69q0 -41 2 -71.5t10 -50t25 -29t46 -9.5z" />
    <glyph glyph-name="colon" unicode=":" horiz-adv-x="153" 
d="M124 0h-94v130h94v-130zM124 413h-94v130h94v-130z" />
    <glyph glyph-name="semicolon" unicode=";" horiz-adv-x="160" 
d="M128 413h-94v130h94v-130zM128 25q0 -70 -74 -147l-27 21q52 52 52 107h-46v124h95v-105z" />
    <glyph glyph-name="less" unicode="&#x3c;" horiz-adv-x="393" 
d="M363 120l-333 215v52l333 221v-76l-272 -170l272 -168v-74z" />
    <glyph glyph-name="equal" unicode="=" horiz-adv-x="553" 
d="M30 246v63h493v-63h-493zM30 454v63h493v-63h-493z" />
    <glyph glyph-name="greater" unicode="&#x3e;" horiz-adv-x="393" 
d="M30 194l271 168l-271 170v76l333 -221v-52l-333 -215v74z" />
    <glyph glyph-name="question" unicode="?" horiz-adv-x="367" 
d="M252 612q0 28 -3 48.5t-10.5 33.5t-21.5 19t-36 6q-26 0 -41 -10t-23.5 -30.5t-12 -52t-5.5 -73.5l-88 12q3 61 9.5 105t25 72.5t52 42t89.5 13.5q50 0 81.5 -10.5t49.5 -32.5t25 -57.5t7 -84.5q0 -42 -11.5 -74t-28.5 -58t-37 -48.5t-37 -45.5t-28.5 -48.5t-11.5 -58.5
q0 -29 9 -54h-79q-13 26 -13 63q0 54 21.5 93t48 74.5t48 71.5t21.5 84zM212 0h-94v130h94v-130z" />
    <glyph glyph-name="at" unicode="@" horiz-adv-x="590" 
d="M291 484q23 0 36 -14t21 -31q1 30 6 51h35v-264q0 -26 10 -46.5t30 -20.5q14 0 25 6t19 27t12 62.5t4 112.5q0 94 -4.5 150.5t-23.5 87.5t-58.5 41t-109.5 10q-46 0 -78 -4.5t-54 -18.5t-34.5 -39.5t-19 -67t-8.5 -101t-2 -141.5q0 -87 4.5 -148t15 -101t29 -62.5
t46.5 -33.5t66.5 -13.5t89.5 -2.5q73 0 116 23t65 57l33 -58q-27 -45 -81 -70t-135 -25q-67 0 -116.5 5.5t-84.5 21.5t-57.5 45.5t-35 78t-17.5 118t-5 165.5q0 92 2.5 161t11 118t25.5 80.5t46.5 50t72.5 25.5t105 7q94 0 146.5 -14t78 -54t31 -112t5.5 -187
q0 -83 -9.5 -133.5t-25.5 -78.5t-37.5 -37t-46.5 -9q-34 0 -50 19.5t-21 43.5q-18 -63 -72 -63q-35 0 -54.5 8t-29 29.5t-12 59.5t-2.5 97q0 58 2.5 95t12 58t29 28.5t53.5 7.5zM291 428q-15 0 -23.5 -5t-12.5 -19t-5 -39.5t-1 -66.5q0 -42 1 -68.5t5.5 -42.5t13.5 -22
t26 -6q20 0 31.5 20.5t11.5 55.5v130q-8 30 -17.5 46.5t-29.5 16.5z" />
    <glyph glyph-name="A" unicode="A" horiz-adv-x="421" 
d="M273 179h-139l-31 -179h-94l148 745h105l150 -745h-109zM141 258h123l-60 326z" />
    <glyph glyph-name="B" unicode="B" horiz-adv-x="438" 
d="M40 745h157q69 0 108.5 -13t59.5 -37t25 -58t5 -76q0 -60 -22 -103.5t-75 -56.5q67 -14 93.5 -59.5t26.5 -113.5q0 -48 -3.5 -89.5t-21 -72.5t-55 -48.5t-106.5 -17.5h-192v745zM134 73h72q42 0 65.5 10t35 29t13.5 47t2 65q0 32 -3.5 57t-14.5 41.5t-31 25t-52 8.5h-87
v-283zM134 427h75q30 0 47.5 9.5t27 26t12 39.5t2.5 51q0 33 -4 55t-14.5 35.5t-29.5 19.5t-50 6h-66v-242z" />
    <glyph glyph-name="C" unicode="C" horiz-adv-x="444" 
d="M228 680q-33 0 -52 -17.5t-28 -54.5t-11.5 -95.5t-2.5 -140.5q0 -83 2.5 -141t11.5 -95t28 -53.5t52 -16.5t51 10t26.5 32.5t10.5 59.5t4 92l99 -8q-5 -68 -10.5 -117.5t-24 -82.5t-54.5 -49t-102 -16q-72 0 -112 24.5t-59 72.5t-23 120t-4 168q0 95 4 167t23 121
t59 73.5t112 24.5q67 0 104.5 -13.5t56 -44.5t23.5 -80.5t7 -121.5l-97 -13q-2 62 -4.5 100t-11.5 59t-27 28.5t-51 7.5z" />
    <glyph glyph-name="D" unicode="D" 
d="M207 745q81 0 127.5 -23.5t70 -70t29.5 -116.5t6 -163q0 -102 -5.5 -173t-28 -115t-68 -64t-124.5 -20h-174v745h167zM138 669v-587h78q42 0 66.5 16t37 51t16 90t3.5 133q0 82 -3 138.5t-15.5 91.5t-39 51t-72.5 16h-71z" />
    <glyph glyph-name="E" unicode="E" horiz-adv-x="353" 
d="M326 745v-78h-187v-235h157l-7 -79h-150v-277h192v-76h-291v745h286z" />
    <glyph glyph-name="F" unicode="F" horiz-adv-x="356" 
d="M347 745v-78h-207v-247h168l-8 -79h-160v-341h-100v745h307z" />
    <glyph glyph-name="G" unicode="G" horiz-adv-x="447" 
d="M414 382v-382h-73l-9 71q-7 -17 -17.5 -32t-26.5 -26.5t-39 -18.5t-54 -7q-60 0 -93.5 27.5t-49 78.5t-19 123t-3.5 161q0 87 4 157.5t23 120t59 76.5t113 27q65 0 101 -13t54 -41t22.5 -72.5t7.5 -106.5l-82 -20q-2 47 -5 80t-13 54t-28.5 30.5t-52.5 9.5
q-37 0 -57.5 -19t-30.5 -56.5t-12.5 -94.5t-2.5 -132q0 -70 2 -127.5t11 -98t26.5 -63t48.5 -22.5q44 0 71 28t32 73v137h-93l13 78h173z" />
    <glyph glyph-name="H" unicode="H" horiz-adv-x="451" 
d="M140 745v-321h172v321h99v-745h-99v346h-172v-346h-100v745h100z" />
    <glyph glyph-name="I" unicode="I" horiz-adv-x="179" 
d="M139 745v-745h-99v745h99z" />
    <glyph glyph-name="J" unicode="J" horiz-adv-x="368" 
d="M328 180q0 -45 -4.5 -81t-21 -61t-49.5 -38t-89 -13q-36 0 -61.5 7t-43 21.5t-29.5 35.5t-21 49l77 30q8 -32 23.5 -48t52.5 -16q23 0 36.5 6t20.5 19.5t9 33.5t2 49v571h98v-565z" />
    <glyph glyph-name="K" unicode="K" horiz-adv-x="430" 
d="M213 390l-74 -129v-261h-99v745h99v-331l150 331h112l-131 -244l150 -501h-115z" />
    <glyph glyph-name="L" unicode="L" horiz-adv-x="306" 
d="M140 745v-669h153v-76h-253v745h100z" />
    <glyph glyph-name="M" unicode="M" horiz-adv-x="561" 
d="M112 543v-543h-76v745h118l129 -591l131 591h111v-745h-82v543l-115 -543h-96z" />
    <glyph glyph-name="N" unicode="N" horiz-adv-x="445" 
d="M38 745h103l181 -516v516h85v-745h-102l-182 515v-515h-85v745z" />
    <glyph glyph-name="O" unicode="O" 
d="M238 758q74 0 114.5 -24t60 -72t23.5 -120.5t4 -169.5q0 -98 -4 -170t-23.5 -120t-60 -71.5t-114.5 -23.5t-115.5 24.5t-62 72.5t-25.5 120t-5 168q0 95 5 167t25.5 121t62 73.5t115.5 24.5zM238 680q-36 0 -56.5 -17.5t-31 -54.5t-13.5 -95.5t-3 -140.5q0 -83 3 -141
t13.5 -95t31 -53.5t56.5 -16.5q35 0 54.5 16.5t29 53.5t11.5 95t2 141q0 82 -2 140.5t-11.5 96t-29 54.5t-54.5 17z" />
    <glyph glyph-name="P" unicode="P" horiz-adv-x="415" 
d="M169 745q71 0 116 -13t70.5 -38.5t35 -63.5t9.5 -87q0 -55 -9.5 -99t-34 -74.5t-67.5 -47t-110 -16.5h-41v-306h-98v745h129zM138 664v-280h53q36 0 58 10t34 29.5t15.5 48t3.5 64.5q0 31 -3.5 55t-14.5 40.5t-32.5 24.5t-58.5 8h-55z" />
    <glyph glyph-name="Q" unicode="Q" 
d="M238 758q74 0 114.5 -24t60 -72t23.5 -120.5t4 -169.5q0 -85 -3 -151t-16 -113t-41 -75.5t-77 -38.5q17 -32 39 -60.5t48 -49.5l-70 -53q-32 28 -59 71t-40 86q-68 5 -106.5 31t-57 73.5t-23 117t-4.5 162.5q0 95 5 167t25.5 121t62 73.5t115.5 24.5zM238 680
q-36 0 -56.5 -17.5t-31 -54.5t-13.5 -95.5t-3 -140.5q0 -83 3 -141t13.5 -95t31 -53.5t56.5 -16.5q35 0 54.5 16.5t29 53.5t11.5 95t2 141q0 82 -2 140.5t-11.5 96t-29 54.5t-54.5 17z" />
    <glyph glyph-name="R" unicode="R" horiz-adv-x="403" 
d="M284 0l-71 334h-74v-334h-99v745h158q62 0 99.5 -11t57.5 -34.5t26.5 -59.5t6.5 -86q0 -42 -3.5 -77t-13 -61.5t-26 -44.5t-42.5 -25l91 -346h-110zM211 410q28 0 44.5 7t25.5 23.5t11.5 43.5t2.5 66q0 34 -2.5 57.5t-11.5 37.5t-27.5 20.5t-49.5 6.5h-65v-262h72z" />
    <glyph glyph-name="S" unicode="S" horiz-adv-x="399" 
d="M205 758q50 0 80.5 -13t47 -35.5t22 -53.5t7.5 -66l-79 -11q-2 24 -4.5 43t-10.5 32t-22.5 19.5t-39.5 6.5q-26 0 -41.5 -7t-24 -19.5t-11.5 -31t-3 -41.5q0 -29 6.5 -50.5t18.5 -38t28.5 -29t36.5 -24.5q30 -17 58.5 -35.5t51 -46t36 -68t13.5 -102.5q0 -96 -41.5 -148
t-143.5 -52q-50 0 -81.5 12.5t-50.5 40t-28 71.5t-13 107l85 17q2 -47 7 -79.5t14.5 -52.5t25.5 -28.5t41 -8.5q27 0 43.5 8t25.5 23.5t12.5 39t3.5 54.5q0 36 -7 62t-20.5 45t-33.5 34.5t-45 30.5q-27 16 -51.5 35t-44 45t-31 60t-11.5 81q0 40 8.5 72t28.5 54.5t53.5 35
t83.5 12.5z" />
    <glyph glyph-name="T" unicode="T" horiz-adv-x="361" 
d="M356 745v-78h-127v-667h-99v667h-124v78h350z" />
    <glyph glyph-name="U" unicode="U" horiz-adv-x="434" 
d="M137 745v-449q0 -61 2 -104.5t10 -71.5t24 -41t44 -13q27 0 43 13t24 41t10 71.5t2 104.5v449h100v-530q0 -54 -6 -96t-24.5 -71.5t-54 -45t-94.5 -15.5q-57 0 -92.5 15t-54.5 44t-25.5 71.5t-6.5 97.5v530h99z" />
    <glyph glyph-name="V" unicode="V" horiz-adv-x="421" 
d="M216 171l102 574h94l-150 -745h-104l-149 745h107z" />
    <glyph glyph-name="W" unicode="W" horiz-adv-x="648" 
d="M276 745h102l83 -593l74 593h104l-125 -745h-97l-90 599l-87 -599h-107l-124 745h106l76 -595z" />
    <glyph glyph-name="X" unicode="X" horiz-adv-x="428" 
d="M9 0l153 389l-140 356h101l94 -249l89 249h92l-137 -347l158 -398h-103l-108 288l-102 -288h-97z" />
    <glyph glyph-name="Y" unicode="Y" horiz-adv-x="382" 
d="M195 417l94 328h83l-131 -431v-314h-98v314l-134 431h97z" />
    <glyph glyph-name="Z" unicode="Z" horiz-adv-x="352" 
d="M46 745h278v-64l-209 -604h220v-77h-321v66l212 600h-180v79z" />
    <glyph glyph-name="bracketleft" unicode="[" horiz-adv-x="295" 
d="M30 822h235v-61h-158v-851h158v-63h-235v975z" />
    <glyph glyph-name="backslash" unicode="\" horiz-adv-x="250" 
d="M246 0h-59l-183 745h59z" />
    <glyph glyph-name="bracketright" unicode="]" horiz-adv-x="295" 
d="M265 -153h-235v61h156v852h-156v62h235v-975z" />
    <glyph glyph-name="asciicircum" unicode="^" horiz-adv-x="486" 
d="M242 631l-133 -298h-79l189 411h46l192 -411h-85z" />
    <glyph glyph-name="underscore" unicode="_" horiz-adv-x="429" 
d="M426 -124h-422v55h422v-55z" />
    <glyph glyph-name="grave" unicode="`" horiz-adv-x="272" 
d="M59 770l162 -127l-33 -37l-179 106z" />
    <glyph glyph-name="a" unicode="a" horiz-adv-x="395" 
d="M191 552q52 0 84 -12t50 -36.5t24 -61t6 -84.5v-253q0 -29 11.5 -36t25.5 -7l-8 -62q-51 0 -74 17.5t-28 42.5q-19 -33 -49 -52t-86 -19q-36 0 -59 12.5t-37 33.5t-19.5 47.5t-5.5 54.5q0 53 8 89.5t33 59t72 32t125 9.5v41q0 28 -2 48.5t-9.5 34t-21.5 19.5t-38 6
q-41 0 -54.5 -22t-17.5 -73l-79 7q3 42 9.5 73t22 51.5t43.5 30t74 9.5zM264 272q-48 -3 -77 -8.5t-44 -19t-20 -37.5t-5 -64q0 -41 11 -62.5t42 -21.5q39 0 61.5 25t31.5 72v116z" />
    <glyph glyph-name="b" unicode="b" horiz-adv-x="413" 
d="M136 481q7 12 18.5 25t27.5 23t37.5 16.5t49.5 6.5q42 0 65 -19.5t34.5 -56t13.5 -89.5t2 -120q0 -55 -2.5 -105t-17 -88.5t-44 -61.5t-83.5 -23t-82.5 21.5t-49.5 59.5q0 -4 -1 -13.5t-3 -20t-4.5 -21t-6.5 -15.5h-50v788l96 17v-324zM227 477q-35 0 -59 -21t-37 -53
v-275q11 -30 33.5 -47t48.5 -17q27 0 42.5 11t23.5 35t10 63.5t2 96.5q0 59 -1.5 99t-7.5 64t-19 34t-36 10z" />
    <glyph glyph-name="c" unicode="c" horiz-adv-x="387" 
d="M210 552q42 0 69.5 -9.5t44.5 -30.5t25 -55t10 -83l-77 -12q-4 62 -17.5 88.5t-54.5 26.5q-32 0 -49.5 -14t-26 -41t-10 -65t-1.5 -86t1.5 -86.5t9 -65.5t23.5 -41.5t45 -14.5q25 0 40.5 9t24 25.5t12.5 40.5t6 54l77 -8q-2 -36 -7.5 -71t-22 -62.5t-47.5 -44.5t-83 -17
q-63 0 -98 22.5t-51.5 61.5t-19.5 90t-3 108q0 58 3 109t20.5 89t54 60.5t102.5 22.5z" />
    <glyph glyph-name="d" unicode="d" horiz-adv-x="427" 
d="M387 0h-79q-2 6 -3 16t-2 21.5t-1.5 22t-0.5 17.5q-16 -38 -45.5 -62.5t-80.5 -24.5q-52 0 -81 21t-43.5 57t-17.5 84t-3 103q0 67 3.5 122t18.5 94t45.5 60t84.5 21q44 0 72 -20t40 -46v302l93 17v-805zM204 476q-28 0 -43.5 -12.5t-23.5 -38.5t-10 -67.5t-2 -99.5
q0 -50 1.5 -86.5t8 -60.5t20.5 -36t39 -12q24 0 40.5 8t28 21.5t19 32t12.5 39.5v249q-13 29 -37 46t-53 17z" />
    <glyph glyph-name="e" unicode="e" horiz-adv-x="411" 
d="M207 552q64 0 99.5 -22t52.5 -57t20 -78t3 -85v-42h-263q0 -41 2.5 -78t12 -65.5t29 -45t54.5 -16.5q49 0 66.5 29t22.5 79l76 -11q-5 -42 -16 -74t-30.5 -53.5t-50 -32.5t-74.5 -11q-65 0 -101 23.5t-54 62.5t-22 89.5t-4 104.5q0 58 4 110t21.5 90t53 60.5t98.5 22.5z
M208 485q-30 0 -46.5 -12t-25.5 -33t-11.5 -50.5t-3.5 -65.5h173v40q0 25 -3.5 47t-12.5 38.5t-26 26t-44 9.5z" />
    <glyph glyph-name="f" unicode="f" horiz-adv-x="249" 
d="M237 476h-106v-476h-94v476h-43l8 67h35v76q0 54 7 89.5t22 56t39 29t59 8.5q34 0 55 -9.5t32 -22.5l-17 -67q-21 26 -52 26q-14 0 -24 -4t-16 -16.5t-8.5 -36t-2.5 -62.5v-67h114z" />
    <glyph glyph-name="g" unicode="g" horiz-adv-x="376" 
d="M343 378q0 -35 -7 -67t-23 -56.5t-41.5 -39t-61.5 -14.5h-18t-17 1q-14 -8 -20 -18.5t-6 -30.5q0 -17 11 -32t36 -15h53q24 0 46 -8.5t39.5 -26.5t27.5 -46.5t10 -68.5q0 -95 -38 -135t-120 -40h-84q-64 0 -95 35t-31 89q0 67 27 96.5t84 38.5q-15 6 -26.5 13t-19 17.5
t-11 25.5t-3.5 37q0 39 16 61.5t46 30.5q-42 21 -60 60t-18 93q0 31 6 60.5t23 52.5t47 37.5t77 14.5q17 0 31.5 -2.5t26.5 -6.5q10 32 23.5 59t30.5 43l56 -30q-20 -14 -38.5 -40t-30.5 -53q30 -23 41 -60t11 -75zM87 -66q0 -27 6.5 -43.5t20.5 -26t36 -13t52 -3.5
q54 0 75.5 20.5t21.5 70.5q0 48 -22 63.5t-70 15.5q-30 0 -52.5 -3t-37.5 -12t-22.5 -25.5t-7.5 -43.5zM192 261q36 0 49.5 26t13.5 89q0 62 -13 85.5t-50 23.5t-49.5 -24.5t-12.5 -84.5q0 -61 12.5 -88t49.5 -27z" />
    <glyph glyph-name="h" unicode="h" horiz-adv-x="431" 
d="M297 0v412q0 30 -16 47t-47 17q-35 0 -56.5 -20t-43.5 -65v-391h-94v788l94 17v-333q23 35 54.5 57.5t83.5 22.5q36 0 59 -12t36.5 -32.5t18.5 -46.5t5 -54v-407h-94z" />
    <glyph glyph-name="i" unicode="i" horiz-adv-x="174" 
d="M134 0h-94v543h94v-543zM134 654h-94v130h94v-130z" />
    <glyph glyph-name="j" unicode="j" horiz-adv-x="187" 
d="M147 654h-94v130h94v-130zM53 543h94v-579q0 -54 -7 -89.5t-22 -56t-39 -29t-59 -8.5q-34 0 -55 9.5t-32 22.5l18 67q10 -14 24.5 -19t28.5 -5q13 0 22.5 4.5t15.5 18.5t8.5 40.5t2.5 70.5v553z" />
    <glyph glyph-name="k" unicode="k" horiz-adv-x="394" 
d="M207 298l-73 -98v-200h-94v788l94 17v-495l132 233h110l-109 -156l122 -387h-112z" />
    <glyph glyph-name="l" unicode="l" horiz-adv-x="174" 
d="M40 0v788l94 17v-805h-94z" />
    <glyph glyph-name="m" unicode="m" horiz-adv-x="638" 
d="M368 0h-93v412q0 64 -60 64q-23 0 -41.5 -18.5t-39.5 -66.5v-391h-94v543h79q2 -18 5 -38t4 -41q23 43 51 65.5t70 22.5q51 0 76.5 -24.5t34.5 -59.5q23 41 50 62.5t69 21.5q36 0 59 -12t36.5 -32.5t18.5 -46.5t5 -54v-407h-93v397q0 38 -12.5 58.5t-47.5 20.5
q-23 0 -40 -17.5t-37 -62.5v-396z" />
    <glyph glyph-name="n" unicode="n" horiz-adv-x="431" 
d="M119 543q1 -6 2.5 -16t3 -22t2.5 -23t1 -18q24 42 58 65t86 23q36 0 59 -12t36.5 -32.5t18.5 -46.5t5 -54v-407h-94v412q0 30 -16 47t-47 17q-35 0 -56.5 -20t-43.5 -65v-391h-94v543h79v0z" />
    <glyph glyph-name="o" unicode="o" horiz-adv-x="429" 
d="M214 552q69 0 106.5 -23t55 -62t20.5 -90.5t3 -107.5t-3 -106.5t-20.5 -89t-55 -61.5t-106.5 -23t-106 23t-54.5 61.5t-20.5 89t-3 106.5t3 107.5t20.5 90.5t55 62t105.5 23zM214 476q-33 0 -51 -12t-27 -37.5t-10.5 -64.5t-1.5 -93t1.5 -92.5t10.5 -64t27 -37.5t51 -12
t51 12t27 37.5t10.5 64t1.5 92.5t-1.5 93t-10.5 64.5t-27 37.5t-51 12z" />
    <glyph glyph-name="p" unicode="p" horiz-adv-x="423" 
d="M40 543h79q4 -39 6 -78q17 38 46.5 63t80.5 25q52 0 81 -21t43 -57.5t17.5 -84.5t3.5 -102q0 -68 -4 -123t-19 -93.5t-45.5 -59.5t-83.5 -21q-18 0 -36 5.5t-33 15t-26.5 21.5t-17.5 24v-276h-92v762zM223 67q27 0 43 12.5t23.5 39t9.5 67.5t2 98q0 50 -1.5 86.5t-8 60.5
t-20.5 36t-39 12q-24 0 -40.5 -8t-28 -21.5t-19 -32.5t-12.5 -40v-248q9 -22 32.5 -42t58.5 -20z" />
    <glyph glyph-name="q" unicode="q" horiz-adv-x="412" 
d="M276 60q-7 -12 -18.5 -24.5t-28 -22t-38 -16t-48.5 -6.5q-42 0 -65 19.5t-34 56t-13 89t-2 119.5q0 55 2.5 105.5t16.5 89t43.5 61.5t82.5 23q55 0 83.5 -22.5t49.5 -59.5q0 14 3.5 33.5t10.5 37.5h51v-762h-96v279zM185 65q35 0 59.5 20.5t37.5 52.5v276q-14 32 -36 48
t-47 16q-27 0 -42.5 -11t-23.5 -35t-10.5 -63.5t-2.5 -96.5q0 -59 1.5 -98.5t8 -63.5t19.5 -34.5t36 -10.5z" />
    <glyph glyph-name="r" unicode="r" horiz-adv-x="280" 
d="M114 543q8 -43 8 -89q20 42 60 65.5t93 23.5l-8 -94q-35 0 -58 -7t-38.5 -20.5t-24 -34.5t-12.5 -48v-339h-94v543h74z" />
    <glyph glyph-name="s" unicode="s" horiz-adv-x="357" 
d="M181 552q42 0 67.5 -6t40.5 -20.5t22 -38.5t13 -59l-74 -14q-5 34 -15.5 48.5t-44.5 14.5q-29 0 -46 -12.5t-17 -45.5q0 -30 11.5 -51t43.5 -39q33 -18 60.5 -32.5t47 -33t30.5 -45.5t11 -70q0 -78 -37.5 -119.5t-122.5 -41.5q-76 0 -113 39t-37 130l81 12q0 -22 3 -41.5
t10.5 -34.5t20.5 -23.5t34 -8.5q48 0 63 21t15 58q0 45 -22.5 68t-62.5 42q-30 14 -53 29t-38.5 34t-24 44t-8.5 60q0 31 6.5 56t23 43t43.5 27.5t69 9.5z" />
    <glyph glyph-name="t" unicode="t" horiz-adv-x="274" 
d="M134 543h136l-8 -67h-128v-337q0 -31 14 -48.5t30 -17.5q22 0 34.5 11.5t23.5 34.5l39 -58q-13 -26 -43 -46t-78 -20q-54 0 -84 31.5t-30 100.5v349h-41l7 67h34v137l94 16v-153z" />
    <glyph glyph-name="u" unicode="u" horiz-adv-x="412" 
d="M304 0q-2 5 -3.5 15.5t-3 22t-2 22.5t-0.5 18q-21 -42 -52.5 -64.5t-83.5 -22.5q-36 0 -59 12t-36.5 32.5t-18.5 46.5t-5 54v407h93v-413q0 -30 15 -47t45 -17q35 0 56 20t39 65v392h95v-543h-79v0z" />
    <glyph glyph-name="v" unicode="v" horiz-adv-x="371" 
d="M194 147l80 396h88l-133 -543h-80l-140 543h104z" />
    <glyph glyph-name="w" unicode="w" horiz-adv-x="525" 
d="M226 543h84l62 -389l58 389h86l-108 -543h-74l-66 399l-68 -399h-86l-105 543h97l57 -389z" />
    <glyph glyph-name="x" unicode="x" horiz-adv-x="342" 
d="M91 0h-82l117 290l-102 253h85l64 -162l59 162h78l-98 -246l121 -297h-88l-80 205z" />
    <glyph glyph-name="y" unicode="y" horiz-adv-x="370" 
d="M196 148l76 395h89l-141 -583q-9 -38 -20 -70.5t-28.5 -56.5t-43.5 -38t-64 -14q-21 0 -37.5 3.5t-32.5 13.5l40 79q7 -5 14.5 -8t15.5 -3q21 0 44.5 30t40.5 108l-141 539h104z" />
    <glyph glyph-name="z" unicode="z" horiz-adv-x="324" 
d="M41 543h251v-58l-184 -416h204v-69h-299v58l180 415h-152v70z" />
    <glyph glyph-name="braceleft" unicode="{" horiz-adv-x="339" 
d="M258 761q-18 0 -32.5 -5t-24 -19.5t-14.5 -41.5t-5 -71v-146q0 -56 -21.5 -86.5t-65.5 -45.5q48 -21 67.5 -54t19.5 -91v-150q0 -48 5 -76.5t15 -42.5t24.5 -18t32.5 -4h50v-63h-56q-26 0 -51.5 7t-46 25t-33.5 48t-13 77v168q0 75 -13.5 106t-48.5 31h-37v72h37
q38 0 50 31.5t12 96.5v174q0 40 12.5 67t32.5 43t45 22.5t50 6.5h60v-61h-51z" />
    <glyph glyph-name="bar" unicode="|" horiz-adv-x="130" 
d="M30 819h71v-1003h-71v1003z" />
    <glyph glyph-name="braceright" unicode="}" horiz-adv-x="341" 
d="M30 761v61h60q25 0 50 -6.5t45 -22.5t32.5 -43t12.5 -67v-176q0 -63 12 -94.5t49 -31.5h38v-72h-38q-33 0 -47 -30t-14 -102v-173q0 -47 -13 -77t-33.5 -48t-45.5 -25t-50 -7h-58v63h49q19 0 33 4t24 18t15 42.5t5 76.5v150q0 57 21.5 91t65.5 52q-42 15 -64.5 49.5
t-22.5 91.5v139q0 46 -5 73t-14.5 41t-23.5 18.5t-33 4.5h-50z" />
    <glyph glyph-name="asciitilde" unicode="~" horiz-adv-x="562" 
d="M30 328q20 26 52 46t77 20q35 0 66 -9t59.5 -20.5t55.5 -20.5t55 -9t61 21.5t76 70.5v-92q-29 -32 -62 -48.5t-79 -16.5q-31 0 -60 9t-57 20.5t-56 20.5t-56 9q-26 0 -59.5 -23t-72.5 -71v93z" />
    <glyph glyph-name="exclamdown" unicode="&#xa1;" horiz-adv-x="176" 
d="M29 -219l19 549h80l19 -549h-118zM41 563h94v-130h-94v130z" />
    <glyph glyph-name="cent" unicode="&#xa2;" horiz-adv-x="385" 
d="M175 0v100q-53 5 -82.5 29t-43.5 62t-16.5 87t-2.5 103q0 53 2.5 101t16.5 85.5t43 61.5t83 30v86h65v-86q32 -3 54 -14.5t35.5 -32.5t20.5 -53t9 -76l-77 -11q-2 33 -6.5 54t-13 34t-22.5 18t-35 5q-29 0 -45.5 -14t-24.5 -40t-10 -63.5t-2 -84.5q0 -48 1.5 -86.5
t9 -65.5t23.5 -41.5t45 -14.5q25 0 40.5 8.5t24 25t12.5 41t6 55.5l77 -10q-2 -32 -6.5 -64t-17.5 -58t-36 -45t-62 -25v-101h-65z" />
    <glyph glyph-name="sterling" unicode="&#xa3;" horiz-adv-x="469" 
d="M264 306q7 -21 9.5 -45.5t2.5 -47.5q0 -35 -7.5 -72t-22.5 -69q17 -14 33.5 -21t34.5 -7q44 0 64.5 27.5t22.5 71.5l51 -14q3 -17 3 -32q0 -29 -11 -52t-28.5 -39.5t-40 -25t-44.5 -8.5q-38 0 -65 17.5t-53 40.5q-20 -22 -48 -34.5t-67 -12.5q-27 0 -43.5 6.5t-26 18
t-12.5 26t-3 31.5q0 15 4 29t14 25.5t26 18.5t40 7q28 0 51.5 -12.5t43.5 -27.5q6 17 8.5 37t2.5 39q0 35 -6.5 65.5t-14.5 59.5h-108l8 64h80q-19 52 -36.5 104.5t-17.5 115.5q0 45 7.5 78t25.5 54t47 31.5t72 10.5q54 0 83.5 -13t44.5 -40.5t19.5 -69.5t7.5 -100l-80 -11
q-2 34 -4.5 63.5t-10 51t-21.5 33.5t-39 12q-42 0 -55 -23.5t-13 -77.5q0 -31 5.5 -59t14.5 -55t19 -53t19 -52h139l-8 -64h-117zM105 100q-21 0 -31 -10.5t-10 -25.5q0 -13 9.5 -24.5t29.5 -11.5q25 0 41.5 10t28.5 25q-14 12 -32 24.5t-36 12.5z" />
    <glyph glyph-name="currency" unicode="&#xa4;" horiz-adv-x="607" 
d="M501 115q-18 18 -35.5 36.5t-34.5 36.5q-27 -20 -59.5 -31.5t-67.5 -11.5q-36 0 -68.5 11.5t-58.5 31.5l-71 -73l-45 47l72 70q-43 54 -43 128q0 73 43 128q-19 17 -36.5 34t-34.5 34l45 47l69 -72q53 44 128 44q36 0 68.5 -11.5t59.5 -32.5l68 72l45 -47l-70 -68
q21 -27 32.5 -59.5t11.5 -68.5q0 -37 -12 -69.5t-32 -58.5l71 -70zM476 360q0 36 -13.5 67t-37 54.5t-54.5 37t-67 13.5t-67 -13.5t-54 -37t-36.5 -54.5t-13.5 -67t13.5 -67t36.5 -54t54 -36.5t67 -13.5t67 13.5t54.5 36.5t37 54t13.5 67z" />
    <glyph glyph-name="yen" unicode="&#xa5;" horiz-adv-x="322" 
d="M124 314v84l-112 347h76l79 -258l77 258h69l-112 -347v-84h76v-58h-76v-93h76v-58h-76v-105h-77v105h-75v58h75v93h-75v58h75z" />
    <glyph glyph-name="brokenbar" unicode="&#xa6;" horiz-adv-x="130" 
d="M30 222h71v-406h-71v406zM101 458h-71v361h71v-361z" />
    <glyph glyph-name="section" unicode="&#xa7;" horiz-adv-x="361" 
d="M186 782q42 0 67.5 -6t40.5 -20.5t22 -38.5t12 -59l-74 -14q-5 34 -15.5 48.5t-44.5 14.5q-29 0 -45.5 -12.5t-16.5 -45.5q0 -30 11.5 -52.5t51.5 -42.5q32 -16 58 -28t44 -29.5t28 -45t10 -73.5q0 -54 -18 -91t-59 -55q17 -11 30.5 -23t23.5 -28t15 -37t5 -50
q0 -77 -37.5 -119t-122.5 -42q-76 0 -113 39t-37 130l81 12q0 -20 3.5 -39t11 -34.5t20.5 -25t33 -9.5q48 0 63 21.5t15 58.5q0 45 -22.5 70.5t-60.5 42.5q-30 13 -53 27.5t-39.5 33.5t-25 43.5t-8.5 58.5q0 26 5 48.5t16.5 39.5t31 28t48.5 16q-47 25 -72.5 59t-25.5 93
q0 31 6.5 56t23 43t44 27.5t69.5 9.5zM190 444q-35 0 -51 -17t-16 -62q0 -42 12 -64t52 -22q41 0 54.5 21t13.5 63q0 48 -16 64.5t-49 16.5z" />
    <glyph glyph-name="dieresis" unicode="&#xa8;" horiz-adv-x="305" 
d="M112 613h-82v120h82v-120zM275 613h-82v120h82v-120z" />
    <glyph glyph-name="ordfeminine" unicode="&#xaa;" horiz-adv-x="279" 
d="M137 752q34 0 55 -8t32.5 -23.5t15.5 -39t4 -54.5v-158q0 -11 6.5 -14t16.5 -3l-6 -51h-8q-28 0 -41.5 10t-17.5 29q-9 -18 -28.5 -30.5t-54.5 -12.5q-24 0 -39.5 8.5t-24.5 22.5t-13 31.5t-4 35.5q0 34 4 57t19 37t44.5 20.5t79.5 6.5v18q0 33 -7.5 45t-33.5 12
q-23 0 -30.5 -14t-9.5 -44l-56 5q2 30 6 51.5t14.5 35.5t28.5 20.5t48 6.5zM126 453q20 0 31.5 12t19.5 40v64q-26 -1 -42.5 -4.5t-25.5 -11.5t-12.5 -21.5t-3.5 -33.5q0 -21 8.5 -33t24.5 -12z" />
    <glyph glyph-name="guillemotleft" unicode="&#xab;" horiz-adv-x="331" 
d="M298 113l-153 178l153 180l24 -26l-110 -154l110 -153zM164 113l-153 178l153 180l24 -26l-110 -154l110 -153z" />
    <glyph glyph-name="logicalnot" unicode="&#xac;" horiz-adv-x="480" 
d="M366 0v397h-331v82h409v-479h-78z" />
    <glyph glyph-name="macron" unicode="&#xaf;" horiz-adv-x="410" 
d="M381 690v-65h-352v65h352z" />
    <glyph glyph-name="degree" unicode="&#xb0;" horiz-adv-x="257" 
d="M129 756q53 0 76 -30.5t23 -75.5q0 -44 -23.5 -75t-75.5 -31q-53 0 -76 31t-23 75q0 45 23 75.5t76 30.5zM129 726q-38 0 -53 -22t-15 -54q0 -31 15 -53.5t53 -22.5q36 0 52 22.5t16 53.5q0 32 -16 54t-52 22z" />
    <glyph glyph-name="plusminus" unicode="&#xb1;" horiz-adv-x="530" 
d="M30 1zM233 340h-203v63h203v204h63v-204h204v-63h-204v-204h-63v204zM30 1v63h470v-63h-470z" />
    <glyph glyph-name="twosuperior" unicode="&#xb2;" horiz-adv-x="287" 
d="M140 816q-26 0 -34 -24.5t-12 -87.5l-64 9q2 40 5 71t14 51t33.5 30.5t62.5 10.5q30 0 50 -7.5t32 -24t16.5 -42t4.5 -62.5q0 -41 -12 -80t-30.5 -75t-40.5 -66.5t-43 -54.5h135l-3 -60h-221v56q27 25 53.5 57.5t47.5 68.5t34 75.5t13 78.5q0 42 -10 59t-31 17z" />
    <glyph glyph-name="threesuperior" unicode="&#xb3;" horiz-adv-x="293" 
d="M145 876q37 0 58 -9.5t31.5 -27t13.5 -41.5t3 -53q0 -45 -11 -65t-33 -32q30 -8 43 -32t13 -74q0 -30 -2.5 -56.5t-14.5 -46.5t-36 -31.5t-66 -11.5q-33 0 -53.5 7.5t-33.5 21.5t-18.5 34t-8.5 46l61 19q5 -33 15 -50t37 -17q34 0 43.5 22t9.5 67q0 35 -9.5 52t-44.5 17
h-40l6 59h34q24 0 34.5 13.5t10.5 51.5q0 46 -10 61.5t-32 15.5t-30 -14.5t-12 -55.5l-64 7q2 34 7.5 58t17 38t31 20.5t50.5 6.5z" />
    <glyph glyph-name="acute" unicode="&#xb4;" horiz-adv-x="271" 
d="M262 697l-178 -105l-34 38l162 126z" />
    <glyph glyph-name="mu" unicode="&#xb5;" horiz-adv-x="375" 
d="M40 -219v762h73v-436q5 -28 23.5 -38.5t44.5 -10.5q33 0 50.5 26t28.5 64v395h75v-543h-56q-5 15 -6.5 26.5t-1.5 31.5q-15 -32 -38 -50t-54 -18q-26 0 -39.5 7t-26.5 19v-235h-73z" />
    <glyph glyph-name="paragraph" unicode="&#xb6;" horiz-adv-x="467" 
d="M169 524q-71 5 -103 35t-32 73q0 23 9 43.5t28.5 36t48.5 24.5t70 9h265l-46 -88v-800h-75v665h-89v-520q0 -44 -12 -72.5t-32.5 -45.5t-47 -24t-56.5 -7q-28 0 -50 8t-34 18l15 55q13 -9 29 -14.5t34 -5.5t32 3.5t24.5 14t16 28.5t5.5 48v516z" />
    <glyph glyph-name="periodcentered" unicode="&#xb7;" horiz-adv-x="153" 
d="M124 307h-94v130h94v-130z" />
    <glyph glyph-name="cedilla" unicode="&#xb8;" horiz-adv-x="231" 
d="M91 5h35l-3 -48q44 0 61 -21.5t17 -56.5t-28 -54.5t-69 -19.5q-38 0 -74 16l12 30q27 -11 50 -11q24 0 41 12t17 37q0 26 -17.5 35.5t-53.5 11.5z" />
    <glyph glyph-name="onesuperior" unicode="&#xb9;" horiz-adv-x="199" 
d="M30 811q34 5 54.5 21.5t36.5 43.5h48v-472h-72v371q-11 -9 -26 -15.5t-33 -6.5z" />
    <glyph glyph-name="ordmasculine" unicode="&#xba;" horiz-adv-x="298" 
d="M149 752q44 0 68 -14.5t35.5 -39t13.5 -56.5t2 -67t-2 -67.5t-13.5 -57t-35.5 -39t-68 -14.5t-68.5 14.5t-35.5 39t-13 57t-2 67.5t2 67t13 56.5t35.5 39t68.5 14.5zM149 694q-36 0 -44 -29t-8 -90q0 -62 8 -91t44 -29q35 0 43 29t8 91q0 61 -8 90t-43 29z" />
    <glyph glyph-name="guillemotright" unicode="&#xbb;" horiz-adv-x="331" 
d="M11 138l110 153l-110 154l24 26l153 -180l-153 -178zM145 138l110 153l-110 154l24 26l153 -180l-153 -178z" />
    <glyph glyph-name="onequarter" unicode="&#xbc;" horiz-adv-x="714" 
d="M43 0zM145 -100l286 882h70l-288 -882h-68zM43 728q34 5 54.5 21.5t36.5 43.5h48v-472h-72v371q-11 -9 -26 -15.5t-33 -6.5zM423 57l128 324h81v-312h26l-6 -61h-20v-91h-72v91h-137v49zM560 69v181l-73 -181h73z" />
    <glyph glyph-name="onehalf" unicode="&#xbd;" horiz-adv-x="716" 
d="M43 0zM145 -100l286 882h70l-288 -882h-68zM43 728q34 5 54.5 21.5t36.5 43.5h48v-472h-72v371q-11 -9 -26 -15.5t-33 -6.5zM561 329q-26 0 -34 -24.5t-12 -87.5l-64 9q2 40 5 71t14 51t33.5 30.5t62.5 10.5q30 0 50 -7.5t32 -24t16.5 -42t4.5 -62.5q0 -41 -12 -80
t-30.5 -75t-40.5 -66.5t-43 -54.5h135l-3 -60h-221v56q27 25 53.5 57.5t47.5 68.5t34 75.5t13 78.5q0 42 -10 59t-31 17z" />
    <glyph glyph-name="threequarters" unicode="&#xbe;" horiz-adv-x="714" 
d="M43 0zM186 -100l286 882h70l-288 -882h-68zM423 57l128 324h81v-312h26l-6 -61h-20v-91h-72v91h-137v49zM560 69v181l-73 -181h73zM158 793q37 0 58 -9.5t31.5 -27t13.5 -41.5t3 -53q0 -45 -11 -65t-33 -32q30 -8 43 -32t13 -74q0 -30 -2.5 -56.5t-14.5 -46.5t-36 -31.5
t-66 -11.5q-33 0 -53.5 7.5t-33.5 21.5t-18.5 34t-8.5 46l61 19q5 -33 15 -50t37 -17q34 0 43.5 22t9.5 67q0 35 -9.5 52t-44.5 17h-40l6 59h34q24 0 34.5 13.5t10.5 51.5q0 46 -10 61.5t-32 15.5t-30 -14.5t-12 -55.5l-64 7q2 34 7.5 58t17 38t31 20.5t50.5 6.5z" />
    <glyph glyph-name="questiondown" unicode="&#xbf;" horiz-adv-x="375" 
d="M115 -33q0 -56 13 -82t57 -26q25 0 40.5 10t24 31t12 52t5.5 73l89 -12q-3 -61 -9.5 -104.5t-25 -72t-52 -42t-89.5 -13.5q-50 0 -81.5 10.5t-49.5 32.5t-25 57t-7 85q0 42 11.5 74t28.5 58t37 48t37 45t28.5 48.5t11.5 58.5q0 28 -9 55h78q8 -14 11 -30t3 -34
q0 -36 -10.5 -65t-25.5 -54t-33.5 -48t-33.5 -47t-25.5 -50t-10.5 -58zM152 579h94v-130h-94v130z" />
    <glyph glyph-name="Agrave" unicode="&#xc0;" horiz-adv-x="421" 
d="M9 0zM273 179h-139l-31 -179h-94l148 745h105l150 -745h-109zM141 258h123l-60 326zM130 972l162 -127l-33 -37l-179 106z" />
    <glyph glyph-name="Aacute" unicode="&#xc1;" horiz-adv-x="421" 
d="M9 0zM273 179h-139l-31 -179h-94l148 745h105l150 -745h-109zM141 258h123l-60 326zM338 899l-178 -105l-34 38l162 126z" />
    <glyph glyph-name="Acircumflex" unicode="&#xc2;" horiz-adv-x="421" 
d="M9 0zM273 179h-139l-31 -179h-94l148 745h105l150 -745h-109zM141 258h123l-60 326zM101 846l76 127h64l78 -128l-52 -25l-59 104l-59 -106z" />
    <glyph glyph-name="Atilde" unicode="&#xc3;" horiz-adv-x="421" 
d="M9 0zM273 179h-139l-31 -179h-94l148 745h105l150 -745h-109zM141 258h123l-60 326zM48 859q11 45 34.5 64t53.5 19q20 0 39 -7.5t36 -16.5t32.5 -16.5t29.5 -7.5q28 0 38 55l59 -19q-12 -48 -37 -68.5t-55 -20.5q-20 0 -38 7t-35.5 15.5t-33 15.5t-29.5 7
q-12 0 -21.5 -14t-17.5 -40z" />
    <glyph glyph-name="Adieresis" unicode="&#xc4;" horiz-adv-x="421" 
d="M9 0zM273 179h-139l-31 -179h-94l148 745h105l150 -745h-109zM141 258h123l-60 326zM169 815h-82v120h82v-120zM332 815h-82v120h82v-120z" />
    <glyph glyph-name="Aring" unicode="&#xc5;" horiz-adv-x="421" 
d="M9 0zM273 179h-139l-31 -179h-94l148 745h105l150 -745h-109zM141 258h123l-60 326zM309 845q0 -86 -99 -86q-100 0 -100 86q0 85 100 85q99 0 99 -85zM270 845q0 51 -60 51t-60 -51t60 -51t60 51z" />
    <glyph glyph-name="AE" unicode="&#xc6;" horiz-adv-x="538" 
d="M143 189l-27 -189h-102l131 745h375v-78h-174v-235h143l-7 -79h-136v-277h175v-76h-268v189h-110zM154 269h99v398h-42z" />
    <glyph glyph-name="Ccedilla" unicode="&#xc7;" horiz-adv-x="444" 
d="M196 -11q-60 5 -93.5 31.5t-49.5 74.5t-19.5 117.5t-3.5 159.5q0 95 4 167t23 121t59 73.5t112 24.5q67 0 104.5 -13.5t56 -44.5t23.5 -80.5t7 -121.5l-97 -13q-2 62 -4.5 100t-11.5 59t-27 28.5t-51 7.5t-52 -17.5t-28 -54.5t-11.5 -95.5t-2.5 -140.5q0 -83 2.5 -141
t11.5 -95t28 -53.5t52 -16.5t51 10t26.5 32.5t10.5 59.5t4 92l99 -8q-5 -67 -10.5 -116.5t-23.5 -82.5t-54 -49t-100 -17l-2 -30q45 0 61.5 -21.5t16.5 -56.5t-28 -54.5t-69 -19.5q-17 0 -36 4t-38 12l13 30q27 -11 50 -11q24 0 41 12t17 37t-17 35t-54 12z" />
    <glyph glyph-name="Egrave" unicode="&#xc8;" horiz-adv-x="353" 
d="M40 0zM326 745v-78h-187v-235h157l-7 -79h-150v-277h192v-76h-291v745h286zM96 972l162 -127l-33 -37l-179 106z" />
    <glyph glyph-name="Eacute" unicode="&#xc9;" horiz-adv-x="353" 
d="M40 0zM326 745v-78h-187v-235h157l-7 -79h-150v-277h192v-76h-291v745h286zM304 899l-178 -105l-34 38l162 126z" />
    <glyph glyph-name="Ecircumflex" unicode="&#xca;" horiz-adv-x="353" 
d="M40 0zM326 745v-78h-187v-235h157l-7 -79h-150v-277h192v-76h-291v745h286zM67 846l76 127h64l78 -128l-52 -25l-59 104l-59 -106z" />
    <glyph glyph-name="Edieresis" unicode="&#xcb;" horiz-adv-x="353" 
d="M40 0zM326 745v-78h-187v-235h157l-7 -79h-150v-277h192v-76h-291v745h286zM135 815h-82v120h82v-120zM298 815h-82v120h82v-120z" />
    <glyph glyph-name="Igrave" unicode="&#xcc;" horiz-adv-x="179" 
d="M0 0zM139 745v-745h-99v745h99zM12 972l162 -127l-33 -37l-179 106z" />
    <glyph glyph-name="Iacute" unicode="&#xcd;" horiz-adv-x="179" 
d="M8 0zM139 745v-745h-99v745h99zM220 899l-178 -105l-34 38l162 126z" />
    <glyph glyph-name="Icircumflex" unicode="&#xce;" horiz-adv-x="179" 
d="M0 0zM139 745v-745h-99v745h99zM-17 846l76 127h64l78 -128l-52 -25l-59 104l-59 -106z" />
    <glyph glyph-name="Idieresis" unicode="&#xcf;" horiz-adv-x="179" 
d="M0 0zM139 745v-745h-99v745h99zM51 815h-82v120h82v-120zM214 815h-82v120h82v-120z" />
    <glyph glyph-name="Eth" unicode="&#xd0;" 
d="M4 433h36v312h167q81 0 127.5 -23.5t70 -70t29.5 -116.5t6 -163q0 -102 -5.5 -173t-28 -115t-68 -64t-124.5 -20h-174v354h-36v79zM138 669v-236h121l-8 -79h-113v-272h78q42 0 66.5 16t37 51t16 90t3.5 133q0 82 -3 138.5t-15.5 91.5t-39 51t-72.5 16h-71z" />
    <glyph glyph-name="Ntilde" unicode="&#xd1;" horiz-adv-x="445" 
d="M38 0zM38 745h103l181 -516v516h85v-745h-102l-182 515v-515h-85v745zM61 859q11 45 34.5 64t53.5 19q20 0 39 -7.5t36 -16.5t32.5 -16.5t29.5 -7.5q28 0 38 55l59 -19q-12 -48 -37 -68.5t-55 -20.5q-20 0 -38 7t-35.5 15.5t-33 15.5t-29.5 7q-12 0 -21.5 -14t-17.5 -40z
" />
    <glyph glyph-name="Ograve" unicode="&#xd2;" 
d="M30 0zM238 758q74 0 114.5 -24t60 -72t23.5 -120.5t4 -169.5q0 -98 -4 -170t-23.5 -120t-60 -71.5t-114.5 -23.5t-115.5 24.5t-62 72.5t-25.5 120t-5 168q0 95 5 167t25.5 121t62 73.5t115.5 24.5zM238 680q-36 0 -56.5 -17.5t-31 -54.5t-13.5 -95.5t-3 -140.5
q0 -83 3 -141t13.5 -95t31 -53.5t56.5 -16.5q35 0 54.5 16.5t29 53.5t11.5 95t2 141q0 82 -2 140.5t-11.5 96t-29 54.5t-54.5 17zM155 972l162 -127l-33 -37l-179 106z" />
    <glyph glyph-name="Oacute" unicode="&#xd3;" 
d="M30 0zM238 758q74 0 114.5 -24t60 -72t23.5 -120.5t4 -169.5q0 -98 -4 -170t-23.5 -120t-60 -71.5t-114.5 -23.5t-115.5 24.5t-62 72.5t-25.5 120t-5 168q0 95 5 167t25.5 121t62 73.5t115.5 24.5zM238 680q-36 0 -56.5 -17.5t-31 -54.5t-13.5 -95.5t-3 -140.5
q0 -83 3 -141t13.5 -95t31 -53.5t56.5 -16.5q35 0 54.5 16.5t29 53.5t11.5 95t2 141q0 82 -2 140.5t-11.5 96t-29 54.5t-54.5 17zM363 899l-178 -105l-34 38l162 126z" />
    <glyph glyph-name="Ocircumflex" unicode="&#xd4;" 
d="M30 0zM238 758q74 0 114.5 -24t60 -72t23.5 -120.5t4 -169.5q0 -98 -4 -170t-23.5 -120t-60 -71.5t-114.5 -23.5t-115.5 24.5t-62 72.5t-25.5 120t-5 168q0 95 5 167t25.5 121t62 73.5t115.5 24.5zM238 680q-36 0 -56.5 -17.5t-31 -54.5t-13.5 -95.5t-3 -140.5
q0 -83 3 -141t13.5 -95t31 -53.5t56.5 -16.5q35 0 54.5 16.5t29 53.5t11.5 95t2 141q0 82 -2 140.5t-11.5 96t-29 54.5t-54.5 17zM126 846l76 127h64l78 -128l-52 -25l-59 104l-59 -106z" />
    <glyph glyph-name="Otilde" unicode="&#xd5;" 
d="M30 0zM238 758q74 0 114.5 -24t60 -72t23.5 -120.5t4 -169.5q0 -98 -4 -170t-23.5 -120t-60 -71.5t-114.5 -23.5t-115.5 24.5t-62 72.5t-25.5 120t-5 168q0 95 5 167t25.5 121t62 73.5t115.5 24.5zM238 680q-36 0 -56.5 -17.5t-31 -54.5t-13.5 -95.5t-3 -140.5
q0 -83 3 -141t13.5 -95t31 -53.5t56.5 -16.5q35 0 54.5 16.5t29 53.5t11.5 95t2 141q0 82 -2 140.5t-11.5 96t-29 54.5t-54.5 17zM73 859q11 45 34.5 64t53.5 19q20 0 39 -7.5t36 -16.5t32.5 -16.5t29.5 -7.5q28 0 38 55l59 -19q-12 -48 -37 -68.5t-55 -20.5q-20 0 -38 7
t-35.5 15.5t-33 15.5t-29.5 7q-12 0 -21.5 -14t-17.5 -40z" />
    <glyph glyph-name="Odieresis" unicode="&#xd6;" 
d="M30 0zM238 758q74 0 114.5 -24t60 -72t23.5 -120.5t4 -169.5q0 -98 -4 -170t-23.5 -120t-60 -71.5t-114.5 -23.5t-115.5 24.5t-62 72.5t-25.5 120t-5 168q0 95 5 167t25.5 121t62 73.5t115.5 24.5zM238 680q-36 0 -56.5 -17.5t-31 -54.5t-13.5 -95.5t-3 -140.5
q0 -83 3 -141t13.5 -95t31 -53.5t56.5 -16.5q35 0 54.5 16.5t29 53.5t11.5 95t2 141q0 82 -2 140.5t-11.5 96t-29 54.5t-54.5 17zM194 815h-82v120h82v-120zM357 815h-82v120h82v-120z" />
    <glyph glyph-name="multiply" unicode="&#xd7;" horiz-adv-x="437" 
d="M174 371l-144 145l44 44l144 -145l145 145l44 -44l-144 -145l144 -144l-44 -45l-145 145l-144 -145l-44 45z" />
    <glyph glyph-name="Oslash" unicode="&#xd8;" 
d="M238 758q66 0 107 -21l15 41l47 -21l-19 -53q19 -23 29.5 -55t15.5 -73.5t6 -92.5t1 -111q0 -98 -4 -170t-23.5 -120t-60 -71.5t-114.5 -23.5q-64 0 -104 18l-16 -43l-46 19l19 54q-21 22 -33.5 54t-18.5 74t-7.5 94.5t-1.5 114.5q0 95 5 167t25.5 121t62 73.5
t115.5 24.5zM238 680q-36 0 -56.5 -17.5t-31 -54.5t-13.5 -95.5t-3 -140.5q0 -64 1.5 -113t6.5 -84l168 465q-22 40 -72 40zM335 372q0 54 -0.5 97.5t-3.5 77.5l-164 -449q23 -32 71 -32q35 0 54.5 16.5t29 53.5t11.5 95t2 141z" />
    <glyph glyph-name="Ugrave" unicode="&#xd9;" horiz-adv-x="434" 
d="M38 0zM137 745v-449q0 -61 2 -104.5t10 -71.5t24 -41t44 -13q27 0 43 13t24 41t10 71.5t2 104.5v449h100v-530q0 -54 -6 -96t-24.5 -71.5t-54 -45t-94.5 -15.5q-57 0 -92.5 15t-54.5 44t-25.5 71.5t-6.5 97.5v530h99zM137 972l162 -127l-33 -37l-179 106z" />
    <glyph glyph-name="Uacute" unicode="&#xda;" horiz-adv-x="434" 
d="M38 0zM137 745v-449q0 -61 2 -104.5t10 -71.5t24 -41t44 -13q27 0 43 13t24 41t10 71.5t2 104.5v449h100v-530q0 -54 -6 -96t-24.5 -71.5t-54 -45t-94.5 -15.5q-57 0 -92.5 15t-54.5 44t-25.5 71.5t-6.5 97.5v530h99zM345 899l-178 -105l-34 38l162 126z" />
    <glyph glyph-name="Ucircumflex" unicode="&#xdb;" horiz-adv-x="434" 
d="M38 0zM137 745v-449q0 -61 2 -104.5t10 -71.5t24 -41t44 -13q27 0 43 13t24 41t10 71.5t2 104.5v449h100v-530q0 -54 -6 -96t-24.5 -71.5t-54 -45t-94.5 -15.5q-57 0 -92.5 15t-54.5 44t-25.5 71.5t-6.5 97.5v530h99zM107 846l76 127h64l78 -128l-52 -25l-59 104
l-59 -106z" />
    <glyph glyph-name="Udieresis" unicode="&#xdc;" horiz-adv-x="434" 
d="M38 0zM137 745v-449q0 -61 2 -104.5t10 -71.5t24 -41t44 -13q27 0 43 13t24 41t10 71.5t2 104.5v449h100v-530q0 -54 -6 -96t-24.5 -71.5t-54 -45t-94.5 -15.5q-57 0 -92.5 15t-54.5 44t-25.5 71.5t-6.5 97.5v530h99zM176 815h-82v120h82v-120zM339 815h-82v120h82v-120z
" />
    <glyph glyph-name="Yacute" unicode="&#xdd;" horiz-adv-x="382" 
d="M9 0zM195 417l94 328h83l-131 -431v-314h-98v314l-134 431h97zM318 899l-178 -105l-34 38l162 126z" />
    <glyph glyph-name="Thorn" unicode="&#xde;" horiz-adv-x="415" 
d="M139 599h-2q80 0 131 -5.5t80.5 -26t40.5 -61t11 -109.5q0 -66 -10 -111t-35 -73t-68.5 -40t-110.5 -12h-37v-161h-99v745h99v-146zM138 518v-280h50q65 0 89.5 37.5t24.5 115.5q0 70 -24 98.5t-87 28.5h-53z" />
    <glyph glyph-name="germandbls" unicode="&#xdf;" horiz-adv-x="445" 
d="M207 805q60 0 96.5 -16t55.5 -43t25 -63.5t6 -77.5q0 -44 -5 -74.5t-15.5 -51t-28.5 -33t-43 -19.5q33 -5 56.5 -16t38.5 -33t21.5 -57t6.5 -89q0 -66 -4 -112.5t-25 -76t-65 -43t-124 -13.5v77q40 0 63.5 7t36 26.5t16 52.5t3.5 86q0 33 -3.5 59.5t-15 45.5t-32 29.5
t-53.5 11.5l-2 74q26 0 41.5 8.5t24 25t11 42t2.5 60.5q0 37 -3 63.5t-12 43t-26 24t-44 7.5q-24 0 -38.5 -8.5t-23 -30.5t-11.5 -60t-3 -97v-534h-94v594q0 56 8.5 96t28 65.5t51.5 37.5t79 12z" />
    <glyph glyph-name="agrave" unicode="&#xe0;" horiz-adv-x="395" 
d="M26 0zM191 552q52 0 84 -12t50 -36.5t24 -61t6 -84.5v-253q0 -29 11.5 -36t25.5 -7l-8 -62q-51 0 -74 17.5t-28 42.5q-19 -33 -49 -52t-86 -19q-36 0 -59 12.5t-37 33.5t-19.5 47.5t-5.5 54.5q0 53 8 89.5t33 59t72 32t125 9.5v41q0 28 -2 48.5t-9.5 34t-21.5 19.5t-38 6
q-41 0 -54.5 -22t-17.5 -73l-79 7q3 42 9.5 73t22 51.5t43.5 30t74 9.5zM264 272q-48 -3 -77 -8.5t-44 -19t-20 -37.5t-5 -64q0 -41 11 -62.5t42 -21.5q39 0 61.5 25t31.5 72v116zM117 770l162 -127l-33 -37l-179 106z" />
    <glyph glyph-name="aacute" unicode="&#xe1;" horiz-adv-x="395" 
d="M26 0zM191 552q52 0 84 -12t50 -36.5t24 -61t6 -84.5v-253q0 -29 11.5 -36t25.5 -7l-8 -62q-51 0 -74 17.5t-28 42.5q-19 -33 -49 -52t-86 -19q-36 0 -59 12.5t-37 33.5t-19.5 47.5t-5.5 54.5q0 53 8 89.5t33 59t72 32t125 9.5v41q0 28 -2 48.5t-9.5 34t-21.5 19.5t-38 6
q-41 0 -54.5 -22t-17.5 -73l-79 7q3 42 9.5 73t22 51.5t43.5 30t74 9.5zM264 272q-48 -3 -77 -8.5t-44 -19t-20 -37.5t-5 -64q0 -41 11 -62.5t42 -21.5q39 0 61.5 25t31.5 72v116zM326 697l-178 -105l-34 38l162 126z" />
    <glyph glyph-name="acircumflex" unicode="&#xe2;" horiz-adv-x="395" 
d="M26 0zM191 552q52 0 84 -12t50 -36.5t24 -61t6 -84.5v-253q0 -29 11.5 -36t25.5 -7l-8 -62q-51 0 -74 17.5t-28 42.5q-19 -33 -49 -52t-86 -19q-36 0 -59 12.5t-37 33.5t-19.5 47.5t-5.5 54.5q0 53 8 89.5t33 59t72 32t125 9.5v41q0 28 -2 48.5t-9.5 34t-21.5 19.5t-38 6
q-41 0 -54.5 -22t-17.5 -73l-79 7q3 42 9.5 73t22 51.5t43.5 30t74 9.5zM264 272q-48 -3 -77 -8.5t-44 -19t-20 -37.5t-5 -64q0 -41 11 -62.5t42 -21.5q39 0 61.5 25t31.5 72v116zM88 644l76 127h64l78 -128l-52 -25l-59 104l-59 -106z" />
    <glyph glyph-name="atilde" unicode="&#xe3;" horiz-adv-x="395" 
d="M26 0zM191 552q52 0 84 -12t50 -36.5t24 -61t6 -84.5v-253q0 -29 11.5 -36t25.5 -7l-8 -62q-51 0 -74 17.5t-28 42.5q-19 -33 -49 -52t-86 -19q-36 0 -59 12.5t-37 33.5t-19.5 47.5t-5.5 54.5q0 53 8 89.5t33 59t72 32t125 9.5v41q0 28 -2 48.5t-9.5 34t-21.5 19.5t-38 6
q-41 0 -54.5 -22t-17.5 -73l-79 7q3 42 9.5 73t22 51.5t43.5 30t74 9.5zM264 272q-48 -3 -77 -8.5t-44 -19t-20 -37.5t-5 -64q0 -41 11 -62.5t42 -21.5q39 0 61.5 25t31.5 72v116zM35 657q11 45 34.5 64t53.5 19q20 0 39 -7.5t36 -16.5t32.5 -16.5t29.5 -7.5q28 0 38 55
l59 -19q-12 -48 -37 -68.5t-55 -20.5q-20 0 -38 7t-35.5 15.5t-33 15.5t-29.5 7q-12 0 -21.5 -14t-17.5 -40z" />
    <glyph glyph-name="adieresis" unicode="&#xe4;" horiz-adv-x="395" 
d="M26 0zM191 552q52 0 84 -12t50 -36.5t24 -61t6 -84.5v-253q0 -29 11.5 -36t25.5 -7l-8 -62q-51 0 -74 17.5t-28 42.5q-19 -33 -49 -52t-86 -19q-36 0 -59 12.5t-37 33.5t-19.5 47.5t-5.5 54.5q0 53 8 89.5t33 59t72 32t125 9.5v41q0 28 -2 48.5t-9.5 34t-21.5 19.5t-38 6
q-41 0 -54.5 -22t-17.5 -73l-79 7q3 42 9.5 73t22 51.5t43.5 30t74 9.5zM264 272q-48 -3 -77 -8.5t-44 -19t-20 -37.5t-5 -64q0 -41 11 -62.5t42 -21.5q39 0 61.5 25t31.5 72v116zM157 613h-82v120h82v-120zM320 613h-82v120h82v-120z" />
    <glyph glyph-name="aring" unicode="&#xe5;" horiz-adv-x="395" 
d="M26 0zM191 552q52 0 84 -12t50 -36.5t24 -61t6 -84.5v-253q0 -29 11.5 -36t25.5 -7l-8 -62q-51 0 -74 17.5t-28 42.5q-19 -33 -49 -52t-86 -19q-36 0 -59 12.5t-37 33.5t-19.5 47.5t-5.5 54.5q0 53 8 89.5t33 59t72 32t125 9.5v41q0 28 -2 48.5t-9.5 34t-21.5 19.5t-38 6
q-41 0 -54.5 -22t-17.5 -73l-79 7q3 42 9.5 73t22 51.5t43.5 30t74 9.5zM264 272q-48 -3 -77 -8.5t-44 -19t-20 -37.5t-5 -64q0 -41 11 -62.5t42 -21.5q39 0 61.5 25t31.5 72v116zM297 668q0 -86 -99 -86q-100 0 -100 86q0 85 100 85q99 0 99 -85zM258 668q0 51 -60 51
t-60 -51t60 -51t60 51z" />
    <glyph glyph-name="ae" unicode="&#xe6;" horiz-adv-x="650" 
d="M445 552q64 0 99.5 -22.5t52 -57.5t20 -78t3.5 -84v-42h-262q0 -41 2.5 -78t11.5 -65.5t28.5 -45t54.5 -16.5q50 0 67 27.5t22 80.5l76 -11q-5 -42 -16 -74t-30.5 -53.5t-50 -32.5t-74.5 -11q-33 0 -56 6.5t-39 18.5t-26 28.5t-17 37.5q-8 -20 -19.5 -37t-30 -29
t-45.5 -18.5t-65 -6.5q-36 0 -59 13t-37 34t-19.5 47.5t-5.5 53.5q0 53 8 89t33 58.5t72 32.5t125 10v41q0 28 -2 48.5t-9.5 34t-21.5 19.5t-38 6q-21 0 -34 -5.5t-21 -17.5t-11.5 -30t-5.5 -42l-79 7q3 42 9.5 73t22 51.5t43.5 30t74 9.5q54 0 83 -18.5t39 -50.5
q13 32 45.5 50.5t82.5 18.5zM268 272q-48 -3 -77 -8.5t-44 -19t-19.5 -37.5t-4.5 -64q0 -41 10.5 -62.5t41.5 -21.5q40 0 62 25t31 72v116zM447 485q-30 0 -47 -12t-26 -33t-11.5 -50.5t-3.5 -65.5h174q0 31 -1 60.5t-9 51.5t-25.5 35.5t-50.5 13.5z" />
    <glyph glyph-name="ccedilla" unicode="&#xe7;" horiz-adv-x="387" 
d="M174 -9q-53 4 -82 28.5t-43 62t-16.5 86.5t-2.5 103q0 58 3 109t20.5 89t54 60.5t102.5 22.5q42 0 69.5 -9.5t44.5 -30.5t25 -55t10 -83l-77 -12q-4 62 -17.5 88.5t-54.5 26.5q-32 0 -49.5 -14t-26 -41t-10 -65t-1.5 -86t1.5 -86.5t9 -65.5t23.5 -41.5t45 -14.5
q25 0 40.5 9t24 25.5t12.5 40.5t6 54l77 -8q-2 -36 -7.5 -70.5t-21.5 -61.5t-45 -44.5t-78 -18.5l-2 -32q45 0 62 -21.5t17 -56.5t-28.5 -54.5t-68.5 -19.5q-18 0 -37 4t-38 12l13 30q25 -11 50 -11q23 0 40.5 12t17.5 37t-17 35t-54 12z" />
    <glyph glyph-name="egrave" unicode="&#xe8;" horiz-adv-x="411" 
d="M30 0zM207 552q64 0 99.5 -22t52.5 -57t20 -78t3 -85v-42h-263q0 -41 2.5 -78t12 -65.5t29 -45t54.5 -16.5q49 0 66.5 29t22.5 79l76 -11q-5 -42 -16 -74t-30.5 -53.5t-50 -32.5t-74.5 -11q-65 0 -101 23.5t-54 62.5t-22 89.5t-4 104.5q0 58 4 110t21.5 90t53 60.5
t98.5 22.5zM208 485q-30 0 -46.5 -12t-25.5 -33t-11.5 -50.5t-3.5 -65.5h173v40q0 25 -3.5 47t-12.5 38.5t-26 26t-44 9.5zM125 770l162 -127l-33 -37l-179 106z" />
    <glyph glyph-name="eacute" unicode="&#xe9;" horiz-adv-x="411" 
d="M30 0zM207 552q64 0 99.5 -22t52.5 -57t20 -78t3 -85v-42h-263q0 -41 2.5 -78t12 -65.5t29 -45t54.5 -16.5q49 0 66.5 29t22.5 79l76 -11q-5 -42 -16 -74t-30.5 -53.5t-50 -32.5t-74.5 -11q-65 0 -101 23.5t-54 62.5t-22 89.5t-4 104.5q0 58 4 110t21.5 90t53 60.5
t98.5 22.5zM208 485q-30 0 -46.5 -12t-25.5 -33t-11.5 -50.5t-3.5 -65.5h173v40q0 25 -3.5 47t-12.5 38.5t-26 26t-44 9.5zM334 697l-178 -105l-34 38l162 126z" />
    <glyph glyph-name="ecircumflex" unicode="&#xea;" horiz-adv-x="411" 
d="M30 0zM207 552q64 0 99.5 -22t52.5 -57t20 -78t3 -85v-42h-263q0 -41 2.5 -78t12 -65.5t29 -45t54.5 -16.5q49 0 66.5 29t22.5 79l76 -11q-5 -42 -16 -74t-30.5 -53.5t-50 -32.5t-74.5 -11q-65 0 -101 23.5t-54 62.5t-22 89.5t-4 104.5q0 58 4 110t21.5 90t53 60.5
t98.5 22.5zM208 485q-30 0 -46.5 -12t-25.5 -33t-11.5 -50.5t-3.5 -65.5h173v40q0 25 -3.5 47t-12.5 38.5t-26 26t-44 9.5zM96 644l76 127h64l78 -128l-52 -25l-59 104l-59 -106z" />
    <glyph glyph-name="edieresis" unicode="&#xeb;" horiz-adv-x="411" 
d="M30 0zM207 552q64 0 99.5 -22t52.5 -57t20 -78t3 -85v-42h-263q0 -41 2.5 -78t12 -65.5t29 -45t54.5 -16.5q49 0 66.5 29t22.5 79l76 -11q-5 -42 -16 -74t-30.5 -53.5t-50 -32.5t-74.5 -11q-65 0 -101 23.5t-54 62.5t-22 89.5t-4 104.5q0 58 4 110t21.5 90t53 60.5
t98.5 22.5zM208 485q-30 0 -46.5 -12t-25.5 -33t-11.5 -50.5t-3.5 -65.5h173v40q0 25 -3.5 47t-12.5 38.5t-26 26t-44 9.5zM165 613h-82v120h82v-120zM328 613h-82v120h82v-120z" />
    <glyph glyph-name="igrave" unicode="&#xec;" horiz-adv-x="205" 
d="M0 0zM40 770l162 -127l-33 -37l-179 106zM165 0h-95v543h95v-543z" />
    <glyph glyph-name="iacute" unicode="&#xed;" horiz-adv-x="205" 
d="M6 0zM218 697l-178 -105l-34 38l162 126zM135 0h-95v543h95v-543z" />
    <glyph glyph-name="icircumflex" unicode="&#xee;" horiz-adv-x="225" 
d="M5 0zM160 0h-95v543h95v-543zM5 644l76 127h64l78 -128l-52 -25l-59 104l-59 -106z" />
    <glyph glyph-name="idieresis" unicode="&#xef;" horiz-adv-x="225" 
d="M0 0zM74 613h-82v120h82v-120zM237 613h-82v120h82v-120zM160 0h-95v543h95v-543z" />
    <glyph glyph-name="eth" unicode="&#xf0;" horiz-adv-x="449" 
d="M368 680q22 -63 26.5 -159t4.5 -221q0 -73 -3 -131t-20.5 -98t-55 -61t-106.5 -21t-106 20.5t-54.5 56t-20.5 84t-3 104.5t2.5 104.5t16.5 84.5t44 56.5t84 20.5q56 0 88 -10t50 -21q-1 38 -5.5 78.5t-18.5 69.5l-86 -46l-13 41l79 43q-15 22 -37.5 34t-56.5 13l17 72
q54 -3 95 -20t64 -56l52 29l14 -41zM204 444q-29 0 -45.5 -11.5t-24 -34.5t-9 -59t-1.5 -85q0 -50 1.5 -86t10.5 -59t27 -34.5t51 -11.5t51 11.5t27 34.5t10.5 59t1.5 86q0 58 -3 95t-13.5 58t-30 29t-53.5 8z" />
    <glyph glyph-name="ntilde" unicode="&#xf1;" horiz-adv-x="431" 
d="M40 0zM119 543q1 -6 2.5 -16t3 -22t2.5 -23t1 -18q24 42 58 65t86 23q36 0 59 -12t36.5 -32.5t18.5 -46.5t5 -54v-407h-94v412q0 30 -16 47t-47 17q-35 0 -56.5 -20t-43.5 -65v-391h-94v543h79v0zM54 657q11 45 34.5 64t53.5 19q20 0 39 -7.5t36 -16.5t32.5 -16.5
t29.5 -7.5q28 0 38 55l59 -19q-12 -48 -37 -68.5t-55 -20.5q-20 0 -38 7t-35.5 15.5t-33 15.5t-29.5 7q-12 0 -21.5 -14t-17.5 -40z" />
    <glyph glyph-name="ograve" unicode="&#xf2;" horiz-adv-x="429" 
d="M30 0zM214 552q69 0 106.5 -23t55 -62t20.5 -90.5t3 -107.5t-3 -106.5t-20.5 -89t-55 -61.5t-106.5 -23t-106 23t-54.5 61.5t-20.5 89t-3 106.5t3 107.5t20.5 90.5t55 62t105.5 23zM214 476q-33 0 -51 -12t-27 -37.5t-10.5 -64.5t-1.5 -93t1.5 -92.5t10.5 -64t27 -37.5
t51 -12t51 12t27 37.5t10.5 64t1.5 92.5t-1.5 93t-10.5 64.5t-27 37.5t-51 12zM134 770l162 -127l-33 -37l-179 106z" />
    <glyph glyph-name="oacute" unicode="&#xf3;" horiz-adv-x="429" 
d="M30 0zM214 552q69 0 106.5 -23t55 -62t20.5 -90.5t3 -107.5t-3 -106.5t-20.5 -89t-55 -61.5t-106.5 -23t-106 23t-54.5 61.5t-20.5 89t-3 106.5t3 107.5t20.5 90.5t55 62t105.5 23zM214 476q-33 0 -51 -12t-27 -37.5t-10.5 -64.5t-1.5 -93t1.5 -92.5t10.5 -64t27 -37.5
t51 -12t51 12t27 37.5t10.5 64t1.5 92.5t-1.5 93t-10.5 64.5t-27 37.5t-51 12zM342 697l-178 -105l-34 38l162 126z" />
    <glyph glyph-name="ocircumflex" unicode="&#xf4;" horiz-adv-x="429" 
d="M30 0zM214 552q69 0 106.5 -23t55 -62t20.5 -90.5t3 -107.5t-3 -106.5t-20.5 -89t-55 -61.5t-106.5 -23t-106 23t-54.5 61.5t-20.5 89t-3 106.5t3 107.5t20.5 90.5t55 62t105.5 23zM214 476q-33 0 -51 -12t-27 -37.5t-10.5 -64.5t-1.5 -93t1.5 -92.5t10.5 -64t27 -37.5
t51 -12t51 12t27 37.5t10.5 64t1.5 92.5t-1.5 93t-10.5 64.5t-27 37.5t-51 12zM105 644l76 127h64l78 -128l-52 -25l-59 104l-59 -106z" />
    <glyph glyph-name="otilde" unicode="&#xf5;" horiz-adv-x="429" 
d="M30 0zM214 552q69 0 106.5 -23t55 -62t20.5 -90.5t3 -107.5t-3 -106.5t-20.5 -89t-55 -61.5t-106.5 -23t-106 23t-54.5 61.5t-20.5 89t-3 106.5t3 107.5t20.5 90.5t55 62t105.5 23zM214 476q-33 0 -51 -12t-27 -37.5t-10.5 -64.5t-1.5 -93t1.5 -92.5t10.5 -64t27 -37.5
t51 -12t51 12t27 37.5t10.5 64t1.5 92.5t-1.5 93t-10.5 64.5t-27 37.5t-51 12zM53 657q11 45 34.5 64t53.5 19q20 0 39 -7.5t36 -16.5t32.5 -16.5t29.5 -7.5q28 0 38 55l59 -19q-12 -48 -37 -68.5t-55 -20.5q-20 0 -38 7t-35.5 15.5t-33 15.5t-29.5 7q-12 0 -21.5 -14
t-17.5 -40z" />
    <glyph glyph-name="odieresis" unicode="&#xf6;" horiz-adv-x="429" 
d="M30 0zM214 552q69 0 106.5 -23t55 -62t20.5 -90.5t3 -107.5t-3 -106.5t-20.5 -89t-55 -61.5t-106.5 -23t-106 23t-54.5 61.5t-20.5 89t-3 106.5t3 107.5t20.5 90.5t55 62t105.5 23zM214 476q-33 0 -51 -12t-27 -37.5t-10.5 -64.5t-1.5 -93t1.5 -92.5t10.5 -64t27 -37.5
t51 -12t51 12t27 37.5t10.5 64t1.5 92.5t-1.5 93t-10.5 64.5t-27 37.5t-51 12zM174 613h-82v120h82v-120zM337 613h-82v120h82v-120z" />
    <glyph glyph-name="divide" unicode="&#xf7;" horiz-adv-x="530" 
d="M30 340v63h470v-63h-470zM312 99h-94v130h94v-130zM312 512h-94v130h94v-130z" />
    <glyph glyph-name="oslash" unicode="&#xf8;" horiz-adv-x="429" 
d="M214 552q42 0 72 -9l16 43l47 -22l-16 -44q24 -18 37.5 -44.5t20 -59t7.5 -70t1 -77.5q0 -56 -3 -106.5t-20.5 -89t-55 -61.5t-106.5 -23q-40 0 -70 9l-13 -36l-46 19l13 37q-26 18 -39.5 44.5t-20 59t-7.5 70t-1 77.5q0 56 3 107.5t20.5 90.5t55 62t105.5 23zM214 476
q-33 0 -51 -12t-27 -37.5t-10.5 -64.5t-1.5 -93q0 -51 1 -88.5t9 -62.5l125 349q-18 9 -45 9zM304 269q0 48 -1.5 84.5t-7.5 61.5l-125 -344q16 -8 44 -8q33 0 51 12t27 37.5t10.5 64t1.5 92.5z" />
    <glyph glyph-name="ugrave" unicode="&#xf9;" horiz-adv-x="412" 
d="M40 0zM304 0q-2 5 -3.5 15.5t-3 22t-2 22.5t-0.5 18q-21 -42 -52.5 -64.5t-83.5 -22.5q-36 0 -59 12t-36.5 32.5t-18.5 46.5t-5 54v407h93v-413q0 -30 15 -47t45 -17q35 0 56 20t39 65v392h95v-543h-79v0zM126 770l162 -127l-33 -37l-179 106z" />
    <glyph glyph-name="uacute" unicode="&#xfa;" horiz-adv-x="412" 
d="M40 0zM304 0q-2 5 -3.5 15.5t-3 22t-2 22.5t-0.5 18q-21 -42 -52.5 -64.5t-83.5 -22.5q-36 0 -59 12t-36.5 32.5t-18.5 46.5t-5 54v407h93v-413q0 -30 15 -47t45 -17q35 0 56 20t39 65v392h95v-543h-79v0zM334 697l-178 -105l-34 38l162 126z" />
    <glyph glyph-name="ucircumflex" unicode="&#xfb;" horiz-adv-x="412" 
d="M40 0zM304 0q-2 5 -3.5 15.5t-3 22t-2 22.5t-0.5 18q-21 -42 -52.5 -64.5t-83.5 -22.5q-36 0 -59 12t-36.5 32.5t-18.5 46.5t-5 54v407h93v-413q0 -30 15 -47t45 -17q35 0 56 20t39 65v392h95v-543h-79v0zM97 644l76 127h64l78 -128l-52 -25l-59 104l-59 -106z" />
    <glyph glyph-name="udieresis" unicode="&#xfc;" horiz-adv-x="412" 
d="M40 0zM304 0q-2 5 -3.5 15.5t-3 22t-2 22.5t-0.5 18q-21 -42 -52.5 -64.5t-83.5 -22.5q-36 0 -59 12t-36.5 32.5t-18.5 46.5t-5 54v407h93v-413q0 -30 15 -47t45 -17q35 0 56 20t39 65v392h95v-543h-79v0zM165 613h-82v120h82v-120zM328 613h-82v120h82v-120z" />
    <glyph glyph-name="yacute" unicode="&#xfd;" horiz-adv-x="370" 
d="M0 0zM196 148l76 395h89l-141 -583q-9 -38 -20 -70.5t-28.5 -56.5t-43.5 -38t-64 -14q-21 0 -37.5 3.5t-32.5 13.5l40 79q7 -5 14.5 -8t15.5 -3q21 0 44.5 30t40.5 108l-141 539h104zM313 697l-178 -105l-34 38l162 126z" />
    <glyph glyph-name="thorn" unicode="&#xfe;" horiz-adv-x="407" 
d="M384 295q0 -63 -2.5 -118.5t-16.5 -97t-44 -65t-85 -23.5q-39 0 -64.5 17t-39.5 47v-274h-92v1007l96 17v-324q7 12 18.5 25t27.5 23t37.5 16.5t49.5 6.5q42 0 65 -19t34.5 -53t13.5 -81t2 -104zM213 65q25 0 40.5 11t24 37.5t11 70.5t2.5 110q0 54 -2.5 89.5t-9.5 56.5
t-19.5 29t-32.5 8q-36 0 -60.5 -21t-35.5 -53v-275q2 -8 9.5 -18.5t19 -20.5t25 -17t28.5 -7z" />
    <glyph glyph-name="ydieresis" unicode="&#xff;" horiz-adv-x="370" 
d="M0 0zM196 148l76 395h89l-141 -583q-9 -38 -20 -70.5t-28.5 -56.5t-43.5 -38t-64 -14q-21 0 -37.5 3.5t-32.5 13.5l40 79q7 -5 14.5 -8t15.5 -3q21 0 44.5 30t40.5 108l-141 539h104zM144 613h-82v120h82v-120zM307 613h-82v120h82v-120z" />
    <glyph glyph-name="Amacron" unicode="&#x100;" horiz-adv-x="421" 
d="M9 0zM273 179h-139l-31 -179h-94l148 745h105l150 -745h-109zM141 258h123l-60 326zM386 892v-65h-352v65h352z" />
    <glyph glyph-name="amacron" unicode="&#x101;" horiz-adv-x="395" 
d="M23 0zM191 552q52 0 84 -12t50 -36.5t24 -61t6 -84.5v-253q0 -29 11.5 -36t25.5 -7l-8 -62q-51 0 -74 17.5t-28 42.5q-19 -33 -49 -52t-86 -19q-36 0 -59 12.5t-37 33.5t-19.5 47.5t-5.5 54.5q0 53 8 89.5t33 59t72 32t125 9.5v41q0 28 -2 48.5t-9.5 34t-21.5 19.5t-38 6
q-41 0 -54.5 -22t-17.5 -73l-79 7q3 42 9.5 73t22 51.5t43.5 30t74 9.5zM264 272q-48 -3 -77 -8.5t-44 -19t-20 -37.5t-5 -64q0 -41 11 -62.5t42 -21.5q39 0 61.5 25t31.5 72v116zM375 690v-65h-352v65h352z" />
    <glyph glyph-name="Abreve" unicode="&#x102;" horiz-adv-x="421" 
d="M9 0zM273 179h-139l-31 -179h-94l148 745h105l150 -745h-109zM141 258h123l-60 326zM360 939q-14 -59 -51.5 -93.5t-95.5 -34.5t-99.5 34.5t-52.5 94.5l49 17q4 -19 12.5 -36.5t21.5 -31t30.5 -21.5t38.5 -8q42 0 69 29.5t35 69.5z" />
    <glyph glyph-name="abreve" unicode="&#x103;" horiz-adv-x="395" 
d="M26 0zM191 552q52 0 84 -12t50 -36.5t24 -61t6 -84.5v-253q0 -29 11.5 -36t25.5 -7l-8 -62q-51 0 -74 17.5t-28 42.5q-19 -33 -49 -52t-86 -19q-36 0 -59 12.5t-37 33.5t-19.5 47.5t-5.5 54.5q0 53 8 89.5t33 59t72 32t125 9.5v41q0 28 -2 48.5t-9.5 34t-21.5 19.5t-38 6
q-41 0 -54.5 -22t-17.5 -73l-79 7q3 42 9.5 73t22 51.5t43.5 30t74 9.5zM264 272q-48 -3 -77 -8.5t-44 -19t-20 -37.5t-5 -64q0 -41 11 -62.5t42 -21.5q39 0 61.5 25t31.5 72v116zM347 737q-14 -59 -51.5 -93.5t-95.5 -34.5t-99.5 34.5t-52.5 94.5l49 17q4 -19 12.5 -36.5
t21.5 -31t30.5 -21.5t38.5 -8q42 0 69 29.5t35 69.5z" />
    <glyph glyph-name="Aogonek" unicode="&#x104;" horiz-adv-x="421" 
d="M273 179h-139l-31 -179h-94l148 745h105l150 -745q-12 -16 -22.5 -33t-18.5 -32t-13 -27.5t-5 -19.5q0 -16 12 -22.5t30 -6.5q19 0 41 6t42 17l-29 -73q-56 -28 -99 -28q-25 0 -40.5 11.5t-15.5 36.5q0 10 3.5 23t12.5 32.5t25 47.5t42 68h-74zM141 258h123l-60 326z" />
    <glyph glyph-name="aogonek" unicode="&#x105;" horiz-adv-x="395" 
d="M191 552q52 0 84 -12t50 -36.5t24 -61t6 -84.5v-253q0 -29 11.5 -36t25.5 -7l-8 -62q-23 -34 -41 -64t-18 -48q0 -16 12 -22.5t30 -6.5t40.5 6t42.5 17l-29 -73q-56 -28 -99 -28q-25 0 -40.5 11.5t-15.5 36.5q0 10 3.5 23t12.5 32.5t25 47.5t42 68q-32 3 -47.5 22.5
t-19.5 37.5q-19 -33 -49 -52t-86 -19q-36 0 -59 12.5t-37 33.5t-19.5 47.5t-5.5 54.5q0 53 8 89.5t33 59t72 32t125 9.5v41q0 59 -14 83.5t-57 24.5q-41 0 -54.5 -22t-17.5 -73l-79 7q3 42 9.5 73t22 51.5t43.5 30t74 9.5zM264 272q-48 -3 -77 -8.5t-44 -19t-20 -37.5
t-5 -64q0 -41 11 -62.5t42 -21.5q39 0 61.5 25t31.5 72v116z" />
    <glyph glyph-name="Cacute" unicode="&#x106;" horiz-adv-x="444" 
d="M30 0zM228 680q-33 0 -52 -17.5t-28 -54.5t-11.5 -95.5t-2.5 -140.5q0 -83 2.5 -141t11.5 -95t28 -53.5t52 -16.5t51 10t26.5 32.5t10.5 59.5t4 92l99 -8q-5 -68 -10.5 -117.5t-24 -82.5t-54.5 -49t-102 -16q-72 0 -112 24.5t-59 72.5t-23 120t-4 168q0 95 4 167t23 121
t59 73.5t112 24.5q67 0 104.5 -13.5t56 -44.5t23.5 -80.5t7 -121.5l-97 -13q-2 62 -4.5 100t-11.5 59t-27 28.5t-51 7.5zM358 899l-178 -105l-34 38l162 126z" />
    <glyph glyph-name="cacute" unicode="&#x107;" horiz-adv-x="387" 
d="M30 0zM210 552q42 0 69.5 -9.5t44.5 -30.5t25 -55t10 -83l-77 -12q-4 62 -17.5 88.5t-54.5 26.5q-32 0 -49.5 -14t-26 -41t-10 -65t-1.5 -86t1.5 -86.5t9 -65.5t23.5 -41.5t45 -14.5q25 0 40.5 9t24 25.5t12.5 40.5t6 54l77 -8q-2 -36 -7.5 -71t-22 -62.5t-47.5 -44.5
t-83 -17q-63 0 -98 22.5t-51.5 61.5t-19.5 90t-3 108q0 58 3 109t20.5 89t54 60.5t102.5 22.5zM329 697l-178 -105l-34 38l162 126z" />
    <glyph glyph-name="Ccircumflex" unicode="&#x108;" horiz-adv-x="444" 
d="M30 0zM228 680q-33 0 -52 -17.5t-28 -54.5t-11.5 -95.5t-2.5 -140.5q0 -83 2.5 -141t11.5 -95t28 -53.5t52 -16.5t51 10t26.5 32.5t10.5 59.5t4 92l99 -8q-5 -68 -10.5 -117.5t-24 -82.5t-54.5 -49t-102 -16q-72 0 -112 24.5t-59 72.5t-23 120t-4 168q0 95 4 167t23 121
t59 73.5t112 24.5q67 0 104.5 -13.5t56 -44.5t23.5 -80.5t7 -121.5l-97 -13q-2 62 -4.5 100t-11.5 59t-27 28.5t-51 7.5zM112 846l76 127h64l78 -128l-52 -25l-59 104l-59 -106z" />
    <glyph glyph-name="ccircumflex" unicode="&#x109;" horiz-adv-x="387" 
d="M30 0zM210 552q42 0 69.5 -9.5t44.5 -30.5t25 -55t10 -83l-77 -12q-4 62 -17.5 88.5t-54.5 26.5q-32 0 -49.5 -14t-26 -41t-10 -65t-1.5 -86t1.5 -86.5t9 -65.5t23.5 -41.5t45 -14.5q25 0 40.5 9t24 25.5t12.5 40.5t6 54l77 -8q-2 -36 -7.5 -71t-22 -62.5t-47.5 -44.5
t-83 -17q-63 0 -98 22.5t-51.5 61.5t-19.5 90t-3 108q0 58 3 109t20.5 89t54 60.5t102.5 22.5zM84 644l76 127h64l78 -128l-52 -25l-59 104l-59 -106z" />
    <glyph glyph-name="Cdotaccent" unicode="&#x10a;" horiz-adv-x="444" 
d="M30 0zM228 680q-33 0 -52 -17.5t-28 -54.5t-11.5 -95.5t-2.5 -140.5q0 -83 2.5 -141t11.5 -95t28 -53.5t52 -16.5t51 10t26.5 32.5t10.5 59.5t4 92l99 -8q-5 -68 -10.5 -117.5t-24 -82.5t-54.5 -49t-102 -16q-72 0 -112 24.5t-59 72.5t-23 120t-4 168q0 95 4 167t23 121
t59 73.5t112 24.5q67 0 104.5 -13.5t56 -44.5t23.5 -80.5t7 -121.5l-97 -13q-2 62 -4.5 100t-11.5 59t-27 28.5t-51 7.5zM263 815h-82v120h82v-120z" />
    <glyph glyph-name="cdotaccent" unicode="&#x10b;" horiz-adv-x="387" 
d="M30 0zM210 552q42 0 69.5 -9.5t44.5 -30.5t25 -55t10 -83l-77 -12q-4 62 -17.5 88.5t-54.5 26.5q-32 0 -49.5 -14t-26 -41t-10 -65t-1.5 -86t1.5 -86.5t9 -65.5t23.5 -41.5t45 -14.5q25 0 40.5 9t24 25.5t12.5 40.5t6 54l77 -8q-2 -36 -7.5 -71t-22 -62.5t-47.5 -44.5
t-83 -17q-63 0 -98 22.5t-51.5 61.5t-19.5 90t-3 108q0 58 3 109t20.5 89t54 60.5t102.5 22.5zM234 613h-82v120h82v-120z" />
    <glyph glyph-name="Ccaron" unicode="&#x10c;" horiz-adv-x="444" 
d="M30 0zM228 680q-33 0 -52 -17.5t-28 -54.5t-11.5 -95.5t-2.5 -140.5q0 -83 2.5 -141t11.5 -95t28 -53.5t52 -16.5t51 10t26.5 32.5t10.5 59.5t4 92l99 -8q-5 -68 -10.5 -117.5t-24 -82.5t-54.5 -49t-102 -16q-72 0 -112 24.5t-59 72.5t-23 120t-4 168q0 95 4 167t23 121
t59 73.5t112 24.5q67 0 104.5 -13.5t56 -44.5t23.5 -80.5t7 -121.5l-97 -13q-2 62 -4.5 100t-11.5 59t-27 28.5t-51 7.5zM330 937l-76 -126h-64l-78 127l52 25l58 -104l60 106z" />
    <glyph glyph-name="ccaron" unicode="&#x10d;" horiz-adv-x="387" 
d="M30 0zM210 552q42 0 69.5 -9.5t44.5 -30.5t25 -55t10 -83l-77 -12q-4 62 -17.5 88.5t-54.5 26.5q-32 0 -49.5 -14t-26 -41t-10 -65t-1.5 -86t1.5 -86.5t9 -65.5t23.5 -41.5t45 -14.5q25 0 40.5 9t24 25.5t12.5 40.5t6 54l77 -8q-2 -36 -7.5 -71t-22 -62.5t-47.5 -44.5
t-83 -17q-63 0 -98 22.5t-51.5 61.5t-19.5 90t-3 108q0 58 3 109t20.5 89t54 60.5t102.5 22.5zM302 735l-76 -126h-64l-78 127l52 25l58 -104l60 106z" />
    <glyph glyph-name="Dcaron" unicode="&#x10e;" 
d="M40 0zM207 745q81 0 127.5 -23.5t70 -70t29.5 -116.5t6 -163q0 -102 -5.5 -173t-28 -115t-68 -64t-124.5 -20h-174v745h167zM138 669v-587h78q42 0 66.5 16t37 51t16 90t3.5 133q0 82 -3 138.5t-15.5 91.5t-39 51t-72.5 16h-71zM321 937l-76 -126h-64l-78 127l52 25
l58 -104l60 106z" />
    <glyph glyph-name="dcaron" unicode="&#x10f;" horiz-adv-x="536" 
d="M30 0zM387 0h-79q-2 6 -3 16t-2 21.5t-1.5 22t-0.5 17.5q-16 -38 -45.5 -62.5t-80.5 -24.5q-52 0 -81 21t-43.5 57t-17.5 84t-3 103q0 67 3.5 122t18.5 94t45.5 60t84.5 21q44 0 72 -20t40 -46v302l93 17v-805zM204 476q-28 0 -43.5 -12.5t-23.5 -38.5t-10 -67.5
t-2 -99.5q0 -50 1.5 -86.5t8 -60.5t20.5 -36t39 -12q24 0 40.5 8t28 21.5t19 32t12.5 39.5v249q-13 29 -37 46t-53 17zM532 723q0 -26 -15.5 -53t-38.5 -47l-24 16q14 14 23 31.5t9 37.5h-43v97h89v-82z" />
    <glyph glyph-name="Dcroat" unicode="&#x110;" 
d="M4 0zM4 433h36v312h167q81 0 127.5 -23.5t70 -70t29.5 -116.5t6 -163q0 -102 -5.5 -173t-28 -115t-68 -64t-124.5 -20h-174v354h-36v79zM138 669v-236h121l-8 -79h-113v-272h78q42 0 66.5 16t37 51t16 90t3.5 133q0 82 -3 138.5t-15.5 91.5t-39 51t-72.5 16h-71z" />
    <glyph glyph-name="dcroat" unicode="&#x111;" horiz-adv-x="427" 
d="M387 713h32l-8 -63h-24v-650h-79q-2 6 -3 16t-2 21.5t-1.5 22t-0.5 17.5q-16 -38 -45.5 -62.5t-80.5 -24.5q-52 0 -81 21t-43.5 57t-17.5 84t-3 103q0 67 3.5 122t18.5 94t45.5 60t84.5 21q44 0 72 -20t40 -46v164h-96l8 63h88v75l93 17v-92zM204 476q-28 0 -43.5 -12.5
t-23.5 -38.5t-10 -67.5t-2 -99.5q0 -50 1.5 -86.5t8 -60.5t20.5 -36t39 -12q24 0 40.5 8t28 21.5t19 32t12.5 39.5v249q-13 29 -37 46t-53 17z" />
    <glyph glyph-name="Emacron" unicode="&#x112;" horiz-adv-x="353" 
d="M2 0zM326 745v-78h-187v-235h157l-7 -79h-150v-277h192v-76h-291v745h286zM354 892v-65h-352v65h352z" />
    <glyph glyph-name="emacron" unicode="&#x113;" horiz-adv-x="411" 
d="M29 0zM207 552q64 0 99.5 -22t52.5 -57t20 -78t3 -85v-42h-263q0 -41 2.5 -78t12 -65.5t29 -45t54.5 -16.5q49 0 66.5 29t22.5 79l76 -11q-5 -42 -16 -74t-30.5 -53.5t-50 -32.5t-74.5 -11q-65 0 -101 23.5t-54 62.5t-22 89.5t-4 104.5q0 58 4 110t21.5 90t53 60.5
t98.5 22.5zM208 485q-30 0 -46.5 -12t-25.5 -33t-11.5 -50.5t-3.5 -65.5h173v40q0 25 -3.5 47t-12.5 38.5t-26 26t-44 9.5zM381 690v-65h-352v65h352z" />
    <glyph glyph-name="Ebreve" unicode="&#x114;" horiz-adv-x="353" 
d="M27 0zM326 745v-78h-187v-235h157l-7 -79h-150v-277h192v-76h-291v745h286zM326 939q-14 -59 -51.5 -93.5t-95.5 -34.5t-99.5 34.5t-52.5 94.5l49 17q4 -19 12.5 -36.5t21.5 -31t30.5 -21.5t38.5 -8q42 0 69 29.5t35 69.5z" />
    <glyph glyph-name="ebreve" unicode="&#x115;" horiz-adv-x="411" 
d="M30 0zM207 552q64 0 99.5 -22t52.5 -57t20 -78t3 -85v-42h-263q0 -41 2.5 -78t12 -65.5t29 -45t54.5 -16.5q49 0 66.5 29t22.5 79l76 -11q-5 -42 -16 -74t-30.5 -53.5t-50 -32.5t-74.5 -11q-65 0 -101 23.5t-54 62.5t-22 89.5t-4 104.5q0 58 4 110t21.5 90t53 60.5
t98.5 22.5zM208 485q-30 0 -46.5 -12t-25.5 -33t-11.5 -50.5t-3.5 -65.5h173v40q0 25 -3.5 47t-12.5 38.5t-26 26t-44 9.5zM355 737q-14 -59 -51.5 -93.5t-95.5 -34.5t-99.5 34.5t-52.5 94.5l49 17q4 -19 12.5 -36.5t21.5 -31t30.5 -21.5t38.5 -8q42 0 69 29.5t35 69.5z" />
    <glyph glyph-name="Edotaccent" unicode="&#x116;" horiz-adv-x="353" 
d="M40 0zM326 745v-78h-187v-235h157l-7 -79h-150v-277h192v-76h-291v745h286zM217 815h-82v120h82v-120z" />
    <glyph glyph-name="edotaccent" unicode="&#x117;" horiz-adv-x="411" 
d="M30 0zM207 552q64 0 99.5 -22t52.5 -57t20 -78t3 -85v-42h-263q0 -41 2.5 -78t12 -65.5t29 -45t54.5 -16.5q49 0 66.5 29t22.5 79l76 -11q-5 -42 -16 -74t-30.5 -53.5t-50 -32.5t-74.5 -11q-65 0 -101 23.5t-54 62.5t-22 89.5t-4 104.5q0 58 4 110t21.5 90t53 60.5
t98.5 22.5zM208 485q-30 0 -46.5 -12t-25.5 -33t-11.5 -50.5t-3.5 -65.5h173v40q0 25 -3.5 47t-12.5 38.5t-26 26t-44 9.5zM246 613h-82v120h82v-120z" />
    <glyph glyph-name="Eogonek" unicode="&#x118;" horiz-adv-x="353" 
d="M326 745v-78h-187v-235h157l-7 -79h-150v-277h192v-76q-12 -16 -22.5 -33t-18.5 -32t-13 -27.5t-5 -19.5q0 -16 12 -22.5t30 -6.5q19 0 41 6t42 17l-29 -73q-56 -28 -99 -28q-25 0 -40.5 11.5t-15.5 36.5q0 10 3.5 23t12.5 32.5t25 47.5t42 68h-256v745h286z" />
    <glyph glyph-name="eogonek" unicode="&#x119;" horiz-adv-x="411" 
d="M207 552q64 0 99.5 -22t52.5 -57t20 -78t3 -85v-42h-263q0 -41 2.5 -78t12 -65.5t29 -45t54.5 -16.5q49 0 66.5 27.5t22.5 80.5l76 -11q-8 -63 -29.5 -103.5t-67.5 -56.5q-23 -33 -41 -64.5t-18 -47.5t12 -22.5t30 -6.5q19 0 41 6t42 17l-29 -73q-56 -28 -99 -28
q-25 0 -40.5 11.5t-15.5 36.5q0 22 7.5 43t19 41t25 39.5t25.5 39.5l-16 -2t-17 -1q-65 0 -101 23.5t-54 62.5t-22 89.5t-4 104.5q0 58 4 110t21.5 90t53 60.5t98.5 22.5zM208 485q-30 0 -46.5 -12t-25.5 -33t-11.5 -50.5t-3.5 -65.5h173v40q0 25 -3.5 47t-12.5 38.5t-26 26
t-44 9.5z" />
    <glyph glyph-name="Ecaron" unicode="&#x11a;" horiz-adv-x="353" 
d="M40 0zM326 745v-78h-187v-235h157l-7 -79h-150v-277h192v-76h-291v745h286zM285 937l-76 -126h-64l-78 127l52 25l58 -104l60 106z" />
    <glyph glyph-name="ecaron" unicode="&#x11b;" horiz-adv-x="411" 
d="M30 0zM207 552q64 0 99.5 -22t52.5 -57t20 -78t3 -85v-42h-263q0 -41 2.5 -78t12 -65.5t29 -45t54.5 -16.5q49 0 66.5 29t22.5 79l76 -11q-5 -42 -16 -74t-30.5 -53.5t-50 -32.5t-74.5 -11q-65 0 -101 23.5t-54 62.5t-22 89.5t-4 104.5q0 58 4 110t21.5 90t53 60.5
t98.5 22.5zM208 485q-30 0 -46.5 -12t-25.5 -33t-11.5 -50.5t-3.5 -65.5h173v40q0 25 -3.5 47t-12.5 38.5t-26 26t-44 9.5zM314 735l-76 -126h-64l-78 127l52 25l58 -104l60 106z" />
    <glyph glyph-name="Gcircumflex" unicode="&#x11c;" horiz-adv-x="447" 
d="M30 0zM414 382v-382h-73l-9 71q-7 -17 -17.5 -32t-26.5 -26.5t-39 -18.5t-54 -7q-60 0 -93.5 27.5t-49 78.5t-19 123t-3.5 161q0 87 4 157.5t23 120t59 76.5t113 27q65 0 101 -13t54 -41t22.5 -72.5t7.5 -106.5l-82 -20q-2 47 -5 80t-13 54t-28.5 30.5t-52.5 9.5
q-37 0 -57.5 -19t-30.5 -56.5t-12.5 -94.5t-2.5 -132q0 -70 2 -127.5t11 -98t26.5 -63t48.5 -22.5q44 0 71 28t32 73v137h-93l13 78h173zM114 846l76 127h64l78 -128l-52 -25l-59 104l-59 -106z" />
    <glyph glyph-name="gcircumflex" unicode="&#x11d;" horiz-adv-x="376" 
d="M4 0zM343 378q0 -35 -7 -67t-23 -56.5t-41.5 -39t-61.5 -14.5h-18t-17 1q-14 -8 -20 -18.5t-6 -30.5q0 -17 11 -32t36 -15h53q24 0 46 -8.5t39.5 -26.5t27.5 -46.5t10 -68.5q0 -95 -38 -135t-120 -40h-84q-64 0 -95 35t-31 89q0 67 27 96.5t84 38.5q-15 6 -26.5 13
t-19 17.5t-11 25.5t-3.5 37q0 39 16 61.5t46 30.5q-42 21 -60 60t-18 93q0 31 6 60.5t23 52.5t47 37.5t77 14.5q17 0 31.5 -2.5t26.5 -6.5q10 32 23.5 59t30.5 43l56 -30q-20 -14 -38.5 -40t-30.5 -53q30 -23 41 -60t11 -75zM87 -66q0 -27 6.5 -43.5t20.5 -26t36 -13
t52 -3.5q54 0 75.5 20.5t21.5 70.5q0 48 -22 63.5t-70 15.5q-30 0 -52.5 -3t-37.5 -12t-22.5 -25.5t-7.5 -43.5zM192 261q36 0 49.5 26t13.5 89q0 62 -13 85.5t-50 23.5t-49.5 -24.5t-12.5 -84.5q0 -61 12.5 -88t49.5 -27zM78 644l76 127h64l78 -128l-52 -25l-59 104
l-59 -106z" />
    <glyph glyph-name="Gbreve" unicode="&#x11e;" horiz-adv-x="447" 
d="M30 0zM414 382v-382h-73l-9 71q-7 -17 -17.5 -32t-26.5 -26.5t-39 -18.5t-54 -7q-60 0 -93.5 27.5t-49 78.5t-19 123t-3.5 161q0 87 4 157.5t23 120t59 76.5t113 27q65 0 101 -13t54 -41t22.5 -72.5t7.5 -106.5l-82 -20q-2 47 -5 80t-13 54t-28.5 30.5t-52.5 9.5
q-37 0 -57.5 -19t-30.5 -56.5t-12.5 -94.5t-2.5 -132q0 -70 2 -127.5t11 -98t26.5 -63t48.5 -22.5q44 0 71 28t32 73v137h-93l13 78h173zM373 939q-14 -59 -51.5 -93.5t-95.5 -34.5t-99.5 34.5t-52.5 94.5l49 17q4 -19 12.5 -36.5t21.5 -31t30.5 -21.5t38.5 -8q42 0 69 29.5
t35 69.5z" />
    <glyph glyph-name="gbreve" unicode="&#x11f;" horiz-adv-x="376" 
d="M4 0zM343 378q0 -35 -7 -67t-23 -56.5t-41.5 -39t-61.5 -14.5h-18t-17 1q-14 -8 -20 -18.5t-6 -30.5q0 -17 11 -32t36 -15h53q24 0 46 -8.5t39.5 -26.5t27.5 -46.5t10 -68.5q0 -95 -38 -135t-120 -40h-84q-64 0 -95 35t-31 89q0 67 27 96.5t84 38.5q-15 6 -26.5 13
t-19 17.5t-11 25.5t-3.5 37q0 39 16 61.5t46 30.5q-42 21 -60 60t-18 93q0 31 6 60.5t23 52.5t47 37.5t77 14.5q17 0 31.5 -2.5t26.5 -6.5q10 32 23.5 59t30.5 43l56 -30q-20 -14 -38.5 -40t-30.5 -53q30 -23 41 -60t11 -75zM87 -66q0 -27 6.5 -43.5t20.5 -26t36 -13
t52 -3.5q54 0 75.5 20.5t21.5 70.5q0 48 -22 63.5t-70 15.5q-30 0 -52.5 -3t-37.5 -12t-22.5 -25.5t-7.5 -43.5zM192 261q36 0 49.5 26t13.5 89q0 62 -13 85.5t-50 23.5t-49.5 -24.5t-12.5 -84.5q0 -61 12.5 -88t49.5 -27zM337 737q-14 -59 -51.5 -93.5t-95.5 -34.5
t-99.5 34.5t-52.5 94.5l49 17q4 -19 12.5 -36.5t21.5 -31t30.5 -21.5t38.5 -8q42 0 69 29.5t35 69.5z" />
    <glyph glyph-name="Gdotaccent" unicode="&#x120;" horiz-adv-x="447" 
d="M30 0zM414 382v-382h-73l-9 71q-7 -17 -17.5 -32t-26.5 -26.5t-39 -18.5t-54 -7q-60 0 -93.5 27.5t-49 78.5t-19 123t-3.5 161q0 87 4 157.5t23 120t59 76.5t113 27q65 0 101 -13t54 -41t22.5 -72.5t7.5 -106.5l-82 -20q-2 47 -5 80t-13 54t-28.5 30.5t-52.5 9.5
q-37 0 -57.5 -19t-30.5 -56.5t-12.5 -94.5t-2.5 -132q0 -70 2 -127.5t11 -98t26.5 -63t48.5 -22.5q44 0 71 28t32 73v137h-93l13 78h173zM264 815h-82v120h82v-120z" />
    <glyph glyph-name="gdotaccent" unicode="&#x121;" horiz-adv-x="376" 
d="M4 0zM343 378q0 -35 -7 -67t-23 -56.5t-41.5 -39t-61.5 -14.5h-18t-17 1q-14 -8 -20 -18.5t-6 -30.5q0 -17 11 -32t36 -15h53q24 0 46 -8.5t39.5 -26.5t27.5 -46.5t10 -68.5q0 -95 -38 -135t-120 -40h-84q-64 0 -95 35t-31 89q0 67 27 96.5t84 38.5q-15 6 -26.5 13
t-19 17.5t-11 25.5t-3.5 37q0 39 16 61.5t46 30.5q-42 21 -60 60t-18 93q0 31 6 60.5t23 52.5t47 37.5t77 14.5q17 0 31.5 -2.5t26.5 -6.5q10 32 23.5 59t30.5 43l56 -30q-20 -14 -38.5 -40t-30.5 -53q30 -23 41 -60t11 -75zM87 -66q0 -27 6.5 -43.5t20.5 -26t36 -13
t52 -3.5q54 0 75.5 20.5t21.5 70.5q0 48 -22 63.5t-70 15.5q-30 0 -52.5 -3t-37.5 -12t-22.5 -25.5t-7.5 -43.5zM192 261q36 0 49.5 26t13.5 89q0 62 -13 85.5t-50 23.5t-49.5 -24.5t-12.5 -84.5q0 -61 12.5 -88t49.5 -27zM229 613h-82v120h82v-120z" />
    <glyph glyph-name="Gcommaaccent" unicode="&#x122;" horiz-adv-x="447" 
d="M30 0zM414 382v-382h-73l-9 71q-7 -17 -17.5 -32t-26.5 -26.5t-39 -18.5t-54 -7q-60 0 -93.5 27.5t-49 78.5t-19 123t-3.5 161q0 87 4 157.5t23 120t59 76.5t113 27q65 0 101 -13t54 -41t22.5 -72.5t7.5 -106.5l-82 -20q-2 47 -5 80t-13 54t-28.5 30.5t-52.5 9.5
q-37 0 -57.5 -19t-30.5 -56.5t-12.5 -94.5t-2.5 -132q0 -70 2 -127.5t11 -98t26.5 -63t48.5 -22.5q44 0 71 28t32 73v137h-93l13 78h173zM268 -119q0 -26 -15.5 -53t-38.5 -47l-24 16q14 14 23 31.5t9 37.5h-43v97h89v-82z" />
    <glyph glyph-name="gcommaaccent" unicode="&#x123;" horiz-adv-x="376" 
d="M4 0zM343 378q0 -35 -7 -67t-23 -56.5t-41.5 -39t-61.5 -14.5h-18t-17 1q-14 -8 -20 -18.5t-6 -30.5q0 -17 11 -32t36 -15h53q24 0 46 -8.5t39.5 -26.5t27.5 -46.5t10 -68.5q0 -95 -38 -135t-120 -40h-84q-64 0 -95 35t-31 89q0 67 27 96.5t84 38.5q-15 6 -26.5 13
t-19 17.5t-11 25.5t-3.5 37q0 39 16 61.5t46 30.5q-42 21 -60 60t-18 93q0 31 6 60.5t23 52.5t47 37.5t77 14.5q17 0 31.5 -2.5t26.5 -6.5q10 32 23.5 59t30.5 43l56 -30q-20 -14 -38.5 -40t-30.5 -53q30 -23 41 -60t11 -75zM87 -66q0 -27 6.5 -43.5t20.5 -26t36 -13
t52 -3.5q54 0 75.5 20.5t21.5 70.5q0 48 -22 63.5t-70 15.5q-30 0 -52.5 -3t-37.5 -12t-22.5 -25.5t-7.5 -43.5zM192 261q36 0 49.5 26t13.5 89q0 62 -13 85.5t-50 23.5t-49.5 -24.5t-12.5 -84.5q0 -61 12.5 -88t49.5 -27zM148.007 704.993q0 25.998 15.499 52.9961
q15.499 26.999 38.498 46.9971l23.998 -15.999q-13.999 -13.999 -22.998 -31.498q-9 -17.499 -9 -37.4971h42.998v-96.9941h-88.9951v81.9951z" />
    <glyph glyph-name="Hcircumflex" unicode="&#x124;" horiz-adv-x="451" 
d="M40 0zM140 745v-321h172v321h99v-745h-99v346h-172v-346h-100v745h100zM116 846l76 127h64l78 -128l-52 -25l-59 104l-59 -106z" />
    <glyph glyph-name="hcircumflex" unicode="&#x125;" horiz-adv-x="431" 
d="M0 0zM297 0v412q0 30 -16 47t-47 17q-35 0 -56.5 -20t-43.5 -65v-391h-94v788l94 17v-333q23 35 54.5 57.5t83.5 22.5q36 0 59 -12t36.5 -32.5t18.5 -46.5t5 -54v-407h-94zM-18 846l76 127h64l78 -128l-52 -25l-59 104l-59 -106z" />
    <glyph glyph-name="Hbar" unicode="&#x126;" horiz-adv-x="451" 
d="M140 745v-132h172v132h99v-745h-99v346h-172v-346h-100v745h100zM312 424v124h-172v-124h172z" />
    <glyph glyph-name="hbar" unicode="&#x127;" horiz-adv-x="431" 
d="M134 650v-178q23 35 54.5 57.5t83.5 22.5q36 0 59 -12t36.5 -32.5t18.5 -46.5t5 -54v-407h-94v399q0 39 -13.5 58t-49.5 19q-35 0 -56.5 -20t-43.5 -65v-391h-94v650h-34l8 63h26v75l94 17v-92h93l-8 -63h-85z" />
    <glyph glyph-name="Itilde" unicode="&#x128;" horiz-adv-x="179" 
d="M0 0zM139 745v-745h-99v745h99zM-70 859q11 45 34.5 64t53.5 19q20 0 39 -7.5t36 -16.5t32.5 -16.5t29.5 -7.5q28 0 38 55l59 -19q-12 -48 -37 -68.5t-55 -20.5q-20 0 -38 7t-35.5 15.5t-33 15.5t-29.5 7q-12 0 -21.5 -14t-17.5 -40z" />
    <glyph glyph-name="itilde" unicode="&#x129;" horiz-adv-x="225" 
d="M0 0zM-47 657q11 45 34.5 64t53.5 19q20 0 39 -7.5t36 -16.5t32.5 -16.5t29.5 -7.5q28 0 38 55l59 -19q-12 -48 -37 -68.5t-55 -20.5q-20 0 -38 7t-35.5 15.5t-33 15.5t-29.5 7q-12 0 -21.5 -14t-17.5 -40zM160 0h-95v543h95v-543z" />
    <glyph glyph-name="uni012A" unicode="&#x12a;" horiz-adv-x="179" 
d="M0 0zM139 745v-745h-99v745h99zM267 892v-65h-352v65h352z" />
    <glyph glyph-name="imacron" unicode="&#x12b;" horiz-adv-x="225" 
d="M0 0zM291 690v-65h-352v65h352zM160 0h-95v543h95v-543z" />
    <glyph glyph-name="Ibreve" unicode="&#x12c;" horiz-adv-x="179" 
d="M0 0zM139 745v-745h-99v745h99zM241 939q-14 -59 -51.5 -93.5t-95.5 -34.5t-99.5 34.5t-52.5 94.5l49 17q4 -19 12.5 -36.5t21.5 -31t30.5 -21.5t38.5 -8q42 0 69 29.5t35 69.5z" />
    <glyph glyph-name="uni012D" unicode="&#x12d;" horiz-adv-x="225" 
d="M0 0zM264 737q-14 -59 -51.5 -93.5t-95.5 -34.5t-99.5 34.5t-52.5 94.5l49 17q4 -19 12.5 -36.5t21.5 -31t30.5 -21.5t38.5 -8q42 0 69 29.5t35 69.5zM160 0h-95v543h95v-543z" />
    <glyph glyph-name="Iogonek" unicode="&#x12e;" horiz-adv-x="179" 
d="M139 745v-745q-23 -35 -41 -65t-18 -47q0 -16 12 -22.5t30 -6.5q19 0 41 6t42 17l-29 -73q-56 -28 -99 -28q-25 0 -40 11.5t-15 36.5q0 10 3 23.5t12 33t25 47.5t42 67h-64v745h99z" />
    <glyph glyph-name="iogonek" unicode="&#x12f;" horiz-adv-x="174" 
d="M134 0q-12 -16 -22.5 -33t-18.5 -32t-13 -27.5t-5 -19.5q0 -16 12 -22.5t30 -6.5q19 0 41 6t42 17l-29 -73q-56 -28 -99 -28q-25 0 -40.5 11.5t-15.5 36.5q0 10 3.5 23t12.5 32.5t25 47.5t42 68h-59v543h94v-543zM134 653h-94v130h94v-130z" />
    <glyph glyph-name="Idotaccent" unicode="&#x130;" horiz-adv-x="179" 
d="M40 0zM139 745v-745h-99v745h99zM130 815h-82v120h82v-120z" />
    <glyph glyph-name="dotlessi" unicode="&#x131;" horiz-adv-x="175" 
d="M135 0h-95v543h95v-543z" />
    <glyph glyph-name="IJ" unicode="&#x132;" horiz-adv-x="539" 
d="M40 0zM139 745v-745h-99v745h99zM499 180q0 -45 -4.5 -81t-21 -61t-49.5 -38t-89 -13q-36 0 -61.5 7t-43 21.5t-29.5 35.5t-21 49l77 30q8 -32 23.5 -48t52.5 -16q23 0 36.5 6t20.5 19.5t9 33.5t2 49v571h98v-565z" />
    <glyph glyph-name="ij" unicode="&#x133;" horiz-adv-x="367" 
d="M40 0zM134 0h-94v543h94v-543zM134 654h-94v130h94v-130zM327 654h-94v130h94v-130zM233 543h94v-579q0 -54 -7 -89.5t-22 -56t-39 -29t-59 -8.5q-34 0 -55 9.5t-32 22.5l18 67q10 -14 24.5 -19t28.5 -5q13 0 22.5 4.5t15.5 18.5t8.5 40.5t2.5 70.5v553z" />
    <glyph glyph-name="Jcircumflex" unicode="&#x134;" horiz-adv-x="368" 
d="M9 0zM328 180q0 -45 -4.5 -81t-21 -61t-49.5 -38t-89 -13q-36 0 -61.5 7t-43 21.5t-29.5 35.5t-21 49l77 30q8 -32 23.5 -48t52.5 -16q23 0 36.5 6t20.5 19.5t9 33.5t2 49v571h98v-565zM171 846l76 127h64l78 -128l-52 -25l-59 104l-59 -106z" />
    <glyph glyph-name="jcircumflex" unicode="&#x135;" horiz-adv-x="187" 
d="M0 0zM53 543h94v-579q0 -54 -7 -89.5t-22 -56t-39 -29t-59 -8.5q-34 0 -55 9.5t-32 22.5l18 67q10 -14 24.5 -19t28.5 -5q13 0 22.5 4.5t15.5 18.5t8.5 40.5t2.5 70.5v553zM-7 644l76 127h64l78 -128l-52 -25l-59 104l-59 -106z" />
    <glyph glyph-name="Kcommaaccent" unicode="&#x136;" horiz-adv-x="430" 
d="M40 0zM213 390l-74 -129v-261h-99v745h99v-331l150 331h112l-131 -244l150 -501h-115zM262 -119q0 -26 -15.5 -53t-38.5 -47l-24 16q14 14 23 31.5t9 37.5h-43v97h89v-82z" />
    <glyph glyph-name="kcommaaccent" unicode="&#x137;" horiz-adv-x="394" 
d="M40 0zM207 298l-73 -98v-200h-94v788l94 17v-495l132 233h110l-109 -156l122 -387h-112zM244 -119q0 -26 -15.5 -53t-38.5 -47l-24 16q14 14 23 31.5t9 37.5h-43v97h89v-82z" />
    <glyph glyph-name="Lacute" unicode="&#x139;" horiz-adv-x="306" 
d="M17 0zM140 745v-669h153v-76h-253v745h100zM229 899l-178 -105l-34 38l162 126z" />
    <glyph glyph-name="lacute" unicode="&#x13a;" horiz-adv-x="174" 
d="M7 0zM40 0v788l94 17v-805h-94zM219 899l-178 -105l-34 38l162 126z" />
    <glyph glyph-name="Lcommaaccent" unicode="&#x13b;" horiz-adv-x="306" 
d="M40 0zM140 745v-669h153v-76h-253v745h100zM200 -119q0 -26 -15.5 -53t-38.5 -47l-24 16q14 14 23 31.5t9 37.5h-43v97h89v-82z" />
    <glyph glyph-name="lcommaaccent" unicode="&#x13c;" horiz-adv-x="174" 
d="M40 0zM40 0v788l94 17v-805h-94zM134 -119q0 -26 -15.5 -53t-38.5 -47l-24 16q14 14 23 31.5t9 37.5h-43v97h89v-82z" />
    <glyph glyph-name="Lcaron" unicode="&#x13d;" horiz-adv-x="326" 
d="M40 0zM140 745v-669h153v-76h-253v745h100zM271 723q0 -26 -15.5 -53t-38.5 -47l-24 16q14 14 23 31.5t9 37.5h-43v97h89v-82z" />
    <glyph glyph-name="lcaron" unicode="&#x13e;" horiz-adv-x="283" 
d="M40 0zM40 0v788l94 17v-805h-94zM279 723q0 -26 -15.5 -53t-38.5 -47l-24 16q14 14 23 31.5t9 37.5h-43v97h89v-82z" />
    <glyph glyph-name="Ldot" unicode="&#x13f;" horiz-adv-x="306" 
d="M40 0zM140 745v-669h153v-76h-253v745h100zM256.614 300.513h-87.6436v121.748h87.6436v-121.748z" />
    <glyph glyph-name="ldot" unicode="&#x140;" horiz-adv-x="269" 
d="M40 0zM40 0v788l94 17v-805h-94zM257.614 299.513h-87.6436v121.748h87.6436v-121.748z" />
    <glyph glyph-name="Lslash" unicode="&#x141;" horiz-adv-x="303" 
d="M36 349v396h100v-341l74 42l26 -46l-100 -58v-266h153v-76h-253v287l-22 -13l-27 48z" />
    <glyph glyph-name="lslash" unicode="&#x142;" horiz-adv-x="199" 
d="M5 310l-26 47l72 38v393l97 17v-360l49 27l25 -46l-74 -40v-386h-97v335z" />
    <glyph glyph-name="Nacute" unicode="&#x143;" horiz-adv-x="445" 
d="M38 0zM38 745h103l181 -516v516h85v-745h-102l-182 515v-515h-85v745zM358 899l-178 -105l-34 38l162 126z" />
    <glyph glyph-name="nacute" unicode="&#x144;" horiz-adv-x="431" 
d="M40 0zM119 543q1 -6 2.5 -16t3 -22t2.5 -23t1 -18q24 42 58 65t86 23q36 0 59 -12t36.5 -32.5t18.5 -46.5t5 -54v-407h-94v412q0 30 -16 47t-47 17q-35 0 -56.5 -20t-43.5 -65v-391h-94v543h79v0zM351 697l-178 -105l-34 38l162 126z" />
    <glyph glyph-name="Ncommaaccent" unicode="&#x145;" horiz-adv-x="445" 
d="M38 0zM38 745h103l181 -516v516h85v-745h-102l-182 515v-515h-85v745zM264 -119q0 -26 -15.5 -53t-38.5 -47l-24 16q14 14 23 31.5t9 37.5h-43v97h89v-82z" />
    <glyph glyph-name="ncommaaccent" unicode="&#x146;" horiz-adv-x="431" 
d="M40 0zM119 543q1 -6 2.5 -16t3 -22t2.5 -23t1 -18q24 42 58 65t86 23q36 0 59 -12t36.5 -32.5t18.5 -46.5t5 -54v-407h-94v412q0 30 -16 47t-47 17q-35 0 -56.5 -20t-43.5 -65v-391h-94v543h79v0zM263 -119q0 -26 -15.5 -53t-38.5 -47l-24 16q14 14 23 31.5t9 37.5h-43
v97h89v-82z" />
    <glyph glyph-name="Ncaron" unicode="&#x147;" horiz-adv-x="445" 
d="M38 0zM38 745h103l181 -516v516h85v-745h-102l-182 515v-515h-85v745zM331 937l-76 -126h-64l-78 127l52 25l58 -104l60 106z" />
    <glyph glyph-name="ncaron" unicode="&#x148;" horiz-adv-x="431" 
d="M40 0zM119 543q1 -6 2.5 -16t3 -22t2.5 -23t1 -18q24 42 58 65t86 23q36 0 59 -12t36.5 -32.5t18.5 -46.5t5 -54v-407h-94v412q0 30 -16 47t-47 17q-35 0 -56.5 -20t-43.5 -65v-391h-94v543h79v0zM324 735l-76 -126h-64l-78 127l52 25l58 -104l60 106z" />
    <glyph glyph-name="Eng" unicode="&#x14a;" horiz-adv-x="445" 
d="M38 745h103l181 -516v516h85v-781q0 -95 -28 -139t-99 -44q-34 0 -55 9.5t-32 22.5q4 17 8 33.5t9 33.5q10 -14 24 -20t28 -6t24 4t16 17.5t8.5 38.5t2.5 67q-48 134 -95 267t-95 267v-515h-85v745z" />
    <glyph glyph-name="eng" unicode="&#x14b;" horiz-adv-x="431" 
d="M297 365q0 26 -1.5 46.5t-7.5 35t-18.5 22t-35.5 7.5q-35 0 -56.5 -20t-43.5 -65v-391h-94v543h79q3 -14 5.5 -34.5t3.5 -44.5q24 42 58 65t86 23q36 0 59 -12t36.5 -32.5t18.5 -46.5t5 -54v-443q0 -54 -7 -89.5t-22 -56t-39.5 -29t-58.5 -8.5t-55 9.5t-32 22.5l17 67
q10 -14 24.5 -19t28.5 -5q13 0 22.5 3.5t15.5 15.5t9 35.5t3 62.5v392z" />
    <glyph glyph-name="Omacron" unicode="&#x14c;" 
d="M30 0zM238 758q74 0 114.5 -24t60 -72t23.5 -120.5t4 -169.5q0 -98 -4 -170t-23.5 -120t-60 -71.5t-114.5 -23.5t-115.5 24.5t-62 72.5t-25.5 120t-5 168q0 95 5 167t25.5 121t62 73.5t115.5 24.5zM238 680q-36 0 -56.5 -17.5t-31 -54.5t-13.5 -95.5t-3 -140.5
q0 -83 3 -141t13.5 -95t31 -53.5t56.5 -16.5q35 0 54.5 16.5t29 53.5t11.5 95t2 141q0 82 -2 140.5t-11.5 96t-29 54.5t-54.5 17zM410 892v-65h-352v65h352z" />
    <glyph glyph-name="omacron" unicode="&#x14d;" horiz-adv-x="429" 
d="M30 0zM214 552q69 0 106.5 -23t55 -62t20.5 -90.5t3 -107.5t-3 -106.5t-20.5 -89t-55 -61.5t-106.5 -23t-106 23t-54.5 61.5t-20.5 89t-3 106.5t3 107.5t20.5 90.5t55 62t105.5 23zM214 476q-33 0 -51 -12t-27 -37.5t-10.5 -64.5t-1.5 -93t1.5 -92.5t10.5 -64t27 -37.5
t51 -12t51 12t27 37.5t10.5 64t1.5 92.5t-1.5 93t-10.5 64.5t-27 37.5t-51 12zM390 690v-65h-352v65h352z" />
    <glyph glyph-name="Obreve" unicode="&#x14e;" 
d="M30 0zM238 758q74 0 114.5 -24t60 -72t23.5 -120.5t4 -169.5q0 -98 -4 -170t-23.5 -120t-60 -71.5t-114.5 -23.5t-115.5 24.5t-62 72.5t-25.5 120t-5 168q0 95 5 167t25.5 121t62 73.5t115.5 24.5zM238 680q-36 0 -56.5 -17.5t-31 -54.5t-13.5 -95.5t-3 -140.5
q0 -83 3 -141t13.5 -95t31 -53.5t56.5 -16.5q35 0 54.5 16.5t29 53.5t11.5 95t2 141q0 82 -2 140.5t-11.5 96t-29 54.5t-54.5 17zM384 939q-14 -59 -51.5 -93.5t-95.5 -34.5t-99.5 34.5t-52.5 94.5l49 17q4 -19 12.5 -36.5t21.5 -31t30.5 -21.5t38.5 -8q42 0 69 29.5
t35 69.5z" />
    <glyph glyph-name="obreve" unicode="&#x14f;" horiz-adv-x="429" 
d="M30 0zM214 552q69 0 106.5 -23t55 -62t20.5 -90.5t3 -107.5t-3 -106.5t-20.5 -89t-55 -61.5t-106.5 -23t-106 23t-54.5 61.5t-20.5 89t-3 106.5t3 107.5t20.5 90.5t55 62t105.5 23zM214 476q-33 0 -51 -12t-27 -37.5t-10.5 -64.5t-1.5 -93t1.5 -92.5t10.5 -64t27 -37.5
t51 -12t51 12t27 37.5t10.5 64t1.5 92.5t-1.5 93t-10.5 64.5t-27 37.5t-51 12zM364 737q-14 -59 -51.5 -93.5t-95.5 -34.5t-99.5 34.5t-52.5 94.5l49 17q4 -19 12.5 -36.5t21.5 -31t30.5 -21.5t38.5 -8q42 0 69 29.5t35 69.5z" />
    <glyph glyph-name="Ohungarumlaut" unicode="&#x150;" 
d="M30 0zM238 758q74 0 114.5 -24t60 -72t23.5 -120.5t4 -169.5q0 -98 -4 -170t-23.5 -120t-60 -71.5t-114.5 -23.5t-115.5 24.5t-62 72.5t-25.5 120t-5 168q0 95 5 167t25.5 121t62 73.5t115.5 24.5zM238 680q-36 0 -56.5 -17.5t-31 -54.5t-13.5 -95.5t-3 -140.5
q0 -83 3 -141t13.5 -95t31 -53.5t56.5 -16.5q35 0 54.5 16.5t29 53.5t11.5 95t2 141q0 82 -2 140.5t-11.5 96t-29 54.5t-54.5 17zM310 899l-178 -105l-34 38l162 126zM491 899l-178 -105l-34 38l162 126z" />
    <glyph glyph-name="ohungarumlaut" unicode="&#x151;" horiz-adv-x="429" 
d="M30 0zM214 552q69 0 106.5 -23t55 -62t20.5 -90.5t3 -107.5t-3 -106.5t-20.5 -89t-55 -61.5t-106.5 -23t-106 23t-54.5 61.5t-20.5 89t-3 106.5t3 107.5t20.5 90.5t55 62t105.5 23zM214 476q-33 0 -51 -12t-27 -37.5t-10.5 -64.5t-1.5 -93t1.5 -92.5t10.5 -64t27 -37.5
t51 -12t51 12t27 37.5t10.5 64t1.5 92.5t-1.5 93t-10.5 64.5t-27 37.5t-51 12zM283 697l-178 -105l-34 38l162 126zM464 697l-178 -105l-34 38l162 126z" />
    <glyph glyph-name="OE" unicode="&#x152;" horiz-adv-x="641" 
d="M236 757q44 0 71.5 -13t45.5 -37v38h263v-78h-180v-235h151l-8 -79h-143v-277h185v-76h-267v37q-32 -49 -118 -49q-73 0 -114.5 24.5t-61.5 72.5t-25 120t-5 167q0 94 5 166t25 120.5t61.5 73.5t114.5 25zM238 680q-36 0 -56.5 -17.5t-31 -54.5t-13.5 -95.5t-3 -140.5
q0 -83 3 -141t13.5 -95t31 -53.5t56.5 -16.5q35 0 54.5 16.5t29 53.5t11.5 95t2 141q0 82 -2 140.5t-11.5 96t-29 54.5t-54.5 17z" />
    <glyph glyph-name="oe" unicode="&#x153;" horiz-adv-x="684" 
d="M480 552q64 0 99.5 -22t52.5 -57t20 -78t3 -85v-42h-262q0 -41 2 -78t11.5 -65.5t29 -45t54.5 -16.5q50 0 67 27.5t22 80.5l76 -11q-5 -42 -16 -74t-30.5 -53.5t-50 -32.5t-74.5 -11q-54 0 -86.5 19.5t-45.5 52.5q-14 -33 -47.5 -52.5t-90.5 -19.5q-69 0 -106 23
t-54.5 61.5t-20.5 89t-3 106.5t3 107.5t20.5 90.5t55 62t105.5 23q57 0 90 -19.5t47 -50.5q14 32 45 51t84 19zM214 476q-33 0 -51 -12t-27 -37.5t-10.5 -64.5t-1.5 -93t1.5 -92.5t10.5 -64t27 -37.5t51 -12t51 12t27 37.5t10.5 64t1.5 92.5t-1.5 93t-10.5 64.5t-27 37.5
t-51 12zM482 485q-30 0 -47 -12t-26 -33t-11.5 -50.5t-3.5 -65.5h174q0 31 -1 60t-9 51.5t-25.5 36t-50.5 13.5z" />
    <glyph glyph-name="Racute" unicode="&#x154;" horiz-adv-x="403" 
d="M40 0zM284 0l-71 334h-74v-334h-99v745h158q62 0 99.5 -11t57.5 -34.5t26.5 -59.5t6.5 -86q0 -42 -3.5 -77t-13 -61.5t-26 -44.5t-42.5 -25l91 -346h-110zM211 410q28 0 44.5 7t25.5 23.5t11.5 43.5t2.5 66q0 34 -2.5 57.5t-11.5 37.5t-27.5 20.5t-49.5 6.5h-65v-262h72z
M337 899l-178 -105l-34 38l162 126z" />
    <glyph glyph-name="racute" unicode="&#x155;" horiz-adv-x="280" 
d="M40 0zM114 543q8 -43 8 -89q20 42 60 65.5t93 23.5l-8 -94q-35 0 -58 -7t-38.5 -20.5t-24 -34.5t-12.5 -48v-339h-94v543h74zM276 697l-178 -105l-34 38l162 126z" />
    <glyph glyph-name="Rcommaaccent" unicode="&#x156;" horiz-adv-x="403" 
d="M40 0zM284 0l-71 334h-74v-334h-99v745h158q62 0 99.5 -11t57.5 -34.5t26.5 -59.5t6.5 -86q0 -42 -3.5 -77t-13 -61.5t-26 -44.5t-42.5 -25l91 -346h-110zM211 410q28 0 44.5 7t25.5 23.5t11.5 43.5t2.5 66q0 34 -2.5 57.5t-11.5 37.5t-27.5 20.5t-49.5 6.5h-65v-262h72z
M242 -119q0 -26 -15.5 -53t-38.5 -47l-24 16q14 14 23 31.5t9 37.5h-43v97h89v-82z" />
    <glyph glyph-name="rcommaaccent" unicode="&#x157;" horiz-adv-x="280" 
d="M38 0zM114 543q8 -43 8 -89q20 42 60 65.5t93 23.5l-8 -94q-35 0 -58 -7t-38.5 -20.5t-24 -34.5t-12.5 -48v-339h-94v543h74zM127 -119q0 -26 -15.5 -53t-38.5 -47l-24 16q14 14 23 31.5t9 37.5h-43v97h89v-82z" />
    <glyph glyph-name="Rcaron" unicode="&#x158;" horiz-adv-x="403" 
d="M40 0zM284 0l-71 334h-74v-334h-99v745h158q62 0 99.5 -11t57.5 -34.5t26.5 -59.5t6.5 -86q0 -42 -3.5 -77t-13 -61.5t-26 -44.5t-42.5 -25l91 -346h-110zM211 410q28 0 44.5 7t25.5 23.5t11.5 43.5t2.5 66q0 34 -2.5 57.5t-11.5 37.5t-27.5 20.5t-49.5 6.5h-65v-262h72z
M310 937l-76 -126h-64l-78 127l52 25l58 -104l60 106z" />
    <glyph glyph-name="rcaron" unicode="&#x159;" horiz-adv-x="280" 
d="M31 0zM114 543q8 -43 8 -89q20 42 60 65.5t93 23.5l-8 -94q-35 0 -58 -7t-38.5 -20.5t-24 -34.5t-12.5 -48v-339h-94v543h74zM249 735l-76 -126h-64l-78 127l52 25l58 -104l60 106z" />
    <glyph glyph-name="Sacute" unicode="&#x15a;" horiz-adv-x="399" 
d="M17 0zM205 758q50 0 80.5 -13t47 -35.5t22 -53.5t7.5 -66l-79 -11q-2 24 -4.5 43t-10.5 32t-22.5 19.5t-39.5 6.5q-26 0 -41.5 -7t-24 -19.5t-11.5 -31t-3 -41.5q0 -29 6.5 -50.5t18.5 -38t28.5 -29t36.5 -24.5q30 -17 58.5 -35.5t51 -46t36 -68t13.5 -102.5
q0 -96 -41.5 -148t-143.5 -52q-50 0 -81.5 12.5t-50.5 40t-28 71.5t-13 107l85 17q2 -47 7 -79.5t14.5 -52.5t25.5 -28.5t41 -8.5q27 0 43.5 8t25.5 23.5t12.5 39t3.5 54.5q0 36 -7 62t-20.5 45t-33.5 34.5t-45 30.5q-27 16 -51.5 35t-44 45t-31 60t-11.5 81q0 40 8.5 72
t28.5 54.5t53.5 35t83.5 12.5zM335 899l-178 -105l-34 38l162 126z" />
    <glyph glyph-name="sacute" unicode="&#x15b;" horiz-adv-x="357" 
d="M21 0zM181 552q42 0 67.5 -6t40.5 -20.5t22 -38.5t13 -59l-74 -14q-5 34 -15.5 48.5t-44.5 14.5q-29 0 -46 -12.5t-17 -45.5q0 -30 11.5 -51t43.5 -39q33 -18 60.5 -32.5t47 -33t30.5 -45.5t11 -70q0 -78 -37.5 -119.5t-122.5 -41.5q-76 0 -113 39t-37 130l81 12
q0 -22 3 -41.5t10.5 -34.5t20.5 -23.5t34 -8.5q48 0 63 21t15 58q0 45 -22.5 68t-62.5 42q-30 14 -53 29t-38.5 34t-24 44t-8.5 60q0 31 6.5 56t23 43t43.5 27.5t69 9.5zM314 697l-178 -105l-34 38l162 126z" />
    <glyph glyph-name="Scircumflex" unicode="&#x15c;" horiz-adv-x="399" 
d="M17 0zM205 758q50 0 80.5 -13t47 -35.5t22 -53.5t7.5 -66l-79 -11q-2 24 -4.5 43t-10.5 32t-22.5 19.5t-39.5 6.5q-26 0 -41.5 -7t-24 -19.5t-11.5 -31t-3 -41.5q0 -29 6.5 -50.5t18.5 -38t28.5 -29t36.5 -24.5q30 -17 58.5 -35.5t51 -46t36 -68t13.5 -102.5
q0 -96 -41.5 -148t-143.5 -52q-50 0 -81.5 12.5t-50.5 40t-28 71.5t-13 107l85 17q2 -47 7 -79.5t14.5 -52.5t25.5 -28.5t41 -8.5q27 0 43.5 8t25.5 23.5t12.5 39t3.5 54.5q0 36 -7 62t-20.5 45t-33.5 34.5t-45 30.5q-27 16 -51.5 35t-44 45t-31 60t-11.5 81q0 40 8.5 72
t28.5 54.5t53.5 35t83.5 12.5zM90 846l76 127h64l78 -128l-52 -25l-59 104l-59 -106z" />
    <glyph glyph-name="scircumflex" unicode="&#x15d;" horiz-adv-x="357" 
d="M21 0zM181 552q42 0 67.5 -6t40.5 -20.5t22 -38.5t13 -59l-74 -14q-5 34 -15.5 48.5t-44.5 14.5q-29 0 -46 -12.5t-17 -45.5q0 -30 11.5 -51t43.5 -39q33 -18 60.5 -32.5t47 -33t30.5 -45.5t11 -70q0 -78 -37.5 -119.5t-122.5 -41.5q-76 0 -113 39t-37 130l81 12
q0 -22 3 -41.5t10.5 -34.5t20.5 -23.5t34 -8.5q48 0 63 21t15 58q0 45 -22.5 68t-62.5 42q-30 14 -53 29t-38.5 34t-24 44t-8.5 60q0 31 6.5 56t23 43t43.5 27.5t69 9.5zM69 644l76 127h64l78 -128l-52 -25l-59 104l-59 -106z" />
    <glyph glyph-name="Scedilla" unicode="&#x15e;" horiz-adv-x="399" 
d="M173 -12q-44 2 -73 15.5t-46 41t-25.5 70.5t-11.5 103l85 17q2 -47 7 -79.5t14.5 -52.5t25.5 -28.5t41 -8.5q27 0 43.5 8t25.5 23.5t12.5 39t3.5 54.5q0 38 -7.5 64t-21 45t-33.5 33.5t-44 29.5q-27 16 -51.5 35.5t-44 46t-31 60.5t-11.5 79q0 40 8.5 72t28.5 54.5
t53.5 35t83.5 12.5t80.5 -13t47 -35.5t22 -53.5t7.5 -66l-79 -11q-2 24 -4.5 43t-10.5 32t-22.5 19.5t-39.5 6.5q-26 0 -41.5 -7t-24 -19.5t-11.5 -31t-3 -41.5q0 -29 6.5 -50.5t18.5 -38t28.5 -29t36.5 -24.5q31 -18 59.5 -36t50.5 -45.5t35.5 -68t13.5 -102.5
q0 -92 -37.5 -143t-127.5 -56l-2 -31q44 0 61 -21.5t17 -56.5t-28 -54.5t-69 -19.5q-38 0 -74 16l13 30q27 -11 50 -11q24 0 41 12t17 37t-17 35t-54 12z" />
    <glyph glyph-name="scedilla" unicode="&#x15f;" horiz-adv-x="357" 
d="M155 -12q-69 4 -101.5 42.5t-32.5 125.5l81 12q0 -22 3.5 -41.5t11 -34.5t20.5 -23.5t33 -8.5q48 0 63 21t15 58q0 22 -6 38.5t-17.5 29t-27 23t-34.5 19.5q-30 14 -53 29t-38.5 34t-24 44t-8.5 60q0 31 6.5 56t23 43t43.5 27.5t69 9.5t67.5 -6t40.5 -20.5t22 -38.5
t13 -59l-74 -14q-5 34 -15.5 48.5t-44.5 14.5q-29 0 -46 -12.5t-17 -45.5q0 -30 11.5 -51t43.5 -39q33 -19 60 -33t47 -32.5t31 -45t11 -70.5q0 -72 -33 -113.5t-106 -46.5l-2 -31q44 0 61 -21.5t17 -56.5t-28.5 -54.5t-68.5 -19.5q-38 0 -74 16l12 30q28 -11 51 -11
t40.5 12t17.5 37t-17.5 35t-53.5 12z" />
    <glyph glyph-name="Scaron" unicode="&#x160;" horiz-adv-x="399" 
d="M17 0zM205 758q50 0 80.5 -13t47 -35.5t22 -53.5t7.5 -66l-79 -11q-2 24 -4.5 43t-10.5 32t-22.5 19.5t-39.5 6.5q-26 0 -41.5 -7t-24 -19.5t-11.5 -31t-3 -41.5q0 -29 6.5 -50.5t18.5 -38t28.5 -29t36.5 -24.5q30 -17 58.5 -35.5t51 -46t36 -68t13.5 -102.5
q0 -96 -41.5 -148t-143.5 -52q-50 0 -81.5 12.5t-50.5 40t-28 71.5t-13 107l85 17q2 -47 7 -79.5t14.5 -52.5t25.5 -28.5t41 -8.5q27 0 43.5 8t25.5 23.5t12.5 39t3.5 54.5q0 36 -7 62t-20.5 45t-33.5 34.5t-45 30.5q-27 16 -51.5 35t-44 45t-31 60t-11.5 81q0 40 8.5 72
t28.5 54.5t53.5 35t83.5 12.5zM308 937l-76 -126h-64l-78 127l52 25l58 -104l60 106z" />
    <glyph glyph-name="scaron" unicode="&#x161;" horiz-adv-x="357" 
d="M21 0zM181 552q42 0 67.5 -6t40.5 -20.5t22 -38.5t13 -59l-74 -14q-5 34 -15.5 48.5t-44.5 14.5q-29 0 -46 -12.5t-17 -45.5q0 -30 11.5 -51t43.5 -39q33 -18 60.5 -32.5t47 -33t30.5 -45.5t11 -70q0 -78 -37.5 -119.5t-122.5 -41.5q-76 0 -113 39t-37 130l81 12
q0 -22 3 -41.5t10.5 -34.5t20.5 -23.5t34 -8.5q48 0 63 21t15 58q0 45 -22.5 68t-62.5 42q-30 14 -53 29t-38.5 34t-24 44t-8.5 60q0 31 6.5 56t23 43t43.5 27.5t69 9.5zM287 735l-76 -126h-64l-78 127l52 25l58 -104l60 106z" />
    <glyph glyph-name="Tcommaaccent" unicode="&#x162;" horiz-adv-x="361" 
d="M6 0zM356 745v-78h-127v-667h-99v667h-124v78h350zM224 -119q0 -26 -15.5 -53t-38.5 -47l-24 16q14 14 23 31.5t9 37.5h-43v97h89v-82z" />
    <glyph glyph-name="tcommaaccent" unicode="&#x163;" horiz-adv-x="274" 
d="M0 0zM134 543h136l-8 -67h-128v-337q0 -31 14 -48.5t30 -17.5q22 0 34.5 11.5t23.5 34.5l39 -58q-13 -26 -43 -46t-78 -20q-54 0 -84 31.5t-30 100.5v349h-41l7 67h34v137l94 16v-153zM184 -119q0 -26 -15.5 -53t-38.5 -47l-24 16q14 14 23 31.5t9 37.5h-43v97h89v-82z
" />
    <glyph glyph-name="Tcaron" unicode="&#x164;" horiz-adv-x="361" 
d="M6 0zM356 745v-78h-127v-667h-99v667h-124v78h350zM289 937l-76 -126h-64l-78 127l52 25l58 -104l60 106z" />
    <glyph glyph-name="tcaron" unicode="&#x165;" horiz-adv-x="316" 
d="M0 0zM134 543h136l-8 -67h-128v-337q0 -31 14 -48.5t30 -17.5q22 0 34.5 11.5t23.5 34.5l39 -58q-13 -26 -43 -46t-78 -20q-54 0 -84 31.5t-30 100.5v349h-41l7 67h34v137l94 16v-153zM312 723q0 -26 -15.5 -53t-38.5 -47l-24 16q14 14 23 31.5t9 37.5h-43v97h89v-82z
" />
    <glyph glyph-name="Tbar" unicode="&#x166;" horiz-adv-x="361" 
d="M130 546v121h-124v78h350v-78h-127v-121h111v-65h-111v-481h-99v481h-109v65h109z" />
    <glyph glyph-name="tbar" unicode="&#x167;" horiz-adv-x="274" 
d="M134 543h136l-8 -67h-128v-92h118l-6 -65h-112v-180q0 -31 14 -48.5t30 -17.5q22 0 34.5 11.5t23.5 34.5l39 -58q-13 -26 -43 -46t-78 -20q-54 0 -84 31.5t-30 100.5v192h-41l8 65h33v92h-41l7 67h34v137l94 16v-153z" />
    <glyph glyph-name="Utilde" unicode="&#x168;" horiz-adv-x="434" 
d="M38 0zM137 745v-449q0 -61 2 -104.5t10 -71.5t24 -41t44 -13q27 0 43 13t24 41t10 71.5t2 104.5v449h100v-530q0 -54 -6 -96t-24.5 -71.5t-54 -45t-94.5 -15.5q-57 0 -92.5 15t-54.5 44t-25.5 71.5t-6.5 97.5v530h99zM55 859q11 45 34.5 64t53.5 19q20 0 39 -7.5
t36 -16.5t32.5 -16.5t29.5 -7.5q28 0 38 55l59 -19q-12 -48 -37 -68.5t-55 -20.5q-20 0 -38 7t-35.5 15.5t-33 15.5t-29.5 7q-12 0 -21.5 -14t-17.5 -40z" />
    <glyph glyph-name="utilde" unicode="&#x169;" horiz-adv-x="412" 
d="M40 0zM304 0q-2 5 -3.5 15.5t-3 22t-2 22.5t-0.5 18q-21 -42 -52.5 -64.5t-83.5 -22.5q-36 0 -59 12t-36.5 32.5t-18.5 46.5t-5 54v407h93v-413q0 -30 15 -47t45 -17q35 0 56 20t39 65v392h95v-543h-79v0zM44 657q11 45 34.5 64t53.5 19q20 0 39 -7.5t36 -16.5
t32.5 -16.5t29.5 -7.5q28 0 38 55l59 -19q-12 -48 -37 -68.5t-55 -20.5q-20 0 -38 7t-35.5 15.5t-33 15.5t-29.5 7q-12 0 -21.5 -14t-17.5 -40z" />
    <glyph glyph-name="Umacron" unicode="&#x16a;" horiz-adv-x="434" 
d="M38 0zM137 745v-449q0 -61 2 -104.5t10 -71.5t24 -41t44 -13q27 0 43 13t24 41t10 71.5t2 104.5v449h100v-530q0 -54 -6 -96t-24.5 -71.5t-54 -45t-94.5 -15.5q-57 0 -92.5 15t-54.5 44t-25.5 71.5t-6.5 97.5v530h99zM393 892v-65h-352v65h352z" />
    <glyph glyph-name="umacron" unicode="&#x16b;" horiz-adv-x="412" 
d="M30 0zM304 0q-2 5 -3.5 15.5t-3 22t-2 22.5t-0.5 18q-21 -42 -52.5 -64.5t-83.5 -22.5q-36 0 -59 12t-36.5 32.5t-18.5 46.5t-5 54v407h93v-413q0 -30 15 -47t45 -17q35 0 56 20t39 65v392h95v-543h-79v0zM382 690v-65h-352v65h352z" />
    <glyph glyph-name="Ubreve" unicode="&#x16c;" horiz-adv-x="434" 
d="M38 0zM137 745v-449q0 -61 2 -104.5t10 -71.5t24 -41t44 -13q27 0 43 13t24 41t10 71.5t2 104.5v449h100v-530q0 -54 -6 -96t-24.5 -71.5t-54 -45t-94.5 -15.5q-57 0 -92.5 15t-54.5 44t-25.5 71.5t-6.5 97.5v530h99zM366 939q-14 -59 -51.5 -93.5t-95.5 -34.5
t-99.5 34.5t-52.5 94.5l49 17q4 -19 12.5 -36.5t21.5 -31t30.5 -21.5t38.5 -8q42 0 69 29.5t35 69.5z" />
    <glyph glyph-name="ubreve" unicode="&#x16d;" horiz-adv-x="412" 
d="M40 0zM304 0q-2 5 -3.5 15.5t-3 22t-2 22.5t-0.5 18q-21 -42 -52.5 -64.5t-83.5 -22.5q-36 0 -59 12t-36.5 32.5t-18.5 46.5t-5 54v407h93v-413q0 -30 15 -47t45 -17q35 0 56 20t39 65v392h95v-543h-79v0zM355 737q-14 -59 -51.5 -93.5t-95.5 -34.5t-99.5 34.5
t-52.5 94.5l49 17q4 -19 12.5 -36.5t21.5 -31t30.5 -21.5t38.5 -8q42 0 69 29.5t35 69.5z" />
    <glyph glyph-name="Uring" unicode="&#x16e;" horiz-adv-x="434" 
d="M38 0zM137 745v-449q0 -61 2 -104.5t10 -71.5t24 -41t44 -13q27 0 43 13t24 41t10 71.5t2 104.5v449h100v-530q0 -54 -6 -96t-24.5 -71.5t-54 -45t-94.5 -15.5q-57 0 -92.5 15t-54.5 44t-25.5 71.5t-6.5 97.5v530h99zM316 845q0 -86 -99 -86q-100 0 -100 86q0 85 100 85
q99 0 99 -85zM277 845q0 51 -60 51t-60 -51t60 -51t60 51z" />
    <glyph glyph-name="uring" unicode="&#x16f;" horiz-adv-x="412" 
d="M40 0zM304 0q-2 5 -3.5 15.5t-3 22t-2 22.5t-0.5 18q-21 -42 -52.5 -64.5t-83.5 -22.5q-36 0 -59 12t-36.5 32.5t-18.5 46.5t-5 54v407h93v-413q0 -30 15 -47t45 -17q35 0 56 20t39 65v392h95v-543h-79v0zM305 668q0 -86 -99 -86q-100 0 -100 86q0 85 100 85q99 0 99 -85
zM266 668q0 51 -60 51t-60 -51t60 -51t60 51z" />
    <glyph glyph-name="Uhungarumlaut" unicode="&#x170;" horiz-adv-x="434" 
d="M38 0zM137 745v-449q0 -61 2 -104.5t10 -71.5t24 -41t44 -13q27 0 43 13t24 41t10 71.5t2 104.5v449h100v-530q0 -54 -6 -96t-24.5 -71.5t-54 -45t-94.5 -15.5q-57 0 -92.5 15t-54.5 44t-25.5 71.5t-6.5 97.5v530h99zM272 899l-178 -105l-34 38l162 126zM453 899
l-178 -105l-34 38l162 126z" />
    <glyph glyph-name="uhungarumlaut" unicode="&#x171;" horiz-adv-x="412" 
d="M40 0zM304 0q-2 5 -3.5 15.5t-3 22t-2 22.5t-0.5 18q-21 -42 -52.5 -64.5t-83.5 -22.5q-36 0 -59 12t-36.5 32.5t-18.5 46.5t-5 54v407h93v-413q0 -30 15 -47t45 -17q35 0 56 20t39 65v392h95v-543h-79v0zM276 697l-178 -105l-34 38l162 126zM457 697l-178 -105l-34 38
l162 126z" />
    <glyph glyph-name="Uogonek" unicode="&#x172;" horiz-adv-x="434" 
d="M137 745v-475q0 -54 2 -93t9.5 -63.5t23.5 -36t45 -11.5q28 0 43.5 11.5t23.5 36t10 63.5t2 93v475h100v-530q0 -42 -3.5 -77t-13.5 -62.5t-28.5 -46.5t-48.5 -29q-9 -16 -19.5 -32.5t-19 -31t-14 -27t-5.5 -21.5q0 -16 12.5 -22.5t30.5 -6.5t40.5 6t42.5 17l-29 -73
q-56 -28 -99 -28q-25 0 -40.5 11.5t-15.5 36.5q0 27 18.5 64.5t58.5 97.5q-11 -2 -22.5 -3t-23.5 -1q-60 0 -95 15t-54 44.5t-24.5 72t-5.5 96.5v530h99z" />
    <glyph glyph-name="uogonek" unicode="&#x173;" horiz-adv-x="412" 
d="M304 0q-4 17 -6.5 37t-2.5 41q-21 -42 -52.5 -64.5t-83.5 -22.5q-36 0 -59 12t-36.5 32.5t-18.5 46.5t-5 54v407h93v-374q0 -24 1.5 -42.5t7 -31t16 -19.5t27.5 -7q39 0 62.5 20.5t40.5 61.5v392h95v-543q-12 -16 -22.5 -33t-18.5 -32t-13 -27.5t-5 -19.5q0 -16 12 -22.5
t30 -6.5q19 0 41 6t42 17l-29 -73q-56 -28 -99 -28q-25 0 -40.5 11.5t-15.5 36.5q0 29 20 69.5t62 101.5h-43v0z" />
    <glyph glyph-name="Wcircumflex" unicode="&#x174;" horiz-adv-x="648" 
d="M9 0zM276 745h102l83 -593l74 593h104l-125 -745h-97l-90 599l-87 -599h-107l-124 745h106l76 -595zM214 846l76 127h64l78 -128l-52 -25l-59 104l-59 -106z" />
    <glyph glyph-name="wcircumflex" unicode="&#x175;" horiz-adv-x="525" 
d="M9 0zM226 543h84l62 -389l58 389h86l-108 -543h-74l-66 399l-68 -399h-86l-105 543h97l57 -389zM153 644l76 127h64l78 -128l-52 -25l-59 104l-59 -106z" />
    <glyph glyph-name="Ycircumflex" unicode="&#x176;" horiz-adv-x="382" 
d="M9 0zM195 417l94 328h83l-131 -431v-314h-98v314l-134 431h97zM81 846l76 127h64l78 -128l-52 -25l-59 104l-59 -106z" />
    <glyph glyph-name="ycircumflex" unicode="&#x177;" horiz-adv-x="370" 
d="M0 0zM196 148l76 395h89l-141 -583q-9 -38 -20 -70.5t-28.5 -56.5t-43.5 -38t-64 -14q-21 0 -37.5 3.5t-32.5 13.5l40 79q7 -5 14.5 -8t15.5 -3q21 0 44.5 30t40.5 108l-141 539h104zM75 644l76 127h64l78 -128l-52 -25l-59 104l-59 -106z" />
    <glyph glyph-name="Ydieresis" unicode="&#x178;" horiz-adv-x="382" 
d="M9 0zM195 417l94 328h83l-131 -431v-314h-98v314l-134 431h97zM150 815h-82v120h82v-120zM313 815h-82v120h82v-120z" />
    <glyph glyph-name="Zacute" unicode="&#x179;" horiz-adv-x="352" 
d="M14 0zM46 745h278v-64l-209 -604h220v-77h-321v66l212 600h-180v79zM312 899l-178 -105l-34 38l162 126z" />
    <glyph glyph-name="zacute" unicode="&#x17a;" horiz-adv-x="324" 
d="M13 0zM41 543h251v-58l-184 -416h204v-69h-299v58l180 415h-152v70zM298 697l-178 -105l-34 38l162 126z" />
    <glyph glyph-name="Zdotaccent" unicode="&#x17b;" horiz-adv-x="352" 
d="M14 0zM46 745h278v-64l-209 -604h220v-77h-321v66l212 600h-180v79zM217 815h-82v120h82v-120z" />
    <glyph glyph-name="zdotaccent" unicode="&#x17c;" horiz-adv-x="324" 
d="M13 0zM41 543h251v-58l-184 -416h204v-69h-299v58l180 415h-152v70zM203 613h-82v120h82v-120z" />
    <glyph glyph-name="Zcaron" unicode="&#x17d;" horiz-adv-x="352" 
d="M14 0zM46 745h278v-64l-209 -604h220v-77h-321v66l212 600h-180v79zM284 937l-76 -126h-64l-78 127l52 25l58 -104l60 106z" />
    <glyph glyph-name="zcaron" unicode="&#x17e;" horiz-adv-x="324" 
d="M13 0zM41 543h251v-58l-184 -416h204v-69h-299v58l180 415h-152v70zM271 735l-76 -126h-64l-78 127l52 25l58 -104l60 106z" />
    <glyph glyph-name="florin" unicode="&#x192;" horiz-adv-x="480" 
d="M33 -152v72h57q36 0 52.5 16t21.5 61l53 479h-87v65h93l8 66q4 41 14 70t28 47t46.5 26.5t70.5 8.5h57v-72h-57q-36 0 -52.5 -16t-21.5 -61l-7 -69h114v-65h-122l-52 -476q-5 -41 -14.5 -70t-27.5 -47t-46.5 -26.5t-70.5 -8.5h-57z" />
    <glyph glyph-name="Scommaaccent" unicode="&#x218;" horiz-adv-x="399" 
d="M17 0zM205 758q50 0 80.5 -13t47 -35.5t22 -53.5t7.5 -66l-79 -11q-2 24 -4.5 43t-10.5 32t-22.5 19.5t-39.5 6.5q-26 0 -41.5 -7t-24 -19.5t-11.5 -31t-3 -41.5q0 -29 6.5 -50.5t18.5 -38t28.5 -29t36.5 -24.5q30 -17 58.5 -35.5t51 -46t36 -68t13.5 -102.5
q0 -96 -41.5 -148t-143.5 -52q-50 0 -81.5 12.5t-50.5 40t-28 71.5t-13 107l85 17q2 -47 7 -79.5t14.5 -52.5t25.5 -28.5t41 -8.5q27 0 43.5 8t25.5 23.5t12.5 39t3.5 54.5q0 36 -7 62t-20.5 45t-33.5 34.5t-45 30.5q-27 16 -51.5 35t-44 45t-31 60t-11.5 81q0 40 8.5 72
t28.5 54.5t53.5 35t83.5 12.5zM240 -119q0 -26 -15.5 -53t-38.5 -47l-24 16q14 14 23 31.5t9 37.5h-43v97h89v-82z" />
    <glyph glyph-name="scommaaccent" unicode="&#x219;" horiz-adv-x="357" 
d="M21 0zM181 552q42 0 67.5 -6t40.5 -20.5t22 -38.5t13 -59l-74 -14q-5 34 -15.5 48.5t-44.5 14.5q-29 0 -46 -12.5t-17 -45.5q0 -30 11.5 -51t43.5 -39q33 -18 60.5 -32.5t47 -33t30.5 -45.5t11 -70q0 -78 -37.5 -119.5t-122.5 -41.5q-76 0 -113 39t-37 130l81 12
q0 -22 3 -41.5t10.5 -34.5t20.5 -23.5t34 -8.5q48 0 63 21t15 58q0 45 -22.5 68t-62.5 42q-30 14 -53 29t-38.5 34t-24 44t-8.5 60q0 31 6.5 56t23 43t43.5 27.5t69 9.5zM223 -119q0 -26 -15.5 -53t-38.5 -47l-24 16q14 14 23 31.5t9 37.5h-43v97h89v-82z" />
    <glyph glyph-name="uni021A" unicode="&#x21a;" horiz-adv-x="361" 
d="M6 0zM356 745v-78h-127v-667h-99v667h-124v78h350zM226 -119q0 -26 -15.5 -53t-38.5 -47l-24 16q14 14 23 31.5t9 37.5h-43v97h89v-82z" />
    <glyph glyph-name="uni021B" unicode="&#x21b;" horiz-adv-x="274" 
d="M0 0zM134 543h136l-8 -67h-128v-337q0 -31 14 -48.5t30 -17.5q22 0 34.5 11.5t23.5 34.5l39 -58q-13 -26 -43 -46t-78 -20q-54 0 -84 31.5t-30 100.5v349h-41l7 67h34v137l94 16v-153zM186 -119q0 -26 -15.5 -53t-38.5 -47l-24 16q14 14 23 31.5t9 37.5h-43v97h89v-82z
" />
    <glyph glyph-name="dotlessj" unicode="&#x237;" horiz-adv-x="187" 
d="M53 543h94v-579q0 -54 -7 -89.5t-22 -56t-39 -29t-59 -8.5q-34 0 -55 9.5t-32 22.5l18 67q10 -14 24.5 -19t28.5 -5q13 0 22.5 4.5t15.5 18.5t8.5 40.5t2.5 70.5v553z" />
    <glyph glyph-name="hsuperior" unicode="&#x2b0;" horiz-adv-x="287" 
d="M30 404v489l70 13v-183q29 29 77 29q24 0 39.5 -8t24.5 -21.5t12.5 -30.5t3.5 -36v-252h-70v255q0 16 -8 25.5t-26 9.5q-15 0 -28.5 -9.5t-24.5 -25.5v-255h-70z" />
    <glyph glyph-name="circumflex" unicode="&#x2c6;" horiz-adv-x="278" 
d="M30 644l76 127h64l78 -128l-52 -25l-59 104l-59 -106z" />
    <glyph glyph-name="caron" unicode="&#x2c7;" horiz-adv-x="278" 
d="M248 735l-76 -126h-64l-78 127l52 25l58 -104l60 106z" />
    <glyph glyph-name="breve" unicode="&#x2d8;" horiz-adv-x="291" 
d="M295 737q-14 -59 -51.5 -93.5t-95.5 -34.5t-99.5 34.5t-52.5 94.5l49 17q4 -19 12.5 -36.5t21.5 -31t30.5 -21.5t38.5 -8q42 0 69 29.5t35 69.5z" />
    <glyph glyph-name="dotaccent" unicode="&#x2d9;" horiz-adv-x="139" 
d="M112 613h-82v120h82v-120z" />
    <glyph glyph-name="ring" unicode="&#x2da;" horiz-adv-x="259" 
d="M229 643q0 -86 -99 -86q-100 0 -100 86q0 85 100 85q99 0 99 -85zM190 643q0 51 -60 51t-60 -51t60 -51t60 51z" />
    <glyph glyph-name="ogonek" unicode="&#x2db;" horiz-adv-x="221" 
d="M105 -56q-23 -36 -23 -57q0 -16 12.5 -22.5t30.5 -6.5t40.5 6t42.5 17l-29 -72q-56 -28 -99 -28q-25 0 -40.5 11.5t-15.5 36.5q0 20 11 49t37 68l35 54h34z" />
    <glyph glyph-name="tilde" unicode="&#x2dc;" horiz-adv-x="382" 
d="M30 657q11 45 34.5 64t53.5 19q20 0 39 -7.5t36 -16.5t32.5 -16.5t29.5 -7.5q28 0 38 55l59 -19q-12 -48 -37 -68.5t-55 -20.5q-20 0 -38 7t-35.5 15.5t-33 15.5t-29.5 7q-12 0 -21.5 -14t-17.5 -40z" />
    <glyph glyph-name="hungarumlaut" unicode="&#x2dd;" horiz-adv-x="452" 
d="M262 697l-178 -105l-34 38l162 126zM443 697l-178 -105l-34 38l162 126z" />
    <glyph glyph-name="commaaccent" unicode="&#x326;" horiz-adv-x="136" 
d="M113 -119q0 -26 -15.5 -53t-38.5 -47l-24 16q14 14 23 31.5t9 37.5h-43v97h89v-82z" />
    <glyph glyph-name="pi" unicode="&#x3c0;" horiz-adv-x="557" 
d="M529 2q-15 -5 -34.5 -8t-39.5 -3q-53 0 -82 25.5t-29 88.5v371h-192v-476h-77v532h346v-406q0 -17 2 -31t8 -24.5t18 -16.5t32 -6q26 0 48 11v-57z" />
    <glyph glyph-name="Wgrave" unicode="&#x1e80;" horiz-adv-x="648" 
d="M9 0zM276 745h102l83 -593l74 593h104l-125 -745h-97l-90 599l-87 -599h-107l-124 745h106l76 -595zM237 972l162 -127l-33 -37l-179 106z" />
    <glyph glyph-name="wgrave" unicode="&#x1e81;" horiz-adv-x="525" 
d="M9 0zM226 543h84l62 -389l58 389h86l-108 -543h-74l-66 399l-68 -399h-86l-105 543h97l57 -389zM176 770l162 -127l-33 -37l-179 106z" />
    <glyph glyph-name="Wacute" unicode="&#x1e82;" horiz-adv-x="648" 
d="M9 0zM276 745h102l83 -593l74 593h104l-125 -745h-97l-90 599l-87 -599h-107l-124 745h106l76 -595zM460 899l-178 -105l-34 38l162 126z" />
    <glyph glyph-name="wacute" unicode="&#x1e83;" horiz-adv-x="525" 
d="M9 0zM226 543h84l62 -389l58 389h86l-108 -543h-74l-66 399l-68 -399h-86l-105 543h97l57 -389zM398 697l-178 -105l-34 38l162 126z" />
    <glyph glyph-name="Wdieresis" unicode="&#x1e84;" horiz-adv-x="648" 
d="M9 0zM276 745h102l83 -593l74 593h104l-125 -745h-97l-90 599l-87 -599h-107l-124 745h106l76 -595zM283 815h-82v120h82v-120zM446 815h-82v120h82v-120z" />
    <glyph glyph-name="wdieresis" unicode="&#x1e85;" horiz-adv-x="525" 
d="M9 0zM226 543h84l62 -389l58 389h86l-108 -543h-74l-66 399l-68 -399h-86l-105 543h97l57 -389zM222 613h-82v120h82v-120zM385 613h-82v120h82v-120z" />
    <glyph glyph-name="Ygrave" unicode="&#x1ef2;" horiz-adv-x="382" 
d="M9 0zM195 417l94 328h83l-131 -431v-314h-98v314l-134 431h97zM104 972l162 -127l-33 -37l-179 106z" />
    <glyph glyph-name="ygrave" unicode="&#x1ef3;" horiz-adv-x="370" 
d="M0 0zM196 148l76 395h89l-141 -583q-9 -38 -20 -70.5t-28.5 -56.5t-43.5 -38t-64 -14q-21 0 -37.5 3.5t-32.5 13.5l40 79q7 -5 14.5 -8t15.5 -3q21 0 44.5 30t40.5 108l-141 539h104zM98 770l162 -127l-33 -37l-179 106z" />
    <glyph glyph-name="endash" unicode="&#x2013;" horiz-adv-x="396" 
d="M11 262l8 63h368l-7 -63h-369z" />
    <glyph glyph-name="emdash" unicode="&#x2014;" horiz-adv-x="603" 
d="M11 261l8 64h575l-8 -64h-575z" />
    <glyph glyph-name="quoteleft" unicode="&#x2018;" horiz-adv-x="131" 
d="M18 648q0 70 73 146l27 -21q-51 -51 -51 -107h46v-123h-95v105z" />
    <glyph glyph-name="quoteright" unicode="&#x2019;" horiz-adv-x="131" 
d="M113 679q0 -36 -18.5 -72.5t-54.5 -74.5l-27 21q51 52 51 107h-46v124h95v-105z" />
    <glyph glyph-name="quotesinglbase" unicode="&#x201a;" horiz-adv-x="129" 
d="M113 25q0 -36 -18.5 -72.5t-54.5 -74.5l-26 21q50 51 50 107h-46v124h95v-105z" />
    <glyph glyph-name="quotedblleft" unicode="&#x201c;" horiz-adv-x="277" 
d="M19 648q0 70 73 146l26 -21q-50 -52 -50 -107h46v-123h-95v105zM165 648q0 70 73 146l26 -21q-50 -50 -50 -107h46v-123h-95v105z" />
    <glyph glyph-name="quotedblright" unicode="&#x201d;" horiz-adv-x="277" 
d="M259 679q0 -70 -74 -147l-27 21q52 52 52 107h-46v124h95v-105zM113 679q0 -36 -18.5 -72.5t-54.5 -74.5l-27 21q51 52 51 107h-46v124h95v-105z" />
    <glyph glyph-name="quotedblbase" unicode="&#x201e;" horiz-adv-x="277" 
d="M258 25q0 -70 -74 -147l-26 21q51 52 51 107h-46v124h95v-105zM112 25q0 -36 -18.5 -72.5t-54.5 -74.5l-26 21q50 51 50 107h-46v124h95v-105z" />
    <glyph glyph-name="dagger" unicode="&#x2020;" horiz-adv-x="365" 
d="M224 562v-562h-77v562h-117v64h117v118h77v-118h111v-64h-111z" />
    <glyph glyph-name="daggerdbl" unicode="&#x2021;" horiz-adv-x="372" 
d="M146 182v380h-116v64h116v118h78v-118h110v-64h-110v-380h110v-63h-110v-119h-78v119h-116v63h116z" />
    <glyph glyph-name="bullet" unicode="&#x2022;" horiz-adv-x="337" 
d="M168 501q28 0 53.5 -11t44.5 -30.5t30 -46.5t11 -59q0 -31 -11 -57.5t-30 -46t-44.5 -30.5t-53.5 -11q-30 0 -55 11t-43.5 30.5t-29 46t-10.5 57.5q0 32 10.5 59t29 46.5t43.5 30.5t55 11z" />
    <glyph glyph-name="ellipsis" unicode="&#x2026;" horiz-adv-x="764" 
d="M124 0h-94v130h94v-130zM429 0h-94v130h94v-130zM735 0h-94v130h94v-130z" />
    <glyph glyph-name="perthousand" unicode="&#x2030;" horiz-adv-x="751" 
d="M624 400q35 0 54.5 -14.5t29 -41t11.5 -64.5t2 -85q0 -44 -2 -81.5t-11.5 -65t-29 -43t-54.5 -15.5t-54.5 15.5t-29 43t-11.5 65t-2 81.5q0 47 2 85t11.5 64.5t29 41t54.5 14.5zM624 340q-15 0 -24 -8t-13 -25t-5 -45t-1 -67t1 -66.5t5 -45.5t13 -26t24 -8q30 0 36 34
t6 112q0 39 -1 67t-5 45t-12.5 25t-23.5 8zM128 766q34 0 53.5 -14.5t29 -41.5t11.5 -65t2 -85q0 -44 -2 -81t-11.5 -65t-29 -43.5t-53.5 -15.5q-35 0 -54.5 15.5t-29.5 43.5t-12 65t-2 81q0 47 2 85t12 65t29.5 41.5t54.5 14.5zM100 0l262 756h54l-260 -756h-56zM128 705
q-16 0 -24.5 -8t-12.5 -25t-5 -45t-1 -67t1 -66.5t5 -45.5t12.5 -26t24.5 -8q30 0 35.5 34t5.5 112q0 39 -1 67t-4.5 45t-12 25t-23.5 8zM389 400q35 0 54.5 -14.5t29 -41t11.5 -64.5t2 -85q0 -44 -2 -81.5t-11.5 -65t-29 -43t-54.5 -15.5t-54.5 15.5t-29.5 43t-12 65
t-2 81.5q0 47 2 85t12 64.5t29.5 41t54.5 14.5zM389 340q-15 0 -24 -8t-13 -25t-5 -45t-1 -67t1 -66.5t5 -45.5t13 -26t24 -8q30 0 36 34t6 112q0 39 -1 67t-5 45t-12.5 25t-23.5 8z" />
    <glyph glyph-name="guilsinglleft" unicode="&#x2039;" horiz-adv-x="197" 
d="M164 113l-153 178l153 180l24 -26l-110 -154l110 -153z" />
    <glyph glyph-name="guilsinglright" unicode="&#x203a;" horiz-adv-x="197" 
d="M11 138l110 153l-110 154l24 26l153 -180l-153 -178z" />
    <glyph glyph-name="fraction" unicode="&#x2044;" horiz-adv-x="87" 
d="M-119 -100l286 882h70l-288 -882h-68z" />
    <glyph glyph-name="zerosuperior" unicode="&#x2070;" horiz-adv-x="304" 
d="M152 876q45 0 69.5 -11.5t36.5 -39.5t14 -73.5t2 -114.5t-2 -115.5t-14 -74.5t-36.5 -39.5t-69.5 -11.5t-70 11.5t-36.5 39.5t-13.5 74.5t-2 115.5t2 114.5t13.5 73.5t36.5 39.5t70 11.5zM152 816q-18 0 -28.5 -8.5t-15.5 -28.5t-6.5 -55t-1.5 -87q0 -53 1.5 -88
t6.5 -55.5t15.5 -28.5t28.5 -8t28 8.5t15.5 29t7 55t1.5 87.5q0 52 -1.5 86.5t-7 55t-16 29t-27.5 8.5z" />
    <glyph glyph-name="foursuperior" unicode="&#x2074;" horiz-adv-x="295" 
d="M30 544l128 324h81v-312h26l-6 -61h-20v-91h-72v91h-137v49zM167 556v181l-73 -181h73z" />
    <glyph glyph-name="fivesuperior" unicode="&#x2075;" horiz-adv-x="303" 
d="M133 804l-6 -114q11 9 28.5 14t35.5 5q26 0 42 -9t25 -27.5t12 -46t3 -63.5q0 -40 -3 -71.5t-15 -53.5t-37 -33.5t-69 -11.5q-46 0 -72 22t-47 66l52 37q12 -32 27.5 -47t41.5 -15q35 0 43.5 26t8.5 77t-9.5 69t-36.5 18t-51 -21l-48 25l12 218h187l-7 -64h-117z" />
    <glyph glyph-name="sixsuperior" unicode="&#x2076;" horiz-adv-x="302" 
d="M151 816q-32 0 -44 -31t-13 -105q14 14 37 22t50 8q31 0 49.5 -11.5t27.5 -31.5t11.5 -47.5t2.5 -60.5q0 -37 -3 -67t-15.5 -51.5t-36.5 -33t-66 -11.5q-44 0 -68.5 18.5t-36 49.5t-14 71.5t-2.5 85.5q0 75 6 124t19.5 78t36.5 41t56 12q60 0 84.5 -24t27.5 -78l-55 -23
q-3 31 -14.5 48t-39.5 17zM157 648q-15 0 -31.5 -11t-26.5 -31q0 -38 1.5 -66t6.5 -46.5t15 -27.5t27 -9q34 0 43.5 27t9.5 70q0 49 -8 71.5t-37 22.5z" />
    <glyph glyph-name="sevensuperior" unicode="&#x2077;" horiz-adv-x="237" 
d="M23 868h193v-46q-21 -29 -37.5 -76t-28.5 -103.5t-19 -118.5t-8 -120h-83q1 58 10 116t23.5 111t33 98t39.5 78h-130z" />
    <glyph glyph-name="eightsuperior" unicode="&#x2078;" horiz-adv-x="303" 
d="M209 652q30 -14 47 -41.5t17 -78.5q0 -77 -28 -106.5t-92 -29.5q-65 0 -94 29.5t-29 106.5q0 53 13.5 81t48.5 41q-11 6 -19.5 13t-14.5 18t-9 28.5t-3 44.5q0 57 23 87.5t84 30.5q58 0 81.5 -29.5t23.5 -88.5q0 -53 -14 -74.5t-35 -31.5zM148 623q-27 -8 -39 -26.5
t-12 -61.5q0 -44 12 -63t41 -19t40 19.5t11 62.5q0 21 -2.5 35.5t-8.5 24t-16.5 16t-25.5 12.5zM155 682q19 8 32 23.5t13 54.5q0 35 -12.5 48t-32.5 13q-21 0 -33.5 -13t-12.5 -48q0 -21 3 -34t9 -21t14.5 -13.5t19.5 -9.5z" />
    <glyph glyph-name="ninesuperior" unicode="&#x2079;" horiz-adv-x="303" 
d="M149 456q32 0 45 36t14 111q-16 -13 -39 -21t-48 -8q-32 0 -50 11.5t-27 31.5t-11.5 47.5t-2.5 59.5q0 37 3.5 65.5t15.5 47.5t36.5 28.5t66.5 9.5q44 0 68.5 -16.5t36 -45.5t14 -67.5t2.5 -83.5q0 -75 -6.5 -125.5t-20.5 -82t-37.5 -45t-56.5 -13.5q-61 0 -89 28.5
t-30 82.5l56 22q2 -32 16.5 -52.5t43.5 -20.5zM145 635q17 0 32.5 11.5t26.5 29.5q0 38 -1.5 64.5t-6.5 43t-15.5 23.5t-28.5 7q-33 0 -42.5 -21.5t-9.5 -67.5t8 -68t37 -22z" />
    <glyph glyph-name="nsuperior" unicode="&#x207f;" horiz-adv-x="287" 
d="M84 747q8 -14 9 -31q30 36 84 36q24 0 39.5 -8t24.5 -21.5t12.5 -30.5t3.5 -36v-252h-70v255q0 16 -8 25.5t-26 9.5q-15 0 -28.5 -9.5t-24.5 -25.5v-255h-70v343h54v0z" />
    <glyph glyph-name="zeroinferior" unicode="&#x2080;" horiz-adv-x="304" 
d="M30 0zM152 402q45 0 69.5 -11.5t36.5 -39.5t14 -73.5t2 -114.5t-2 -115.5t-14 -74.5t-36.5 -39.5t-69.5 -11.5t-70 11.5t-36.5 39.5t-13.5 74.5t-2 115.5t2 114.5t13.5 73.5t36.5 39.5t70 11.5zM152 342q-18 0 -28.5 -8.5t-15.5 -28.5t-6.5 -55t-1.5 -87q0 -53 1.5 -88
t6.5 -55.5t15.5 -28.5t28.5 -8t28 8.5t15.5 29t7 55t1.5 87.5q0 52 -1.5 86.5t-7 55t-16 29t-27.5 8.5z" />
    <glyph glyph-name="oneinferior" unicode="&#x2081;" horiz-adv-x="199" 
d="M30 0zM30 337q34 5 54.5 21.5t36.5 43.5h48v-472h-72v371q-11 -9 -26 -15.5t-33 -6.5z" />
    <glyph glyph-name="twoinferior" unicode="&#x2082;" horiz-adv-x="287" 
d="M30 0zM140 342q-26 0 -34 -24.5t-12 -87.5l-64 9q2 40 5 71t14 51t33.5 30.5t62.5 10.5q30 0 50 -7.5t32 -24t16.5 -42t4.5 -62.5q0 -41 -12 -80t-30.5 -75t-40.5 -66.5t-43 -54.5h135l-3 -60h-221v56q27 25 53.5 57.5t47.5 68.5t34 75.5t13 78.5q0 42 -10 59t-31 17z
" />
    <glyph glyph-name="threeinferior" unicode="&#x2083;" horiz-adv-x="293" 
d="M30 0zM145 402q37 0 58 -9.5t31.5 -27t13.5 -41.5t3 -53q0 -45 -11 -65t-33 -32q30 -8 43 -32t13 -74q0 -30 -2.5 -56.5t-14.5 -46.5t-36 -31.5t-66 -11.5q-33 0 -53.5 7.5t-33.5 21.5t-18.5 34t-8.5 46l61 19q5 -33 15 -50t37 -17q34 0 43.5 22t9.5 67q0 35 -9.5 52
t-44.5 17h-40l6 59h34q24 0 34.5 13.5t10.5 51.5q0 46 -10 61.5t-32 15.5t-30 -14.5t-12 -55.5l-64 7q2 34 7.5 58t17 38t31 20.5t50.5 6.5z" />
    <glyph glyph-name="fourinferior" unicode="&#x2084;" horiz-adv-x="295" 
d="M30 0zM30 70l128 324h81v-312h26l-6 -61h-20v-91h-72v91h-137v49zM167 82v181l-73 -181h73z" />
    <glyph glyph-name="fiveinferior" unicode="&#x2085;" horiz-adv-x="303" 
d="M30 0zM133 330l-6 -114q11 9 28.5 14t35.5 5q26 0 42 -9t25 -27.5t12 -46t3 -63.5q0 -40 -3 -71.5t-15 -53.5t-37 -33.5t-69 -11.5q-46 0 -72 22t-47 66l52 37q12 -32 27.5 -47t41.5 -15q35 0 43.5 26t8.5 77t-9.5 69t-36.5 18t-51 -21l-48 25l12 218h187l-7 -64h-117z
" />
    <glyph glyph-name="sixinferior" unicode="&#x2086;" horiz-adv-x="302" 
d="M30 0zM151 342q-32 0 -44 -31t-13 -105q14 14 37 22t50 8q31 0 49.5 -11.5t27.5 -31.5t11.5 -47.5t2.5 -60.5q0 -37 -3 -67t-15.5 -51.5t-36.5 -33t-66 -11.5q-44 0 -68.5 18.5t-36 49.5t-14 71.5t-2.5 85.5q0 75 6 124t19.5 78t36.5 41t56 12q60 0 84.5 -24t27.5 -78
l-55 -23q-3 31 -14.5 48t-39.5 17zM157 174q-15 0 -31.5 -11t-26.5 -31q0 -38 1.5 -66t6.5 -46.5t15 -27.5t27 -9q34 0 43.5 27t9.5 70q0 49 -8 71.5t-37 22.5z" />
    <glyph glyph-name="seveninferior" unicode="&#x2087;" horiz-adv-x="238" 
d="M20 0zM27 394h193v-46q-21 -29 -37.5 -76t-28.5 -103.5t-19 -118.5t-8 -120h-83q1 58 10 116t23.5 111t33 98t39.5 78h-130z" />
    <glyph glyph-name="eightinferior" unicode="&#x2088;" horiz-adv-x="303" 
d="M30 0zM209 178q30 -14 47 -41.5t17 -78.5q0 -77 -28 -106.5t-92 -29.5q-65 0 -94 29.5t-29 106.5q0 53 13.5 81t48.5 41q-11 6 -19.5 13t-14.5 18t-9 28.5t-3 44.5q0 57 23 87.5t84 30.5q58 0 81.5 -29.5t23.5 -88.5q0 -53 -14 -74.5t-35 -31.5zM148 149
q-27 -8 -39 -26.5t-12 -61.5q0 -44 12 -63t41 -19t40 19.5t11 62.5q0 21 -2.5 35.5t-8.5 24t-16.5 16t-25.5 12.5zM155 208q19 8 32 23.5t13 54.5q0 35 -12.5 48t-32.5 13q-21 0 -33.5 -13t-12.5 -48q0 -21 3 -34t9 -21t14.5 -13.5t19.5 -9.5z" />
    <glyph glyph-name="nineinferior" unicode="&#x2089;" horiz-adv-x="303" 
d="M30 0zM149 -18q32 0 45 36t14 111q-16 -13 -39 -21t-48 -8q-32 0 -50 11.5t-27 31.5t-11.5 47.5t-2.5 59.5q0 37 3.5 65.5t15.5 47.5t36.5 28.5t66.5 9.5q44 0 68.5 -16.5t36 -45.5t14 -67.5t2.5 -83.5q0 -75 -6.5 -125.5t-20.5 -82t-37.5 -45t-56.5 -13.5
q-61 0 -89 28.5t-30 82.5l56 22q2 -32 16.5 -52.5t43.5 -20.5zM145 161q17 0 32.5 11.5t26.5 29.5q0 38 -1.5 64.5t-6.5 43t-15.5 23.5t-28.5 7q-33 0 -42.5 -21.5t-9.5 -67.5t8 -68t37 -22z" />
    <glyph glyph-name="Euro" unicode="&#x20ac;" horiz-adv-x="434" 
d="M261 680q-34 0 -54 -14t-31 -43t-15 -74.5t-4 -108.5h154l-18 -42h-136v-46h116l-17 -41h-99q0 -71 4.5 -118.5t15 -75.5t28.5 -39.5t45 -11.5q25 0 42 6t27.5 18t17 31t11.5 45l74 -31q-5 -28 -14 -54.5t-27.5 -47.5t-50 -33.5t-80.5 -12.5q-66 0 -105 20.5t-60 61
t-27 101t-6 141.5h-45l12 41h33v46h-45l12 42h33q1 78 7.5 137t27 99.5t59.5 61t104 20.5q66 0 107 -13t65 -42l-41 -91q-20 35 -45.5 51.5t-74.5 16.5z" />
    <glyph glyph-name="trademark" unicode="&#x2122;" horiz-adv-x="527" 
d="M200 766v-49h-56v-276h-58v276h-56v49h170zM279 657v-216h-49v325h73l61 -256l62 256h71v-325h-53v215l-55 -215h-53z" />
    <glyph glyph-name="Omega" unicode="&#x2126;" horiz-adv-x="633" 
d="M378 0v63q19 24 38 61.5t33 85.5t23 105.5t9 122.5q0 62 -3.5 107.5t-19.5 75.5t-49 44.5t-92 14.5q-62 0 -95 -15t-48.5 -45t-18 -75.5t-2.5 -106.5q0 -65 8.5 -122.5t23 -105.5t32.5 -85.5t38 -61.5v-63h-180v70h106q-20 19 -41 55t-38 83.5t-28 105t-11 120.5
q0 76 4 136t28 102t75.5 64t146.5 22t146.5 -22t75 -64t27.5 -102t4 -136q0 -63 -11 -120.5t-28 -105t-38 -83.5t-41 -55h106v-70h-180z" />
    <glyph glyph-name="onethird" unicode="&#x2153;" horiz-adv-x="716" 
d="M43 0zM150 -100l286 882h70l-288 -882h-68zM43 728q34 5 54.5 21.5t36.5 43.5h48v-472h-72v371q-11 -9 -26 -15.5t-33 -6.5zM566 389q37 0 58 -9.5t31.5 -27t13.5 -41.5t3 -53q0 -45 -11 -65t-33 -32q30 -8 43 -32t13 -74q0 -30 -2.5 -56.5t-14.5 -46.5t-36 -31.5
t-66 -11.5q-33 0 -53.5 7.5t-33.5 21.5t-18.5 34t-8.5 46l61 19q5 -33 15 -50t37 -17q34 0 43.5 22t9.5 67q0 35 -9.5 52t-44.5 17h-40l6 59h34q24 0 34.5 13.5t10.5 51.5q0 46 -10 61.5t-32 15.5t-30 -14.5t-12 -55.5l-64 7q2 34 7.5 58t17 38t31 20.5t50.5 6.5z" />
    <glyph glyph-name="twothirds" unicode="&#x2154;" horiz-adv-x="716" 
d="M43 0zM182 -100l286 882h70l-288 -882h-68zM153 733q-26 0 -34 -24.5t-12 -87.5l-64 9q2 40 5 71t14 51t33.5 30.5t62.5 10.5q30 0 50 -7.5t32 -24t16.5 -42t4.5 -62.5q0 -41 -12 -80t-30.5 -75t-40.5 -66.5t-43 -54.5h135l-3 -60h-221v56q27 25 53.5 57.5t47.5 68.5
t34 75.5t13 78.5q0 42 -10 59t-31 17zM566 389q37 0 58 -9.5t31.5 -27t13.5 -41.5t3 -53q0 -45 -11 -65t-33 -32q30 -8 43 -32t13 -74q0 -30 -2.5 -56.5t-14.5 -46.5t-36 -31.5t-66 -11.5q-33 0 -53.5 7.5t-33.5 21.5t-18.5 34t-8.5 46l61 19q5 -33 15 -50t37 -17
q34 0 43.5 22t9.5 67q0 35 -9.5 52t-44.5 17h-40l6 59h34q24 0 34.5 13.5t10.5 51.5q0 46 -10 61.5t-32 15.5t-30 -14.5t-12 -55.5l-64 7q2 34 7.5 58t17 38t31 20.5t50.5 6.5z" />
    <glyph glyph-name="oneeighth" unicode="&#x215b;" horiz-adv-x="705" 
d="M43 0zM145 -100l286 882h70l-288 -882h-68zM43 728q34 5 54.5 21.5t36.5 43.5h48v-472h-72v371q-11 -9 -26 -15.5t-33 -6.5zM618 165q30 -14 47 -41.5t17 -78.5q0 -77 -28 -106.5t-92 -29.5q-65 0 -94 29.5t-29 106.5q0 53 13.5 81t48.5 41q-11 6 -19.5 13t-14.5 18
t-9 28.5t-3 44.5q0 57 23 87.5t84 30.5q58 0 81.5 -29.5t23.5 -88.5q0 -53 -14 -74.5t-35 -31.5zM557 136q-27 -8 -39 -26.5t-12 -61.5q0 -44 12 -63t41 -19t40 19.5t11 62.5q0 21 -2.5 35.5t-8.5 24t-16.5 16t-25.5 12.5zM564 195q19 8 32 23.5t13 54.5q0 35 -12.5 48
t-32.5 13q-21 0 -33.5 -13t-12.5 -48q0 -21 3 -34t9 -21t14.5 -13.5t19.5 -9.5z" />
    <glyph glyph-name="threeeighths" unicode="&#x215c;" horiz-adv-x="712" 
d="M43 0zM181 -100l286 882h70l-288 -882h-68zM625 165q30 -14 47 -41.5t17 -78.5q0 -77 -28 -106.5t-92 -29.5q-65 0 -94 29.5t-29 106.5q0 53 13.5 81t48.5 41q-11 6 -19.5 13t-14.5 18t-9 28.5t-3 44.5q0 57 23 87.5t84 30.5q58 0 81.5 -29.5t23.5 -88.5q0 -53 -14 -74.5
t-35 -31.5zM564 136q-27 -8 -39 -26.5t-12 -61.5q0 -44 12 -63t41 -19t40 19.5t11 62.5q0 21 -2.5 35.5t-8.5 24t-16.5 16t-25.5 12.5zM571 195q19 8 32 23.5t13 54.5q0 35 -12.5 48t-32.5 13q-21 0 -33.5 -13t-12.5 -48q0 -21 3 -34t9 -21t14.5 -13.5t19.5 -9.5zM158 793
q37 0 58 -9.5t31.5 -27t13.5 -41.5t3 -53q0 -45 -11 -65t-33 -32q30 -8 43 -32t13 -74q0 -30 -2.5 -56.5t-14.5 -46.5t-36 -31.5t-66 -11.5q-33 0 -53.5 7.5t-33.5 21.5t-18.5 34t-8.5 46l61 19q5 -33 15 -50t37 -17q34 0 43.5 22t9.5 67q0 35 -9.5 52t-44.5 17h-40l6 59h34
q24 0 34.5 13.5t10.5 51.5q0 46 -10 61.5t-32 15.5t-30 -14.5t-12 -55.5l-64 7q2 34 7.5 58t17 38t31 20.5t50.5 6.5z" />
    <glyph glyph-name="fiveeighths" unicode="&#x215d;" horiz-adv-x="710" 
d="M43 0zM183 -100l286 882h70l-288 -882h-68zM146 721l-6 -114q11 9 28.5 14t35.5 5q26 0 42 -9t25 -27.5t12 -46t3 -63.5q0 -40 -3 -71.5t-15 -53.5t-37 -33.5t-69 -11.5q-46 0 -72 22t-47 66l52 37q12 -32 27.5 -47t41.5 -15q35 0 43.5 26t8.5 77t-9.5 69t-36.5 18
t-51 -21l-48 25l12 218h187l-7 -64h-117zM624 165q30 -14 47 -41.5t17 -78.5q0 -77 -28 -106.5t-92 -29.5q-65 0 -94 29.5t-29 106.5q0 53 13.5 81t48.5 41q-11 6 -19.5 13t-14.5 18t-9 28.5t-3 44.5q0 57 23 87.5t84 30.5q58 0 81.5 -29.5t23.5 -88.5q0 -53 -14 -74.5
t-35 -31.5zM563 136q-27 -8 -39 -26.5t-12 -61.5q0 -44 12 -63t41 -19t40 19.5t11 62.5q0 21 -2.5 35.5t-8.5 24t-16.5 16t-25.5 12.5zM570 195q19 8 32 23.5t13 54.5q0 35 -12.5 48t-32.5 13q-21 0 -33.5 -13t-12.5 -48q0 -21 3 -34t9 -21t14.5 -13.5t19.5 -9.5z" />
    <glyph glyph-name="seveneighths" unicode="&#x215e;" horiz-adv-x="706" 
d="M73 0zM171 -100l286 882h70l-288 -882h-68zM618 165q30 -14 47 -41.5t17 -78.5q0 -77 -28 -106.5t-92 -29.5q-65 0 -94 29.5t-29 106.5q0 53 13.5 81t48.5 41q-11 6 -19.5 13t-14.5 18t-9 28.5t-3 44.5q0 57 23 87.5t84 30.5q58 0 81.5 -29.5t23.5 -88.5q0 -53 -14 -74.5
t-35 -31.5zM557 136q-27 -8 -39 -26.5t-12 -61.5q0 -44 12 -63t41 -19t40 19.5t11 62.5q0 21 -2.5 35.5t-8.5 24t-16.5 16t-25.5 12.5zM564 195q19 8 32 23.5t13 54.5q0 35 -12.5 48t-32.5 13q-21 0 -33.5 -13t-12.5 -48q0 -21 3 -34t9 -21t14.5 -13.5t19.5 -9.5zM80 785
h193v-46q-21 -29 -37.5 -76t-28.5 -103.5t-19 -118.5t-8 -120h-83q1 58 10 116t23.5 111t33 98t39.5 78h-130z" />
    <glyph glyph-name="partialdiff" unicode="&#x2202;" horiz-adv-x="480" 
d="M204 761q18 9 69 9q58 0 92.5 -32t51.5 -78.5t22 -99.5t5 -95q0 -45 -4 -98t-14.5 -106.5t-29 -103.5t-47.5 -88.5t-69.5 -61.5t-95.5 -23q-41 0 -69 16t-45.5 44t-25.5 65.5t-8 79.5q0 51 12.5 96t38 79.5t63 54.5t87.5 20q19 0 38 -5t36.5 -15.5t32.5 -28t26 -42.5
q4 29 5 61.5t1 60.5q0 35 -3.5 74.5t-15.5 73t-35 55.5t-62 22q-17 0 -31.5 -2t-24.5 -7v75zM361 286q-20 53 -54 74t-65 21q-35 0 -61 -14t-43 -38.5t-26 -58t-9 -73.5q0 -61 24 -99.5t73 -38.5q36 0 62.5 18.5t46 50t32.5 72.5t20 86z" />
    <glyph glyph-name="Delta" unicode="&#x2206;" horiz-adv-x="546" 
d="M31 0l184 745h122l178 -745h-484zM275 682l-147 -612h289z" />
    <glyph glyph-name="product" unicode="&#x220f;" horiz-adv-x="480" 
d="M373 -183v878h-267v-878h-74v942h415v-942h-74z" />
    <glyph glyph-name="summation" unicode="&#x2211;" horiz-adv-x="480" 
d="M43 -129v54l211 390l-211 389v55h393v-74h-298l194 -370l-194 -371h298v-73h-393z" />
    <glyph glyph-name="minus" unicode="&#x2212;" horiz-adv-x="530" 
d="M30 340v63h470v-63h-470z" />
    <glyph glyph-name="radical" unicode="&#x221a;" horiz-adv-x="480" 
d="M180 0l-78 328h-82v56h138l64 -292l167 667h71l-197 -759h-83z" />
    <glyph glyph-name="infinity" unicode="&#x221e;" horiz-adv-x="480" 
d="M240 316q-3 -33 -11.5 -54.5t-21.5 -34t-30.5 -17t-39.5 -4.5q-23 0 -43.5 4t-36 20t-25 49t-9.5 92q0 58 9.5 91t25 49t36 20t43.5 4q22 0 39.5 -4.5t30.5 -17t21.5 -34t11.5 -54.5q3 33 11.5 54.5t21.5 34t30.5 17t38.5 4.5q22 0 43 -4t36.5 -20t25 -49t9.5 -91
q0 -59 -9.5 -92t-25 -49t-36.5 -20t-43 -4q-21 0 -38.5 4.5t-30.5 17t-21.5 34t-11.5 54.5zM335 462q-15 0 -29 -3.5t-25 -13t-17.5 -27.5t-6.5 -47q0 -30 6.5 -48t17.5 -27.5t25 -13t29 -3.5q16 0 30.5 2t26 11t18 27.5t6.5 51.5t-6 51t-16.5 27t-24 11t-27.5 2h-7z
M138 462q-15 0 -28 -2t-23.5 -11t-16.5 -27t-6 -51t6 -51.5t16.5 -27.5t23.5 -11t28 -2t30.5 3t27.5 12.5t19.5 28t7.5 48.5q0 29 -6.5 47t-17.5 27.5t-25.5 13t-29.5 3.5h-6z" />
    <glyph glyph-name="integral" unicode="&#x222b;" horiz-adv-x="480" 
d="M69 -226v77h57q34 0 50.5 18t16.5 60v674q0 81 37.5 118.5t121.5 37.5h59v-77h-57q-34 0 -50 -18t-16 -60v-674q0 -81 -38 -118.5t-122 -37.5h-59z" />
    <glyph glyph-name="approxequal" unicode="&#x2248;" horiz-adv-x="562" 
d="M30 136zM30 229q20 26 52 46t77 20q35 0 66 -9t59.5 -20.5t55.5 -20.5t55 -9t61 21.5t76 70.5v-92q-29 -32 -62 -48.5t-79 -16.5q-31 0 -60 9t-57 20.5t-56 20.5t-56 9q-26 0 -59.5 -23t-72.5 -71v93zM30 428q20 26 52 46t77 20q35 0 66 -9t59.5 -20.5t55.5 -20.5t55 -9
t61 21.5t76 70.5v-92q-29 -32 -62 -48.5t-79 -16.5q-31 0 -60 9t-57 20.5t-56 20.5t-56 9q-26 0 -59.5 -23t-72.5 -71v93z" />
    <glyph glyph-name="notequal" unicode="&#x2260;" horiz-adv-x="553" 
d="M357 454l-83 -145h249v-63h-285l-140 -246h-68l139 246h-139v63h175l83 145h-258v63h293l130 228h70l-130 -228h130v-63h-166z" />
    <glyph glyph-name="lessequal" unicode="&#x2264;" horiz-adv-x="525" 
d="M30 1zM432 120l-333 215v52l333 221v-76l-272 -170l272 -168v-74zM30 1v63h470v-63h-470z" />
    <glyph glyph-name="greaterequal" unicode="&#x2265;" horiz-adv-x="529" 
d="M30 1zM102 194l271 168l-271 170v76l333 -221v-52l-333 -215v74zM30 1v63h470v-63h-470z" />
    <glyph glyph-name="lozenge" unicode="&#x25ca;" horiz-adv-x="480" 
d="M195 0l-159 379l159 380h92l156 -380l-156 -379h-92zM358 379l-118 289l-116 -289l116 -288z" />
    <glyph glyph-name="zerooldstyle" unicode="&#xf730;" horiz-adv-x="450" 
d="M225 552q69 0 108 -19.5t58.5 -56t24 -89t4.5 -118.5t-5 -118t-24.5 -88t-58.5 -55t-107 -19q-69 0 -108 19t-58.5 55t-24 88t-4.5 118t4.5 118.5t24 89t58.5 56t108 19.5zM225 476q-36 0 -56.5 -12.5t-30 -38.5t-12 -65t-2.5 -91q0 -53 2.5 -91.5t12 -64t30 -38
t56.5 -12.5t56 12.5t29.5 38t12 64t2.5 91.5q0 52 -2.5 91t-12 65t-29.5 38.5t-56 12.5z" />
    <glyph glyph-name="oneoldstyle" unicode="&#xf731;" horiz-adv-x="216" 
d="M9 461q22 4 39 10t31 15.5t25.5 23t22.5 33.5h59v-543h-94v426q-20 -26 -71 -35z" />
    <glyph glyph-name="twooldstyle" unicode="&#xf732;" horiz-adv-x="399" 
d="M193 480q-26 0 -42 -8.5t-25 -27t-13 -48t-6 -72.5l-82 10q2 55 8.5 96.5t24 69t50.5 41t88 13.5q51 0 83.5 -11.5t50.5 -32.5t24.5 -50t6.5 -64q0 -42 -19.5 -91t-52 -94t-74 -82t-86.5 -56h246l-3 -73h-345v71q47 26 91 63.5t78 81t54.5 90t20.5 90.5t-16 64t-62 20z
" />
    <glyph glyph-name="threeoldstyle" unicode="&#xf733;" horiz-adv-x="408" 
d="M198 543q57 0 89 -14.5t47.5 -40t19 -61t3.5 -78.5q0 -38 -5 -63.5t-14 -43t-23 -28.5t-32 -19q57 -13 78.5 -53t21.5 -113q0 -44 -4 -83.5t-22.5 -69t-56.5 -46.5t-107 -17q-48 0 -78 10.5t-48.5 30t-28.5 47t-17 61.5l76 26q7 -23 14 -41t17.5 -31t26.5 -20t41 -7
q35 0 54.5 9t29.5 27.5t12 46t2 63.5q0 31 -3 54t-12.5 37.5t-27 21.5t-47.5 7h-52l7 72h43q21 0 34 4.5t19.5 17.5t9 34.5t2.5 56.5q0 34 -1.5 58.5t-7.5 40.5t-19 23t-36 7q-21 0 -34 -6.5t-20.5 -19t-11 -32t-6.5 -45.5l-87 8q8 51 18 83.5t26.5 51.5t42.5 26.5t67 7.5z
" />
    <glyph glyph-name="fouroldstyle" unicode="&#xf734;" horiz-adv-x="370" 
d="M13 60l199 483h106v-469h48l-7 -74h-41v-194h-93v194h-212v60zM225 74v318l-134 -318h134z" />
    <glyph glyph-name="fiveoldstyle" unicode="&#xf735;" horiz-adv-x="403" 
d="M161 459l-13 -187q17 10 41.5 17.5t68.5 7.5q37 0 61 -14t37 -42t18 -70.5t5 -99.5q0 -63 -4.5 -112t-23.5 -82.5t-56.5 -51.5t-104.5 -18q-36 0 -63 7.5t-48 23t-37 38.5t-31 54l67 50q17 -45 40.5 -69t64.5 -24q34 0 53 11t28 33t10.5 55.5t1.5 78.5q0 40 -2 68.5
t-9 46.5t-21.5 26.5t-38.5 8.5q-32 0 -52.5 -8.5t-37.5 -24.5l-66 34l22 328h282l-9 -85h-183z" />
    <glyph glyph-name="sixoldstyle" unicode="&#xf736;" horiz-adv-x="433" 
d="M219 641q-32 0 -51 -12t-29 -41.5t-13.5 -78t-4.5 -121.5q26 34 62 53.5t87 19.5q48 0 75 -14.5t41 -42.5t17.5 -68.5t3.5 -91.5q0 -58 -5 -105.5t-24 -81t-56.5 -52t-102.5 -18.5q-69 0 -107 26.5t-56.5 72t-22 107.5t-3.5 134q0 121 9 197t30.5 119.5t57 59.5t87.5 16
q46 0 78 -8t52.5 -26t30 -45.5t11.5 -66.5l-77 -30q-2 24 -6.5 42.5t-14 30.5t-26.5 18.5t-43 6.5zM230 381q-37 0 -60 -20.5t-41 -61.5q0 -67 2 -112t10.5 -72t26 -38t49.5 -11q31 0 49 12.5t27 35t11 53.5t2 68q0 44 -2 72t-9.5 44.5t-22.5 23t-42 6.5z" />
    <glyph glyph-name="sevenoldstyle" unicode="&#xf737;" horiz-adv-x="333" 
d="M25 543h296v-62q-36 -46 -62 -121t-44 -166t-29 -191t-15 -196h-116q4 96 18.5 191.5t36.5 181.5t52 159t66 126h-211z" />
    <glyph glyph-name="eightoldstyle" unicode="&#xf738;" horiz-adv-x="426" 
d="M288 374q28 -9 50 -24t36 -38t21.5 -56.5t7.5 -79.5q0 -59 -10.5 -97t-33.5 -61t-59 -32t-86 -9t-86 9t-59 32t-33.5 61t-10.5 97q0 46 5 79.5t17.5 56.5t35 38t58.5 24q-25 9 -42 23t-27.5 34t-15 47.5t-4.5 64.5q0 41 8 72t27 51.5t50 31t77 10.5q89 0 125.5 -40
t36.5 -125q0 -74 -22 -112t-66 -57zM209 335q-25 -8 -42 -18t-27.5 -27.5t-15 -44t-4.5 -65.5q0 -71 18.5 -100.5t71.5 -29.5q27 0 44 7t27 22.5t14 40.5t4 60q0 39 -4.5 64t-15 42t-28 28t-42.5 21zM218 408q19 9 32.5 19t22.5 25t13 37.5t4 56.5q0 53 -16 73t-55 20
t-56.5 -20t-17.5 -73q0 -34 4 -56.5t12.5 -37.5t22.5 -25t34 -19z" />
    <glyph glyph-name="nineoldstyle" unicode="&#xf739;" horiz-adv-x="433" 
d="M209 -115q32 0 52 17t31 52t15 89t4 128q-23 -34 -58.5 -55t-89.5 -21q-48 0 -75 17t-41 47.5t-17.5 72.5t-3.5 93q0 59 5 102t24 71.5t56.5 42t102.5 13.5q69 0 107 -24t56.5 -67t22 -102.5t3.5 -131.5q0 -121 -10 -202t-32 -130t-58.5 -69.5t-88.5 -20.5
q-93 0 -136 41.5t-47 119.5l76 30q5 -51 28.5 -82t73.5 -31zM203 174q38 0 61 22.5t39 63.5q0 66 -2 108t-10.5 65.5t-26 32t-48.5 8.5t-49 -8t-27 -25.5t-11.5 -45t-2.5 -67.5q0 -41 2 -70.5t9.5 -48t23 -27t42.5 -8.5z" />
    <glyph glyph-name="bsuperior" unicode="&#xf740;" horiz-adv-x="282" 
d="M101 729q13 10 30.5 16.5t42.5 6.5q29 0 45 -12t23.5 -35.5t9 -56.5t1.5 -75q0 -35 -2 -66.5t-11 -56t-28.5 -39t-53.5 -14.5q-31 0 -49.5 8.5t-29.5 22.5q-3 -14 -9 -24h-40v486l71 11v-172zM149 694q-18 0 -31 -9t-21 -22v-183q5 -9 17 -16.5t29 -7.5q28 0 36 26.5
t8 92.5q0 67 -6.5 93t-31.5 26z" />
    <glyph glyph-name="dsuperior" unicode="&#xf741;" horiz-adv-x="290" 
d="M260 404h-60q-4 8 -4 24q-10 -12 -29 -21.5t-45 -9.5q-33 0 -51.5 13.5t-27.5 37t-11 54t-2 63.5q0 42 2 76.5t11.5 59t29 38t54.5 13.5q20 0 36.5 -5.5t27.5 -13.5v157l69 12v-498zM141 694q-30 0 -37.5 -29.5t-7.5 -97.5q0 -54 6.5 -83t30.5 -29q19 0 30 6t17 15.5
t8 21.5t3 24v147q-17 25 -50 25z" />
    <glyph glyph-name="esuperior" unicode="&#xf742;" horiz-adv-x="289" 
d="M144 752q42 0 65 -14t34 -36t13 -49.5t2 -54.5v-33h-164q0 -22 2 -42t8 -35t17 -24t29 -9q27 0 38.5 17.5t14.5 51.5l56 -8q-7 -58 -31 -88.5t-81 -30.5q-42 0 -65.5 15t-35 40t-14 57t-2.5 66q0 36 2.5 68.5t14 56.5t34 38t63.5 14zM145 698q-32 0 -41 -24.5t-10 -61.5
h100v21q0 26 -10.5 45.5t-38.5 19.5z" />
    <glyph glyph-name="isuperior" unicode="&#xf743;" horiz-adv-x="129" 
d="M100 404h-70v343h70v-343zM100 797h-70v94h70v-94z" />
    <glyph glyph-name="lsuperior" unicode="&#xf744;" horiz-adv-x="129" 
d="M30 404v489l70 13v-502h-70z" />
    <glyph glyph-name="msuperior" unicode="&#xf745;" horiz-adv-x="410" 
d="M240 651q1 -6 1 -12.5v-14.5v-220h-70v246q0 20 -6 32t-25 12t-40 -44v-246h-70v343h59q2 -10 4 -30q14 19 30.5 26.5t37.5 7.5q26 0 43 -11.5t25 -28.5q15 23 32 32t40 9q24 0 39.5 -8t24.5 -21.5t12.5 -30.5t3.5 -36v-252h-70v246q0 20 -6 32t-25 12q-20 0 -40 -43z
" />
    <glyph glyph-name="rsuperior" unicode="&#xf746;" horiz-adv-x="188" 
d="M88 747q2 -7 3 -17t1 -21q17 17 34.5 27.5t43.5 10.5v-61q-23 0 -39.5 -9t-30.5 -34v-239h-70v343h58z" />
    <glyph glyph-name="ssuperior" unicode="&#xf747;" horiz-adv-x="264" 
d="M135 754q29 0 47 -6t28.5 -17.5t15 -28.5t6.5 -40l-55 -9q-2 23 -10.5 34t-28.5 11t-28 -10t-8 -26t9.5 -26t24.5 -18t31.5 -16t31.5 -20.5t24.5 -31.5t9.5 -48q0 -54 -25 -80t-79 -26q-50 0 -74.5 27t-24.5 91l59 8q0 -29 8 -49t34 -20q23 0 32 11t9 32q0 18 -10 29
t-25 20t-32 18t-32 21.5t-25 30.5t-10 46q0 43 20.5 68t76.5 25z" />
    <glyph glyph-name="tsuperior" unicode="&#xf748;" horiz-adv-x="213" 
d="M113 747h66v-54h-66v-198q0 -17 5.5 -25t19.5 -8q12 0 19.5 7t14.5 24l29 -44q-9 -18 -29 -33t-52 -15q-37 0 -57 20.5t-20 67.5v204h-30v54h30v81l70 13v-94z" />
    <glyph glyph-name="DEL" horiz-adv-x="558" 
 />
    <glyph glyph-name=".ttfautohint" horiz-adv-x="558" 
d="M0 0z" />
    </font>
</defs>
</svg>
