<?xml version="1.0" standalone="no"?>
<!DOCTYPE svg PUBLIC "-//W3C//DTD SVG 1.1//EN" "http://www.w3.org/Graphics/SVG/1.1/DTD/svg11.dtd" >
<svg xmlns="http://www.w3.org/2000/svg" xmlns:xlink="http://www.w3.org/1999/xlink" version="1.1">
<metadata>
Created by FontForge 20170731 at Wed May 28 01:27:30 2008
 By Aleksey,,,
Copyright (c) 2008 by ShyFoundry. All rights reserved. Freeware for personal use only. To purchase a commercial license, please visit our site at http://www.shyfoundry.com.
</metadata>
<defs>
<font id="SFCartoonistHand" horiz-adv-x="1033" >
  <font-face 
    font-family="SF Cartoonist Hand"
    font-weight="400"
    font-stretch="normal"
    units-per-em="2048"
    panose-1="2 0 5 6 0 0 0 2 0 3"
    ascent="1638"
    descent="-410"
    x-height="819"
    cap-height="1365"
    bbox="-18 -413 1657 1823"
    underline-thickness="20"
    underline-position="-163"
    unicode-range="U+0020-2122"
  />
<missing-glyph horiz-adv-x="1024" 
 />
    <glyph glyph-name=".notdef" horiz-adv-x="1024" 
 />
    <glyph glyph-name=".null" horiz-adv-x="0" 
 />
    <glyph glyph-name="nonmarkingreturn" horiz-adv-x="1024" 
 />
    <glyph glyph-name="space" unicode=" " horiz-adv-x="418" 
 />
    <glyph glyph-name="exclam" unicode="!" horiz-adv-x="391" 
d="M253 97q-2 -29 -26 -58t-53 -29q-27 0 -52 31t-25 58q0 28 32 62q33 34 60 34q24 0 44 -35t20 -63zM251 335q-69 -31 -99 -31q-25 0 -29 31q-4 16 -4 129q0 17 -0.5 43.5t-1.5 61.5t-1 115v205v268q2 26 6.5 63.5t10.5 88.5q14 56 62 56q56 0 56 -56v-974z" />
    <glyph glyph-name="quotedbl" unicode="&#x22;" horiz-adv-x="597" 
d="M302 1114q0 -47 -53 -47q-37 0 -53 36q-40 79 -65 209q48 53 79 53q16 0 23 -22q10 -24 39 -121q30 -99 30 -108zM445 1125q0 -50 -54 -50q-33 0 -50 38q-41 108 -41 191q0 11 7 20.5t18.5 17t26 11.5t29.5 4q20 0 23 -51q0 -32 20 -92q21 -59 21 -89z" />
    <glyph glyph-name="numbersign" unicode="#" horiz-adv-x="1094" 
d="M606 1029q-26 -4 -64 -8t-90 -9l-17 -152q25 2 62 4.5t88 5.5q7 40 21 159zM1038 1114q0 -51 -58 -58q-41 -2 -101.5 -5t-141.5 -8q-8 -90 -18 -164q94 7 135.5 10.5t32.5 3.5q53 0 53 -62q0 -41 -40 -53q-41 -12 -202 -24q-4 -25 -11 -61t-18 -85q-15 -45 -60 -45
q-59 0 -59 65q0 24 15 120q-24 -1 -59.5 -1.5t-83.5 -0.5q-2 -29 -6.5 -69t-12.5 -93q-12 -60 -60 -60q-60 0 -60 60q0 14 3.5 53.5t10.5 103.5h-188q-29 44 -29 76q0 24 29 30q20 4 45 6t56 2h101q4 49 18 150q-107 0 -186 12q-13 32 -13 67q0 24 15 32q6 2 38 2
q28 0 69 1.5t96 5.5q5 34 13.5 85.5t19.5 120.5q36 16 71 16q33 0 33 -31q0 -2 -4.5 -47t-14.5 -134q16 2 54.5 6.5t99.5 12.5q6 91 6 179q46 32 79 32q41 0 41 -85q0 -14 -0.5 -42.5t-1.5 -70.5q82 9 196 9q98 0 98 -62z" />
    <glyph glyph-name="dollar" unicode="$" horiz-adv-x="887" 
d="M659 374q0 145 -176 240v-430q5 -1 34 -1q70 0 109 63q33 54 33 128zM377 983v67q-1 26 -1.5 43t-0.5 25q-134 -35 -134 -138q0 -79 136 -163v166zM790 370q0 -129 -70 -218q-75 -99 -199 -99q-9 0 -19.5 1.5t-23.5 3.5v-27q-46 -31 -79 -31q-29 0 -29 49q0 7 0.5 15.5
t1.5 19.5q-42 16 -82 40.5t-80 56.5q-87 71 -123 142q-10 19 -10 32q0 24 19.5 42t45.5 18q24 0 53 -29q66 -74 83 -89q47 -46 97 -73v447q-261 138 -261 312q0 98 84 172q73 65 177 89q-3 84 -3 68q0 53 53 53q58 0 58 -109q96 -3 161 -60q64 -55 64 -153q-39 -36 -73 -36
q-17 0 -29 31q-17 44 -33 59q-30 33 -90 36v-374q307 -153 307 -389z" />
    <glyph glyph-name="percent" unicode="%" horiz-adv-x="1114" 
d="M910 276q0 76 -48 123q-48 48 -123 48q-64 0 -108 -56q-42 -56 -42 -123q0 -143 157 -143q70 0 117 41q47 42 47 110zM510 1082q0 67 -54 114q-53 48 -121 48q-53 0 -96 -60q-43 -58 -43 -112q0 -135 168 -135q31 0 58 11t46.5 30t30.5 45.5t11 58.5zM1038 276
q0 -119 -87 -198q-87 -78 -209 -78q-123 0 -199 71q-74 72 -74 195t78 212t201 89q118 0 204 -86t86 -205zM905 942q0 -18 -17 -37q-8 -9 -33.5 -30.5t-69.5 -55.5q-95 -74 -244 -211q-175 -161 -239 -215q-85 16 -85 52q0 28 293 294q295 266 333 266q24 0 43 -19.5
t19 -43.5zM640 1085q0 -119 -81 -197q-82 -77 -201 -77q-116 0 -201 70t-85 186q0 118 82 207q82 91 198 91q123 0 205 -79q83 -78 83 -201z" />
    <glyph glyph-name="ampersand" unicode="&#x26;" horiz-adv-x="981" 
d="M678 266q-163 138 -289 292q-92 -166 -92 -283q0 -152 140 -152q70 0 141 41q72 41 100 102zM515 1109q0 40 -32 87q-32 48 -68 48q-62 0 -98 -60q-30 -50 -30 -116q0 -128 92 -286q136 223 136 327zM922 203q0 -85 -36 -85q-23 0 -108 66q-50 -89 -150 -138
q-91 -46 -200 -46q-122 0 -190 77q-67 77 -67 203q0 150 138 384q-147 214 -147 411q0 119 65 202q72 88 188 88q99 0 165 -75q62 -74 62 -174q0 -155 -186 -450q98 -134 251 -273q7 91 15 117q19 79 65 79q63 0 63 -75q0 -72 -33 -219q15 -12 41 -32t64 -48v-12z" />
    <glyph glyph-name="quotesingle" unicode="'" horiz-adv-x="369" 
d="M263 1133q0 -51 -63 -51q-26 0 -41 26q-56 97 -70 220q47 37 77 37q18 0 25 -22q72 -182 72 -210z" />
    <glyph glyph-name="parenleft" unicode="(" horiz-adv-x="575" 
d="M471 1306q0 -18 -44 -74q-14 -18 -29 -36t-31 -35q-169 -230 -169 -535q0 -344 222 -537q-11 -89 -46 -89q-10 0 -17 7q-140 107 -210 280q-67 156 -67 346q0 194 70 391q83 231 215 326q22 15 41 15q26 0 45.5 -18t19.5 -41z" />
    <glyph glyph-name="parenright" unicode=")" horiz-adv-x="575" 
d="M492 739q0 -193 -72 -394q-79 -231 -215 -330q-21 -15 -41 -15q-24 0 -43.5 18t-19.5 42q0 17 18 41q14 16 35 41t49 59q167 232 167 547q0 334 -220 529q10 88 46 88q7 0 16 -6q280 -219 280 -620z" />
    <glyph glyph-name="asterisk" unicode="*" horiz-adv-x="787" 
d="M700 1184q0 -59 -214 -225q58 -44 171 -135q27 -26 27 -54q0 -63 -58 -63q-39 0 -203 131v-181q-47 -29 -78 -29q-21 0 -29 29q-11 49 -11 171q-21 -16 -53 -39t-75 -55q-87 19 -87 53q0 15 195 165q-34 31 -84 76.5t-119 106.5q19 106 68 106q16 0 162 -132v99
q0 83 4 99q12 58 61 58q58 0 58 -85v-212q29 26 71 66.5l98 94.5q22 20 36 20q24 0 42 -20.5t18 -44.5z" />
    <glyph glyph-name="plus" unicode="+" horiz-adv-x="674" 
d="M642 678q0 -67 -147 -67q-31 0 -54.5 0.5t-39.5 1.5v-224q0 -58 -56 -58q-51 0 -63 58q-9 43 -9 232q-26 2 -42 3t-21 1q-19 0 -58 -6t-58 -6q-24 0 -43 18t-19 41q0 79 183 79q13 0 27.5 -0.5t30.5 -1.5v227q0 60 58 60q52 0 63 -60q4 -20 5.5 -78.5t1.5 -158.5h188
q53 0 53 -61z" />
    <glyph glyph-name="comma" unicode="," horiz-adv-x="560" 
d="M386 118q0 -42 -47 -121q-46 -78 -85 -105q-85 24 -85 57q0 1 32 60q34 60 36 68q10 25 22 52.5t30 40.5q17 13 30 13q67 0 67 -65z" />
    <glyph glyph-name="hyphen" unicode="-" horiz-adv-x="831" 
d="M655 676q0 -72 -184 -72q-45 0 -133 3q-45 2 -78 3t-55 1q-55 0 -55 55q0 34 37 46q36 13 216 13q32 0 94 6q63 6 95 6q63 0 63 -61z" />
    <glyph glyph-name="period" unicode="." horiz-adv-x="471" 
d="M321 87q0 -36 -26.5 -60.5t-62.5 -24.5q-104 0 -104 71q0 40 36 79t75 39q36 0 59 -33q23 -34 23 -71z" />
    <glyph glyph-name="slash" unicode="/" horiz-adv-x="577" 
d="M550 1306q0 -42 -41 -168q-14 -43 -86 -268t-201 -633q-8 -34 -26 -82.5t-44 -111.5q-24 -43 -62 -43q-63 0 -63 56q0 16 45 157q27 82 90.5 282.5t163.5 519.5l39 159q26 101 57 149q27 42 64 42q64 0 64 -59z" />
    <glyph glyph-name="zero" unicode="0" horiz-adv-x="1169" 
d="M901 689q0 211 -87 366q-106 187 -300 187q-110 0 -185 -247q-59 -197 -59 -343q0 -130 80 -311q91 -211 203 -211q171 0 270 205q78 163 78 354zM1034 683q0 -251 -109 -447q-134 -236 -365 -236q-222 0 -330 218q-83 171 -83 417q0 255 71 454q99 276 308 276
q249 0 389 -225q119 -194 119 -457z" />
    <glyph glyph-name="one" unicode="1" horiz-adv-x="521" 
d="M335 364q0 -204 -12 -333q-46 -31 -79 -31q-22 0 -27 29t-5 80v24t1 34t1.5 34.5t0.5 23.5v988q-106 -61 -138 -61q-58 0 -58 61q0 24 30 50.5t88 60.5q68 41 99 41q56 0 71 -58q10 -39 10 -169q0 -35 9 -279q9 -243 9 -495z" />
    <glyph glyph-name="two" unicode="2" horiz-adv-x="1002" 
d="M891 73q0 -73 -597 -73q-113 0 -113 67q0 66 60 174q23 43 57 90t79 99q38 45 77 89t77 89q108 126 150 191q78 124 78 223q0 104 -78 161q-67 49 -176 49q-227 0 -227 -203q0 -10 3 -32q4 -20 4 -33q0 -27 -19.5 -46.5t-47.5 -19.5q-68 0 -68 152q0 150 106 235
q100 80 253 80q160 0 266 -88q111 -95 111 -253q0 -149 -137 -340q-24 -33 -84.5 -104.5t-159.5 -183.5q-48 -54 -74.5 -84t-32.5 -37q-58 -71 -87 -137h517q63 -2 63 -65z" />
    <glyph glyph-name="three" unicode="3" horiz-adv-x="1043" 
d="M915 410q0 -167 -127 -288q-127 -122 -291 -122q-95 0 -203 49q-107 49 -166 122q-19 23 -19 42q0 13 6 25t15.5 21t22 14t24.5 5q18 0 122 -71q103 -70 194 -70q187 0 261 174q24 55 24 104q0 164 -215 257q-14 5 -33.5 14t-45.5 20q-52 22 -52 64q0 29 32 58
q40 29 79.5 59t79.5 60q96 82 96 161q0 52 -77 93q-68 38 -125 38q-74 0 -148 -49q-67 -45 -111 -113h-12q-86 0 -86 37q0 8 6 19q23 52 59.5 93.5t85.5 73.5q100 65 210 65q122 0 220 -70q109 -76 109 -194q0 -150 -208 -313q120 -56 193 -150q80 -107 80 -228z" />
    <glyph glyph-name="four" unicode="4" horiz-adv-x="1080" 
d="M992 512q0 -51 -65 -68q-11 -4 -37.5 -6.5t-68.5 -4.5v-148q1 -49 1.5 -85.5t0.5 -61.5q0 -138 -74 -138q-65 0 -65 113v157q5 63 8 101.5t3 55.5q-91 -5 -190 -11.5t-208 -14.5q-44 -4 -74 -5.5t-47 -1.5q-86 0 -86 210q0 20 1.5 54t5.5 83q12 169 12 379q0 13 -1 32.5
t-3 45.5q-3 52 -3 79q0 88 43 88q36 0 60 -38t24 -279q0 -94 -1.5 -161.5t-3.5 -109.5q-9 -140 -9 -157q0 -47 9 -93q112 11 472 33q2 63 3 107t1 70t-6.5 92t-19.5 172t-19 186.5t-6 135.5q0 41 49 41q36 0 53 -36q72 -156 72 -763q56 2 83 3.5t26 1.5q60 0 60 -58z" />
    <glyph glyph-name="five" unicode="5" horiz-adv-x="1060" 
d="M957 456q0 -186 -129 -321q-128 -135 -313 -135q-113 0 -219 60q-54 31 -94.5 70t-68.5 88q-10 17 -10 31q0 26 18.5 45.5t44.5 19.5q28 0 75 -46q34 -34 58.5 -56t40.5 -33q70 -46 155 -46q128 0 219 97q92 98 92 226q0 136 -107 222q-101 80 -241 80q-82 0 -133 -56
q-49 -55 -72 -55q-27 0 -46.5 18.5t-19.5 46.5q0 48 3.5 118.5t10.5 166.5q15 190 15 286q0 52 17 66q18 15 71 15h224q75 1 130 1h92q128 0 128 -66q0 -63 -110 -63q-140 0 -247 2.5t-184 7.5v-388q47 29 124 29q190 0 330 -119q146 -126 146 -312z" />
    <glyph glyph-name="six" unicode="6" horiz-adv-x="1053" 
d="M848 481q0 127 -85 211q-85 85 -212 85q-126 0 -211 -84q-84 -84 -84 -210q0 -154 65 -246q74 -104 222 -104q128 0 218 113q87 103 87 235zM983 488q0 -189 -126 -334q-133 -154 -318 -154q-196 0 -309 140q-105 130 -105 331q0 207 104 478q107 278 251 416
q83 -12 83 -53q0 -6 -10 -20q-155 -222 -227 -435q98 53 224 53q185 0 309 -119q124 -118 124 -303z" />
    <glyph glyph-name="seven" unicode="7" horiz-adv-x="877" 
d="M845 1311q0 -32 -133 -301q-42 -83 -82 -165t-82 -166q-62 -128 -106 -233.5t-72 -191.5q-8 -38 -22.5 -90t-36.5 -121q-19 -43 -55 -43q-27 0 -47 18t-20 45q0 144 212 589q74 149 147 297t148 297h-302q-96 5 -171.5 7.5t-132.5 2.5q-30 43 -30 75q0 34 730 34
q55 0 55 -54z" />
    <glyph glyph-name="eight" unicode="8" horiz-adv-x="1120" 
d="M857 386q0 138 -116 215q-100 65 -246 65q-99 0 -174 -93t-75 -194q0 -120 76 -184t199 -64q132 0 227 60q109 70 109 195zM778 1017q0 86 -60 151q-58 64 -145 64q-221 0 -221 -240q0 -180 196 -180q87 0 158 60q72 60 72 145zM988 386q0 -178 -147 -287
q-131 -99 -315 -99q-176 0 -291 100q-114 100 -114 275q0 115 62 213q63 98 167 146q-125 86 -125 251q0 160 101 270t259 110q135 0 232 -103q98 -104 98 -240q0 -184 -145 -283q101 -48 160 -144q58 -94 58 -209z" />
    <glyph glyph-name="nine" unicode="9" horiz-adv-x="1015" 
d="M746 1077q0 152 -149 152q-154 0 -287 -132q-133 -130 -133 -283q0 -85 70 -140q65 -53 152 -53q106 0 200 73t120 176q27 109 27 207zM876 1091q0 -21 -6 -67q-15 -145 -54 -352q-17 -88 -33.5 -174t-33.5 -174q-10 -54 -27.5 -131.5t-43.5 -180.5q-33 -12 -62 -12
q-39 0 -39 27q0 47 43 268q14 73 28 145l28 144q-143 -104 -280 -104q-140 0 -246 100t-106 241q0 204 173 374q175 170 380 170q126 0 203 -74q76 -73 76 -200z" />
    <glyph glyph-name="colon" unicode=":" horiz-adv-x="478" 
d="M321 85q22 -35 -16 -61q-38 -24 -73 -24q-102 0 -102 72q0 38 35 78q34 39 74 39q36 0 59 -33q23 -34 23 -71zM343 671q0 -45 -48 -72q-40 -20 -88 -20q-57 0 -57 58q0 39 25 79t62 40q39 0 72 -24q34 -24 34 -61z" />
    <glyph glyph-name="semicolon" unicode=";" horiz-adv-x="413" 
d="M300 101q17 -44 -38 -121q-56 -80 -93 -105q-85 24 -85 57q0 6 31 62q33 59 35 66q10 25 22 52.5t30 40.5q17 13 32 13q66 0 66 -65zM317 662q0 -32 -35 -64q-34 -31 -67 -31q-72 0 -72 73q0 38 27 68q28 31 66 31q15 0 29.5 -6.5t26 -17t18.5 -24.5t7 -29z" />
    <glyph glyph-name="less" unicode="&#x3c;" horiz-adv-x="695" 
d="M555 481q0 -12 -5.5 -24t-15 -21.5t-21.5 -15t-25 -5.5q-26 0 -114 65q-29 22 -57.5 44t-57.5 44q-34 20 -83 52t-115 76q-30 24 -30 53q0 19 18 48q37 54 180 203q158 161 187 161q23 0 39 -17.5t16 -39.5q0 -26 -68 -102l-96 -96q-26 -28 -54.5 -60.5t-59.5 -70.5
q35 -22 145 -103q35 -23 84 -60.5t112 -89.5q21 -20 21 -41z" />
    <glyph glyph-name="equal" unicode="=" horiz-adv-x="855" 
d="M703 567q0 -40 -46 -55q-90 -29 -391 -29q-85 0 -85 63q0 55 65 72q92 22 358 22q99 0 99 -73zM662 824q0 -42 -46 -61q-77 -34 -408 -34q-58 0 -58 66q0 55 87 70q132 24 371 24q54 0 54 -65z" />
    <glyph glyph-name="greater" unicode="&#x3e;" horiz-adv-x="689" 
d="M655 829q0 -22 -17 -51q-28 -47 -179 -201q-159 -162 -189 -162q-23 0 -38 18.5t-15 40.5q0 27 68 103q23 24 46.5 48t47.5 47q37 38 66 71t52 61q-28 16 -64 40.5t-81 58.5q-35 23 -84.5 60.5t-113.5 91.5q-23 23 -23 39q0 13 6 25t15.5 21.5t22 15t26.5 5.5
q27 0 113 -65q28 -22 56 -43.5t57 -43.5q33 -20 82.5 -52t115.5 -76q30 -23 30 -52z" />
    <glyph glyph-name="question" unicode="?" horiz-adv-x="826" 
d="M474 106q0 -38 -33 -72t-71 -34q-58 0 -58 77q0 35 16 68q18 41 49 41q35 0 66 -23q31 -22 31 -57zM770 1171q0 -88 -120 -239q-55 -64 -109.5 -128t-110.5 -128q-119 -143 -119 -203q0 -24 82 -33q26 -2 52 -3.5t52 -3.5q59 -14 59 -59q0 -69 -109 -69q-266 0 -266 175
q0 89 121 240q56 64 111.5 128t112.5 128q121 142 121 203q0 13 -16 26q-53 44 -153 44q-73 0 -166 -25q-109 -28 -141 -77q-47 -36 -82 -36q-26 0 -26 41q0 101 173 166q135 47 261 47q104 0 181 -44q92 -53 92 -150z" />
    <glyph glyph-name="at" unicode="@" horiz-adv-x="1319" 
d="M1193 792q0 -157 -61 -289q-80 -167 -216 -167q-133 0 -184 113q-67 -46 -150 -46q-91 0 -153 53q-60 52 -60 145q0 123 105 219t229 96q37 0 74 -8q11 -33 11 -63q0 -41 -29 -41q-8 0 -23.5 3.5t-23.5 3.5q-79 0 -152 -66q-72 -66 -72 -144q0 -74 99 -74q75 0 132 91
q22 135 63 191q23 29 49 29q67 0 67 -61q0 -74 -33 -149q-22 -50 -22 -77q0 -83 73 -83q75 0 115 136q31 102 31 200q0 129 -92 229q-92 99 -219 99q-224 0 -367 -188q-121 -160 -121 -336q0 -135 85 -233q86 -99 217 -117q18 -2 37.5 -3.5t40.5 -1.5q17 0 43 2t61 6
q69 9 103 9q55 0 55 -67q0 -39 -47 -60q-56 -24 -208 -24q-213 0 -345 111q-177 151 -177 390q0 95 32 182q77 203 222 326q159 135 364 135q193 0 322 -140q125 -137 125 -331z" />
    <glyph glyph-name="A" unicode="A" horiz-adv-x="1000" 
d="M724 563q-83 294 -186 603q-42 -121 -98 -278t-128 -352q54 2 205 15q130 12 207 12zM966 61q0 -25 -19 -43t-44 -18q-34 0 -51 41q-8 18 -28 121q-5 28 -22 97t-46 180h-32q-38 0 -95.5 -4.5t-134.5 -12.5t-133.5 -12t-94.5 -4q-25 -66 -60 -164t-81 -230
q-32 -12 -62 -12q-39 0 -39 26q0 60 181 561q57 155 112 307t111 307q10 45 45 123q19 28 36 36q13 5 49 5q24 0 39 -25q20 -32 38.5 -75.5t35.5 -97.5q13 -46 25.5 -91.5t25.5 -90.5q26 -85 59.5 -203t76.5 -273q108 -390 108 -448z" />
    <glyph glyph-name="B" unicode="B" horiz-adv-x="1132" 
d="M961 369q0 99 -149 179q-111 58 -240 78q-26 2 -64 8.5t-88 17.5q-46 19 -46 56q0 26 16 46.5t42 20.5q14 0 46 -3q16 -1 27 -1.5t19 -0.5q112 0 213 37q135 51 135 142q0 142 -200 225q-144 58 -324 58q1 -51 1.5 -158t0.5 -274q27 -275 27 -440q0 -143 -12 -234
q32 -4 62 -5.5t58 -1.5q172 0 297 45q179 65 179 205zM1091 372q0 -196 -202 -295q-159 -77 -377 -77q-231 0 -404 73q-4 17 -4 33q0 65 31 65q35 0 118 -28v125q6 78 6 126v423q-14 144 -21.5 249t-7.5 173q-31 -2 -61 -4l-60 -4q-63 27 -63 61q0 73 174 73q285 0 492 -80
q286 -111 286 -350q0 -164 -196 -239q118 -43 196 -121q93 -90 93 -203z" />
    <glyph glyph-name="C" unicode="C" horiz-adv-x="939" 
d="M894 268q0 -21 -24 -72q-90 -196 -344 -196q-238 0 -369 176q-114 154 -114 403q0 270 131 506q154 280 405 280q88 0 177 -71q96 -75 96 -161q0 -66 -64 -66q-29 0 -58 44q-23 37 -36.5 57t-17.5 25q-39 44 -101 44q-188 0 -307 -251q-97 -204 -97 -419q0 -189 82 -308
q94 -138 274 -138q206 0 265 174q27 10 60 10q42 0 42 -37z" />
    <glyph glyph-name="D" unicode="D" horiz-adv-x="1022" 
d="M852 679q0 143 -58 272q-65 141 -173 215q-119 80 -297 80q-14 0 -25 -0.5t-21 -1.5q2 -185 3 -460t1 -647q14 -1 27.5 -1.5t26.5 -0.5q222 0 369 160t147 384zM981 672q0 -279 -184 -472q-186 -200 -462 -200q-82 0 -166 22q-120 31 -120 87q0 26 20 44.5t45 18.5
q28 0 63 -15q-3 178 -3 1044q-20 -6 -39 -6q-41 0 -39 39q34 85 111 114q53 17 163 17q270 0 446 -215q165 -201 165 -478z" />
    <glyph glyph-name="E" unicode="E" horiz-adv-x="867" 
d="M853 1297q0 -55 -53 -55q-83 0 -248 3q-83 2 -144 3t-103 1q-41 0 -70 0.5t-47 1.5q5 -94 7.5 -213t2.5 -268h213h53t73 1t73 1.5t52 0.5q58 0 58 -54q0 -52 -58 -64q-36 -6 -118 -6h-99q-33 1 -95 1h-155v-536q274 12 553 12q100 0 100 -63q0 -60 -90 -60
q-46 0 -114.5 -0.5t-162.5 -1.5t-163 -1h-117q-79 0 -107 24q-29 26 -29 104q0 99 1.5 244.5t5.5 341.5t6 341.5t2 244.5q0 65 611 65q79 -2 109 -10q53 -14 53 -58z" />
    <glyph glyph-name="F" unicode="F" horiz-adv-x="847" 
d="M847 1300q0 -56 -59 -56h-121q-40 1 -69.5 1.5t-49.5 0.5t-51.5 -0.5t-73.5 -1.5t-73 -1.5t-51 -0.5q-31 0 -61.5 1t-61.5 3v-471q165 2 272 3.5t158 1.5q135 0 135 -72q0 -53 -52 -53q-13 0 -32 0.5t-45 1.5q-51 3 -76 3q-45 0 -134 -2.5t-226 -2.5v-626
q-44 -29 -77 -29q-27 0 -27 29q0 205 -3 613q-1 205 -1.5 357t-0.5 255q0 69 34 93q27 18 629 18q117 0 117 -65z" />
    <glyph glyph-name="G" unicode="G" horiz-adv-x="1002" 
d="M949 406q-1 -45 -1.5 -78t-0.5 -55q0 -218 -21 -276q-20 -60 -69 -60q-57 0 -57 60q0 15 1 32.5t3 37.5q-97 -67 -234 -67q-259 0 -404 225q-125 194 -125 466q0 244 114 441q137 233 362 233q204 0 350 -203q-27 -73 -63 -73q6 0 -97 75q-104 75 -181 75
q-173 0 -273 -195q-81 -158 -81 -349q0 -218 89 -372q110 -188 312 -188q87 0 137 34q22 14 44.5 41t47.5 66q12 19 12 31v331h-31q-35 0 -105 -6q-71 -6 -106 -6q-67 0 -125 19q-19 37 -19 70q0 31 48 36q-7 -1 10.5 -1.5t59.5 -0.5q25 0 62 1.5t88 5.5t88.5 5.5t62.5 1.5
q15 0 23 -2q34 -8 46 -19q12 -12 19 -46q14 -53 14 -157v-133z" />
    <glyph glyph-name="H" unicode="H" horiz-adv-x="1036" 
d="M969 1287q0 -201 -3 -598q-1 -200 -1.5 -347.5t-0.5 -247.5q0 -94 -59 -94q-58 0 -58 659q-204 -10 -331 -14.5t-178 -4.5q-46 0 -84 1.5t-68 5.5q0 -46 -0.5 -114.5t-1.5 -161.5q-1 -92 -1 -160.5v-116.5q0 -94 -62 -94q-56 0 -56 55v1273q55 31 90 31q28 0 28 -31v-280
q3 -236 3 -280q97 -3 121 -3q40 0 98.5 3t137.5 8q157 12 237 12h37t35 -1v131q-2 44 -3 76.5t-1 55.5q0 160 12 285q40 30 77 30q32 0 32 -78z" />
    <glyph glyph-name="I" unicode="I" horiz-adv-x="461" 
d="M427 53q0 -53 -263 -53q-43 0 -74 3q-30 43 -30 76q0 37 109 37q-4 80 -5.5 234.5t-1.5 386.5q-3 60 -3 251q-4 74 -5.5 136.5t-1.5 114.5q-52 2 -101 12q-17 39 -17 68q0 36 45 36q6 0 20 -1.5t20 -1.5q43 0 126 6q42 4 73.5 5.5t53.5 1.5q55 0 55 -49q0 -50 -63 -65
q-21 -5 -103 -9q5 -47 7.5 -163.5t2.5 -305.5q2 -109 3 -271.5t1 -382.5q40 -1 64.5 -2t34.5 -3q53 -14 53 -61z" />
    <glyph glyph-name="J" unicode="J" horiz-adv-x="869" 
d="M814 727q0 -285 -85 -471q-115 -256 -362 -256q-160 0 -263 123q-99 115 -99 278q0 26 2.5 50.5t7.5 46.5q37 19 72 19q36 0 36 -39q0 -7 -2 -21.5t-2 -21.5q0 -121 60 -208q67 -99 183 -99q317 0 317 620q0 55 -2 110t-6 110q0 4 -4.5 46t-12.5 123q-5 51 -8 92.5
t-3 76.5q0 59 60 59q51 0 68 -59q4 -13 7 -47t7 -90q1 -17 5 -71.5t12 -148.5q12 -135 12 -222z" />
    <glyph glyph-name="K" unicode="K" horiz-adv-x="916" 
d="M864 63q0 -25 -20 -44t-45 -19q-17 0 -39 18q-21 18 -79 100q-54 75 -99 136.5t-80 110.5q-36 46 -87.5 114.5t-119.5 162.5q-25 -29 -51.5 -57.5t-55.5 -57.5q1 -73 1 -139.5v-129.5q0 -150 -3 -229q-41 -29 -77 -29q-19 0 -27 29q-2 12 -3.5 56t-1.5 122q0 176 -6 532
q-6 355 -6 532q0 94 61 94q57 0 57 -672l448 548q29 38 89 104q25 20 39 20q24 0 42 -19.5t18 -45.5q0 -16 -13 -39q-8 -13 -99 -121q-18 -21 -340 -415q63 -63 237 -300l70 -95t99 -132q16 -16 36 -42.5t46 -63.5q9 -15 9 -29z" />
    <glyph glyph-name="L" unicode="L" horiz-adv-x="840" 
d="M840 63q0 -56 -81 -56q-35 0 -87.5 -1t-122.5 -3q-140 -3 -209 -3q-178 0 -214 15q-46 21 -46 258q0 166 -9 501q-4 168 -6 293t-2 210q0 88 63 88q65 0 65 -128q0 -8 -0.5 -21.5t-1.5 -31.5q-1 -17 -1 -30.5v-21.5q0 -69 1.5 -171t3.5 -240t3.5 -239.5t1.5 -170.5v-192
h276q243 9 263 9q103 0 103 -65z" />
    <glyph glyph-name="M" unicode="M" horiz-adv-x="1207" 
d="M1140 29q-41 -29 -77 -29q-22 0 -31 30q-8 34 -8 204q0 126 -3 377q-1 126 -1.5 220t-0.5 157q-43 -121 -105 -300.5t-146 -422.5q-8 -26 -15.5 -51.5t-15.5 -51.5q-18 -65 -41 -97q-35 -53 -78 -53q-29 0 -57 43q-17 27 -81 198q-49 125 -122 311.5t-170 437.5v-283
q4 -88 5.5 -159t1.5 -125q0 -217 -12 -406q-41 -29 -75 -29q-31 0 -31 55v17.5t1 24.5t1.5 25t0.5 18q0 88 -2 219t-6 307q-4 177 -5.5 308t-1.5 219q0 73 10 109q15 55 60 55q19 0 37.5 -13t18.5 -32q0 -4 -2 -10q24 -56 84 -204.5t157 -392.5q32 -82 81 -204.5l115 -287.5
l285 814q14 42 27.5 84t27.5 84q44 131 60 146q22 24 49 24q65 0 65 -114v-1222z" />
    <glyph glyph-name="N" unicode="N" horiz-adv-x="1000" 
d="M934 56q0 -56 -87 -56q-25 0 -47 27q-14 18 -29 42.5t-29 56.5q-22 51 -47 106q-245 509 -509 917q1 -55 1.5 -288t0.5 -643q0 -9 0.5 -22.5t1.5 -31.5q3 -36 3 -55q0 -109 -63 -109q-57 0 -57 794q1 73 -3 217q-2 72 -3.5 126.5t-1.5 91.5q0 109 24 124q7 6 48 6
q27 0 39 -12q93 -88 215 -297q20 -35 65.5 -116t115.5 -212q61 -113 122.5 -231t124.5 -244v564q0 43 -1 106.5t-3 150.5t-3 151t-1 107q0 15 30 29q23 10 43 10q21 0 29 -29q21 -71 21 -310v-970z" />
    <glyph glyph-name="O" unicode="O" horiz-adv-x="1048" 
d="M870 655q0 175 -49 316q-64 182 -191 244q-54 26 -86 26q-60 0 -134 -38q-134 -68 -197 -263q-47 -152 -47 -338q0 -211 81 -334q97 -145 299 -145q161 0 253 194q71 157 71 338zM1000 659q0 -255 -111 -439q-130 -220 -368 -220q-236 0 -362 186q-111 160 -111 406
q0 271 107 493q135 280 376 280q232 0 363 -249q106 -200 106 -457z" />
    <glyph glyph-name="P" unicode="P" horiz-adv-x="1046" 
d="M903 848q0 219 -220 321q-165 77 -412 77q-6 -272 -6 -640q75 -12 163 -12q179 0 299 44q176 63 176 210zM1034 855q0 -210 -201 -312q-157 -82 -388 -82q-49 0 -93.5 3t-86.5 10v-382q-2 -92 -60 -92q-55 0 -55 53v225q2 81 3.5 136.5t1.5 87.5q-71 15 -71 71
q0 15 5.5 27.5t15.5 20.5t22.5 11.5t27.5 0.5q1 102 1.5 253t0.5 355q-18 -2 -36 -3.5t-36 -3.5q-37 43 -37 77q0 54 261 54q281 0 481 -112q244 -139 244 -398z" />
    <glyph glyph-name="Q" unicode="Q" 
d="M860 672q0 197 -75 359q-96 208 -266 208q-195 0 -292 -235q-72 -176 -72 -403q0 -201 74 -325q90 -151 303 -151q35 0 74 13q-29 60 -60 119t-65 120q28 67 65 67q39 0 162 -239q152 163 152 467zM986 659q0 -387 -221 -572q78 -173 78 -200q0 -24 -19.5 -41t-43.5 -17
q-29 0 -48 31q-1 2 -6.5 15.5t-15.5 39.5q-14 37 -51 112q-74 -27 -152 -27q-236 0 -362 186q-111 160 -111 406q0 269 109 493q135 280 374 280q232 0 364 -249q105 -201 105 -457z" />
    <glyph glyph-name="R" unicode="R" 
d="M862 992q0 141 -205 208q-143 48 -322 48q-41 0 -89 -6q-2 -69 -3 -212.5t-1 -363.5q165 1 371 87q249 102 249 239zM986 986q0 -220 -375 -368q24 -42 60.5 -102.5t87.5 -141.5q26 -40 53 -79.5t53 -79.5q79 -122 79 -154q0 -23 -19.5 -41t-45.5 -18q-51 0 -135 135
l-102 186q-26 42 -63 104.5t-86 147.5q-137 -41 -251 -41v-421q0 -113 -63 -113q-54 0 -54 53v193q3 153 3 191q1 132 1.5 328.5t0.5 461.5l-22 -7q-59 41 -59 74q0 35 125 56q88 15 157 15q252 0 420 -68q235 -96 235 -311z" />
    <glyph glyph-name="S" unicode="S" horiz-adv-x="899" 
d="M862 362q0 -157 -106 -260q-107 -102 -263 -102q-157 0 -280 87t-170 236q-4 9 -4 18q0 26 21.5 44t47.5 18q32 0 56 -46q7 -20 29 -62q40 -72 130 -118q86 -44 170 -44q108 0 172 64q65 65 65 172q0 59 -37 109q-36 51 -184 130q-192 102 -277 172q-157 127 -157 266
q0 129 104 224t234 95q120 0 221 -70q103 -71 134 -181q-39 -47 -73 -47q-12 0 -45 46q-38 57 -77 85q-61 46 -150 46q-79 0 -150 -59q-70 -58 -70 -137q0 -44 31 -87q64 -93 235 -184q109 -57 175.5 -95.5t91.5 -58.5q126 -104 126 -261z" />
    <glyph glyph-name="T" unicode="T" horiz-adv-x="998" 
d="M988 1299q0 -57 -58 -57h-200q-94 1 -143 1.5t-56 0.5q4 -380 5.5 -587t1.5 -241v-387q-49 -29 -82 -29q-34 0 -34 70v26q1 8 1 13.5v9.5v239q-4 132 -6 352t-2 534q-22 0 -92 -3q-29 -1 -52.5 -1.5t-40.5 -0.5q-44 0 -89.5 2.5t-94.5 7.5q-31 40 -31 74q0 20 31 29
q46 13 818 13q124 0 124 -66z" />
    <glyph glyph-name="U" unicode="U" horiz-adv-x="968" 
d="M922 1029q0 -1027 -489 -1027q-385 0 -385 696q0 62 3 140t10 174q10 130 15.5 208t7.5 106q41 31 78 31q24 0 24 -31q0 -97 -9 -293q-4 -98 -6 -170.5t-2 -121.5q0 -613 259 -613q360 0 360 823q0 58 -3 177q-3 118 -3 178q0 59 58 59q46 0 66 -59q16 -42 16 -277z" />
    <glyph glyph-name="V" unicode="V" horiz-adv-x="915" 
d="M886 1297q0 1 -4 -14q-24 -110 -78 -327q-32 -114 -79.5 -282t-110.5 -394q-13 -50 -22 -82.5t-15 -49.5q-27 -83 -59.5 -115.5t-60.5 -32.5q-34 0 -61 48q-5 10 -13 29.5t-19 48.5q-17 46 -42 115t-57 163q-54 166 -113 389.5t-125 510.5q45 53 79 53q13 0 24 -24
q15 -36 29.5 -80.5t28.5 -98.5q11 -46 22 -91.5t22 -91.5q61 -231 118.5 -416.5t113.5 -330.5q6 19 13.5 47.5l17.5 66.5q13 51 34.5 127.5t52.5 179.5q22 72 53 184t73 268q8 26 18 64.5t22 89.5q10 61 15 73q15 41 53 41q27 0 48.5 -20.5t21.5 -47.5z" />
    <glyph glyph-name="W" unicode="W" horiz-adv-x="1473" 
d="M1420 1306q0 -3 -44.5 -219.5t-133.5 -646.5q-11 -45 -27 -111t-36 -157q-8 -43 -30 -119q-29 -53 -60 -53q-34 0 -60 41q-19 28 -66 196q-31 102 -61.5 203t-61.5 203q-36 121 -62.5 223.5t-43.5 188.5q-48 -271 -99.5 -500.5t-108.5 -423.5q-4 -14 -11 -34t-18 -46
q-36 -53 -74 -53q-30 0 -50 39.5t-30 105.5q-4 26 -8 53t-9 55q-35 193 -102.5 454t-168.5 595q41 59 73 59q11 0 22 -18q8 -15 20 -44.5t26 -74.5q139 -427 249 -947q64 251 108.5 463.5t69.5 391.5q2 24 5 48t5 49q9 58 24 94q20 44 51 44q23 0 45 -17q46 -38 73 -167
q36 -169 99.5 -396.5t156.5 -518.5l147 712q10 40 23 100.5t30 141.5q2 18 7 44t15 60q20 41 53 41q24 0 43.5 -18t19.5 -41z" />
    <glyph glyph-name="X" unicode="X" horiz-adv-x="988" 
d="M932 56q0 -24 -19 -40t-43 -16q-25 0 -49 27q-7 8 -32 48.5t-69 115.5q-38 57 -93 141t-129 197q-93 -155 -173 -286t-149 -243h-9q-87 0 -87 36q0 20 159 283q49 80 97 158.5t96 157.5q-49 77 -103.5 168t-116.5 197q-35 60 -56.5 98t-30.5 54q-47 87 -72 159
q37 54 72 54q11 0 22 -15q8 -12 30.5 -53t59.5 -111t102 -178t159 -255q38 64 92.5 161t126.5 228q14 33 38 80t59 109q23 29 44 29q24 0 42 -18t18 -42q0 -57 -350 -655q364 -554 364 -589z" />
    <glyph glyph-name="Y" unicode="Y" horiz-adv-x="983" 
d="M963 1304q0 -53 -190 -318q-61 -82 -121.5 -163.5t-122.5 -163.5q9 -248 9 -466q0 -89 -9 -164q-38 -29 -73 -29q-43 0 -43 142v42t1 59t1.5 59.5t0.5 42.5v307q-103 140 -200.5 299t-193.5 341q31 70 65 70q20 0 73 -84q17 -26 93.5 -144.5t215.5 -331.5q96 115 270 357
q31 61 111 177q24 29 48 29q25 0 45 -18t20 -43z" />
    <glyph glyph-name="Z" unicode="Z" horiz-adv-x="952" 
d="M920 1309q0 -58 -120 -280q-224 -418 -612 -916q242 4 409.5 6t264.5 2q56 0 56 -54q0 -48 -63 -60q-15 -4 -99 -4q-22 0 -55.5 -0.5t-79.5 -1.5q-45 -1 -78.5 -1h-56.5h-82.5t-115.5 1t-115 1.5t-83 0.5q-58 0 -58 52q0 30 94 163q128 182 213 306t130 193
q93 143 168.5 272.5t135.5 249.5q-111 -8 -330 -6t-329 -6q-35 52 -35 89q0 25 35 36q45 12 120 12q10 0 25.5 -0.5t37.5 -1.5t37.5 -1.5t25.5 -0.5q42 0 104.5 0.5t146.5 1.5q166 3 251 3q58 0 58 -56z" />
    <glyph glyph-name="bracketleft" unicode="[" horiz-adv-x="693" 
d="M638 67q0 -53 -82 -65q-20 -4 -123 -4q-116 0 -171 15q-56 17 -66 71q-2 13 -3.5 314t-1.5 889q5 53 55 66q24 7 123 7q12 0 29.5 0.5t40.5 1.5q46 3 71 3q121 0 121 -70q0 -54 -83 -54h-29q-8 1 -15 1h-12q-179 0 -177 -32q1 -16 1 -191v-509v-140q-1 -46 -1.5 -80.5
t-0.5 -57.5q0 -39 -0.5 -66.5t-1.5 -44.5q72 5 126 7.5t91 2.5q109 0 109 -64z" />
    <glyph glyph-name="backslash" unicode="\" horiz-adv-x="575" 
d="M546 60q0 -60 -61 -60q-36 0 -63 43q-33 51 -60 157q-11 42 -45 160t-92 316q-26 80 -65.5 199t-91.5 280q-44 141 -44 156q0 54 65 54q37 0 63 -42q15 -29 72 -202q38 -123 94.5 -305.5t132.5 -429.5q14 -42 28 -83t28 -83q39 -119 39 -160z" />
    <glyph glyph-name="bracketright" unicode="]" horiz-adv-x="698" 
d="M502 1220q0 -189 -3 -570q-1 -191 -1.5 -332.5t-0.5 -237.5q0 -51 -51 -67q-50 -15 -173 -15q-109 0 -128 4q-85 13 -85 70q0 54 83 54h12.5t16.5 -1h28q178 0 176 32q-1 16 -1 223.5v605.5v256q-90 -6 -211 -6q-115 0 -115 64q0 65 258 65q108 0 144 -18q51 -29 51 -127
z" />
    <glyph glyph-name="asciicircum" unicode="^" horiz-adv-x="800" 
d="M686 1103q0 -26 -19.5 -46.5t-45.5 -20.5q-21 0 -122 101q-101 102 -115 102q-17 0 -97 -80q-25 -26 -49.5 -51.5t-49.5 -51.5q-86 0 -86 40q0 44 93 143q87 92 134 113q32 13 58 13q65 0 156 -82q35 -31 66.5 -64.5t57.5 -71.5q19 -25 19 -44z" />
    <glyph glyph-name="underscore" unicode="_" horiz-adv-x="1318" 
d="M196 -92v92h922v-92h-922z" />
    <glyph glyph-name="grave" unicode="`" horiz-adv-x="422" 
d="M343 1556q0 -25 -21.5 -44t-46.5 -19q-26 0 -57 33q-160 169 -160 208q0 24 21.5 41t46.5 17q17 0 41 -15q17 -11 42.5 -37t60.5 -67q73 -88 73 -117z" />
    <glyph glyph-name="a" unicode="a" horiz-adv-x="828" 
d="M642 630q-12 2 -33.5 11t-52.5 23q-45 22 -90 22q-119 0 -204 -93q-85 -92 -85 -211q0 -96 47 -167q53 -80 145 -80q140 0 266 130v182q4 64 5.5 109.5t1.5 73.5zM765 67q-47 -53 -79 -53q-29 0 -36 88q-129 -102 -276 -102q-158 0 -249 121q-82 109 -82 272
q0 167 128 297q129 129 298 129q89 0 169 -39q12 49 60 49q67 0 67 -143q0 -75 -6 -223q-6 -147 -6 -222q0 -93 12 -174z" />
    <glyph glyph-name="b" unicode="b" horiz-adv-x="794" 
d="M654 399q0 115 -67 200q-74 92 -184 92q-123 0 -217 -99v-298q-3 -6 7 -19q25 -37 47 -63t42 -40q53 -41 128 -41q12 0 25 4q219 49 219 264zM783 393q0 -161 -110 -277t-269 -116q-127 0 -227 89l-3 -40q-39 -30 -73 -30q-38 0 -38 94q0 95 1.5 235.5t3.5 329.5t3.5 330
t1.5 236q0 121 67 121q65 0 65 -119v-498q74 68 198 68q167 0 276 -130q104 -125 104 -293z" />
    <glyph glyph-name="c" unicode="c" horiz-adv-x="759" 
d="M722 215q0 -13 -10 -29q-48 -78 -150 -132q-101 -54 -195 -54q-143 0 -237 109q-89 104 -89 249q0 134 78 253q79 118 204 174q74 34 141 34q74 0 135 -53q59 -52 73 -128q-38 -56 -70 -56q-11 0 -50 54q-37 55 -84 55q-101 0 -197 -103q-95 -104 -95 -206
q0 -105 42 -169q49 -78 149 -78q73 0 174 74t114 74q26 0 46.5 -20.5t20.5 -47.5z" />
    <glyph glyph-name="d" unicode="d" horiz-adv-x="751" 
d="M567 217q-12 141 -12 392q-82 82 -173 82q-100 0 -172 -97q-68 -92 -68 -195q0 -106 56 -186q63 -87 167 -87q123 0 202 91zM691 46q-41 -34 -78 -34q-39 0 -31 65q-101 -77 -218 -77q-154 0 -256 121q-98 116 -98 272q0 162 104 290q112 138 270 138q86 0 166 -50v243
q0 49 -6 147q-2 50 -3.5 86.5t-1.5 61.5q0 56 55 56q46 0 61 -56q9 -29 9 -125q4 -151 6 -303t2 -308q0 -165 4.5 -296t14.5 -231z" />
    <glyph glyph-name="e" unicode="e" horiz-adv-x="807" 
d="M585 539q-54 152 -169 152q-64 0 -128 -60q-52 -49 -85 -117q51 1 146 7t236 18zM770 179q0 -20 -19 -42q-43 -58 -143 -99q-94 -38 -173 -38q-159 0 -276 118q-116 119 -116 278q0 157 109 287q115 138 270 138q107 0 189 -91q71 -77 102 -191q11 -38 11 -53
q0 -43 -58 -59q-86 -26 -328 -26q-48 0 -89 1.5t-75 3.5q0 -112 76 -192q76 -81 185 -81q64 0 159 53t109 53q26 0 46.5 -17t20.5 -43z" />
    <glyph glyph-name="f" unicode="f" horiz-adv-x="720" 
d="M707 1103q0 -81 -65 -81q-44 0 -58 53l-12 52t-11 52q-22 55 -81 55q-11 0 -24 -5q-191 -80 -191 -546q117 6 232 6q82 0 82 -58q0 -54 -313 -54q20 -186 48 -541q-51 -36 -87 -36q-24 0 -33.5 34t-10.5 85q-2 42 -3 62.5t-1 21.5l-7 63t-15 118q-15 111 -15 181h-86
q-30 43 -30 73q0 34 111 34q0 278 56 432q94 261 278 261q106 0 172 -80q64 -73 64 -182z" />
    <glyph glyph-name="g" unicode="g" horiz-adv-x="785" 
d="M601 208q0 84 -24 408q-72 79 -166 79q-101 0 -172 -83q-70 -82 -70 -189q0 -108 68 -196q73 -96 179 -96q46 0 96 28l44 24t45 25zM730 265q0 -656 -329 -656q-84 0 -172 56t-125 132q-8 18 -8 34q0 26 21 43t47 17q25 0 92 -73q68 -74 142 -74q157 0 193 309
q-94 -53 -185 -53q-155 0 -264 133q-103 125 -103 285q0 163 103 278q105 123 264 123q96 0 176 -51q47 31 85 31q29 0 36 -40q7 -29 7 -117q0 -32 2.5 -79t7.5 -110t7.5 -109.5t2.5 -78.5z" />
    <glyph glyph-name="h" unicode="h" horiz-adv-x="799" 
d="M783 369q0 -212 -30 -309q-20 -60 -67 -60q-60 0 -60 60q0 32 3.5 78.5t10.5 109.5t10.5 110t3.5 79q0 276 -173 276q-100 0 -179 -102q-64 -85 -92 -196q0 -256 -12 -386q-41 -29 -75 -29q-38 0 -38 96v160q1 54 1.5 93.5t0.5 65.5v688q-13 103 -19.5 161t-6.5 72
q0 29 57 29q49 0 65 -58q10 -34 10 -164v-230q10 -166 12 -229q114 154 287 154q177 0 245 -159q46 -105 46 -310z" />
    <glyph glyph-name="i" unicode="i" horiz-adv-x="229" 
d="M181 746q12 -66 -5 -186q-2 -69 -4 -115t-3 -70q-1 -45 -1.5 -89.5t-0.5 -89.5q-2 -52 -7 -96.5t-12 -82.5q-39 -17 -64 -17q-40 0 -40 55v169q9 121 9 358q0 114 14.5 167t60.5 53q53 0 53 -56zM193 1038q0 -29 -19 -52t-48 -23q-15 0 -28.5 6t-24.5 16.5t-17.5 24
t-6.5 28.5q0 73 64 73q32 0 56 -21.5t24 -51.5z" />
    <glyph glyph-name="j" unicode="j" horiz-adv-x="591" 
d="M544 208q-12 -227 -47 -384q-75 -237 -251 -237q-116 0 -185 111q-58 94 -58 218q41 29 81 29q19 0 27 -29q12 -52 20.5 -84.5t13.5 -46.5q35 -80 94 -80q107 0 152 205q25 119 25 291q0 42 -1.5 104t-5.5 145q-6 166 -6 250q0 100 66 100q60 0 60 -85q0 -43 1.5 -105.5
t5.5 -147.5t6 -148t2 -106zM532 1034q0 -27 -23 -46.5t-50 -19.5q-73 0 -73 78q0 63 65 63q81 0 81 -75z" />
    <glyph glyph-name="k" unicode="k" horiz-adv-x="758" 
d="M751 53q0 -22 -19.5 -37.5t-43.5 -15.5q-22 0 -48 26q-8 8 -32.5 41t-64.5 90q-52 75 -101 140.5t-96 125.5q-23 -16 -62 -44t-96 -70q-2 -96 -6.5 -168.5t-12.5 -123.5q-37 -17 -65 -17q-39 0 -39 58q0 42 1.5 104.5t3.5 146.5t3.5 245t1.5 402q0 58 -3 175
q-1 60 -1.5 104t-0.5 74q0 56 58 56q46 0 58 -46q3 -17 3 -145q0 -60 3 -181q3 -122 3 -181v-355q34 26 86.5 64.5t124.5 89.5q48 34 110.5 84.5t143.5 118.5q89 -8 89 -44q0 -7 -7 -17q-62 -94 -309 -268q32 -37 76.5 -91.5t101.5 -127.5q140 -182 140 -213z" />
    <glyph glyph-name="l" unicode="l" horiz-adv-x="247" 
d="M195 307q0 -77 -3.5 -145.5t-10.5 -130.5q-43 -31 -77 -31q-36 0 -36 94v61q1 22 1.5 37.5t0.5 25.5q0 178 -9 534q-4 180 -6 312.5t-2 222.5q0 78 58 78q65 0 65 -136q0 -8 -0.5 -20t-1.5 -28v-46q0 -69 2.5 -172t7.5 -242t8 -242t3 -172z" />
    <glyph glyph-name="m" unicode="m" horiz-adv-x="1096" 
d="M1036 416q0 -29 -2 -73.5t-6 -104.5t-5.5 -104.5t-1.5 -73.5q0 -60 -60 -60q-65 0 -65 121q0 26 1.5 63.5t5.5 88.5t5.5 89.5t1.5 64.5q0 271 -139 271q-114 0 -169 -138q5 -34 8 -68.5t3 -69.5q0 -61 -9 -179q-4 -60 -6 -104t-2 -74q0 -60 -60 -60q-65 0 -65 121
q0 26 1.5 63.5t5.5 88.5t6 88.5t2 63.5q0 273 -138 273q-104 0 -162 -124q-1 -84 -1.5 -200t-0.5 -268q0 -111 -63 -111q-58 0 -58 80v340q2 61 3 151t1 211q50 29 85 29q32 0 29 -53q75 66 169 66q143 0 210 -121q86 116 213 116q263 0 263 -403z" />
    <glyph glyph-name="n" unicode="n" horiz-adv-x="748" 
d="M691 423q0 -29 -2.5 -74t-7.5 -105q-9 -119 -9 -179q0 -26 -17 -44.5t-42 -18.5q-65 0 -65 123q0 26 1.5 63t5.5 87q4 51 6 88.5t2 63.5q0 276 -174 276q-133 0 -205 -131v-456q0 -116 -63 -116q-58 0 -58 80v340q2 61 3 151t1 211q50 29 81 29q34 0 33 -67q92 80 213 80
q297 0 297 -401z" />
    <glyph glyph-name="o" unicode="o" horiz-adv-x="754" 
d="M582 423q0 100 -48 183q-54 97 -148 97q-219 0 -219 -312q0 -266 212 -266q101 0 157 104q46 82 46 194zM707 423q0 -170 -81 -288q-92 -135 -254 -135q-152 0 -242 114q-84 106 -84 263q0 175 82 302q96 149 259 149q155 0 243 -130q77 -115 77 -275z" />
    <glyph glyph-name="p" unicode="p" horiz-adv-x="746" 
d="M602 384q0 114 -66 207q-75 100 -184 100q-111 0 -157 -99q6 -146 6 -384q101 -80 192 -80t153 84q56 77 56 172zM730 384q0 -154 -90 -265q-98 -119 -247 -119q-93 0 -185 53q0 -10 0.5 -29.5t1.5 -49.5v-78q0 -58 -3.5 -108.5t-10.5 -94.5q-29 -36 -58 -36
q-53 0 -53 133q0 12 0.5 30t1.5 43q1 24 1.5 42t0.5 30q0 138 -15 413q-7 138 -10.5 241t-3.5 172q0 58 58 58q64 0 65 -61q70 54 172 54q159 0 270 -136q105 -131 105 -292z" />
    <glyph glyph-name="q" unicode="q" horiz-adv-x="727" 
d="M550 592q-67 106 -157 106q-103 0 -181 -119q-70 -107 -70 -215q0 -100 71 -173q72 -72 174 -72q92 0 163 81v392zM662 -302q-61 -31 -95 -31q-24 0 -24 31v351q-73 -49 -164 -49q-153 0 -259 109t-106 261q0 158 105 301q115 153 268 153q86 0 159 -58q-2 65 56 65
q60 0 60 -87v-355v-691z" />
    <glyph glyph-name="r" unicode="r" horiz-adv-x="703" 
d="M695 463q0 -60 -58 -60q-53 0 -69 75q-14 67 -27 138q-27 75 -104 75q-90 0 -175 -83q-83 -83 -83 -173v-406q-49 -29 -82 -29q-29 0 -29 58q0 16 -0.5 39.5t-1.5 54.5q-1 32 -1 157v348q0 32 2 57t6 45q12 57 57 57q58 0 58 -82q0 -8 -0.5 -18.5t-1.5 -24.5
q112 123 244 123q133 0 205 -114q60 -96 60 -237z" />
    <glyph glyph-name="s" unicode="s" horiz-adv-x="693" 
d="M654 203q0 -96 -93 -154q-79 -49 -182 -49q-213 0 -340 162q16 85 51 85q-11 0 93 -66q106 -65 191 -65q129 0 157 79q-4 84 -123 158q-55 30 -109.5 60t-110.5 60q-118 73 -118 158q0 86 92 142q79 48 171 48q59 0 131 -26q91 -31 91 -80q0 -26 -19 -46t-44 -20
q-18 0 -69 21t-82 21q-117 0 -145 -61q40 -59 168 -121q76 -37 124.5 -64.5t71.5 -45.5q94 -76 94 -196z" />
    <glyph glyph-name="t" unicode="t" horiz-adv-x="611" 
d="M604 782q0 -50 -60 -63q-28 -7 -189 -7v-681q-61 -31 -94 -31q-25 0 -25 31v59t1 83t1.5 181t0.5 356h-68q-87 0 -139 9q-23 43 -23 71q0 22 25 32q27 11 205 11v396q0 54 56 54q58 0 58 -54v-394q115 3 191 3q60 0 60 -56z" />
    <glyph glyph-name="u" unicode="u" horiz-adv-x="795" 
d="M730 56q0 -56 -56 -56q-46 0 -58 48q-2 10 -3.5 30.5t-1.5 52.5q-95 -131 -237 -131q-321 0 -321 596q0 141 18 185q19 45 60 45q69 0 69 -63q0 -39 -6 -120q-6 -80 -6 -119q0 -140 32 -244q48 -154 155 -154q94 0 163 96q59 83 68 184q3 45 3 191q-1 116 14 190
q37 22 72 22q34 0 34 -85q0 -13 -0.5 -33t-1.5 -46v-363v-47t1 -66t1.5 -66t0.5 -47z" />
    <glyph glyph-name="v" unicode="v" horiz-adv-x="724" 
d="M691 782q0 -93 -106 -372q-93 -248 -158 -367q-24 -43 -58 -43t-60.5 41t-52.5 113q-10 29 -21 59l-22 60q-25 61 -49.5 121.5t-50.5 122.5q-57 138 -87 248q42 51 75 51q13 0 25 -22q13 -32 32 -79.5t45 -110.5q29 -66 70.5 -164t96.5 -230q30 78 71 194.5t95 274.5
q4 20 13.5 49t23.5 67q23 41 55 41q63 0 63 -54z" />
    <glyph glyph-name="w" unicode="w" horiz-adv-x="1044" 
d="M986 780q0 -39 -98 -377q-98 -335 -117 -360q-23 -33 -54 -33q-33 0 -51 39q-4 8 -11 38.5t-18 84.5q-12 61 -108 408l-101 -365q-6 -30 -19.5 -72.5t-33.5 -99.5q-22 -43 -64 -43q-36 0 -58 39q-43 69 -115 357q-32 130 -52 225.5t-28 158.5q38 34 73 34q38 0 77 -167
q11 -52 22.5 -104t22.5 -104q6 -24 21 -76t40 -133q18 67 45 167t63 234q11 58 51 164q19 40 53 40q28 0 54 -33q27 -33 145 -526q18 59 43.5 146t59.5 204q5 29 16.5 71t29.5 98q19 40 53 40q59 0 59 -55z" />
    <glyph glyph-name="x" unicode="x" horiz-adv-x="759" 
d="M700 766q0 -29 -255 -375q42 -58 79 -108t72 -92q14 -14 32.5 -37t43.5 -55q16 -22 16 -38q0 -23 -17 -42t-41 -19q-55 0 -256 292q-60 -81 -111 -148.5t-94 -123.5q-33 -11 -60 -11q-54 0 -54 56q0 18 20 49q37 49 91.5 122t128.5 172q-113 162 -240 321q17 83 53 83
q46 0 259 -307q25 32 61 81.5t84 116.5q10 17 27.5 40t42.5 54q27 27 53 27q25 0 45 -17t20 -41z" />
    <glyph glyph-name="y" unicode="y" horiz-adv-x="794" 
d="M782 761q0 -2 -5 -17q-54 -134 -116 -272.5t-134 -285.5q-162 -332 -291 -531h-9q-89 0 -89 36q0 5 193 369q-36 89 -91.5 220.5t-130.5 308.5q-28 57 -65 172q38 56 72 56q12 0 22 -13q22 -31 79 -169q32 -72 79 -179t110 -251q112 224 186 409q20 60 77 176
q20 29 46 29q24 0 45.5 -17t21.5 -41z" />
    <glyph glyph-name="z" unicode="z" horiz-adv-x="766" 
d="M708 761q0 -20 -75 -119q-25 -32 -49 -63l-48 -62q-38 -51 -77 -101.5t-77 -101.5q-45 -58 -85.5 -107t-78.5 -89q168 5 263 7.5t121 2.5q101 0 101 -65q0 -63 -114 -63h-27.5t-38.5 1t-38.5 1.5t-27.5 0.5q-23 0 -59.5 -0.5t-85.5 -1.5t-85 -1h-60q-100 0 -109 27
q-3 9 -3 26q0 38 25 75q26 29 63 72.5t86 103.5q49 66 123 163.5t174 228.5h-277q-45 0 -80 1.5t-61 5.5q-31 43 -31 77q0 22 31 31q42 13 375 13h34.5t49.5 -1h83q24 0 41 -19t17 -43z" />
    <glyph glyph-name="braceleft" unicode="{" horiz-adv-x="882" 
d="M804 101q0 -36 -43 -58q-82 -43 -249 -43q-124 0 -210 56q-101 63 -101 183q0 82 62 165q30 35 60 69.5t59 69.5q27 30 40 56q-24 9 -47 9q-25 0 -63 -7q-47 -11 -63 -12q-26 -2 -55 -3.5t-63 -1.5q-58 0 -58 70q0 41 50 61q74 31 244 31q15 0 15 15q0 29 -53 80
q-39 38 -63.5 63t-35.5 38q-53 71 -53 145q0 143 190 219q144 59 311 59q52 0 52 -49q0 -46 -85 -65q-43 -10 -85.5 -19t-86.5 -19q-110 -27 -150 -87q-19 -26 -19 -46q0 -13 10 -34q20 -42 121 -128q79 -67 79 -153q0 -33 -9 -58q55 -36 55 -98q0 -81 -113 -196
q-112 -113 -112 -179q0 -99 184 -99q21 0 51 4t68 12t64 12t40 4q26 0 44 -20.5t18 -45.5z" />
    <glyph glyph-name="bar" unicode="|" horiz-adv-x="507" 
d="M307 65q0 -65 -66 -65q-67 0 -67 65v966q-3 27 -3 112q-2 35 -3.5 63t-1.5 50q0 109 64 109q57 0 69 -66q3 -17 3 -109q0 -69 0.5 -171.5t1.5 -241.5q3 -275 3 -412v-300z" />
    <glyph glyph-name="braceright" unicode="}" horiz-adv-x="884" 
d="M806 708q0 -42 -48 -63q-70 -29 -231 -29q-29 0 -29 -17q0 -28 53 -78q78 -71 99 -98q53 -68 53 -143q0 -142 -189 -220q-144 -60 -311 -60q-53 0 -53 51q0 38 53 58q56 13 110.5 25.5t109.5 24.5q152 44 152 128q0 42 -104 135t-104 177q0 29 8 56q-54 36 -54 96
q0 83 112 198q113 116 113 181q0 99 -184 99q-46 0 -120 -16q-77 -15 -104 -15q-12 0 -23.5 5.5t-20.5 15t-14 21.5t-5 25q0 33 44 56q93 44 250 44q124 0 210 -54q100 -64 100 -185q0 -82 -61 -167l-60 -70l-60 -70q-26 -31 -39 -56q24 -9 50 -9q7 0 25 3l48 8
q70 12 167 12q57 0 57 -69z" />
    <glyph glyph-name="asciitilde" unicode="~" horiz-adv-x="949" 
d="M814 1306q0 -65 -81 -123q-80 -58 -149 -58q-63 0 -118 55q-56 56 -91 56q-50 0 -93 -64t-74 -64q-24 0 -43.5 17.5t-19.5 41.5q0 13 9 33q29 68 89 113q61 46 132 46q78 0 140 -51q62 -50 76 -50q42 0 86 53q45 54 76 54q61 0 61 -59z" />
    <glyph glyph-name="nonbreakingspace" unicode="&#xa0;" horiz-adv-x="418" 
 />
    <glyph glyph-name="exclamdown" unicode="&#xa1;" horiz-adv-x="394" 
d="M253 -217q1 -54 -57 -54q-48 0 -61 54q-2 12 -3.5 48t-1.5 96q-12 178 -12 496v55.5t1 76.5t1.5 76.5t0.5 54.5q0 46 4 63q5 29 29 29q31 0 75 -29v-655q24 -297 24 -311zM254 990q0 -27 -20 -62q-19 -34 -43 -34q-26 0 -60 32q-32 34 -32 62q0 27 24 59q26 32 53 32
q29 0 53 -30q25 -29 25 -59z" />
    <glyph glyph-name="cent" unicode="&#xa2;" horiz-adv-x="751" 
d="M343 1065q-119 -75 -119 -167q0 -11 -1 -27t-3 -37q-3 -42 -3 -64q0 -137 123 -179q3 94 3 141v333zM705 973q-43 -34 -74 -34q-13 0 -32 30q-23 40 -44 57q-37 33 -96 37v-486q13 1 62 14q42 11 64 11q55 0 55 -63q0 -83 -191 -83q-2 -31 -6 -72.5t-11 -93.5
q-36 -15 -70 -15q-36 0 -36 179q-108 27 -181 119q-72 93 -72 214q0 98 48 196q50 104 128 154q40 25 94 39v55q0 134 63 134q55 0 55 -68v-56q-1 -22 -1.5 -36t-0.5 -21q95 -7 164 -61q74 -58 82 -150z" />
    <glyph glyph-name="yen" unicode="&#xa5;" horiz-adv-x="1137" 
d="M1046 1302q0 -14 -7 -31q-58 -144 -192 -322l-231 -297l2 -84q33 2 64.5 3.5t61.5 1.5q123 0 123 -68q0 -65 -133 -65h-58q-20 1 -34 1.5t-22 0.5q1 -28 1 -69v-97q10 0 23 0.5t30 1.5h53q142 0 142 -71q0 -57 -60 -57h-186q-1 -35 -2 -57.5t-3 -32.5q-12 -60 -55 -60
q-60 0 -60 154h-66q-22 -1 -37.5 -1.5t-25.5 -0.5q-157 0 -157 60q0 66 129 66h79q29 -1 48 -1.5t29 -0.5v149q2 3 0 17q-38 -1 -69 -1.5t-54 -0.5q-176 0 -176 67q0 53 51 53q11 0 27.5 -0.5t39.5 -1.5h68q37 0 64.5 0.5t46.5 1.5v87q-291 397 -394 642q-7 14 -7 27
q0 49 56 49q20 0 43 -24q14 -15 113 -174q61 -100 123 -197.5t126 -196.5q90 126 264 381q17 32 44.5 76.5t65.5 104.5q23 29 47 29q26 0 45.5 -18t19.5 -44z" />
    <glyph glyph-name="brokenbar" unicode="&#xa6;" horiz-adv-x="521" 
d="M321 65q-5 -65 -67 -65q-66 0 -66 65q0 80 -3 239q-1 80 -1.5 139.5t-0.5 99.5q0 109 64 109q74 0 74 -121v-466zM317 874q0 -65 -66 -65q-67 0 -67 63q0 65 -3 193q-1 64 -1.5 111.5t-0.5 79.5q0 109 65 109q73 0 73 -121v-370z" />
    <glyph glyph-name="dieresis" unicode="&#xa8;" horiz-adv-x="806" 
d="M329 1611q0 -84 -104 -84q-25 0 -45 19t-20 45q0 33 35 73q34 39 70 39q64 0 64 -92zM654 1638q0 -20 -7 -38t-19.5 -31.5t-29.5 -22t-37 -8.5q-25 0 -46 25q-20 26 -20 52q0 92 84 92q13 0 26.5 -5.5t24.5 -15t17.5 -22t6.5 -26.5z" />
    <glyph glyph-name="copyright" unicode="&#xa9;" horiz-adv-x="1273" 
d="M788 309q0 -41 -63 -84q-55 -29 -107 -29q-87 0 -156 54q-68 56 -68 141q0 91 77 153q72 57 167 57q49 0 92 -22q53 -29 53 -70q0 -50 -53 -50q-17 0 -44 10q-30 11 -44 11q-39 0 -77 -23q-43 -25 -43 -63q0 -30 34 -49q28 -21 60 -21q26 0 58 23t48 23q26 0 46 -17.5
t20 -43.5zM1017 406q0 148 -160 248q-142 88 -299 88q-133 0 -215 -93q-82 -92 -82 -227q0 -138 96 -217q90 -75 228 -75q155 0 277 61q155 77 155 215zM1145 420q0 -196 -182 -316q-161 -104 -367 -104q-196 0 -320 106q-131 111 -131 302t120 325q122 134 310 134
q201 0 376 -121q194 -135 194 -326z" />
    <glyph glyph-name="guillemotleft" unicode="&#xab;" horiz-adv-x="1314" 
d="M620 481q0 -12 -5.5 -24t-15 -21.5t-21.5 -15t-25 -5.5q-26 0 -114 65q-29 22 -57.5 44t-57.5 44q-34 20 -83 52t-115 76q-30 24 -30 53q0 19 18 48q37 54 180 203q158 161 187 161q22 0 38.5 -17.5t16.5 -39.5q0 -26 -68 -102l-96 -96q-26 -28 -54.5 -60.5t-59.5 -70.5
q35 -22 145 -103q35 -23 84 -60.5t112 -89.5q21 -20 21 -41zM1149 481q0 -12 -5.5 -24t-15 -21.5t-21.5 -15t-25 -5.5q-26 0 -114 65q-29 22 -57 44l-56 44q-34 20 -83 52t-115 76q-31 24 -31 53q0 20 19 48q36 52 179 203q156 161 186 161q23 0 40 -17.5t17 -39.5
q0 -27 -69 -102q-23 -24 -47 -48l-48 -48q-64 -67 -116 -131q21 -13 57.5 -39t89.5 -64q34 -23 82.5 -60.5t111.5 -89.5q21 -23 21 -41z" />
    <glyph glyph-name="minus" unicode="&#xad;" horiz-adv-x="831" 
d="M655 676q0 -72 -184 -72q-45 0 -133 3q-45 2 -78 3t-55 1q-55 0 -55 55q0 34 37 46q36 13 216 13q32 0 94 6q63 6 95 6q63 0 63 -61z" />
    <glyph glyph-name="registered" unicode="&#xae;" horiz-adv-x="1415" 
d="M768 606q0 56 -130 56q-4 -35 -6 -66.5t-2 -57.5q138 28 138 68zM949 288q0 -25 -18 -45.5t-44 -20.5q-21 0 -49 17q-31 19 -77 46t-109 63q19 -73 19 -80q0 -53 -58 -53q-54 0 -77 89q-21 79 -21 191q0 84 12 150l-12 -5l6 3q-17 -6 -33 -6q-56 0 -56 59q0 49 83 75
q60 17 128 17q95 0 166 -40q85 -48 85 -135q0 -116 -145 -173q109 -57 118 -61q82 -51 82 -91zM1161 480q0 169 -202 302q-182 119 -360 119q-165 0 -251 -107q-78 -98 -78 -267q0 -181 113 -291q115 -110 295 -110q168 0 314 91q169 106 169 263zM1289 473
q0 -216 -207 -352q-182 -121 -410 -121q-224 0 -372 142q-153 145 -153 367q0 231 119 368q124 145 354 145q242 0 445 -152q224 -164 224 -397z" />
    <glyph glyph-name="macron" unicode="&#xaf;" horiz-adv-x="831" 
d="M655 1522q0 -71 -184 -71q-45 0 -133 3q-89 3 -133 3q-55 0 -55 55q0 34 37 47q36 13 216 13q32 0 94 6q63 6 95 6q63 0 63 -62z" />
    <glyph glyph-name="degree" unicode="&#xb0;" horiz-adv-x="787" 
d="M515 1150q0 39 -44 62q-37 19 -80 19q-46 0 -86 -34q-39 -33 -39 -79q0 -41 46 -65q37 -20 82 -20q51 0 85 34q36 34 36 83zM647 1147q0 -108 -76 -177q-77 -69 -184 -69q-94 0 -170 56q-82 61 -82 154q0 104 77 179q78 75 182 75q100 0 177 -60q76 -58 76 -158z" />
    <glyph glyph-name="plusminus" unicode="&#xb1;" horiz-adv-x="712" 
d="M631 72q24 -72 -184 -72q-54 0 -160 3q-54 2 -93.5 3t-67.5 1q-53 0 -53 54q0 35 37 47q36 13 269 13q32 0 94 6q63 6 95 6q63 0 63 -61zM655 678q0 -67 -146 -67q-31 0 -54.5 0.5t-39.5 1.5v-224q0 -58 -57 -58q-51 0 -63 58q-8 46 -8 232q-26 2 -42 3t-21 1
q-19 0 -59 -6q-39 -6 -57 -6q-24 0 -43 18t-19 41q0 79 183 79q13 0 27 -0.5t31 -1.5v227q0 60 58 60q52 0 63 -60q4 -20 5.5 -78.5t1.5 -158.5h187q53 0 53 -61z" />
    <glyph glyph-name="acute" unicode="&#xb4;" horiz-adv-x="404" 
d="M338 1734q0 -36 -88 -139q-89 -102 -120 -102q-24 0 -43 16.5t-19 38.5q0 28 65 111q26 33 49 59.5t43 46.5q28 27 51 27q24 0 43 -17t19 -41z" />
    <glyph glyph-name="paragraph" unicode="&#xb6;" horiz-adv-x="1190" 
d="M1096 1299q0 -58 -77 -58q-304 0 -529 -106q-294 -137 -294 -403q0 -177 191 -177q50 0 103 10q2 57 3.5 142.5t1.5 200.5q4 24 8.5 59t10.5 83q15 54 59 54q55 0 55 -49v-231q-8 -88 -13 -144.5t-6 -83.5q105 30 185 61q5 105 7.5 201t2.5 186q0 113 65 113q59 0 59 -85
q0 -100 -2.5 -190.5t-7.5 -174.5q16 6 33 6q54 0 54 -64q0 -53 -97 -84l-41 -529q0 -34 -4.5 -83t-14.5 -115q-15 -51 -54 -51q-50 0 -50 51q0 136 15 339q7 86 14 170.5t14 169.5q-95 -36 -183 -60q-3 -164 -3 -326q-13 -251 -36 -298q-17 -38 -46 -38q-58 0 -58 62
q0 29 1.5 66.5t5.5 83.5q10 118 12 150q1 22 1 90.5v184.5q-48 -9 -87 -9q-148 0 -238 84q-89 86 -89 232q0 313 317 486q259 140 601 140q111 0 111 -66z" />
    <glyph glyph-name="periodcentered" unicode="&#xb7;" horiz-adv-x="473" 
d="M321 717q0 -36 -26.5 -61t-62.5 -25q-104 0 -104 72q0 39 36 78q36 40 75 40q37 0 59 -34q23 -34 23 -70z" />
    <glyph glyph-name="guillemotright" unicode="&#xbb;" horiz-adv-x="1311" 
d="M686 829q0 -22 -17 -51q-28 -47 -179 -201q-159 -162 -190 -162q-22 0 -37.5 18.5t-15.5 40.5q0 28 69 103q23 24 46.5 48t47.5 47q73 76 117 132q-52 30 -145 99q-35 23 -84.5 60.5t-113.5 91.5q-22 22 -22 39q0 13 6 25t15.5 21.5t22 15t26.5 5.5q27 0 113 -65
q28 -22 56 -43.5t56 -43.5q34 -20 83 -52t115 -76q31 -22 31 -52zM1147 829q0 -22 -17 -51q-28 -47 -179 -201q-159 -162 -190 -162q-22 0 -37.5 18.5t-15.5 40.5q0 28 69 103q23 24 46.5 48t46.5 47q37 38 66.5 71t51.5 61q-52 30 -145 99q-35 23 -84.5 60.5t-113.5 91.5
q-22 22 -22 39q0 13 6 25t15.5 21.5t22 15t26.5 5.5q27 0 113 -65q28 -22 56 -43.5t56 -43.5q34 -20 83 -52t115 -76q31 -22 31 -52z" />
    <glyph glyph-name="questiondown" unicode="&#xbf;" horiz-adv-x="826" 
d="M761 -72q0 -102 -172 -165q-134 -48 -261 -48q-104 0 -181 44q-92 53 -92 151q0 86 119 238q55 64 109.5 128t110.5 128q120 142 120 204q0 23 -82 32q-26 2 -52 3.5t-52 3.5q-60 13 -60 60q0 68 109 68q266 0 266 -174q0 -90 -121 -241q-56 -64 -111 -128t-112 -128
q-122 -143 -122 -203q0 -13 16 -26q53 -44 153 -44q70 0 166 26q109 30 142 76q46 36 82 36q25 0 25 -41zM512 998q0 -34 -15 -68q-20 -41 -50 -41q-35 0 -67 23q-30 22 -30 57q0 37 33 72q33 34 71 34q58 0 58 -77z" />
    <glyph glyph-name="Agrave" unicode="&#xc0;" horiz-adv-x="1019" 
d="M459 1556q0 -25 -21.5 -44t-46.5 -19q-26 0 -57 33q-160 169 -160 208q0 24 21.5 41t46.5 17q17 0 41 -15q17 -11 42.5 -37t60.5 -67q73 -88 73 -117zM738 563q-83 294 -186 603q-42 -121 -98 -278t-128 -352q54 2 205 15q130 12 207 12zM980 61q0 -25 -19 -43t-44 -18
q-34 0 -51 41q-8 18 -28 121q-5 28 -22 97t-46 180h-32q-38 0 -95.5 -4.5t-134.5 -12.5t-133.5 -12t-94.5 -4q-25 -66 -60 -164t-81 -230q-32 -12 -62 -12q-39 0 -39 26q0 60 181 561q57 155 112 307t111 307q10 45 45 123q19 28 36 36q13 5 49 5q24 0 39 -25
q20 -32 38.5 -75.5t35.5 -97.5q13 -46 25.5 -91.5t25.5 -90.5q26 -85 59.5 -203t76.5 -273q108 -390 108 -448z" />
    <glyph glyph-name="Aacute" unicode="&#xc1;" 
d="M715 1734q0 -36 -88 -139q-89 -102 -120 -102q-24 0 -43 16.5t-19 38.5q0 28 65 111q26 33 49 59.5t43 46.5q28 27 51 27q24 0 43 -17t19 -41zM743 563q-83 294 -186 603q-42 -121 -98 -278t-128 -352q54 2 205 15q130 12 207 12zM985 61q0 -25 -19 -43t-44 -18
q-34 0 -51 41q-8 18 -28 121q-5 28 -22 97t-46 180h-32q-38 0 -95.5 -4.5t-134.5 -12.5t-133.5 -12t-94.5 -4q-25 -66 -60 -164t-81 -230q-32 -12 -62 -12q-39 0 -39 26q0 60 181 561q57 155 112 307t111 307q10 45 45 123q19 28 36 36q13 5 49 5q24 0 39 -25
q20 -32 38.5 -75.5t35.5 -97.5q13 -46 25.5 -91.5t25.5 -90.5q26 -85 59.5 -203t76.5 -273q108 -390 108 -448z" />
    <glyph glyph-name="Acircumflex" unicode="&#xc2;" horiz-adv-x="1029" 
d="M802 1553q0 -26 -19.5 -46t-45.5 -20q-40 0 -116 87q-89 98 -123 112l2 4q-23 -6 -99 -82l-48 -50t-49 -51q-86 0 -86 39q0 44 93 142q87 94 134 114q34 14 58 14q65 0 156 -82q69 -62 124 -137q19 -25 19 -44zM738 563q-83 294 -186 603q-42 -121 -98 -278t-128 -352
q54 2 205 15q130 12 207 12zM980 61q0 -25 -19 -43t-44 -18q-34 0 -51 41q-8 18 -28 121q-5 28 -22 97t-46 180h-32q-38 0 -95.5 -4.5t-134.5 -12.5t-133.5 -12t-94.5 -4q-25 -66 -60 -164t-81 -230q-32 -12 -62 -12q-39 0 -39 26q0 60 181 561q57 155 112 307t111 307
q10 45 45 123q19 28 36 36q13 5 49 5q24 0 39 -25q20 -32 38.5 -75.5t35.5 -97.5q13 -46 25.5 -91.5t25.5 -90.5q26 -85 59.5 -203t76.5 -273q108 -390 108 -448z" />
    <glyph glyph-name="Atilde" unicode="&#xc3;" horiz-adv-x="1029" 
d="M864 1732q0 -65 -81 -123q-80 -58 -150 -58q-62 0 -117 55q-56 56 -91 56q-50 0 -93 -64t-74 -64q-24 0 -43.5 18t-19.5 42q0 13 8 32q28 68 89 114q61 45 133 45q78 0 140 -51q62 -50 75 -50q43 0 87 54q45 54 75 54q62 0 62 -60zM738 563q-83 294 -186 603
q-42 -121 -98 -278t-128 -352q54 2 205 15q130 12 207 12zM980 61q0 -25 -19 -43t-44 -18q-34 0 -51 41q-8 18 -28 121q-5 28 -22 97t-46 180h-32q-38 0 -95.5 -4.5t-134.5 -12.5t-133.5 -12t-94.5 -4q-25 -66 -60 -164t-81 -230q-32 -12 -62 -12q-39 0 -39 26q0 60 181 561
q57 155 112 307t111 307q10 45 45 123q19 28 36 36q13 5 49 5q24 0 39 -25q20 -32 38.5 -75.5t35.5 -97.5q13 -46 25.5 -91.5t25.5 -90.5q26 -85 59.5 -203t76.5 -273q108 -390 108 -448z" />
    <glyph glyph-name="Adieresis" unicode="&#xc4;" 
d="M484 1611q0 -84 -104 -84q-25 0 -45 19t-20 45q0 33 35 73q34 39 70 39q64 0 64 -92zM809 1638q0 -20 -7 -38t-19.5 -31.5t-29.5 -22t-37 -8.5q-25 0 -46 25q-20 26 -20 52q0 92 84 92q13 0 26.5 -5.5t24.5 -15t17.5 -22t6.5 -26.5zM743 563q-83 294 -186 603
q-42 -121 -98 -278t-128 -352q54 2 205 15q130 12 207 12zM985 61q0 -25 -19 -43t-44 -18q-34 0 -51 41q-8 18 -28 121q-5 28 -22 97t-46 180h-32q-38 0 -95.5 -4.5t-134.5 -12.5t-133.5 -12t-94.5 -4q-25 -66 -60 -164t-81 -230q-32 -12 -62 -12q-39 0 -39 26q0 60 181 561
q57 155 112 307t111 307q10 45 45 123q19 28 36 36q13 5 49 5q24 0 39 -25q20 -32 38.5 -75.5t35.5 -97.5q13 -46 25.5 -91.5t25.5 -90.5q26 -85 59.5 -203t76.5 -273q108 -390 108 -448z" />
    <glyph glyph-name="Aring" unicode="&#xc5;" 
d="M594 1650q0 63 -99 63q-37 0 -69 -26q-30 -26 -30 -62q0 -33 35 -53q31 -16 67 -16q19 0 36.5 7.5t31 20t21 29.5t7.5 37zM699 1647q0 -86 -61 -141q-59 -55 -147 -55q-77 0 -136 44q-65 50 -65 123q0 84 62 144q61 61 146 61q80 0 138 -46q63 -53 63 -130zM743 563
q-83 294 -186 603q-42 -121 -98 -278t-128 -352q54 2 205 15q130 12 207 12zM985 61q0 -25 -19 -43t-44 -18q-34 0 -51 41q-8 18 -28 121q-5 28 -22 97t-46 180h-32q-38 0 -95.5 -4.5t-134.5 -12.5t-133.5 -12t-94.5 -4q-25 -66 -60 -164t-81 -230q-32 -12 -62 -12
q-39 0 -39 26q0 60 181 561q57 155 112 307t111 307q10 45 45 123q19 28 36 36q13 5 49 5q24 0 39 -25q20 -32 38.5 -75.5t35.5 -97.5q13 -46 25.5 -91.5t25.5 -90.5q26 -85 59.5 -203t76.5 -273q108 -390 108 -448z" />
    <glyph glyph-name="AE" unicode="&#xc6;" horiz-adv-x="1304" 
d="M582 1015q-31 -87 -96 -240t-167 -377q81 19 146.5 29.5t116.5 14.5v573zM1253 67q0 -67 -309 -67h-49t-68 1t-68 1.5t-49 0.5q-131 0 -131 318q-54 -8 -133 -20.5t-185 -29.5q-13 -40 -36 -98t-58 -134q-24 -39 -58 -39q-58 0 -58 49q0 41 270 644q139 311 201 524
q5 18 13 44.5t21 61.5q16 36 57 36t124 3q84 3 398 3q102 0 102 -66q0 -55 -78 -67h-120h-172q-69 -1 -111.5 -1h-59.5q12 -212 12 -475h73t104 1t105 1.5t75 0.5q60 0 60 -56q0 -49 -58 -65.5t-181 -16.5q-16 0 -38.5 0.5t-52.5 1.5q-29 1 -51 1.5t-36 0.5q-3 -170 -3 -506
q35 4 75 5.5t85 1.5q28 0 69 -0.5t97 -1.5t97 -1h68q57 0 57 -56z" />
    <glyph glyph-name="Egrave" unicode="&#xc8;" horiz-adv-x="852" 
d="M532 1556q0 -25 -21.5 -44t-46.5 -19q-26 0 -57 33q-160 169 -160 208q0 24 21.5 41t46.5 17q17 0 41 -15q17 -11 42.5 -37t60.5 -67q73 -88 73 -117zM889 1297q0 -55 -53 -55q-83 0 -248 3q-83 2 -144 3t-103 1q-41 0 -70 0.5t-47 1.5q5 -94 7.5 -213t2.5 -268h213h53
t73 1t73 1.5t52 0.5q58 0 58 -54q0 -52 -58 -64q-36 -6 -118 -6h-99q-33 1 -95 1h-155v-536q274 12 553 12q100 0 100 -63q0 -60 -90 -60q-46 0 -114.5 -0.5t-162.5 -1.5t-163 -1h-117q-79 0 -107 24q-29 26 -29 104q0 99 1.5 244.5t5.5 341.5t6 341.5t2 244.5q0 65 611 65
q79 -2 109 -10q53 -14 53 -58z" />
    <glyph glyph-name="Eacute" unicode="&#xc9;" horiz-adv-x="850" 
d="M698 1734q0 -36 -88 -139q-89 -102 -120 -102q-24 0 -43 16.5t-19 38.5q0 28 65 111q26 33 49 59.5t43 46.5q28 27 51 27q24 0 43 -17t19 -41zM889 1297q0 -55 -53 -55q-83 0 -248 3q-83 2 -144 3t-103 1q-41 0 -70 0.5t-47 1.5q5 -94 7.5 -213t2.5 -268h213h53t73 1
t73 1.5t52 0.5q58 0 58 -54q0 -52 -58 -64q-36 -6 -118 -6h-99q-33 1 -95 1h-155v-536q274 12 553 12q100 0 100 -63q0 -60 -90 -60q-46 0 -114.5 -0.5t-162.5 -1.5t-163 -1h-117q-79 0 -107 24q-29 26 -29 104q0 99 1.5 244.5t5.5 341.5t6 341.5t2 244.5q0 65 611 65
q79 -2 109 -10q53 -14 53 -58z" />
    <glyph glyph-name="Ecircumflex" unicode="&#xca;" horiz-adv-x="857" 
d="M829 1553q0 -26 -19.5 -46t-45.5 -20q-40 0 -116 87q-89 98 -123 112l2 4q-23 -6 -99 -82l-48 -50t-49 -51q-86 0 -86 39q0 44 93 142q87 94 134 114q34 14 58 14q65 0 156 -82q69 -62 124 -137q19 -25 19 -44zM894 1297q0 -55 -53 -55q-83 0 -248 3q-83 2 -144 3t-103 1
q-41 0 -70 0.5t-47 1.5q5 -94 7.5 -213t2.5 -268h213h53t73 1t73 1.5t52 0.5q58 0 58 -54q0 -52 -58 -64q-36 -6 -118 -6h-99q-33 1 -95 1h-155v-536q274 12 553 12q100 0 100 -63q0 -60 -90 -60q-46 0 -114.5 -0.5t-162.5 -1.5t-163 -1h-117q-79 0 -107 24q-29 26 -29 104
q0 99 1.5 244.5t5.5 341.5t6 341.5t2 244.5q0 65 611 65q79 -2 109 -10q53 -14 53 -58z" />
    <glyph glyph-name="Edieresis" unicode="&#xcb;" horiz-adv-x="857" 
d="M506 1611q0 -84 -104 -84q-25 0 -45 19t-20 45q0 33 35 73q34 39 70 39q64 0 64 -92zM831 1638q0 -20 -7 -38t-19.5 -31.5t-29.5 -22t-37 -8.5q-25 0 -46 25q-20 26 -20 52q0 92 84 92q13 0 26.5 -5.5t24.5 -15t17.5 -22t6.5 -26.5zM894 1297q0 -55 -53 -55q-83 0 -248 3
q-83 2 -144 3t-103 1q-41 0 -70 0.5t-47 1.5q5 -94 7.5 -213t2.5 -268h213h53t73 1t73 1.5t52 0.5q58 0 58 -54q0 -52 -58 -64q-36 -6 -118 -6h-99q-33 1 -95 1h-155v-536q274 12 553 12q100 0 100 -63q0 -60 -90 -60q-46 0 -114.5 -0.5t-162.5 -1.5t-163 -1h-117
q-79 0 -107 24q-29 26 -29 104q0 99 1.5 244.5t5.5 341.5t6 341.5t2 244.5q0 65 611 65q79 -2 109 -10q53 -14 53 -58z" />
    <glyph glyph-name="Igrave" unicode="&#xcc;" horiz-adv-x="449" 
d="M293 1556q0 -25 -21.5 -44t-46.5 -19q-26 0 -57 33q-160 169 -160 208q0 24 21.5 41t46.5 17q17 0 41 -15q17 -11 42.5 -37t60.5 -67q73 -88 73 -117zM377 53q0 -53 -263 -53q-43 0 -74 3q-30 43 -30 76q0 37 109 37q-4 80 -5.5 234.5t-1.5 386.5q-3 60 -3 251
q-4 74 -5.5 136.5t-1.5 114.5q-52 2 -101 12q-17 39 -17 68q0 36 45 36q6 0 20 -1.5t20 -1.5q43 0 126 6q42 4 73.5 5.5t53.5 1.5q55 0 55 -49q0 -50 -63 -65q-21 -5 -103 -9q5 -47 7.5 -163.5t2.5 -305.5q2 -109 3 -271.5t1 -382.5q40 -1 64.5 -2t34.5 -3q53 -14 53 -61z
" />
    <glyph glyph-name="Iacute" unicode="&#xcd;" horiz-adv-x="447" 
d="M338 1734q0 -36 -88 -139q-89 -102 -120 -102q-24 0 -43 16.5t-19 38.5q0 28 65 111q26 33 49 59.5t43 46.5q28 27 51 27q24 0 43 -17t19 -41zM375 53q0 -53 -263 -53q-43 0 -74 3q-30 43 -30 76q0 37 109 37q-4 80 -5.5 234.5t-1.5 386.5q-3 60 -3 251q-4 74 -5.5 136.5
t-1.5 114.5q-52 2 -101 12q-17 39 -17 68q0 36 45 36q6 0 20 -1.5t20 -1.5q43 0 126 6q42 4 73.5 5.5t53.5 1.5q55 0 55 -49q0 -50 -63 -65q-21 -5 -103 -9q5 -47 7.5 -163.5t2.5 -305.5q2 -109 3 -271.5t1 -382.5q40 -1 64.5 -2t34.5 -3q53 -14 53 -61z" />
    <glyph glyph-name="Icircumflex" unicode="&#xce;" horiz-adv-x="657" 
d="M725 1553q0 -26 -19.5 -46t-45.5 -20q-40 0 -116 87q-89 98 -123 112l2 4q-23 -6 -99 -82l-48 -50t-49 -51q-86 0 -86 39q0 44 93 142q87 94 134 114q34 14 58 14q65 0 156 -82q69 -62 124 -137q19 -25 19 -44zM569 53q0 -53 -263 -53q-43 0 -74 3q-30 43 -30 76
q0 37 109 37q-4 80 -5.5 234.5t-1.5 386.5q-3 60 -3 251q-4 74 -5.5 136.5t-1.5 114.5q-52 2 -101 12q-17 39 -17 68q0 36 45 36q6 0 20 -1.5t20 -1.5q43 0 126 6q42 4 73.5 5.5t53.5 1.5q55 0 55 -49q0 -50 -63 -65q-21 -5 -103 -9q5 -47 7.5 -163.5t2.5 -305.5
q2 -109 3 -271.5t1 -382.5q40 -1 64.5 -2t34.5 -3q53 -14 53 -61z" />
    <glyph glyph-name="Idieresis" unicode="&#xcf;" horiz-adv-x="601" 
d="M375 1611q0 -84 -104 -84q-25 0 -45 19t-20 45q0 33 35 73q34 39 70 39q64 0 64 -92zM700 1638q0 -20 -7 -38t-19.5 -31.5t-29.5 -22t-37 -8.5q-25 0 -46 25q-20 26 -20 52q0 92 84 92q13 0 26.5 -5.5t24.5 -15t17.5 -22t6.5 -26.5zM524 53q0 -53 -263 -53q-43 0 -74 3
q-30 43 -30 76q0 37 109 37q-4 80 -5.5 234.5t-1.5 386.5q-3 60 -3 251q-4 74 -5.5 136.5t-1.5 114.5q-52 2 -101 12q-17 39 -17 68q0 36 45 36q6 0 20 -1.5t20 -1.5q43 0 126 6q42 4 73.5 5.5t53.5 1.5q55 0 55 -49q0 -50 -63 -65q-21 -5 -103 -9q5 -47 7.5 -163.5
t2.5 -305.5q2 -109 3 -271.5t1 -382.5q40 -1 64.5 -2t34.5 -3q53 -14 53 -61z" />
    <glyph glyph-name="Ntilde" unicode="&#xd1;" horiz-adv-x="1106" 
d="M918 1732q0 -65 -81 -123q-80 -58 -150 -58q-62 0 -117 55q-56 56 -91 56q-50 0 -93 -64t-74 -64q-24 0 -43.5 18t-19.5 42q0 13 8 32q28 68 89 114q61 45 133 45q78 0 140 -51q62 -50 75 -50q43 0 87 54q45 54 75 54q62 0 62 -60zM934 56q0 -56 -87 -56q-25 0 -47 27
q-14 18 -29 42.5t-29 56.5q-22 51 -47 106q-245 509 -509 917q1 -55 1.5 -288t0.5 -643q0 -9 0.5 -22.5t1.5 -31.5q3 -36 3 -55q0 -109 -63 -109q-57 0 -57 794q1 73 -3 217q-2 72 -3.5 126.5t-1.5 91.5q0 109 24 124q7 6 48 6q27 0 39 -12q93 -88 215 -297
q20 -35 65.5 -116t115.5 -212q61 -113 122.5 -231t124.5 -244v564q0 43 -1 106.5t-3 150.5t-3 151t-1 107q0 15 30 29q23 10 43 10q21 0 29 -29q21 -71 21 -310v-970z" />
    <glyph glyph-name="Ograve" unicode="&#xd2;" horiz-adv-x="1070" 
d="M544 1559q0 -25 -21.5 -44t-46.5 -19q-26 0 -57 33q-160 169 -160 208q0 24 21.5 41t46.5 17q17 0 41 -15q17 -11 42.5 -37t60.5 -67q73 -88 73 -117zM832 655q0 175 -49 316q-64 182 -191 244q-54 26 -86 26q-60 0 -134 -38q-134 -68 -197 -263q-47 -152 -47 -338
q0 -211 81 -334q97 -145 299 -145q161 0 253 194q71 157 71 338zM962 659q0 -255 -111 -439q-130 -220 -368 -220q-236 0 -362 186q-111 160 -111 406q0 271 107 493q135 280 376 280q232 0 363 -249q106 -200 106 -457z" />
    <glyph glyph-name="Oacute" unicode="&#xd3;" horiz-adv-x="1070" 
d="M690 1734q0 -36 -88 -139q-89 -102 -120 -102q-24 0 -43 16.5t-19 38.5q0 28 65 111q26 33 49 59.5t43 46.5q28 27 51 27q24 0 43 -17t19 -41zM832 655q0 175 -49 316q-64 182 -191 244q-54 26 -86 26q-60 0 -134 -38q-134 -68 -197 -263q-47 -152 -47 -338
q0 -211 81 -334q97 -145 299 -145q161 0 253 194q71 157 71 338zM962 659q0 -255 -111 -439q-130 -220 -368 -220q-236 0 -362 186q-111 160 -111 406q0 271 107 493q135 280 376 280q232 0 363 -249q106 -200 106 -457z" />
    <glyph glyph-name="Ocircumflex" unicode="&#xd4;" horiz-adv-x="1067" 
d="M829 1553q0 -26 -19.5 -46t-45.5 -20q-40 0 -116 87q-89 98 -123 112l2 4q-23 -6 -99 -82l-48 -50t-49 -51q-86 0 -86 39q0 44 93 142q87 94 134 114q34 14 58 14q65 0 156 -82q69 -62 124 -137q19 -25 19 -44zM829 655q0 175 -49 316q-64 182 -191 244q-54 26 -86 26
q-60 0 -134 -38q-134 -68 -197 -263q-47 -152 -47 -338q0 -211 81 -334q97 -145 299 -145q161 0 253 194q71 157 71 338zM959 659q0 -255 -111 -439q-130 -220 -368 -220q-236 0 -362 186q-111 160 -111 406q0 271 107 493q135 280 376 280q232 0 363 -249
q106 -200 106 -457z" />
    <glyph glyph-name="Otilde" unicode="&#xd5;" horiz-adv-x="1070" 
d="M912 1732q0 -65 -81 -123q-80 -58 -150 -58q-62 0 -117 55q-56 56 -91 56q-50 0 -93 -64t-74 -64q-24 0 -43.5 18t-19.5 42q0 13 8 32q28 68 89 114q61 45 133 45q78 0 140 -51q62 -50 75 -50q43 0 87 54q45 54 75 54q62 0 62 -60zM832 655q0 175 -49 316
q-64 182 -191 244q-54 26 -86 26q-60 0 -134 -38q-134 -68 -197 -263q-47 -152 -47 -338q0 -211 81 -334q97 -145 299 -145q161 0 253 194q71 157 71 338zM962 659q0 -255 -111 -439q-130 -220 -368 -220q-236 0 -362 186q-111 160 -111 406q0 271 107 493q135 280 376 280
q232 0 363 -249q106 -200 106 -457z" />
    <glyph glyph-name="Odieresis" unicode="&#xd6;" horiz-adv-x="1075" 
d="M515 1611q0 -84 -104 -84q-25 0 -45 19t-20 45q0 33 35 73q34 39 70 39q64 0 64 -92zM840 1638q0 -20 -7 -38t-19.5 -31.5t-29.5 -22t-37 -8.5q-25 0 -46 25q-20 26 -20 52q0 92 84 92q13 0 26.5 -5.5t24.5 -15t17.5 -22t6.5 -26.5zM837 655q0 175 -49 316
q-64 182 -191 244q-54 26 -86 26q-60 0 -134 -38q-134 -68 -197 -263q-47 -152 -47 -338q0 -211 81 -334q97 -145 299 -145q161 0 253 194q71 157 71 338zM967 659q0 -255 -111 -439q-130 -220 -368 -220q-236 0 -362 186q-111 160 -111 406q0 271 107 493q135 280 376 280
q232 0 363 -249q106 -200 106 -457z" />
    <glyph glyph-name="multiply" unicode="&#xd7;" horiz-adv-x="763" 
d="M591 910q0 -20 -16 -40q-25 -32 -72 -71q-59 -50 -76 -67q138 -153 138 -188q0 -12 -6 -23.5t-15.5 -20.5t-22 -14.5t-24.5 -5.5q-29 0 -86 63q-38 46 -75 90q-107 -128 -133 -128q-53 0 -53 55q0 16 113 153q-23 20 -45.5 41t-45.5 41q-66 63 -66 89t18.5 47t44.5 21
q39 0 177 -135q130 156 185 156q24 0 42 -19.5t18 -43.5z" />
    <glyph glyph-name="Oslash" unicode="&#xd8;" horiz-adv-x="1044" 
d="M618 1219q-50 22 -75 22q-62 0 -132 -36q-136 -70 -199 -263q-48 -149 -48 -340q0 -283 143 -402q28 82 91 282.5t163 519.5q9 37 23 91t34 126zM869 655q0 293 -128 465q-70 -216 -147.5 -460.5t-163.5 -522.5q54 -14 114 -14q163 0 253 194q72 156 72 338zM998 659
q0 -255 -111 -439q-130 -220 -368 -220q-74 0 -137 19q-17 -33 -56 -33q-63 0 -63 57q0 11 5 29q-222 151 -222 520q0 272 108 493q133 280 375 280q76 0 147 -30q20 17 46 17q63 0 63 -60q0 -11 -3 -27q106 -100 165 -280q51 -159 51 -326z" />
    <glyph glyph-name="Ugrave" unicode="&#xd9;" horiz-adv-x="1060" 
d="M527 1556q0 -25 -21.5 -44t-46.5 -19q-26 0 -57 33q-160 169 -160 208q0 24 21.5 41t46.5 17q17 0 41 -15q17 -11 42.5 -37t60.5 -67q73 -88 73 -117zM905 1029q0 -1027 -489 -1027q-385 0 -385 696q0 62 3 140t10 174q10 130 15.5 208t7.5 106q41 31 78 31q24 0 24 -31
q0 -97 -9 -293q-4 -98 -6 -170.5t-2 -121.5q0 -613 259 -613q360 0 360 823q0 58 -3 177q-3 118 -3 178q0 59 58 59q46 0 66 -59q16 -42 16 -277z" />
    <glyph glyph-name="Uacute" unicode="&#xda;" horiz-adv-x="1062" 
d="M695 1734q0 -36 -88 -139q-89 -102 -120 -102q-24 0 -43 16.5t-19 38.5q0 28 65 111q26 33 49 59.5t43 46.5q28 27 51 27q24 0 43 -17t19 -41zM906 1029q0 -1027 -489 -1027q-385 0 -385 696q0 62 3 140t10 174q10 130 15.5 208t7.5 106q41 31 78 31q24 0 24 -31
q0 -97 -9 -293q-4 -98 -6 -170.5t-2 -121.5q0 -613 259 -613q360 0 360 823q0 58 -3 177q-3 118 -3 178q0 59 58 59q46 0 66 -59q16 -42 16 -277z" />
    <glyph glyph-name="Ucircumflex" unicode="&#xdb;" horiz-adv-x="1062" 
d="M821 1553q0 -26 -19.5 -46t-45.5 -20q-40 0 -116 87q-89 98 -123 112l2 4q-23 -6 -99 -82l-48 -50t-49 -51q-86 0 -86 39q0 44 93 142q87 94 134 114q34 14 58 14q65 0 156 -82q69 -62 124 -137q19 -25 19 -44zM906 1029q0 -1027 -489 -1027q-385 0 -385 696q0 62 3 140
t10 174q10 130 15.5 208t7.5 106q41 31 78 31q24 0 24 -31q0 -97 -9 -293q-4 -98 -6 -170.5t-2 -121.5q0 -613 259 -613q360 0 360 823q0 58 -3 177q-3 118 -3 178q0 59 58 59q46 0 66 -59q16 -42 16 -277z" />
    <glyph glyph-name="Udieresis" unicode="&#xdc;" horiz-adv-x="1062" 
d="M515 1611q0 -84 -104 -84q-25 0 -45 19t-20 45q0 33 35 73q34 39 70 39q64 0 64 -92zM840 1638q0 -20 -7 -38t-19.5 -31.5t-29.5 -22t-37 -8.5q-25 0 -46 25q-20 26 -20 52q0 92 84 92q13 0 26.5 -5.5t24.5 -15t17.5 -22t6.5 -26.5zM906 1029q0 -1027 -489 -1027
q-385 0 -385 696q0 62 3 140t10 174q10 130 15.5 208t7.5 106q41 31 78 31q24 0 24 -31q0 -97 -9 -293q-4 -98 -6 -170.5t-2 -121.5q0 -613 259 -613q360 0 360 823q0 58 -3 177q-3 118 -3 178q0 59 58 59q46 0 66 -59q16 -42 16 -277z" />
    <glyph glyph-name="Yacute" unicode="&#xdd;" horiz-adv-x="918" 
d="M654 1734q0 -36 -88 -139q-89 -102 -120 -102q-24 0 -43 16.5t-19 38.5q0 28 65 111q26 33 49 59.5t43 46.5q28 27 51 27q24 0 43 -17t19 -41zM972 1304q0 -53 -190 -318q-61 -82 -121.5 -163.5t-122.5 -163.5q9 -248 9 -466q0 -89 -9 -164q-38 -29 -73 -29
q-43 0 -43 142v42t1 59t1.5 59.5t0.5 42.5v307q-103 140 -200.5 299t-193.5 341q31 70 65 70q20 0 73 -84q17 -26 93.5 -144.5t215.5 -331.5q96 115 270 357q31 61 111 177q24 29 48 29q25 0 45 -18t20 -43z" />
    <glyph glyph-name="Thorn" unicode="&#xde;" horiz-adv-x="1147" 
d="M988 613q0 218 -220 321q-162 76 -411 76q-4 -137 -5.5 -296t-1.5 -344q76 -12 164 -12q179 0 298 45q176 63 176 210zM1120 620q0 -210 -202 -313q-157 -82 -387 -82q-49 0 -94 3.5t-87 10.5q0 -8 -0.5 -26.5t-1.5 -46.5v-74q0 -92 -58 -92q-54 0 -54 53q0 19 0.5 46
t1.5 62q3 70 3 105q-72 16 -72 72q0 29 21.5 47.5t50.5 12.5q1 102 1 253v354q-17 -2 -35 -3.5t-36 -3.5q-38 46 -38 77q0 32 114 46v106q0 138 64 138q53 0 53 -56v-179h25q285 0 485 -111q246 -137 246 -399z" />
    <glyph glyph-name="germandbls" unicode="&#xdf;" horiz-adv-x="1109" 
d="M1060 372q0 -196 -202 -295q-159 -77 -377 -77q-25 0 -54 17q-28 16 -28 41q0 58 74 58q168 0 288 46q169 67 169 207q0 114 -130 187q-49 28 -106.5 46t-125.5 28q-21 1 -51.5 5t-72.5 12q-46 13 -46 56q0 26 17 46.5t41 20.5q128 0 233 32q152 48 152 147
q0 203 -378 275q-37 7 -64.5 10t-45.5 3q-36 0 -36 -109q7 -11 7 -171q10 -182 14.5 -342.5t4.5 -303.5q0 -357 -39 -535q-16 -73 -62 -73q-53 0 -53 63q0 11 3 55.5t8 123.5q8 132 12.5 232t4.5 169q0 75 -2.5 186t-7.5 261q-9 298 -9 446q0 126 99 126q236 0 430 -97
q241 -121 241 -333q0 -164 -197 -239q119 -43 197 -121q92 -90 92 -203z" />
    <glyph glyph-name="agrave" unicode="&#xe0;" horiz-adv-x="896" 
d="M483 1047q0 -25 -21.5 -44t-46.5 -19q-26 0 -57 33q-160 169 -160 208q0 24 21.5 41t46.5 17q17 0 41 -15q17 -11 42.5 -37t60.5 -67q73 -88 73 -117zM631 630q-12 2 -33.5 11t-52.5 23q-45 22 -90 22q-119 0 -204 -93q-85 -92 -85 -211q0 -96 47 -167q53 -80 145 -80
q140 0 266 130v182q4 64 5.5 109.5t1.5 73.5zM754 67q-47 -53 -79 -53q-29 0 -36 88q-129 -102 -276 -102q-158 0 -249 121q-82 109 -82 272q0 167 128 297q129 129 298 129q89 0 169 -39q12 49 60 49q67 0 67 -143q0 -75 -6 -223q-6 -147 -6 -222q0 -93 12 -174z" />
    <glyph glyph-name="aacute" unicode="&#xe1;" horiz-adv-x="869" 
d="M620 1225q0 -36 -88 -139q-89 -102 -120 -102q-24 0 -43 16.5t-19 38.5q0 28 65 111q26 33 49 59.5t43 46.5q28 27 51 27q24 0 43 -17t19 -41zM602 630q-12 2 -33.5 11t-52.5 23q-45 22 -90 22q-119 0 -204 -93q-85 -92 -85 -211q0 -96 47 -167q53 -80 145 -80
q140 0 266 130v182q4 64 5.5 109.5t1.5 73.5zM725 67q-47 -53 -79 -53q-29 0 -36 88q-129 -102 -276 -102q-158 0 -249 121q-82 109 -82 272q0 167 128 297q129 129 298 129q89 0 169 -39q12 49 60 49q67 0 67 -143q0 -75 -6 -223q-6 -147 -6 -222q0 -93 12 -174z" />
    <glyph glyph-name="acircumflex" unicode="&#xe2;" horiz-adv-x="893" 
d="M749 1044q0 -26 -19.5 -46t-45.5 -20q-40 0 -116 87q-89 98 -123 112l2 4q-23 -6 -99 -82l-48 -50t-49 -51q-86 0 -86 39q0 44 93 142q87 94 134 114q34 14 58 14q65 0 156 -82q69 -62 124 -137q19 -25 19 -44zM623 630q-12 2 -33.5 11t-52.5 23q-45 22 -90 22
q-119 0 -204 -93q-85 -92 -85 -211q0 -96 47 -167q53 -80 145 -80q140 0 266 130v182q4 64 5.5 109.5t1.5 73.5zM746 67q-47 -53 -79 -53q-29 0 -36 88q-129 -102 -276 -102q-158 0 -249 121q-82 109 -82 272q0 167 128 297q129 129 298 129q89 0 169 -39q12 49 60 49
q67 0 67 -143q0 -75 -6 -223q-6 -147 -6 -222q0 -93 12 -174z" />
    <glyph glyph-name="atilde" unicode="&#xe3;" horiz-adv-x="881" 
d="M828 1223q0 -65 -81 -123q-80 -58 -150 -58q-62 0 -117 55q-56 56 -91 56q-50 0 -93 -64t-74 -64q-24 0 -43.5 18t-19.5 42q0 13 8 32q28 68 89 114q61 45 133 45q78 0 140 -51q62 -50 75 -50q43 0 87 54q45 54 75 54q62 0 62 -60zM623 630q-12 2 -33.5 11t-52.5 23
q-45 22 -90 22q-119 0 -204 -93q-85 -92 -85 -211q0 -96 47 -167q53 -80 145 -80q140 0 266 130v182q4 64 5.5 109.5t1.5 73.5zM746 67q-47 -53 -79 -53q-29 0 -36 88q-129 -102 -276 -102q-158 0 -249 121q-82 109 -82 272q0 167 128 297q129 129 298 129q89 0 169 -39
q12 49 60 49q67 0 67 -143q0 -75 -6 -223q-6 -147 -6 -222q0 -93 12 -174z" />
    <glyph glyph-name="adieresis" unicode="&#xe4;" horiz-adv-x="872" 
d="M406 1102q0 -84 -104 -84q-25 0 -45 19t-20 45q0 33 35 73q34 39 70 39q64 0 64 -92zM731 1129q0 -20 -7 -38t-19.5 -31.5t-29.5 -22t-37 -8.5q-25 0 -46 25q-20 26 -20 52q0 92 84 92q13 0 26.5 -5.5t24.5 -15t17.5 -22t6.5 -26.5zM602 630q-12 2 -33.5 11t-52.5 23
q-45 22 -90 22q-119 0 -204 -93q-85 -92 -85 -211q0 -96 47 -167q53 -80 145 -80q140 0 266 130v182q4 64 5.5 109.5t1.5 73.5zM725 67q-47 -53 -79 -53q-29 0 -36 88q-129 -102 -276 -102q-158 0 -249 121q-82 109 -82 272q0 167 128 297q129 129 298 129q89 0 169 -39
q12 49 60 49q67 0 67 -143q0 -75 -6 -223q-6 -147 -6 -222q0 -93 12 -174z" />
    <glyph glyph-name="aring" unicode="&#xe5;" horiz-adv-x="870" 
d="M516 1141q0 63 -99 63q-37 0 -69 -26q-30 -26 -30 -62q0 -33 35 -53q31 -16 67 -16q19 0 36.5 7.5t31 20t21 29.5t7.5 37zM621 1138q0 -86 -61 -141q-59 -55 -147 -55q-77 0 -136 44q-65 50 -65 123q0 84 62 144q61 61 146 61q80 0 138 -46q63 -53 63 -130zM602 630
q-12 2 -33.5 11t-52.5 23q-45 22 -90 22q-119 0 -204 -93q-85 -92 -85 -211q0 -96 47 -167q53 -80 145 -80q140 0 266 130v182q4 64 5.5 109.5t1.5 73.5zM725 67q-47 -53 -79 -53q-29 0 -36 88q-129 -102 -276 -102q-158 0 -249 121q-82 109 -82 272q0 167 128 297
q129 129 298 129q89 0 169 -39q12 49 60 49q67 0 67 -143q0 -75 -6 -223q-6 -147 -6 -222q0 -93 12 -174z" />
    <glyph glyph-name="ae" unicode="&#xe6;" horiz-adv-x="1434" 
d="M652 621q-14 2 -34 11t-46 23q-44 24 -96 24q-118 0 -203 -93q-85 -92 -85 -211q0 -97 46 -167q52 -82 145 -82q117 0 266 130v183q4 65 5.5 110.5t1.5 71.5zM1201 532q-54 152 -168 152q-63 0 -128 -59q-53 -50 -86 -116q63 2 158 7.5t224 15.5zM1386 172q0 -19 -19 -42
q-45 -57 -141 -98q-95 -39 -175 -39q-165 0 -283 130q4 -26 5.5 -44.5t1.5 -30.5q0 -55 -58 -55q-48 0 -57 101q-128 -101 -276 -101q-159 0 -249 121q-82 109 -82 273q0 168 128 296t297 128q91 0 171 -40q11 50 59 50q67 0 67 -138q114 131 263 131q112 0 207 -110
t95 -224q0 -44 -58 -60q-87 -26 -263 -26q-81 0 -138.5 1.5t-92.5 3.5v-8q0 -108 78 -187q78 -78 185 -78q69 0 163 55t105 55q26 0 46.5 -19t20.5 -45z" />
    <glyph glyph-name="egrave" unicode="&#xe8;" horiz-adv-x="763" 
d="M401 1047q0 -25 -21.5 -44t-46.5 -19q-26 0 -57 33q-160 169 -160 208q0 24 21.5 41t46.5 17q17 0 41 -15q17 -11 42.5 -37t60.5 -67q73 -88 73 -117zM527 539q-54 152 -169 152q-64 0 -128 -60q-52 -49 -85 -117q51 1 146 7t236 18zM712 179q0 -20 -19 -42
q-43 -58 -143 -99q-94 -38 -173 -38q-159 0 -276 118q-116 119 -116 278q0 157 109 287q115 138 270 138q107 0 189 -91q71 -77 102 -191q11 -38 11 -53q0 -43 -58 -59q-86 -26 -328 -26q-48 0 -89 1.5t-75 3.5q0 -112 76 -192q76 -81 185 -81q64 0 159 53t109 53
q26 0 46.5 -17t20.5 -43z" />
    <glyph glyph-name="eacute" unicode="&#xe9;" horiz-adv-x="770" 
d="M585 1225q0 -36 -88 -139q-89 -102 -120 -102q-24 0 -43 16.5t-19 38.5q0 28 65 111q26 33 49 59.5t43 46.5q28 27 51 27q24 0 43 -17t19 -41zM528 539q-54 152 -169 152q-64 0 -128 -60q-52 -49 -85 -117q51 1 146 7t236 18zM713 179q0 -20 -19 -42q-43 -58 -143 -99
q-94 -38 -173 -38q-159 0 -276 118q-116 119 -116 278q0 157 109 287q115 138 270 138q107 0 189 -91q71 -77 102 -191q11 -38 11 -53q0 -43 -58 -59q-86 -26 -328 -26q-48 0 -89 1.5t-75 3.5q0 -112 76 -192q76 -81 185 -81q64 0 159 53t109 53q26 0 46.5 -17t20.5 -43z
" />
    <glyph glyph-name="ecircumflex" unicode="&#xea;" horiz-adv-x="768" 
d="M695 1044q0 -26 -19.5 -46t-45.5 -20q-40 0 -116 87q-89 98 -123 112l2 4q-23 -6 -99 -82l-48 -50t-49 -51q-86 0 -86 39q0 44 93 142q87 94 134 114q34 14 58 14q65 0 156 -82q69 -62 124 -137q19 -25 19 -44zM528 539q-54 152 -169 152q-64 0 -128 -60
q-52 -49 -85 -117q51 1 146 7t236 18zM713 179q0 -20 -19 -42q-43 -58 -143 -99q-94 -38 -173 -38q-159 0 -276 118q-116 119 -116 278q0 157 109 287q115 138 270 138q107 0 189 -91q71 -77 102 -191q11 -38 11 -53q0 -43 -58 -59q-86 -26 -328 -26q-48 0 -89 1.5t-75 3.5
q0 -112 76 -192q76 -81 185 -81q64 0 159 53t109 53q26 0 46.5 -17t20.5 -43z" />
    <glyph glyph-name="edieresis" unicode="&#xeb;" horiz-adv-x="768" 
d="M394 1102q0 -84 -104 -84q-25 0 -45 19t-20 45q0 33 35 73q34 39 70 39q64 0 64 -92zM719 1129q0 -20 -7 -38t-19.5 -31.5t-29.5 -22t-37 -8.5q-25 0 -46 25q-20 26 -20 52q0 92 84 92q13 0 26.5 -5.5t24.5 -15t17.5 -22t6.5 -26.5zM533 539q-54 152 -169 152
q-64 0 -128 -60q-52 -49 -85 -117q51 1 146 7t236 18zM718 179q0 -20 -19 -42q-43 -58 -143 -99q-94 -38 -173 -38q-159 0 -276 118q-116 119 -116 278q0 157 109 287q115 138 270 138q107 0 189 -91q71 -77 102 -191q11 -38 11 -53q0 -43 -58 -59q-86 -26 -328 -26
q-48 0 -89 1.5t-75 3.5q0 -112 76 -192q76 -81 185 -81q64 0 159 53t109 53q26 0 46.5 -17t20.5 -43z" />
    <glyph glyph-name="igrave" unicode="&#xec;" horiz-adv-x="505" 
d="M387 1047q0 -25 -21.5 -44t-46.5 -19q-26 0 -57 33q-160 169 -160 208q0 24 21.5 41t46.5 17q17 0 41 -15q17 -11 42.5 -37t60.5 -67q73 -88 73 -117zM461 560q-10 -136 -12 -185q-1 -45 -1.5 -89.5t-0.5 -89.5q-5 -104 -18 -179q-39 -17 -65 -17q-40 0 -40 55v169
q9 121 9 358q0 114 14.5 167t60.5 53q53 0 53 -56v-186z" />
    <glyph glyph-name="iacute" unicode="&#xed;" horiz-adv-x="331" 
d="M285 1225q0 -36 -88 -139q-89 -102 -120 -102q-24 0 -43 16.5t-19 38.5q0 28 65 111q26 33 49 59.5t43 46.5q28 27 51 27q24 0 43 -17t19 -41zM244 560q-10 -136 -12 -185q-1 -45 -1.5 -89.5t-0.5 -89.5q-5 -104 -18 -179q-39 -17 -65 -17q-40 0 -40 55v169q9 121 9 358
q0 114 14.5 167t60.5 53q53 0 53 -56v-186z" />
    <glyph glyph-name="icircumflex" unicode="&#xee;" horiz-adv-x="657" 
d="M715 1044q0 -26 -19.5 -46t-45.5 -20q-40 0 -116 87q-89 98 -123 112l2 4q-23 -6 -99 -82l-48 -50t-49 -51q-86 0 -86 39q0 44 93 142q87 94 134 114q34 14 58 14q65 0 156 -82q69 -62 124 -137q19 -25 19 -44zM531 560q-10 -136 -12 -185q-1 -45 -1.5 -89.5t-0.5 -89.5
q-5 -104 -18 -179q-39 -17 -65 -17q-40 0 -40 55v169q9 121 9 358q0 114 14.5 167t60.5 53q53 0 53 -56v-186z" />
    <glyph glyph-name="idieresis" unicode="&#xef;" horiz-adv-x="599" 
d="M363 1102q0 -84 -104 -84q-25 0 -45 19t-20 45q0 33 35 73q34 39 70 39q64 0 64 -92zM688 1129q0 -20 -7 -38t-19.5 -31.5t-29.5 -22t-37 -8.5q-25 0 -46 25q-20 26 -20 52q0 92 84 92q13 0 26.5 -5.5t24.5 -15t17.5 -22t6.5 -26.5zM502 560q-10 -136 -12 -185
q-1 -45 -1.5 -89.5t-0.5 -89.5q-5 -104 -18 -179q-39 -17 -65 -17q-40 0 -40 55v169q9 121 9 358q0 114 14.5 167t60.5 53q53 0 53 -56v-186z" />
    <glyph glyph-name="ntilde" unicode="&#xf1;" horiz-adv-x="795" 
d="M780 1223q0 -65 -81 -123q-80 -58 -150 -58q-62 0 -117 55q-56 56 -91 56q-50 0 -93 -64t-74 -64q-24 0 -43.5 18t-19.5 42q0 13 8 32q28 68 89 114q61 45 133 45q78 0 140 -51q62 -50 75 -50q43 0 87 54q45 54 75 54q62 0 62 -60zM672 423q0 -29 -2.5 -74t-7.5 -105
q-9 -119 -9 -179q0 -26 -17 -44.5t-42 -18.5q-65 0 -65 123q0 26 1.5 63t5.5 87q4 51 6 88.5t2 63.5q0 276 -174 276q-133 0 -205 -131v-456q0 -116 -63 -116q-58 0 -58 80v340q2 61 3 151t1 211q50 29 81 29q34 0 33 -67q92 80 213 80q297 0 297 -401z" />
    <glyph glyph-name="ograve" unicode="&#xf2;" horiz-adv-x="765" 
d="M433 1047q0 -25 -21.5 -44t-46.5 -19q-26 0 -57 33q-160 169 -160 208q0 24 21.5 41t46.5 17q17 0 41 -15q17 -11 42.5 -37t60.5 -67q73 -88 73 -117zM539 423q0 100 -48 183q-54 97 -148 97q-219 0 -219 -312q0 -266 212 -266q101 0 157 104q46 82 46 194zM664 423
q0 -170 -81 -288q-92 -135 -254 -135q-152 0 -242 114q-84 106 -84 263q0 175 82 302q96 149 259 149q155 0 243 -130q77 -115 77 -275z" />
    <glyph glyph-name="oacute" unicode="&#xf3;" horiz-adv-x="756" 
d="M565 1225q0 -36 -88 -139q-89 -102 -120 -102q-24 0 -43 16.5t-19 38.5q0 28 65 111q26 33 49 59.5t43 46.5q28 27 51 27q24 0 43 -17t19 -41zM539 423q0 100 -48 183q-54 97 -148 97q-219 0 -219 -312q0 -266 212 -266q101 0 157 104q46 82 46 194zM664 423
q0 -170 -81 -288q-92 -135 -254 -135q-152 0 -242 114q-84 106 -84 263q0 175 82 302q96 149 259 149q155 0 243 -130q77 -115 77 -275z" />
    <glyph glyph-name="ocircumflex" unicode="&#xf4;" horiz-adv-x="766" 
d="M698 1044q0 -26 -19.5 -46t-45.5 -20q-40 0 -116 87q-89 98 -123 112l2 4q-23 -6 -99 -82l-48 -50t-49 -51q-86 0 -86 39q0 44 93 142q87 94 134 114q34 14 58 14q65 0 156 -82q69 -62 124 -137q19 -25 19 -44zM546 423q0 100 -48 183q-54 97 -148 97q-219 0 -219 -312
q0 -266 212 -266q101 0 157 104q46 82 46 194zM671 423q0 -170 -81 -288q-92 -135 -254 -135q-152 0 -242 114q-84 106 -84 263q0 175 82 302q96 149 259 149q155 0 243 -130q77 -115 77 -275z" />
    <glyph glyph-name="otilde" unicode="&#xf5;" horiz-adv-x="777" 
d="M780 1223q0 -65 -81 -123q-80 -58 -150 -58q-62 0 -117 55q-56 56 -91 56q-50 0 -93 -64t-74 -64q-24 0 -43.5 18t-19.5 42q0 13 8 32q28 68 89 114q61 45 133 45q78 0 140 -51q62 -50 75 -50q43 0 87 54q45 54 75 54q62 0 62 -60zM546 423q0 100 -48 183q-54 97 -148 97
q-219 0 -219 -312q0 -266 212 -266q101 0 157 104q46 82 46 194zM671 423q0 -170 -81 -288q-92 -135 -254 -135q-152 0 -242 114q-84 106 -84 263q0 175 82 302q96 149 259 149q155 0 243 -130q77 -115 77 -275z" />
    <glyph glyph-name="odieresis" unicode="&#xf6;" horiz-adv-x="748" 
d="M370 1102q0 -84 -104 -84q-25 0 -45 19t-20 45q0 33 35 73q34 39 70 39q64 0 64 -92zM695 1129q0 -20 -7 -38t-19.5 -31.5t-29.5 -22t-37 -8.5q-25 0 -46 25q-20 26 -20 52q0 92 84 92q13 0 26.5 -5.5t24.5 -15t17.5 -22t6.5 -26.5zM541 423q0 100 -48 183
q-54 97 -148 97q-219 0 -219 -312q0 -266 212 -266q101 0 157 104q46 82 46 194zM666 423q0 -170 -81 -288q-92 -135 -254 -135q-152 0 -242 114q-84 106 -84 263q0 175 82 302q96 149 259 149q155 0 243 -130q77 -115 77 -275z" />
    <glyph glyph-name="divide" unicode="&#xf7;" horiz-adv-x="604" 
d="M413 461q0 -38 -39 -63q-38 -24 -77 -24q-79 0 -79 63q0 37 30 75q30 39 66 39q35 0 67 -27t32 -63zM550 676q0 -72 -185 -72q-45 0 -133 3q-45 2 -78 3t-55 1q-55 0 -55 55q0 34 37 46q36 13 216 13q32 0 94 6q63 6 95 6q64 0 64 -61zM384 928q0 -36 -34 -70t-70 -34
q-15 0 -28.5 7.5t-23.5 19.5t-15.5 27t-5.5 30q0 42 24 77q25 34 66 34q38 0 62.5 -26.5t24.5 -64.5z" />
    <glyph glyph-name="oslash" unicode="&#xf8;" horiz-adv-x="751" 
d="M439 693q-27 10 -57 10q-218 0 -218 -312q0 -109 39 -176q40 80 99 198.5t137 279.5zM579 423q0 103 -50 186q-75 -157 -230 -472q36 -12 76 -12q101 0 157 104q47 83 47 194zM703 423q0 -169 -80 -288q-92 -135 -254 -135q-68 0 -128 26q-21 -40 -60 -40
q-11 0 -22.5 3.5t-21.5 9.5t-16.5 14.5t-6.5 17.5q0 10 29 63q-100 106 -100 283q0 175 82 302q95 149 259 149q61 0 108 -19q26 65 73 65q20 0 43 -14t23 -34q0 -11 -39 -87q111 -119 111 -316z" />
    <glyph glyph-name="ugrave" unicode="&#xf9;" horiz-adv-x="853" 
d="M466 1047q0 -25 -21.5 -44t-46.5 -19q-26 0 -57 33q-160 169 -160 208q0 24 21.5 41t46.5 17q17 0 41 -15q17 -11 42.5 -37t60.5 -67q73 -88 73 -117zM719 56q0 -56 -56 -56q-46 0 -58 48q-2 10 -3.5 30.5t-1.5 52.5q-95 -131 -237 -131q-321 0 -321 596q0 141 18 185
q19 45 60 45q69 0 69 -63q0 -39 -6 -120q-6 -80 -6 -119q0 -140 32 -244q48 -154 155 -154q94 0 163 96q59 83 68 184q3 45 3 191q-1 116 14 190q37 22 72 22q34 0 34 -85q0 -13 -0.5 -33t-1.5 -46v-363v-47t1 -66t1.5 -66t0.5 -47z" />
    <glyph glyph-name="uacute" unicode="&#xfa;" horiz-adv-x="845" 
d="M574 1225q0 -36 -88 -139q-89 -102 -120 -102q-24 0 -43 16.5t-19 38.5q0 28 65 111q26 33 49 59.5t43 46.5q28 27 51 27q24 0 43 -17t19 -41zM713 56q0 -56 -56 -56q-46 0 -58 48q-2 10 -3.5 30.5t-1.5 52.5q-95 -131 -237 -131q-321 0 -321 596q0 141 18 185
q19 45 60 45q69 0 69 -63q0 -39 -6 -120q-6 -80 -6 -119q0 -140 32 -244q48 -154 155 -154q94 0 163 96q59 83 68 184q3 45 3 191q-1 116 14 190q37 22 72 22q34 0 34 -85q0 -13 -0.5 -33t-1.5 -46v-363v-47t1 -66t1.5 -66t0.5 -47z" />
    <glyph glyph-name="ucircumflex" unicode="&#xfb;" horiz-adv-x="845" 
d="M727 1044q0 -26 -19.5 -46t-45.5 -20q-40 0 -116 87q-89 98 -123 112l2 4q-23 -6 -99 -82l-48 -50t-49 -51q-86 0 -86 39q0 44 93 142q87 94 134 114q34 14 58 14q65 0 156 -82q69 -62 124 -137q19 -25 19 -44zM706 56q0 -56 -56 -56q-46 0 -58 48q-2 10 -3.5 30.5
t-1.5 52.5q-95 -131 -237 -131q-321 0 -321 596q0 141 18 185q19 45 60 45q69 0 69 -63q0 -39 -6 -120q-6 -80 -6 -119q0 -140 32 -244q48 -154 155 -154q94 0 163 96q59 83 68 184q3 45 3 191q-1 116 14 190q37 22 72 22q34 0 34 -85q0 -13 -0.5 -33t-1.5 -46v-363v-47
t1 -66t1.5 -66t0.5 -47z" />
    <glyph glyph-name="udieresis" unicode="&#xfc;" horiz-adv-x="829" 
d="M390 1102q0 -84 -104 -84q-25 0 -45 19t-20 45q0 33 35 73q34 39 70 39q64 0 64 -92zM715 1129q0 -20 -7 -38t-19.5 -31.5t-29.5 -22t-37 -8.5q-25 0 -46 25q-20 26 -20 52q0 92 84 92q13 0 26.5 -5.5t24.5 -15t17.5 -22t6.5 -26.5zM692 56q0 -56 -56 -56q-46 0 -58 48
q-2 10 -3.5 30.5t-1.5 52.5q-95 -131 -237 -131q-321 0 -321 596q0 141 18 185q19 45 60 45q69 0 69 -63q0 -39 -6 -120q-6 -80 -6 -119q0 -140 32 -244q48 -154 155 -154q94 0 163 96q59 83 68 184q3 45 3 191q-1 116 14 190q37 22 72 22q34 0 34 -85q0 -13 -0.5 -33
t-1.5 -46v-363v-47t1 -66t1.5 -66t0.5 -47z" />
    <glyph glyph-name="yacute" unicode="&#xfd;" horiz-adv-x="802" 
d="M534 1225q0 -36 -88 -139q-89 -102 -120 -102q-24 0 -43 16.5t-19 38.5q0 28 65 111q26 33 49 59.5t43 46.5q28 27 51 27q24 0 43 -17t19 -41zM759 761q0 -2 -5 -17q-54 -134 -116 -272.5t-134 -285.5q-162 -332 -291 -531h-9q-89 0 -89 36q0 5 193 369
q-36 89 -91.5 220.5t-130.5 308.5q-28 57 -65 172q38 56 72 56q12 0 22 -13q22 -31 79 -169q32 -72 79 -179t110 -251q112 224 186 409q20 60 77 176q20 29 46 29q24 0 45.5 -17t21.5 -41z" />
    <glyph glyph-name="thorn" unicode="&#xfe;" horiz-adv-x="1145" 
d="M986 387q0 219 -220 321q-165 77 -411 77q-4 -137 -5.5 -296t-1.5 -344q76 -12 164 -12q178 0 299 44q175 64 175 210zM1118 394q0 -210 -202 -312q-157 -82 -387 -82q-49 0 -94 3.5t-87 10.5q0 -8 -0.5 -26.5t-1.5 -47.5v-73q0 -92 -58 -92q-54 0 -54 53q0 19 0.5 46
t1.5 62q3 70 3 105q-72 15 -72 72q0 15 6 27t15.5 20.5t22.5 11.5t28 0q1 102 1.5 253t0.5 355q-18 -2 -36 -3.5t-36 -3.5q-38 44 -38 77t115 46v106q0 138 63 138q53 0 53 -56v-179h25q285 0 485 -111q246 -137 246 -400z" />
    <glyph glyph-name="ydieresis" unicode="&#xff;" horiz-adv-x="797" 
d="M370 1102q0 -84 -104 -84q-25 0 -45 19t-20 45q0 33 35 73q34 39 70 39q64 0 64 -92zM695 1129q0 -20 -7 -38t-19.5 -31.5t-29.5 -22t-37 -8.5q-25 0 -46 25q-20 26 -20 52q0 92 84 92q13 0 26.5 -5.5t24.5 -15t17.5 -22t6.5 -26.5zM758 761q0 -2 -5 -17
q-54 -134 -116 -272.5t-134 -285.5q-162 -332 -291 -531h-9q-89 0 -89 36q0 5 193 369q-36 89 -91.5 220.5t-130.5 308.5q-28 57 -65 172q38 56 72 56q12 0 22 -13q22 -31 79 -169q32 -72 79 -179t110 -251q112 224 186 409q20 60 77 176q20 29 46 29q24 0 45.5 -17
t21.5 -41z" />
    <glyph glyph-name="dotlessi" unicode="&#x131;" horiz-adv-x="445" 
d="M297 560q-10 -136 -12 -185q-1 -45 -1.5 -89.5t-0.5 -89.5q-5 -104 -18 -179q-39 -17 -65 -17q-40 0 -40 55v169q9 121 9 358q0 114 14.5 167t60.5 53q53 0 53 -56v-186z" />
    <glyph glyph-name="OE" unicode="&#x152;" horiz-adv-x="1814" 
d="M872 674q0 180 -72 347q-90 208 -247 208q-120 0 -200 -260q-59 -201 -59 -365q0 -190 52 -312q76 -169 239 -169q151 0 229 212q58 156 58 339zM1645 1295q0 -53 -54 -53q-72 0 -214 3q-141 3 -213 3h-62.5t-43.5 1q5 -96 7.5 -215.5t2.5 -265.5q11 0 27.5 -0.5
t39.5 -1.5h68q23 0 56 2t78 6t78.5 6t55.5 2q55 0 55 -53q0 -46 -55 -62q-66 -18 -203 -18q-166 0 -203 6v-532q310 12 469 12q106 0 106 -65q0 -56 -85 -56h-63q-20 1 -35.5 1h-26.5h-87t-66 -1q-114 -4 -163.5 -5.5t-36.5 -1.5q-96 0 -121 31q-19 25 -19 124v31.5t1 43.5
t1.5 43t0.5 29q-114 -309 -355 -309q-65 0 -105 15q-308 113 -308 574q0 258 87 476q116 290 333 290q130 0 231 -113q83 -90 126 -232v289q0 66 157 66q19 0 46 -0.5t64 -1.5t65 -1h47h28t40 1t40 1.5t28 0.5q86 0 127 -10q54 -14 54 -60z" />
    <glyph glyph-name="oe" unicode="&#x153;" horiz-adv-x="1580" 
d="M701 439q0 85 -51 174q-59 92 -147 92q-216 0 -216 -312q0 -268 211 -268q103 0 159 111q44 90 44 203zM1251 544q-56 152 -167 152q-63 0 -128 -59q-55 -49 -87 -116q63 2 157.5 7.5t224.5 15.5zM1435 184q0 -19 -17 -42q-47 -59 -143 -99q-93 -38 -171 -38
q-211 0 -329 184q-92 -189 -287 -189q-152 0 -242 118q-80 107 -80 263q0 170 81 298q96 149 258 149q192 0 278 -191q121 189 304 189q113 0 209 -110q97 -109 97 -224q0 -41 -60 -60q-84 -26 -261 -26q-81 0 -138.5 1.5t-92.5 3.5v-8q0 -107 77 -187q76 -78 185 -78
q68 0 163 54q94 55 106 55q26 0 44.5 -18.5t18.5 -44.5z" />
    <glyph glyph-name="Scaron" unicode="&#x160;" horiz-adv-x="894" 
d="M720 1749q0 -19 -19 -44q-53 -75 -125 -137q-92 -81 -155 -81q-26 0 -58 13q-47 21 -135 113q-92 100 -92 143q0 39 85 39q25 -26 49.5 -50.5t48.5 -49.5q74 -74 99 -82q29 8 124 107q91 96 113 96q26 0 45.5 -20.5t19.5 -46.5zM812 362q0 -157 -106 -260
q-107 -102 -263 -102q-157 0 -280 87t-170 236q-4 9 -4 18q0 26 21.5 44t47.5 18q32 0 56 -46q7 -20 29 -62q40 -72 130 -118q86 -44 170 -44q108 0 172 64q65 65 65 172q0 59 -37 109q-36 51 -184 130q-192 102 -277 172q-157 127 -157 266q0 129 104 224t234 95
q120 0 221 -70q103 -71 134 -181q-39 -47 -73 -47q-12 0 -45 46q-38 57 -77 85q-61 46 -150 46q-79 0 -150 -59q-70 -58 -70 -137q0 -44 31 -87q64 -93 235 -184q109 -57 175.5 -95.5t91.5 -58.5q126 -104 126 -261z" />
    <glyph glyph-name="scaron" unicode="&#x161;" horiz-adv-x="693" 
d="M653 1240q0 -19 -19 -44q-53 -75 -125 -137q-92 -81 -155 -81q-26 0 -58 13q-47 21 -135 113q-92 100 -92 143q0 39 85 39q25 -26 49.5 -50.5t48.5 -49.5q74 -74 99 -82q29 8 124 107q91 96 113 96q26 0 45.5 -20.5t19.5 -46.5zM602 203q0 -96 -93 -154q-79 -49 -182 -49
q-213 0 -340 162q16 85 51 85q-11 0 93 -66q106 -65 191 -65q129 0 157 79q-4 84 -123 158q-55 30 -109.5 60t-110.5 60q-118 73 -118 158q0 86 92 142q79 48 171 48q59 0 131 -26q91 -31 91 -80q0 -26 -19 -46t-44 -20q-18 0 -69 21t-82 21q-117 0 -145 -61
q40 -59 168 -121q76 -37 124.5 -64.5t71.5 -45.5q94 -76 94 -196z" />
    <glyph glyph-name="Ydieresis" unicode="&#x178;" horiz-adv-x="997" 
d="M440 1611q0 -84 -104 -84q-25 0 -45 19t-20 45q0 33 35 73q34 39 70 39q64 0 64 -92zM765 1638q0 -20 -7 -38t-19.5 -31.5t-29.5 -22t-37 -8.5q-25 0 -46 25q-20 26 -20 52q0 92 84 92q13 0 26.5 -5.5t24.5 -15t17.5 -22t6.5 -26.5zM972 1304q0 -53 -190 -318
q-61 -82 -121.5 -163.5t-122.5 -163.5q9 -248 9 -466q0 -89 -9 -164q-38 -29 -73 -29q-43 0 -43 142v42t1 59t1.5 59.5t0.5 42.5v307q-103 140 -200.5 299t-193.5 341q31 70 65 70q20 0 73 -84q17 -26 93.5 -144.5t215.5 -331.5q96 115 270 357q31 61 111 177q24 29 48 29
q25 0 45 -18t20 -43z" />
    <glyph glyph-name="Zcaron" unicode="&#x17d;" horiz-adv-x="881" 
d="M789 1745q0 -19 -19 -44q-53 -75 -125 -137q-92 -81 -155 -81q-26 0 -58 13q-47 21 -135 113q-92 100 -92 143q0 39 85 39q25 -26 49.5 -50.5t48.5 -49.5q74 -74 99 -82q29 8 124 107q91 96 113 96q26 0 45.5 -20.5t19.5 -46.5zM877 1309q0 -58 -120 -280
q-224 -418 -612 -916q242 4 409.5 6t264.5 2q56 0 56 -54q0 -48 -63 -60q-15 -4 -99 -4q-22 0 -55.5 -0.5t-79.5 -1.5q-45 -1 -78.5 -1h-56.5h-82.5t-115.5 1t-115 1.5t-83 0.5q-58 0 -58 52q0 30 94 163q128 182 213 306t130 193q93 143 168.5 272.5t135.5 249.5
q-111 -8 -330 -6t-329 -6q-35 52 -35 89q0 25 35 36q45 12 120 12q10 0 25.5 -0.5t37.5 -1.5t37.5 -1.5t25.5 -0.5q42 0 104.5 0.5t146.5 1.5q166 3 251 3q58 0 58 -56z" />
    <glyph glyph-name="zcaron" unicode="&#x17e;" horiz-adv-x="746" 
d="M686 1221q0 -19 -19 -44q-53 -75 -125 -137q-92 -81 -155 -81q-26 0 -58 13q-47 21 -135 113q-92 100 -92 143q0 39 85 39q25 -26 49.5 -50.5t48.5 -49.5q74 -74 99 -82q29 8 124 107q91 96 113 96q26 0 45.5 -20.5t19.5 -46.5zM699 761q0 -20 -75 -119q-25 -32 -49 -63
l-48 -62q-38 -51 -77 -101.5t-77 -101.5q-45 -58 -85.5 -107t-78.5 -89q168 5 263 7.5t121 2.5q101 0 101 -65q0 -63 -114 -63h-27.5t-38.5 1t-38.5 1.5t-27.5 0.5q-23 0 -59.5 -0.5t-85.5 -1.5t-85 -1h-60q-100 0 -109 27q-3 9 -3 26q0 38 25 75q26 29 63 72.5t86 103.5
q49 66 123 163.5t174 228.5h-277q-45 0 -80 1.5t-61 5.5q-31 43 -31 77q0 22 31 31q42 13 375 13h34.5t49.5 -1h83q24 0 41 -19t17 -43z" />
    <glyph glyph-name="circumflex" unicode="&#x2c6;" horiz-adv-x="800" 
d="M686 1553q0 -26 -19.5 -46t-45.5 -20q-40 0 -116 87q-89 98 -123 112l2 4q-23 -6 -99 -82l-48 -50t-49 -51q-86 0 -86 39q0 44 93 142q87 94 134 114q34 14 58 14q65 0 156 -82q69 -62 124 -137q19 -25 19 -44z" />
    <glyph glyph-name="caron" unicode="&#x2c7;" horiz-adv-x="799" 
d="M688 1749q0 -19 -19 -44q-53 -75 -125 -137q-92 -81 -155 -81q-26 0 -58 13q-47 21 -135 113q-92 100 -92 143q0 39 85 39q25 -26 49.5 -50.5t48.5 -49.5q74 -74 99 -82q29 8 124 107q91 96 113 96q26 0 45.5 -20.5t19.5 -46.5z" />
    <glyph glyph-name="ring" unicode="&#x2da;" horiz-adv-x="686" 
d="M439 1650q0 63 -99 63q-37 0 -69 -26q-30 -26 -30 -62q0 -33 35 -53q31 -16 67 -16q19 0 36.5 7.5t31 20t21 29.5t7.5 37zM544 1647q0 -86 -61 -141q-59 -55 -147 -55q-77 0 -136 44q-65 50 -65 123q0 84 62 144q61 61 146 61q80 0 138 -46q63 -53 63 -130z" />
    <glyph glyph-name="tilde" unicode="&#x2dc;" horiz-adv-x="949" 
d="M816 1732q0 -65 -81 -123q-80 -58 -150 -58q-62 0 -117 55q-56 56 -91 56q-50 0 -93 -64t-74 -64q-24 0 -43.5 18t-19.5 42q0 13 8 32q28 68 89 114q61 45 133 45q78 0 140 -51q62 -50 75 -50q43 0 87 54q45 54 75 54q62 0 62 -60z" />
    <glyph glyph-name="endash" unicode="&#x2013;" horiz-adv-x="741" 
d="M589 676q0 -65 -367 -65q-67 0 -67 55q0 45 72 56q19 3 109 3q33 0 95 6q61 6 95 6q63 0 63 -61z" />
    <glyph glyph-name="emdash" unicode="&#x2014;" horiz-adv-x="1152" 
d="M968 676q0 -46 -84 -56q-20 -4 -118 -4q-94 0 -278 -3q-92 -1 -160.5 -1.5t-114.5 -0.5q-54 0 -54 55q0 33 39 47q34 12 517 12q33 0 95 6q61 6 95 6q63 0 63 -61z" />
    <glyph glyph-name="quoteleft" unicode="&#x2018;" horiz-adv-x="369" 
d="M263 1133q0 -51 -63 -51q-26 0 -41 26q-56 97 -70 220q47 37 77 37q18 0 25 -22q72 -182 72 -210z" />
    <glyph glyph-name="quoteright" unicode="&#x2019;" horiz-adv-x="370" 
d="M270 1328q-7 -62 -24.5 -116.5t-45.5 -103.5q-17 -26 -41 -26q-63 0 -63 51q0 27 71 210q9 22 26 22q30 0 77 -37z" />
    <glyph glyph-name="quotesinglbase" unicode="&#x201a;" horiz-adv-x="367" 
d="M268 154q-7 -62 -24.5 -117t-45.5 -104q-15 -25 -41 -25q-63 0 -63 51q0 28 72 210q7 22 25 22q30 0 77 -37z" />
    <glyph glyph-name="quotedblleft" unicode="&#x201c;" horiz-adv-x="597" 
d="M302 1114q0 -47 -53 -47q-37 0 -53 36q-40 79 -65 209q48 53 79 53q16 0 23 -22q10 -24 39 -121q30 -99 30 -108zM445 1125q0 -50 -54 -50q-33 0 -50 38q-41 108 -41 191q0 11 7 20.5t18.5 17t26 11.5t29.5 4q20 0 23 -51q0 -32 20 -92q21 -59 21 -89z" />
    <glyph glyph-name="quotedblright" unicode="&#x201d;" horiz-adv-x="592" 
d="M288 1306q0 -84 -42 -193q-17 -38 -48 -38q-56 0 -56 50q0 30 21 89q21 58 21 92q0 7 -1 12v13q0 26 24 26q31 0 81 -31v-20zM456 1312q-25 -130 -65 -209q-17 -36 -53 -36q-53 0 -53 47q0 26 70 227q9 24 22 24q31 0 79 -53z" />
    <glyph glyph-name="quotedblbase" unicode="&#x201e;" horiz-adv-x="592" 
d="M292 116q0 -85 -43 -193q-15 -37 -48 -37q-56 0 -56 49q0 31 21 90q22 57 22 91q0 2 -2 12v14q0 25 24 25q31 0 82 -30v-21zM459 123q-25 -127 -65 -208q-20 -38 -53 -38q-53 0 -53 48q0 26 70 227q9 24 23 24q30 0 78 -53z" />
    <glyph glyph-name="dagger" unicode="&#x2020;" horiz-adv-x="638" 
d="M621 782q0 -50 -60 -63q-28 -7 -189 -7v-852q-61 -31 -94 -31q-25 0 -25 31v94t1 132t1.5 231t0.5 393h-68q-87 0 -139 9q-23 43 -23 71q0 22 25 32q27 11 205 11v396q0 54 56 54q58 0 58 -54v-394q115 3 191 3q60 0 60 -56z" />
    <glyph glyph-name="daggerdbl" unicode="&#x2021;" horiz-adv-x="652" 
d="M628 782q0 -72 -154 -72h-47q-17 1 -28.5 1.5t-19.5 0.5v-195q74 7 113.5 10.5t45.5 3.5q63 0 63 -62q0 -45 -77 -56q-21 -3 -147 -3q-1 -92 -1.5 -228.5t-0.5 -321.5q-58 -31 -90 -31q-26 0 -26 31q0 40 0.5 99t1.5 138q1 80 1.5 156t0.5 151q-54 -2 -92.5 -3.5
t-61.5 -1.5q-54 0 -54 55q0 34 41 48q42 15 167 15v193h-77q-78 0 -130 9q-24 42 -24 71q0 43 135 43h48q17 -1 29 -1.5t19 -0.5v398q0 54 56 54q58 0 58 -54v-394q115 3 191 3q60 0 60 -56z" />
    <glyph glyph-name="bullet" unicode="&#x2022;" horiz-adv-x="705" 
d="M561 611q0 -112 -46 -195q-56 -104 -157 -104q-211 0 -211 267q0 312 218 312q94 0 149 -97q47 -83 47 -183z" />
    <glyph glyph-name="ellipsis" unicode="&#x2026;" horiz-adv-x="1068" 
d="M365 85q0 -36 -26.5 -60.5t-62.5 -24.5q-104 0 -104 72q0 39 36 78t75 39q36 0 59 -33q23 -34 23 -71zM625 90q0 -18 -7 -33.5t-19 -27t-27.5 -18t-33.5 -6.5q-105 0 -105 72q0 39 36 78q36 40 75 40q36 0 58 -34q23 -34 23 -71zM889 92q0 -36 -25.5 -60.5t-61.5 -24.5
q-104 0 -104 72q0 39 36 78t75 39q35 0 58 -33q22 -32 22 -71z" />
    <glyph glyph-name="perthousand" unicode="&#x2030;" horiz-adv-x="1700" 
d="M945 280q0 75 -48 123q-47 48 -122 48q-65 0 -108 -57q-42 -56 -42 -123q0 -143 157 -143q69 0 116 42t47 110zM546 1082q0 67 -54 114q-53 48 -122 48q-52 0 -95 -60q-43 -58 -43 -112q0 -135 167 -135q64 0 105 41q42 40 42 104zM1527 271q0 66 -54 113q-52 46 -121 46
q-53 0 -96 -58t-43 -113q0 -133 168 -133q31 0 58 11t46.5 30t30.5 45.5t11 58.5zM1073 280q0 -120 -87 -199q-87 -78 -208 -78q-124 0 -199 72q-74 72 -74 195t77 212q78 88 201 88q119 0 205 -86q85 -85 85 -204zM995 966q0 -20 -19 -39q-7 -7 -31.5 -28t-68.5 -56
q-48 -37 -108 -89.5t-135 -122.5q-88 -79 -147.5 -132.5t-92.5 -82.5q-86 17 -86 53q0 28 293 294q295 266 334 266q12 0 23 -5.5t19.5 -14t13.5 -20t5 -23.5zM676 1085q0 -119 -81 -197q-82 -77 -201 -77q-116 0 -201 70t-85 186q0 117 81 207q82 91 198 91q124 0 206 -79
q83 -78 83 -201zM1657 273q0 -120 -81 -196q-82 -77 -200 -77q-115 0 -198 68q-87 72 -87 186q0 103 87 202q88 99 191 99q122 0 205 -80t83 -202z" />
    <glyph glyph-name="guilsinglleft" unicode="&#x2039;" horiz-adv-x="695" 
d="M555 481q0 -12 -5.5 -24t-15 -21.5t-21.5 -15t-25 -5.5q-26 0 -114 65q-29 22 -57.5 44t-57.5 44q-34 20 -83 52t-115 76q-30 24 -30 53q0 19 18 48q37 54 180 203q158 161 187 161q23 0 39 -17.5t16 -39.5q0 -26 -68 -102l-96 -96q-26 -28 -54.5 -60.5t-59.5 -70.5
q35 -22 145 -103q35 -23 84 -60.5t112 -89.5q21 -20 21 -41z" />
    <glyph glyph-name="guilsinglright" unicode="&#x203a;" horiz-adv-x="689" 
d="M655 829q0 -22 -17 -51q-28 -47 -179 -201q-159 -162 -189 -162q-23 0 -38 18.5t-15 40.5q0 27 68 103q23 24 46.5 48t47.5 47q36 38 65.5 71t52.5 61q-28 16 -64 40.5t-81 58.5q-35 23 -84.5 60.5t-113.5 91.5q-23 23 -23 39q0 13 6 25t15.5 21.5t22 15t26.5 5.5
q27 0 113 -65q28 -22 56 -43.5t57 -43.5q33 -20 82.5 -52t115.5 -76q30 -23 30 -52z" />
    <glyph glyph-name="Euro" unicode="&#x20ac;" horiz-adv-x="1401" 
d="M1244 268q0 -21 -24 -72q-90 -196 -344 -196q-205 0 -333 131q-116 123 -144 333q-23 -1 -57 -1h-79q-57 0 -75 5q-36 12 -36 58q0 54 65 71q32 8 177 19q1 28 3.5 55t6.5 53q-32 -1 -69 -1.5t-79 -0.5q-58 0 -58 66q0 41 46 60q26 10 193 22q59 203 169 333
q136 162 322 162q89 0 178 -71q95 -75 95 -161q0 -66 -63 -66q-29 0 -58 44q-23 37 -36.5 57t-17.5 25q-41 44 -101 44q-232 0 -350 -358q100 5 168.5 7.5t106.5 2.5q55 0 55 -65q0 -38 -47 -61q-45 -22 -320 -22q-6 -40 -10 -68.5t-6 -47.5q145 6 258 6q99 0 99 -73
q0 -37 -46 -55q-51 -18 -306 -18q21 -172 106 -263q92 -101 244 -101q206 0 265 174q27 10 59 10q43 0 43 -37z" />
    <glyph glyph-name="trademark" unicode="&#x2122;" horiz-adv-x="1780" 
d="M896 1278q0 -61 -94 -61h-213q2 -38 3.5 -74t1.5 -68q0 -20 -0.5 -49t-1.5 -67v-116q0 -90 -60 -90q-75 0 -75 138q0 34 3 100q3 67 3 101q0 51 -6 132h-136q-140 0 -140 78q0 63 65 63q34 0 85.5 -1t120.5 -3q70 -2 121.5 -3t85.5 -1q128 0 176 -12q61 -16 61 -67z
M1601 799q0 -57 -60 -57q-68 0 -68 154v34t1 48t1.5 49t0.5 35v41t-1 40q-6 -14 -22.5 -62.5t-42.5 -131.5q-41 -122 -84 -183q-20 -29 -49 -29q-40 0 -71 19q-30 19 -160 304q0 -10 0.5 -24t1.5 -34v-58q0 -95 -14 -154q-15 -65 -65 -65q-64 0 -64 65q0 14 1.5 35.5
t3.5 49.5q2 29 3.5 50.5t1.5 35.5q0 23 -0.5 57.5t-1.5 80.5t-1.5 80.5t-0.5 57.5q0 128 70 128q50 0 118 -141q23 -52 60.5 -126.5t91.5 -174.5q18 54 36 107t36 107q52 136 100 194q25 31 57 31q84 0 107 -152q4 -22 5.5 -75.5t1.5 -139.5q0 -34 0.5 -59.5t1.5 -44.5
q2 -57 3.5 -80t1.5 -12z" />
    </font>
</defs>
</svg>
