<?xml version="1.0" standalone="no"?>
<!DOCTYPE svg PUBLIC "-//W3C//DTD SVG 1.1//EN" "http://www.w3.org/Graphics/SVG/1.1/DTD/svg11.dtd" >
<svg xmlns="http://www.w3.org/2000/svg" xmlns:xlink="http://www.w3.org/1999/xlink" version="1.1">
<metadata>
Created by FontForge 20170731 at Wed Jun 16 16:05:04 2004
 By Aleksey,,,
(c) 2004 Nate Piekos. www.blambot.com
</metadata>
<defs>
<font id="WebLettererBB" horiz-adv-x="1030" >
  <font-face 
    font-family="WebLetterer BB"
    font-weight="400"
    font-stretch="normal"
    units-per-em="1024"
    panose-1="2 11 6 3 5 3 2 2 2 4"
    ascent="819"
    descent="-205"
    x-height="739"
    cap-height="740"
    bbox="1 -131 1138 860"
    underline-thickness="0"
    underline-position="0"
    unicode-range="U+0020-2122"
  />
<missing-glyph horiz-adv-x="512" 
d="M64 0v860h384v-860h-384zM128 64h256v732h-256v-732z" />
    <glyph glyph-name=".notdef" horiz-adv-x="512" 
d="M64 0v860h384v-860h-384zM128 64h256v732h-256v-732z" />
    <glyph glyph-name=".null" horiz-adv-x="0" 
 />
    <glyph glyph-name="nonmarkingreturn" horiz-adv-x="550" 
 />
    <glyph glyph-name="space" unicode=" " horiz-adv-x="550" 
 />
    <glyph glyph-name="exclam" unicode="!" horiz-adv-x="444" 
d="M365 772q0 -35 -33 -60l-64 -406q-6 -38 -11 -47q-11 -19 -42 -19q-29 0 -41 7q-17 10 -17 38q0 6 1 26l25 453q2 31 45 47q32 11 71 11q66 0 66 -50zM330 87q0 -40 -14 -55t-54 -19q-120 -13 -130 -13q-29 0 -40 17q-8 13 -8 44q0 40 14.5 55.5t54.5 19.5q121 13 130 13
q29 0 39 -17q8 -13 8 -45z" />
    <glyph glyph-name="quotedbl" unicode="&#x22;" horiz-adv-x="512" 
d="M455 739q0 -11 -2 -22l-30 -213q-4 -32 -14 -46q-13 -17 -43 -17q-55 0 -55 48q0 12 2 27l31 213q5 34 13 46q12 17 42 17q56 0 56 -53zM222 738q0 -11 -2 -21l-31 -213q-5 -33 -14 -45q-12 -18 -41 -18q-56 0 -56 47q0 13 2 28l30 213q5 33 14 45q12 18 42 18
q56 0 56 -54z" />
    <glyph glyph-name="numbersign" unicode="#" horiz-adv-x="817" 
d="M756 240q0 -33 -30 -60t-62 -27q-26 0 -45 18l-27 -1q0 -16 2.5 -49t2.5 -49q0 -44 -11 -62q-15 -24 -58 -24q-26 0 -34 15q-14 29 -14 166l-133 -5q1 -12 3 -47q2 -29 2 -46q0 -45 -12 -61q-15 -22 -60 -22q-23 0 -31 15q-13 26 -13 157q-103 -3 -107 -3q-32 0 -44 11
t-12 42q0 61 23.5 72t65.5 13q34 1 68 1q-2 42 -5 126q-93 -3 -97 -3q-32 0 -43.5 11t-11.5 41q0 62 24 73q21 10 60 12q32 0 63 1q-4 92 -4 86q0 45 12 62q15 21 60 21q23 0 30 -15q9 -22 12 -74q1 -38 1 -77l133 5q-3 65 -3 75q0 45 11 63q15 23 58 23q26 0 33 -15
q10 -24 11 -70l2 -72q102 3 106 3q41 0 50 -30q19 -20 19 -44q0 -33 -30 -58.5t-63 -25.5q-28 0 -45 21l-32 -1q1 -42 5 -126q93 2 96 2q36 0 47 -21q27 -19 27 -47zM475 302q-2 32 -5 126l-133 -5q0 -49 5 -126z" />
    <glyph glyph-name="dollar" unicode="$" horiz-adv-x="706" 
d="M645 307q0 -88 -58 -151q-53 -58 -143 -83q11 -83 11 -91q0 -18 -3 -29q-4 -18 -27.5 -29t-44.5 -11q-17 0 -24 12q-11 18 -17 64q-3 34 -7 68h-14q-80 -2 -136 27q-71 36 -71 110q0 38 10 54q13 23 50 23q28 0 39 -5q17 -8 17 -32q0 -40 105 -40q72 0 125 19
q75 28 75 87q-51 6 -207 16q-130 8 -207 22q-49 9 -49 94q0 75 56 138q49 55 126 86q7 2 21 8q-11 88 -11 93q0 16 2 27q4 17 30 29q21 11 43 11q27 0 38 -56q4 -39 8 -79q11 1 21 1q75 0 127 -30q60 -35 65 -103v-5q2 -19 -25 -45t-46 -26q-15 0 -26 19q-15 26 -26 34
q-23 19 -67 19q-56 0 -118 -22q-71 -26 -97 -65q56 -8 200 -16q128 -7 200 -20q55 -10 55 -123z" />
    <glyph glyph-name="percent" unicode="%" horiz-adv-x="911" 
d="M884 379q0 -117 -96.5 -212t-213.5 -95q-54 0 -87 17q-24 13 -67 56l-82 -170q-21 -44 -44 -44q-19 0 -42.5 18.5t-23.5 38.5q0 19 39 101q25 50 50 99q-50 -19 -98 -19q-99 0 -146 65l-4 8q-40 54 -40 123q0 68 35 134q34 62 91 105l3 4q86 65 183 65q96 0 144 -66l5 -6
l15 -23l96 199q21 44 42 44t43.5 -19t22.5 -39q0 -22 -38 -100q-24 -49 -48 -97q33 9 66 9q85 0 140 -55.5t55 -140.5zM770 364q0 37 -28 58q-24 18 -62 18q-43 0 -93.5 -27.5t-68.5 -64.5l-20 -41q0 -5 -2 -14t-2 -14q0 -34 25.5 -53.5t60.5 -19.5q65 0 113 37l7 7
q70 52 70 114zM418 466q0 33 -26.5 53t-61.5 20q-63 0 -125 -49q-65 -52 -65 -113q0 -33 26 -53t61 -20q63 0 125 48q66 52 66 114z" />
    <glyph glyph-name="ampersand" unicode="&#x26;" horiz-adv-x="847" 
d="M797 -17q0 -66 -72 -66q-20 0 -28 12q-11 19 -17 72q-3 39 -7 78q-144 -66 -293 -66q-118 0 -215 48q-121 60 -121 167q0 103 121 168q-92 57 -92 155q0 118 134 168q91 34 233 34q190 0 232 -29q15 -11 15 -40q0 -44 -26 -78q-28 -37 -71 -37q-50 0 -60 43q-71 7 -120 7
q-142 0 -213 -47q-13 -9 -13 -16q0 -13 40 -38q31 -21 53 -29q39 -16 146 -27q48 -5 48 -58q0 -68 -55 -77q-44 -7 -89 -14q-52 -8 -88 -22q-21 -8 -47 -22q-35 -19 -35 -29.5t-1 -9.5q16 -41 106 -64q68 -18 131 -18q132 0 264 65q-7 53 -13 106q-9 69 -9 105q0 64 71 64
q34 0 40 -57l49 -428q2 -11 2 -20z" />
    <glyph glyph-name="quotesingle" unicode="'" horiz-adv-x="309" 
d="M242 738q0 -11 -2 -21l-31 -213q-5 -33 -14 -45q-12 -18 -41 -18q-56 0 -56 47q0 13 2 28l30 213q5 33 14 45q12 18 42 18q56 0 56 -54z" />
    <glyph glyph-name="parenleft" unicode="(" horiz-adv-x="476" 
d="M428 762q0 -32 -28 -57t-60 -25q-19 0 -34 9q-76 -47 -115 -143q-35 -84 -35 -183q0 -122 50 -210q30 -53 67 -80t96 -37q30 -5 41 -13q18 -11 18 -37q0 -86 -64 -86q-82 0 -157 57q-82 63 -124 175q-37 97 -37 213q0 167 73 305q84 161 232 197q17 4 31 4q10 0 14 -1
q16 -4 25 -39q7 -25 7 -49z" />
    <glyph glyph-name="parenright" unicode=")" horiz-adv-x="470" 
d="M445 407q0 -167 -73 -305q-84 -160 -232 -197q-18 -5 -33 -5q-44 0 -44 89q0 34 27 57.5t60 23.5q19 0 35 -8q75 47 115 143q34 84 34 183q0 123 -49 210q-56 98 -163 117q-34 6 -45 15q-14 10 -14 40q0 82 63 82q81 0 156 -58q163 -128 163 -387z" />
    <glyph glyph-name="asterisk" unicode="*" horiz-adv-x="708" 
d="M669 678q0 -33 -44 -59l-145 -86l131 -74q44 -25 44 -55q0 -23 -16 -52q-17 -33 -38 -33q-19 0 -102 47q-46 27 -93 55l-1 -107q0 -41 -14.5 -58t-55.5 -17q-28 0 -37 19q-4 11 -4 45l1 121l-94 -58q-84 -50 -102 -50q-20 0 -33 31q-11 25 -11 48q0 32 46 59l120 71
l-124 70q-44 25 -44 54q0 24 16.5 54.5t38.5 30.5q16 0 43 -15l146 -82l1 90q0 40 13 57.5t54 17.5q29 0 38 -19q6 -13 6 -45l-1 -102l176 104q27 16 46 16q18 0 30 -31q9 -25 9 -47z" />
    <glyph glyph-name="plus" unicode="+" horiz-adv-x="671" 
d="M594 395q0 -43 -23 -71q-24 -31 -67 -31q-31 0 -49 22l-76 -8l-1 -133q0 -41 -14 -58t-56 -17q-28 0 -36 19q-5 11 -5 44l1 134q-150 -16 -159 -16q-29 0 -39 17q-7 13 -7 45q0 40 14 55.5t53 19.5l139 14l1 155q0 40 13.5 57.5t54.5 17.5q28 0 37 -19q6 -13 6 -44
l-1 -156q152 16 160 16q32 0 43 -15t11 -48z" />
    <glyph glyph-name="comma" unicode="," horiz-adv-x="337" 
d="M267 90q0 -109 -81 -192q-27 -29 -45 -29q-17 0 -34.5 28t-17.5 47q0 21 33.5 57.5t33.5 71.5q0 27 -16 61q-58 2 -58 52q0 35 31 58q29 19 65 19q25 0 36 -11q8 -7 19 -34q34 -78 34 -128z" />
    <glyph glyph-name="hyphen" unicode="-" horiz-adv-x="612" 
d="M578 363q0 -32 -28.5 -54.5t-61.5 -22.5q-31 0 -49 20l-324 -34q-12 -1 -20 -1q-30 0 -40 17q-8 13 -8 45q0 40 14.5 55.5t54.5 19.5l394 40q8 1 16 1q38 0 48 -26q4 -12 4 -60z" />
    <glyph glyph-name="hyphen" unicode="&#x2010;" horiz-adv-x="612" 
d="M578 363q0 -32 -28.5 -54.5t-61.5 -22.5q-31 0 -49 20l-324 -34q-12 -1 -20 -1q-30 0 -40 17q-8 13 -8 45q0 40 14.5 55.5t54.5 19.5l394 40q8 1 16 1q38 0 48 -26q4 -12 4 -60z" />
    <glyph glyph-name="period" unicode="." horiz-adv-x="399" 
d="M335 87q0 -40 -14.5 -55t-54.5 -19q-121 -13 -130 -13q-29 0 -39 17q-8 12 -8 44q0 40 14 55.5t54 19.5q120 13 130 13q30 0 40 -17q8 -13 8 -45z" />
    <glyph glyph-name="slash" unicode="/" horiz-adv-x="503" 
d="M502 765q0 -19 -14 -49l-358 -741q-22 -44 -43 -44q-19 0 -42 18.5t-23 36.5t15 49l357 742q21 44 41 44q19 0 43 -18.5t24 -37.5z" />
    <glyph glyph-name="zero" unicode="0" 
d="M995 459q0 -128 -98 -236q-87 -95 -228 -153q-132 -54 -256 -54q-139 0 -237 68q-110 78 -110 212q0 128 98 236q86 94 226 152q132 55 256 55q139 0 237 -69q112 -77 112 -211zM883 446q0 80 -92 122q-72 34 -162 34q-104 0 -209 -42t-174 -113t-69 -138q0 -79 90 -122
q70 -33 159 -33q135 0 262 62q146 70 187 184q8 22 8 46z" />
    <glyph glyph-name="one" unicode="1" horiz-adv-x="606" 
d="M568 103q0 -26 -12 -52q-15 -33 -37 -33q-13 0 -38.5 5.5t-43.5 5.5q-98 0 -237 -16q-9 -2 -59 -10q-36 -7 -59 -7q-39 0 -39 67q0 35 14 47q28 23 101 34q55 5 110 11q0 68 6 205t6 205q-35 -13 -70 -27q-47 -17 -72 -17q-37 0 -37 71q0 29 14 44q12 12 42 23
q174 63 182 63q40 0 50 -59q2 -16 2 -91q0 -60 -7 -189q-6 -123 -6 -188l1 -32q57 2 64 2q125 0 125 -62z" />
    <glyph glyph-name="two" unicode="2" horiz-adv-x="844" 
d="M774 114q0 -43 -20 -57q-49 -33 -462 -33q-154 0 -187 3q-23 2 -37.5 20.5t-14.5 42.5q0 63 109 146q60 45 222 141q141 84 178 121q42 42 42 67q0 26 -50 40q-36 10 -74 10q-131 0 -278 -78q0 -34 -29 -56.5t-64 -22.5q-53 0 -55 44l-6 10q-8 26 -8 42q0 29 42 58
q200 138 411 138q91 0 152 -38q72 -45 72 -132q0 -149 -217 -279l-18 -11q-11 -8 -63.5 -38t-156.5 -91h134q131 0 233 9q28 42 83 42q66 0 60 -50q2 -7 2 -48z" />
    <glyph glyph-name="three" unicode="3" horiz-adv-x="790" 
d="M738 264q0 -14 -2 -29l-1 -5q-19 -114 -147 -178q-107 -54 -238 -54q-52 0 -128 14q-96 17 -112 42q-6 9 -6 24q0 31 12 56q14 32 40 32q16 0 37 -6q104 -27 169 -27q58 0 118 16q65 18 106 50t41 50q0 12 -21 28q-60 46 -217 46q-36 0 -107 -10.5t-107 -10.5
q-53 0 -53 61q0 62 53 74q29 6 77 11q62 5 77 7q172 24 261 114q-15 30 -88 45q-53 11 -108 11q-92 0 -203 -21q-27 -47 -81 -47q-30 0 -43 10.5t-19.5 40.5t-6.5 50q0 30 16 43q32 26 165 44q108 14 180 14q112 0 191 -33q109 -45 109 -142q0 -89 -91 -158
q127 -48 127 -162z" />
    <glyph glyph-name="four" unicode="4" horiz-adv-x="769" 
d="M722 284q0 -45 -19 -63q-15 -15 -48.5 -16.5t-66.5 -2.5v-12q0 -17 1 -48q1 -34 1 -48q0 -52 -8 -69q-14 -27 -61 -27q-26 0 -34 15q-10 20 -10 184l-384 -17q-24 -1 -39 19q-13 17 -13 43q0 15 5 29l120 326q0 37 26 59.5t63 22.5q26 0 44 -12q20 -15 20 -39
q0 -47 -49 -69l-89 -239l301 13q1 37 4.5 115t3.5 118q0 18 -1 53t-1 52q0 73 68 73q27 0 34 -16q11 -25 11 -114q0 -46 -4 -138t-4 -138q8 0 35 3q21 1 35 1q59 0 59 -58z" />
    <glyph glyph-name="five" unicode="5" horiz-adv-x="729" 
d="M679 266q0 -13 -1 -23l-1 -7q-18 -114 -148 -181q-109 -57 -238 -57q-50 0 -123 13q-89 16 -111 38q-10 9 -10 28q0 31 11 56q14 33 40 33q15 0 37 -6q101 -27 169 -27q58 0 117 16q66 18 106.5 49.5t40.5 50.5q0 12 -21 28q-59 45 -197 45q-44 0 -115 -8
q-90 -10 -114 -12h-8q-24 -2 -38 19q-12 18 -12 43v287q0 23 18 48t41 26q318 11 321 11q32 0 45 -12t13 -44q0 -48 -20 -66q-12 -22 -36 -36t-49 -14q-39 0 -55 33l-167 -6v-145q90 11 169 11q130 0 214 -33q122 -48 122 -158z" />
    <glyph glyph-name="six" unicode="6" horiz-adv-x="833" 
d="M797 232q0 -128 -170 -194q-127 -49 -280 -49q-135 0 -216 62q-90 69 -90 200q0 161 123 313t280 195q32 8 64 8q95 0 167 -75q30 -31 30 -58q0 -39 -26.5 -64t-65.5 -25q-61 0 -61 54q0 8 2 16q-30 14 -64 14q-82 0 -174 -78q-79 -67 -124 -152q116 51 264 51
q132 0 222 -43q119 -57 119 -175zM685 227q0 30 -71 59.5t-171 29.5q-79 0 -157 -21q-102 -27 -130 -76q30 -95 207 -95q54 0 112 9.5t119 30.5q91 31 91 63z" />
    <glyph glyph-name="seven" unicode="7" horiz-adv-x="638" 
d="M624 697q0 -17 -9 -36q-15 -30 -128 -253q-78 -152 -120 -256q-21 -53 -24 -84q-2 -17 -11 -47q-11 -21 -49 -21q-29 0 -40.5 9t-11.5 38q0 125 234 567q-88 -5 -289 -12q-28 -41 -78 -41q-29 0 -41.5 10t-19.5 37q-10 36 -10 56q0 45 60 62q24 7 95 11q96 4 289 14
q57 2 90 9q7 2 13 2q21 0 35.5 -21t14.5 -44z" />
    <glyph glyph-name="eight" unicode="8" horiz-adv-x="737" 
d="M708 269q0 -123 -135 -199q-114 -65 -247 -65q-109 0 -195 46q-104 57 -104 157q0 101 100 177q-88 52 -88 142q0 120 124 189q103 58 233 58q105 0 183 -43q95 -53 95 -150q0 -85 -78 -151q112 -58 112 -161zM563 573q-3 39 -74 56q-45 11 -103 11q-113 0 -192 -53
q-44 -30 -44 -48q0 -38 67 -56q45 -12 101 -12q121 0 201 53q42 28 43 48zM597 257q0 42 -75 65q-54 16 -110 16q-133 0 -223 -60q-51 -34 -51 -57q0 -43 73 -65q51 -16 109 -16q137 0 226 59q51 34 51 58z" />
    <glyph glyph-name="nine" unicode="9" horiz-adv-x="784" 
d="M765 573q0 -22 -5 -44v-9q0 -17 -8 -42l-127 -368q20 -15 20 -39q0 -34 -28.5 -55.5t-63.5 -21.5q-60 0 -60 54q0 14 10 44l81 236q-107 -55 -242 -55q-119 0 -210 53q-109 64 -109 175q0 136 147 223q126 75 272 75q117 0 211 -53q112 -64 112 -173zM653 557
q0 58 -85 86q-59 20 -134 20q-143 0 -238 -69q-62 -45 -62 -81q0 -55 83 -84q61 -22 128 -22q147 0 247 71q61 44 61 79z" />
    <glyph glyph-name="colon" unicode=":" horiz-adv-x="384" 
d="M325 384q0 -40 -14.5 -55.5t-54.5 -19.5q-121 -13 -131 -13q-29 0 -39 17q-7 12 -7 45q0 39 14.5 54.5t53.5 19.5q121 13 130 13q30 0 40 -17q8 -13 8 -44zM325 87q0 -40 -14.5 -55t-54.5 -19q-121 -13 -130 -13q-29 0 -39 17q-8 12 -8 44q0 40 14 55.5t54 19.5
q120 13 130 13q30 0 40 -17q8 -13 8 -45z" />
    <glyph glyph-name="semicolon" unicode=";" horiz-adv-x="404" 
d="M315 456q0 -40 -14.5 -55t-54.5 -19q-122 -13 -132 -13q-29 0 -38 17q-7 12 -7 44q0 40 14 55.5t54 19.5q120 13 129 13q30 0 41 -18q8 -13 8 -44zM311 90q0 -109 -80 -192q-28 -29 -45 -29q-18 0 -35.5 28t-17.5 47q0 21 34 57.5t34 71.5q0 27 -16 61q-58 2 -58 52
q0 35 31 58q28 19 65 19q24 0 36 -11q8 -7 19 -34q33 -78 33 -128z" />
    <glyph glyph-name="less" unicode="&#x3c;" horiz-adv-x="534" 
d="M483 676q0 -31 -27 -57.5t-58 -28.5l-211 -216l252 -229q33 -30 33 -52q0 -23 -18 -53q-20 -33 -41 -33q-15 0 -44 26l-307 278q-16 15 -16 48q0 40 18 58l307 314q27 28 45 28q22 0 41 -38q26 -18 26 -45z" />
    <glyph glyph-name="equal" unicode="=" horiz-adv-x="697" 
d="M606 518q0 -31 -30.5 -54t-61.5 -23q-22 0 -37 12l-345 -36q-9 -1 -17 -1q-32 0 -42 14t-10 46q0 40 15 56t55 20l394 41q12 1 20 1q41 0 46 -43q13 -15 13 -33zM630 251q0 -31 -30 -54t-62 -23t-50 23l-325 -33q-10 -1 -18 -1q-31 0 -42 15q-8 11 -8 43q0 41 15 57.5
t55 20.5l393 41q10 1 19 1q32 0 42 -20q7 -13 7 -50q4 -10 4 -20z" />
    <glyph glyph-name="greater" unicode="&#x3e;" horiz-adv-x="534" 
d="M490 407q0 -38 -18 -57l-306 -314q-28 -28 -44 -28q-19 0 -42 38q-26 18 -26 46q0 30 27 56t58 29l211 216l-253 229q-34 30 -34 51q0 22 19.5 54t39.5 32q18 0 46 -25l306 -278q16 -15 16 -49z" />
    <glyph glyph-name="question" unicode="?" horiz-adv-x="808" 
d="M753 626q0 -127 -176 -203q-122 -53 -286 -70l6 -58q0 -57 -81 -57q-28 0 -32 47q-10 116 -10 123q0 24 17.5 48t40.5 27l144 18q91 13 149 35q77 29 117 79q-3 9 -28 23q-59 33 -169 33q-92 0 -201 -21q-27 -49 -87 -49q-54 0 -57 52q-7 16 -7 43q0 38 16 51
q32 25 167 43q110 15 179 15q118 0 193 -32q105 -45 105 -147zM370 96q0 -40 -14.5 -55.5t-54.5 -19.5q-121 -13 -130 -13q-30 0 -40 17q-7 12 -7 45q0 39 14.5 54.5t53.5 19.5q121 13 130 13q30 0 41 -17q7 -13 7 -44z" />
    <glyph glyph-name="at" unicode="@" horiz-adv-x="1183" 
d="M1138 418q0 -118 -67 -200q-71 -88 -186 -88q-121 0 -173 97l-30 -25h1q-78 -59 -159 -59q-77 0 -126 51t-49 128q0 104 86.5 190.5t189.5 86.5q94 0 145 -76q18 21 38 21q22 0 39 -23t17 -45q0 -14 -33 -63.5t-33 -76.5q0 -36 36 -55q29 -15 68 -15q125 0 125 149
q0 79 -46 179q-30 65 -120 97q-70 24 -159 24q-147 0 -304 -64q-190 -77 -218 -198q-9 -41 -9 -81q0 -156 175 -261q153 -92 320 -92q33 0 70 21t64 21t36 -19q6 -12 6 -43q0 -113 -179 -113q-221 0 -401 119q-202 136 -202 346q0 64 14 125q41 175 253 283q182 92 381 92
q125 0 217 -39q111 -48 155 -148q58 -131 58 -246zM687 409q0 54 -69 54q-53 0 -103 -38q-54 -40 -54 -91q0 -26 23 -42q20 -15 46 -15q50 0 103.5 41.5t53.5 90.5z" />
    <glyph glyph-name="A" unicode="A" horiz-adv-x="829" 
d="M853 107q0 -24 -16 -55q-18 -34 -41 -34q-18 0 -40.5 22t-22.5 42q0 18 20 50q-12 20 -35 56q-188 -10 -561 -34q-21 -23 -29 -37q12 -30 12 -47q0 -23 -24.5 -46.5t-46.5 -23.5q-20 0 -35 32q-12 26 -12 49q0 58 89 185q15 22 176 231q106 137 131 199q18 46 57 46
q18 0 34 -16q119 -124 252 -372q6 -13 21 -39q7 -10 12 -24q18 -45 37 -90q22 -55 22 -94zM639 319q-71 117 -163 245q-47 -77 -182 -247q-6 -6 -16 -20z" />
    <glyph glyph-name="B" unicode="B" horiz-adv-x="894" 
d="M839 225q0 -141 -208 -198q-130 -36 -323 -36q-144 0 -169 16q-16 9 -16 39q0 27 9 51l-24 496q-5 -1 -9 -1q-44 0 -44 60q0 47 21 62q52 35 315 35q421 0 421 -172q0 -100 -145 -178q172 -57 172 -174zM701 566q-14 57 -230 57q-120 0 -252 -15q2 -59 9 -177
q203 10 346 65q44 17 70 30q51 24 57 40zM728 211q-66 90 -368 90q11 0 -126 -6l8 -168q48 -2 94 -2q259 0 373 74q6 4 19 12z" />
    <glyph glyph-name="C" unicode="C" horiz-adv-x="975" 
d="M932 184q0 -14 -3 -32q-16 -87 -193 -136q-131 -36 -254 -36q-173 0 -288 61q-146 78 -146 235q0 118 86 237q81 112 205 185q128 74 246 74q61 0 122 -28q66 -31 94 -80q9 -16 9 -56q0 -34 -26 -57.5t-60 -23.5q-26 0 -46 15.5t-20 40.5q0 14 7 29q-43 24 -98 24
q-124 0 -262 -112q-145 -117 -145 -237q0 -100 138 -144q92 -29 221 -29q184 0 262 49q4 32 31 58t59 26q27 0 44 -18t17 -45z" />
    <glyph glyph-name="D" unicode="D" horiz-adv-x="879" 
d="M850 480q0 -127 -130 -251q-113 -107 -286 -180q-163 -69 -281 -69q-21 0 -35.5 18t-14.5 40q0 9 6 31q6 30 6 89q0 242 -39 438q-55 5 -55 55q0 70 77 89q147 36 284 36q175 0 303 -61q165 -79 165 -235zM738 466q0 51 -55 96q-97 78 -300 78q-95 0 -197 -17
q41 -238 37 -494q156 37 276 94q163 77 220 178q19 35 19 65z" />
    <glyph glyph-name="E" unicode="E" horiz-adv-x="936" 
d="M882 647q0 -22 -23 -50t-45 -28q-28 1 -52 13q-30 14 -33 37q-31 4 -68 4q-90 0 -235 -14q-184 -17 -235 -20q2 -82 6 -159q222 38 451 38q64 0 93 -7q58 -15 58 -60q0 -26 -15 -52q-17 -30 -41 -30q-4 0 -9 1q-12 -4 -25 -4q-30 0 -47 17q-230 0 -459 -37q3 -109 7 -174
h19q84 -1 214 18q90 11 268 38q28 32 73 32q64 0 64 -91q0 -35 -51.5 -56.5t-283.5 -49.5q-218 -27 -305 -27q-56 0 -71 5q-32 11 -36 55l-12 300l-12 299q-1 24 17 49t42 28q36 1 108 6q347 26 433 26q139 0 181 -55q24 -31 24 -52z" />
    <glyph glyph-name="F" unicode="F" horiz-adv-x="866" 
d="M864 649q0 -36 -30 -62t-66 -26q-27 0 -44 16t-14 42q-30 3 -66 3q-90 0 -236 -13q-188 -17 -235 -20l8 -201q227 38 449 38q151 0 151 -60q0 -44 -26 -76q-28 -35 -72 -35q-43 0 -56 36q-205 0 -440 -37q8 -178 8 -173q0 -51 -9 -68q-13 -27 -60 -27q-27 0 -35 18
q-6 11 -7 42l-11 277q-13 327 -13 322q0 25 17.5 49.5t41.5 27.5q36 1 108 6q344 26 433 26q138 0 180 -55q24 -31 24 -50z" />
    <glyph glyph-name="G" unicode="G" horiz-adv-x="1025" 
d="M986 412q0 -41 -3.5 -121.5t-3.5 -120.5l-1 -1q-9 -56 -168 -111q-110 -38 -209 -54q-90 -15 -172 -15q-159 0 -259 55q-126 69 -126 214q0 109 79 229q75 115 188 191q119 80 228 80q53 0 99 -28.5t66 -75.5q3 -7 3 -15q0 -12 -14 -38q-17 -31 -34.5 -43t-50.5 -12
q-24 0 -44 14.5t-20 37.5q0 11 6 22q-13 2 -26 2q-108 0 -238 -119q-132 -122 -132 -229q0 -91 127 -130q83 -26 201 -26q89 0 180 19q108 22 168 63q30 20 38 64q5 22 5 77q-109 -11 -312 -57q-25 -51 -83 -51q-32 0 -44.5 10.5t-18.5 41.5q-8 37 -8 52q0 23 16 38
q27 26 242 67q201 39 266 39q55 0 55 -69z" />
    <glyph glyph-name="H" unicode="H" horiz-adv-x="890" 
d="M839 720q0 -39 -35 -63q10 -198 23 -595v-4q1 -72 -69 -72q-26 0 -34.5 16.5t-17.5 281.5q-23 7 -67 7q-108 0 -295 -19q-53 -5 -156 -21q8 -174 8 -170q0 -51 -9 -68q-14 -27 -60 -27q-26 0 -35 18q-5 11 -7 42q0 8 -17 429q1 56 -7 166q-3 18 -3 20q0 32 30 54
q27 19 60 19q25 0 44 -15t19 -39q0 -34 -38 -59q4 -117 10 -235q214 41 444 41q43 0 74 -3q-3 62 -9 247q-6 10 -6 21q0 35 28 57q25 21 61 21q64 0 64 -50z" />
    <glyph glyph-name="I" unicode="I" horiz-adv-x="616" 
d="M578 91q0 -37 -28 -61.5t-65 -24.5q-32 0 -49 24q-86 0 -226 -16q-10 -2 -59 -10q-36 -7 -60 -7q-39 0 -39 68q0 34 14 46q28 23 92 33q50 5 101 10q-6 34 -8 110l-2 114l-9 217l-82 -9q-11 -1 -38.5 -8t-41.5 -7q-41 0 -41 76q0 28 15 41q33 29 178 43q100 10 206 10
q123 0 125 -57q13 -16 13 -34q0 -31 -31 -53.5t-63 -22.5q-39 0 -54 33q-12 0 -37.5 -1.5t-37.5 -1.5l9 -212q0 -18 6 -115q4 -67 4 -114q61 4 77 4q81 0 116 -28q15 -13 15 -47z" />
    <glyph glyph-name="J" unicode="J" horiz-adv-x="699" 
d="M669 705q0 -26 -12 -52q-14 -33 -37 -33q-13 0 -38 5.5t-37 5.5q2 -35 19 -163q14 -100 14 -163q0 -95 -20 -151q-27 -75 -94.5 -113.5t-148.5 -38.5q-65 0 -128 36q-59 33 -102 87v1q-26 32 -26 66q0 25 8 65q13 57 14 65q4 27 34 44q27 16 57 16q25 0 41.5 -15
t16.5 -39q0 -43 -47 -66q-9 -25 -9 -39q0 -32 64 -61q56 -25 95 -25q30 0 68 15q45 16 54 39q13 34 13 107q0 64 -15 165q-19 133 -21 163q-78 -6 -133 -12q-13 -1 -61 -11q-38 -7 -61 -7q-33 0 -33 68q0 36 14 48q34 28 178 44q106 11 197 11q136 0 136 -62z" />
    <glyph glyph-name="K" unicode="K" horiz-adv-x="861" 
d="M821 120q0 -46 -21 -76q-23 -33 -68 -33q-44 0 -113 29q-5 3 -107 52q-115 55 -143 67q-83 35 -150 46q0 -17 3 -64q3 -40 3 -64q0 -47 -10 -65q-15 -26 -60 -26q-25 0 -34 16.5t-31 631.5q-4 8 -4 15q0 33 10.5 47.5t41.5 24.5q27 9 38 9q25 0 43.5 -15t18.5 -39
q0 -37 -36 -61q4 -123 10 -251q411 376 494 376q16 0 33.5 -26t17.5 -43q0 -30 -28.5 -53.5t-60.5 -23.5q-7 0 -14 2q-102 -85 -197 -171q-40 -36 -117 -111q71 -23 220 -95q40 -20 80 -39q46 -22 83 -30q12 18 39 18q59 0 59 -48z" />
    <glyph glyph-name="L" unicode="L" horiz-adv-x="728" 
d="M714 105q0 -25 -16 -53q-18 -33 -41 -33q-9 0 -30.5 10.5t-40.5 10.5q-77 0 -200 -20q-154 -26 -200 -30h-4q-41 0 -56 155q-5 46 -10 196q-8 279 -8 280q0 61 6 74q12 28 64 28q22 0 31 -15q10 -18 13 -163q4 -173 5 -186l21 -202q0 -5 2 -16q158 36 311 36
q123 0 150 -56q3 -6 3 -16z" />
    <glyph glyph-name="M" unicode="M" horiz-adv-x="1028" 
d="M1014 100q0 -29 -14 -55q-16 -32 -42 -32q-27 0 -50 11q-30 13 -30 37q0 8 4.5 24t4.5 24q0 61 -115 388q-152 -336 -153 -396v-14q1 -9 1 -13q0 -27 -22.5 -44.5t-50.5 -17.5q-57 0 -57 64q0 14 3 30l-58 200q-34 115 -70 195l-88 -214q-70 -172 -70 -193q0 -6 2 -18
t2 -18q0 -29 -30 -48q-25 -15 -57 -15q-24 0 -36 30q-10 22 -10 50q0 57 71 237q50 122 100 245q25 65 43 135q14 57 77 57q27 0 41 -21q6 -8 21 -43l-4 7q19 -28 71 -183q67 -200 70 -207q92 191 138 390q13 57 78 57q30 0 45 -28q47 -87 114 -307q71 -230 71 -314z" />
    <glyph glyph-name="N" unicode="N" horiz-adv-x="790" 
d="M751 714q0 -14 -6 -29q-1 -26 -20 -450q0 -52 -3 -156q-4 -57 -73 -57q-28 0 -37 31q-17 55 -85 125q-41 43 -156 150q-100 93 -154 152q0 -47 -3 -126q-4 -93 -5 -126q0 -28 1 -74q1 -55 1 -74q0 -41 -14 -60t-55 -19q-26 0 -35 15.5t-9 142.5q0 69 4 182q4 140 5 182
q1 29 0 75v74q0 53 71 53q40 0 40 -35q0 -31 70 -101q36 -37 166 -158q104 -96 163 -161q0 65 7 185q8 127 9 184q-35 13 -35 46q0 35 27.5 57.5t62.5 22.5q63 0 63 -51z" />
    <glyph glyph-name="O" unicode="O" 
d="M995 459q0 -128 -98 -236q-87 -95 -228 -153q-132 -54 -256 -54q-139 0 -237 68q-110 78 -110 212q0 128 98 236q86 94 226 152q132 55 256 55q139 0 237 -69q112 -77 112 -211zM883 446q0 80 -92 122q-72 34 -162 34q-104 0 -209 -42t-174 -113t-69 -138q0 -79 90 -122
q70 -33 159 -33q135 0 262 62q146 70 187 184q8 22 8 46z" />
    <glyph glyph-name="P" unicode="P" horiz-adv-x="731" 
d="M715 582q0 -63 -50 -128q-70 -91 -208 -143q-115 -44 -250 -52q2 -78 6 -152q42 -14 42 -47q0 -30 -31 -56t-63 -26q-23 0 -42 16t-19 39q0 9 4 19l-22 539q-48 -3 -48 63q0 45 21 59q30 19 152 31q90 8 163 8q345 0 345 -170zM605 568q0 56 -194 56q-89 0 -218 -17
q2 -71 9 -213q163 7 287 72q116 61 116 102z" />
    <glyph glyph-name="Q" unicode="Q" horiz-adv-x="978" 
d="M947 459q0 -166 -164 -297q25 -23 75 -70q24 0 44 -16t20 -39q0 -31 -32 -53.5t-63 -22.5q-39 0 -53 33l-104 96q-145 -73 -306 -73q-140 0 -236 68q-109 77 -109 212v-1q0 128 98 236q86 95 226 152q132 54 256 54q140 0 237 -68q111 -77 111 -211zM836 447
q0 78 -93 121q-74 34 -162 34q-127 0 -258 -65q-147 -73 -185 -182q-9 -25 -9 -47q0 -79 89 -121q69 -33 158 -33q101 0 192 32l-119 111q-33 31 -33 54q0 21 20.5 51.5t40.5 30.5q17 0 45 -26l170 -160q144 94 144 200z" />
    <glyph glyph-name="R" unicode="R" horiz-adv-x="845" 
d="M816 112q0 -44 -25 -72t-69 -28q-42 0 -110 29q-53 26 -105 51q-117 56 -144 67q-83 36 -150 46q0 -17 3 -65q3 -40 3 -64q0 -48 -10 -65q-15 -25 -60 -25q-25 0 -33.5 15.5t-18.5 275.5q-6 156 -11 311h-6q-42 -3 -42 59q0 48 20 62q30 20 160 33q101 10 173 10
q144 0 238 -29q147 -45 147 -155q0 -64 -56 -140q-82 -110 -250 -169q60 -31 121 -62q74 -36 126 -47q12 18 39 18q60 0 60 -56zM664 555q-13 68 -215 68q-111 0 -252 -19q5 -166 10 -260q186 7 325 82q130 70 131 127z" />
    <glyph glyph-name="S" unicode="S" horiz-adv-x="917" 
d="M887 361q0 -109 -96 -200q-83 -79 -216 -128q-122 -45 -226 -45q-146 0 -184 101q-2 6 -2 13q0 32 31.5 56.5t63.5 24.5q27 0 45.5 -16t14.5 -42q18 -3 39 -3q105 0 232 54q143 61 178 145q-98 -5 -245 -21q-122 -14 -244.5 -26.5t-184.5 -12.5q-38 0 -51 27q-8 18 -8 62
q0 154 132 280.5t286 126.5q60 0 115 -25q60 -26 92 -72q26 -36 26 -63q0 -28 -28 -49.5t-58 -21.5q-24 0 -44 12q-24 14 -24 37q0 11 5 21q-40 24 -91 24q-91 0 -183 -67t-114 -154q102 4 342 33q219 27 341 27q56 0 56 -98z" />
    <glyph glyph-name="T" unicode="T" horiz-adv-x="640" 
d="M660 693q0 -38 -26 -61.5t-65 -23.5q-30 0 -47 19l-135 -13q11 -183 23 -549v-5q1 -40 -15 -57t-57 -17q-24 0 -31 15q-9 20 -19 283l-12 320l-129 -11q-27 -25 -65 -25q-24 0 -42.5 14t-18.5 38q0 4 1 13q10 62 10 64q11 22 60 26l514 46q38 1 48 -20q6 -12 6 -56z" />
    <glyph glyph-name="U" unicode="U" horiz-adv-x="679" 
d="M623 309q0 -43 -2 -73q-12 -130 -100 -186q-75 -47 -214 -47q-137 0 -195 87q-49 73 -49 216q0 237 8 351q1 -1 1 15q0 52 21 66q15 11 69 11q24 0 43 -14.5t19 -38.5q0 -42 -41 -64q-9 -214 -9 -325q0 -87 25 -124q31 -45 113 -45q51 0 102 11q71 15 88 43q12 21 12 88
q0 81 -23 260q-12 93 -12 121q0 65 72 65q19 0 27 -13q13 -21 30 -194q15 -155 15 -210z" />
    <glyph glyph-name="V" unicode="V" horiz-adv-x="615" 
d="M629 672q0 -67 -116 -287q-131 -249 -150 -318q-15 -52 -63 -52q-22 0 -37 23q-62 90 -144 299q-87 223 -87 313q0 26 12 51q14 32 38 32q21 0 43.5 -17t22.5 -38q0 -15 -11 -44q6 -27 57 -158q48 -126 110 -254q10 24 117 227q100 190 100 197t-4 21t-4 22q0 22 27 43
q24 19 47 19q20 0 32 -31q10 -24 10 -48z" />
    <glyph glyph-name="W" unicode="W" horiz-adv-x="836" 
d="M842 671q0 -60 -88 -301q-41 -114 -52 -147q-28 -83 -43 -150q-12 -55 -67 -55q-24 0 -38 28q-56 119 -130 342q-33 -78 -66 -155q-37 -90 -52 -160q-12 -55 -66 -55q-25 0 -39 28q-41 86 -98 298q-59 221 -59 303q0 29 11 53q13 31 38 31t45.5 -12.5t20.5 -35.5
q0 -8 -3.5 -23t-3.5 -22q0 -60 98 -375q35 82 71 163q57 134 57 145v11.5v11.5q0 27 17 45.5t44 18.5q49 0 49 -62q0 -14 -3 -29q14 -66 49 -156q32 -76 63 -152q2 7 74 205q60 166 60 184q0 7 -2 20.5t-2 20.5q0 26 23 43t50 17q22 0 33 -30q9 -21 9 -48z" />
    <glyph glyph-name="X" unicode="X" horiz-adv-x="814" 
d="M767 72q0 -33 -27.5 -55.5t-61.5 -22.5t-57 29q-66 80 -199 242q-242 -265 -284 -265q-19 0 -36 30q-15 27 -15 48q0 9 3 15q10 20 67 74q39 36 78 73q53 53 111 116q-72 84 -138 153t-108 94q-17 11 -24 17q-15 12 -18 23q-1 5 -1 11q0 24 15 54q17 35 38 35
q72 0 321 -292q53 60 212 259q27 34 44 34t38 -25.5t21 -43.5q0 -39 -239 -314q70 -87 195 -238q65 0 65 -51z" />
    <glyph glyph-name="Y" unicode="Y" horiz-adv-x="708" 
d="M718 682q0 -12 -4 -19q-8 -14 -85 -79q-93 -79 -99 -84q-62 -58 -110 -115l-4 -315q0 -40 -11 -55q-15 -19 -54 -19q-31 0 -39 18q-6 11 -6 45l3 316q-185 131 -276 275q-23 37 -23 51q0 34 27 56t61 22q61 0 61 -54q0 -13 -5 -28q81 -107 210 -198q54 60 151 149
q125 114 157 114q19 0 34 -32q12 -26 12 -48z" />
    <glyph glyph-name="Z" unicode="Z" horiz-adv-x="710" 
d="M664 155v-25q-1 -16 -1 -24q0 -34 -19 -47q-51 -35 -378 -35q-116 0 -145 3q-49 5 -49 62q0 18 10 39q130 265 330 476q-22 0 -82 2q-52 1 -82 1q-58 0 -103 -4q-25 -36 -44 -36t-39 23t-20 42q0 21 21 52q40 56 347 56q26 0 79.5 -1t79.5 -1q51 0 51 -65q0 -32 -26 -57
q-231 -221 -366 -455q47 -1 89 -1q118 0 210 9q29 38 76 38q24 0 42.5 -14.5t18.5 -37.5z" />
    <glyph glyph-name="bracketleft" unicode="[" horiz-adv-x="451" 
d="M391 -12q0 -39 -41 -66q-15 -21 -61 -21h-171q-22 0 -36 19.5t-14 42.5v818q0 24 18.5 49t41.5 25h179q30 0 42 -6q16 -9 21 -36q10 -16 10 -33q0 -33 -29.5 -58.5t-62.5 -25.5q-31 0 -49 24h-60v-684h102q23 15 47 15q26 0 44.5 -18.5t18.5 -44.5z" />
    <glyph glyph-name="backslash" unicode="\" horiz-adv-x="486" 
d="M481 -14q0 -18 -24 -36.5t-44 -18.5q-19 0 -40 44l-357 741q-15 31 -15 49q0 19 22.5 38t42.5 19q21 0 43 -45l358 -742q14 -30 14 -49z" />
    <glyph glyph-name="bracketright" unicode="]" horiz-adv-x="438" 
d="M378 -25q0 -24 -19.5 -49t-41.5 -25h-178q-32 0 -43 6q-16 9 -20 37q-10 16 -10 33q0 32 28.5 57t62.5 25q30 0 50 -23h60v684h-102q-26 -16 -50 -16q-25 0 -43 18t-18 44q0 40 42 68q14 21 55 21h177q50 0 50 -61v-819z" />
    <glyph glyph-name="underscore" unicode="_" horiz-adv-x="793" 
d="M747 14q0 -33 -28.5 -55.5t-61.5 -22.5q-31 0 -49 20l-493 -44q-14 -1 -20 -1q-30 0 -40 17q-8 13 -8 45q0 40 14.5 55.5t54.5 19.5l563 50q9 1 16 1q38 0 48 -25q4 -12 4 -60z" />
    <glyph glyph-name="a" unicode="a" horiz-adv-x="829" 
d="M853 107q0 -24 -16 -55q-18 -34 -41 -34q-18 0 -40.5 22t-22.5 42q0 18 20 50q-12 20 -35 56q-188 -10 -561 -34q-21 -23 -29 -37q12 -30 12 -47q0 -23 -24.5 -46.5t-46.5 -23.5q-20 0 -35 32q-12 26 -12 49q0 58 89 185q15 22 176 231q106 137 131 199q18 46 57 46
q18 0 34 -16q119 -124 252 -372q6 -13 21 -39q7 -10 12 -24q18 -45 37 -90q22 -55 22 -94zM639 319q-71 117 -163 245q-47 -77 -182 -247q-6 -6 -16 -20z" />
    <glyph glyph-name="b" unicode="b" horiz-adv-x="894" 
d="M839 225q0 -141 -208 -198q-130 -36 -323 -36q-144 0 -169 16q-16 9 -16 39q0 27 9 51l-24 496q-5 -1 -9 -1q-44 0 -44 60q0 47 21 62q52 35 315 35q421 0 421 -172q0 -100 -145 -178q172 -57 172 -174zM701 566q-14 57 -230 57q-120 0 -252 -15q2 -59 9 -177
q203 10 346 65q44 17 70 30q51 24 57 40zM728 211q-66 90 -368 90q11 0 -126 -6l8 -168q48 -2 94 -2q259 0 373 74q6 4 19 12z" />
    <glyph glyph-name="c" unicode="c" horiz-adv-x="975" 
d="M932 184q0 -14 -3 -32q-16 -87 -193 -136q-131 -36 -254 -36q-173 0 -288 61q-146 78 -146 235q0 118 86 237q81 112 205 185q128 74 246 74q61 0 122 -28q66 -31 94 -80q9 -16 9 -56q0 -34 -26 -57.5t-60 -23.5q-26 0 -46 15.5t-20 40.5q0 14 7 29q-43 24 -98 24
q-124 0 -262 -112q-145 -117 -145 -237q0 -100 138 -144q92 -29 221 -29q184 0 262 49q4 32 31 58t59 26q27 0 44 -18t17 -45z" />
    <glyph glyph-name="d" unicode="d" horiz-adv-x="879" 
d="M850 480q0 -127 -130 -251q-113 -107 -286 -180q-163 -69 -281 -69q-21 0 -35.5 18t-14.5 40q0 9 6 31q6 30 6 89q0 242 -39 438q-55 5 -55 55q0 70 77 89q147 36 284 36q175 0 303 -61q165 -79 165 -235zM738 466q0 51 -55 96q-97 78 -300 78q-95 0 -197 -17
q41 -238 37 -494q156 37 276 94q163 77 220 178q19 35 19 65z" />
    <glyph glyph-name="e" unicode="e" horiz-adv-x="936" 
d="M882 647q0 -22 -23 -50t-45 -28q-28 1 -52 13q-30 14 -33 37q-31 4 -68 4q-90 0 -235 -14q-184 -17 -235 -20q2 -82 6 -159q222 38 451 38q64 0 93 -7q58 -15 58 -60q0 -26 -15 -52q-17 -30 -41 -30q-4 0 -9 1q-12 -4 -25 -4q-30 0 -47 17q-230 0 -459 -37q3 -109 7 -174
h19q84 -1 214 18q90 11 268 38q28 32 73 32q64 0 64 -91q0 -35 -51.5 -56.5t-283.5 -49.5q-218 -27 -305 -27q-56 0 -71 5q-32 11 -36 55l-12 300l-12 299q-1 24 17 49t42 28q36 1 108 6q347 26 433 26q139 0 181 -55q24 -31 24 -52z" />
    <glyph glyph-name="f" unicode="f" horiz-adv-x="866" 
d="M864 649q0 -36 -30 -62t-66 -26q-27 0 -44 16t-14 42q-30 3 -66 3q-90 0 -236 -13q-188 -17 -235 -20l8 -201q227 38 449 38q151 0 151 -60q0 -44 -26 -76q-28 -35 -72 -35q-43 0 -56 36q-205 0 -440 -37q8 -178 8 -173q0 -51 -9 -68q-13 -27 -60 -27q-27 0 -35 18
q-6 11 -7 42l-11 277q-13 327 -13 322q0 25 17.5 49.5t41.5 27.5q36 1 108 6q344 26 433 26q138 0 180 -55q24 -31 24 -50z" />
    <glyph glyph-name="g" unicode="g" horiz-adv-x="1025" 
d="M986 412q0 -41 -3.5 -121.5t-3.5 -120.5l-1 -1q-9 -56 -168 -111q-110 -38 -209 -54q-90 -15 -172 -15q-159 0 -259 55q-126 69 -126 214q0 109 79 229q75 115 188 191q119 80 228 80q53 0 99 -28.5t66 -75.5q3 -7 3 -15q0 -12 -14 -38q-17 -31 -34.5 -43t-50.5 -12
q-24 0 -44 14.5t-20 37.5q0 11 6 22q-13 2 -26 2q-108 0 -238 -119q-132 -122 -132 -229q0 -91 127 -130q83 -26 201 -26q89 0 180 19q108 22 168 63q30 20 38 64q5 22 5 77q-109 -11 -312 -57q-25 -51 -83 -51q-32 0 -44.5 10.5t-18.5 41.5q-8 37 -8 52q0 23 16 38
q27 26 242 67q201 39 266 39q55 0 55 -69z" />
    <glyph glyph-name="h" unicode="h" horiz-adv-x="890" 
d="M839 720q0 -39 -35 -63q10 -198 23 -595v-4q1 -72 -69 -72q-26 0 -34.5 16.5t-17.5 281.5q-23 7 -67 7q-108 0 -295 -19q-53 -5 -156 -21q8 -174 8 -170q0 -51 -9 -68q-14 -27 -60 -27q-26 0 -35 18q-5 11 -7 42q0 8 -17 429q1 56 -7 166q-3 18 -3 20q0 32 30 54
q27 19 60 19q25 0 44 -15t19 -39q0 -34 -38 -59q4 -117 10 -235q214 41 444 41q43 0 74 -3q-3 62 -9 247q-6 10 -6 21q0 35 28 57q25 21 61 21q64 0 64 -50z" />
    <glyph glyph-name="i" unicode="i" horiz-adv-x="328" 
d="M280 55q0 -34 -27.5 -55.5t-63.5 -21.5q-25 0 -42 12q-20 13 -20 37q0 12 4 24q-4 88 -24 592q-4 8 -4 17q0 33 28 57q26 21 60 21q26 0 45.5 -13t19.5 -38q0 -37 -37 -62q6 -174 22 -522q39 -13 39 -48z" />
    <glyph glyph-name="j" unicode="j" horiz-adv-x="699" 
d="M669 705q0 -26 -12 -52q-14 -33 -37 -33q-13 0 -38 5.5t-37 5.5q2 -35 19 -163q14 -100 14 -163q0 -95 -20 -151q-27 -75 -94.5 -113.5t-148.5 -38.5q-65 0 -128 36q-59 33 -102 87v1q-26 32 -26 66q0 25 8 65q13 57 14 65q4 27 34 44q27 16 57 16q25 0 41.5 -15
t16.5 -39q0 -43 -47 -66q-9 -25 -9 -39q0 -32 64 -61q56 -25 95 -25q30 0 68 15q45 16 54 39q13 34 13 107q0 64 -15 165q-19 133 -21 163q-78 -6 -133 -12q-13 -1 -61 -11q-38 -7 -61 -7q-33 0 -33 68q0 36 14 48q34 28 178 44q106 11 197 11q136 0 136 -62z" />
    <glyph glyph-name="k" unicode="k" horiz-adv-x="861" 
d="M821 120q0 -46 -21 -76q-23 -33 -68 -33q-44 0 -113 29q-5 3 -107 52q-115 55 -143 67q-83 35 -150 46q0 -17 3 -64q3 -40 3 -64q0 -47 -10 -65q-15 -26 -60 -26q-25 0 -34 16.5t-31 631.5q-4 8 -4 15q0 33 10.5 47.5t41.5 24.5q27 9 38 9q25 0 43.5 -15t18.5 -39
q0 -37 -36 -61q4 -123 10 -251q411 376 494 376q16 0 33.5 -26t17.5 -43q0 -30 -28.5 -53.5t-60.5 -23.5q-7 0 -14 2q-102 -85 -197 -171q-40 -36 -117 -111q71 -23 220 -95q40 -20 80 -39q46 -22 83 -30q12 18 39 18q59 0 59 -48z" />
    <glyph glyph-name="l" unicode="l" horiz-adv-x="728" 
d="M714 105q0 -25 -16 -53q-18 -33 -41 -33q-9 0 -30.5 10.5t-40.5 10.5q-77 0 -200 -20q-154 -26 -200 -30h-4q-41 0 -56 155q-5 46 -10 196q-8 279 -8 280q0 61 6 74q12 28 64 28q22 0 31 -15q10 -18 13 -163q4 -173 5 -186l21 -202q0 -5 2 -16q158 36 311 36
q123 0 150 -56q3 -6 3 -16z" />
    <glyph glyph-name="m" unicode="m" horiz-adv-x="1028" 
d="M1014 100q0 -29 -14 -55q-16 -32 -42 -32q-27 0 -50 11q-30 13 -30 37q0 8 4.5 24t4.5 24q0 61 -115 388q-152 -336 -153 -396v-14q1 -9 1 -13q0 -27 -22.5 -44.5t-50.5 -17.5q-57 0 -57 64q0 14 3 30l-58 200q-34 115 -70 195l-88 -214q-70 -172 -70 -193q0 -6 2 -18
t2 -18q0 -29 -30 -48q-25 -15 -57 -15q-24 0 -36 30q-10 22 -10 50q0 57 71 237q50 122 100 245q25 65 43 135q14 57 77 57q27 0 41 -21q6 -8 21 -43l-4 7q19 -28 71 -183q67 -200 70 -207q92 191 138 390q13 57 78 57q30 0 45 -28q47 -87 114 -307q71 -230 71 -314z" />
    <glyph glyph-name="n" unicode="n" horiz-adv-x="790" 
d="M751 714q0 -14 -6 -29q-1 -26 -20 -450q0 -52 -3 -156q-4 -57 -73 -57q-28 0 -37 31q-17 55 -85 125q-41 43 -156 150q-100 93 -154 152q0 -47 -3 -126q-4 -93 -5 -126q0 -28 1 -74q1 -55 1 -74q0 -41 -14 -60t-55 -19q-26 0 -35 15.5t-9 142.5q0 69 4 182q4 140 5 182
q1 29 0 75v74q0 53 71 53q40 0 40 -35q0 -31 70 -101q36 -37 166 -158q104 -96 163 -161q0 65 7 185q8 127 9 184q-35 13 -35 46q0 35 27.5 57.5t62.5 22.5q63 0 63 -51z" />
    <glyph glyph-name="o" unicode="o" 
d="M995 459q0 -128 -98 -236q-87 -95 -228 -153q-132 -54 -256 -54q-139 0 -237 68q-110 78 -110 212q0 128 98 236q86 94 226 152q132 55 256 55q139 0 237 -69q112 -77 112 -211zM883 446q0 80 -92 122q-72 34 -162 34q-104 0 -209 -42t-174 -113t-69 -138q0 -79 90 -122
q70 -33 159 -33q135 0 262 62q146 70 187 184q8 22 8 46z" />
    <glyph glyph-name="p" unicode="p" horiz-adv-x="731" 
d="M715 582q0 -63 -50 -128q-70 -91 -208 -143q-115 -44 -250 -52q2 -78 6 -152q42 -14 42 -47q0 -30 -31 -56t-63 -26q-23 0 -42 16t-19 39q0 9 4 19l-22 539q-48 -3 -48 63q0 45 21 59q30 19 152 31q90 8 163 8q345 0 345 -170zM605 568q0 56 -194 56q-89 0 -218 -17
q2 -71 9 -213q163 7 287 72q116 61 116 102z" />
    <glyph glyph-name="q" unicode="q" horiz-adv-x="978" 
d="M947 459q0 -166 -164 -297q25 -23 75 -70q24 0 44 -16t20 -39q0 -31 -32 -53.5t-63 -22.5q-39 0 -53 33l-104 96q-145 -73 -306 -73q-140 0 -236 68q-109 77 -109 212v-1q0 128 98 236q86 95 226 152q132 54 256 54q140 0 237 -68q111 -77 111 -211zM836 447
q0 78 -93 121q-74 34 -162 34q-127 0 -258 -65q-147 -73 -185 -182q-9 -25 -9 -47q0 -79 89 -121q69 -33 158 -33q101 0 192 32l-119 111q-33 31 -33 54q0 21 20.5 51.5t40.5 30.5q17 0 45 -26l170 -160q144 94 144 200z" />
    <glyph glyph-name="r" unicode="r" horiz-adv-x="845" 
d="M816 112q0 -44 -25 -72t-69 -28q-42 0 -110 29q-53 26 -105 51q-117 56 -144 67q-83 36 -150 46q0 -17 3 -65q3 -40 3 -64q0 -48 -10 -65q-15 -25 -60 -25q-25 0 -33.5 15.5t-18.5 275.5q-6 156 -11 311h-6q-42 -3 -42 59q0 48 20 62q30 20 160 33q101 10 173 10
q144 0 238 -29q147 -45 147 -155q0 -64 -56 -140q-82 -110 -250 -169q60 -31 121 -62q74 -36 126 -47q12 18 39 18q60 0 60 -56zM664 555q-13 68 -215 68q-111 0 -252 -19q5 -166 10 -260q186 7 325 82q130 70 131 127z" />
    <glyph glyph-name="s" unicode="s" horiz-adv-x="917" 
d="M887 361q0 -109 -96 -200q-83 -79 -216 -128q-122 -45 -226 -45q-146 0 -184 101q-2 6 -2 13q0 32 31.5 56.5t63.5 24.5q27 0 45.5 -16t14.5 -42q18 -3 39 -3q105 0 232 54q143 61 178 145q-98 -5 -245 -21q-122 -14 -244.5 -26.5t-184.5 -12.5q-38 0 -51 27q-8 18 -8 62
q0 154 132 280.5t286 126.5q60 0 115 -25q60 -26 92 -72q26 -36 26 -63q0 -28 -28 -49.5t-58 -21.5q-24 0 -44 12q-24 14 -24 37q0 11 5 21q-40 24 -91 24q-91 0 -183 -67t-114 -154q102 4 342 33q219 27 341 27q56 0 56 -98z" />
    <glyph glyph-name="t" unicode="t" horiz-adv-x="640" 
d="M660 693q0 -38 -26 -61.5t-65 -23.5q-30 0 -47 19l-135 -13q11 -183 23 -549v-5q1 -40 -15 -57t-57 -17q-24 0 -31 15q-9 20 -19 283l-12 320l-129 -11q-27 -25 -65 -25q-24 0 -42.5 14t-18.5 38q0 4 1 13q10 62 10 64q11 22 60 26l514 46q38 1 48 -20q6 -12 6 -56z" />
    <glyph glyph-name="u" unicode="u" horiz-adv-x="679" 
d="M623 309q0 -43 -2 -73q-12 -130 -100 -186q-75 -47 -214 -47q-137 0 -195 87q-49 73 -49 216q0 237 8 351q1 -1 1 15q0 52 21 66q15 11 69 11q24 0 43 -14.5t19 -38.5q0 -42 -41 -64q-9 -214 -9 -325q0 -87 25 -124q31 -45 113 -45q51 0 102 11q71 15 88 43q12 21 12 88
q0 81 -23 260q-12 93 -12 121q0 65 72 65q19 0 27 -13q13 -21 30 -194q15 -155 15 -210z" />
    <glyph glyph-name="v" unicode="v" horiz-adv-x="615" 
d="M629 672q0 -67 -116 -287q-131 -249 -150 -318q-15 -52 -63 -52q-22 0 -37 23q-62 90 -144 299q-87 223 -87 313q0 26 12 51q14 32 38 32q21 0 43.5 -17t22.5 -38q0 -15 -11 -44q6 -27 57 -158q48 -126 110 -254q10 24 117 227q100 190 100 197t-4 21t-4 22q0 22 27 43
q24 19 47 19q20 0 32 -31q10 -24 10 -48z" />
    <glyph glyph-name="w" unicode="w" horiz-adv-x="836" 
d="M842 671q0 -60 -88 -301q-41 -114 -52 -147q-28 -83 -43 -150q-12 -55 -67 -55q-24 0 -38 28q-56 119 -130 342q-33 -78 -66 -155q-37 -90 -52 -160q-12 -55 -66 -55q-25 0 -39 28q-41 86 -98 298q-59 221 -59 303q0 29 11 53q13 31 38 31t45.5 -12.5t20.5 -35.5
q0 -8 -3.5 -23t-3.5 -22q0 -60 98 -375q35 82 71 163q57 134 57 145v11.5v11.5q0 27 17 45.5t44 18.5q49 0 49 -62q0 -14 -3 -29q14 -66 49 -156q32 -76 63 -152q2 7 74 205q60 166 60 184q0 7 -2 20.5t-2 20.5q0 26 23 43t50 17q22 0 33 -30q9 -21 9 -48z" />
    <glyph glyph-name="x" unicode="x" horiz-adv-x="814" 
d="M767 72q0 -33 -27.5 -55.5t-61.5 -22.5t-57 29q-66 80 -199 242q-242 -265 -284 -265q-19 0 -36 30q-15 27 -15 48q0 9 3 15q10 20 67 74q39 36 78 73q53 53 111 116q-72 84 -138 153t-108 94q-17 11 -24 17q-15 12 -18 23q-1 5 -1 11q0 24 15 54q17 35 38 35
q72 0 321 -292q53 60 212 259q27 34 44 34t38 -25.5t21 -43.5q0 -39 -239 -314q70 -87 195 -238q65 0 65 -51z" />
    <glyph glyph-name="y" unicode="y" horiz-adv-x="708" 
d="M718 682q0 -12 -4 -19q-8 -14 -85 -79q-93 -79 -99 -84q-62 -58 -110 -115l-4 -315q0 -40 -11 -55q-15 -19 -54 -19q-31 0 -39 18q-6 11 -6 45l3 316q-185 131 -276 275q-23 37 -23 51q0 34 27 56t61 22q61 0 61 -54q0 -13 -5 -28q81 -107 210 -198q54 60 151 149
q125 114 157 114q19 0 34 -32q12 -26 12 -48z" />
    <glyph glyph-name="z" unicode="z" horiz-adv-x="710" 
d="M664 155v-25q-1 -16 -1 -24q0 -34 -19 -47q-51 -35 -378 -35q-116 0 -145 3q-49 5 -49 62q0 18 10 39q130 265 330 476q-22 0 -82 2q-52 1 -82 1q-58 0 -103 -4q-25 -36 -44 -36t-39 23t-20 42q0 21 21 52q40 56 347 56q26 0 79.5 -1t79.5 -1q51 0 51 -65q0 -32 -26 -57
q-231 -221 -366 -455q47 -1 89 -1q118 0 210 9q29 38 76 38q24 0 42.5 -14.5t18.5 -37.5z" />
    <glyph glyph-name="braceleft" unicode="{" horiz-adv-x="969" 
d="M832 617q0 -44 -25 -75t-68 -31q-59 0 -60 58l-249 120q-47 23 -47 52q0 23 13 53q16 35 36 35t46 -13l308 -148q46 -22 46 -51zM733 371q0 -33 -29 -60t-62 -27q-27 0 -46 21l-486 -16q-33 -1 -45 11t-12 46q0 43 15.5 60t57.5 18l536 18q41 1 50 -28q21 -18 21 -43z
M872 106q0 -32 -28 -58t-61 -26q-19 0 -34 9l-290 -108q-21 -8 -41 -8q-38 0 -38 71q0 28 15 43q11 12 41 23l344 128q24 9 37 9q26 0 36 -39q19 -19 19 -44z" />
    <glyph glyph-name="bar" unicode="|" horiz-adv-x="328" 
d="M280 -25q0 -34 -27.5 -55.5t-63.5 -21.5q-25 0 -42 12q-20 13 -20 37q0 12 4 24q-8 282 -24 762q-4 8 -4 17q0 33 28 57q26 21 60 21q26 0 45.5 -13t19.5 -38q0 -37 -37 -62q6 -259 22 -692q39 -13 39 -48z" />
    <glyph glyph-name="braceright" unicode="}" horiz-adv-x="999" 
d="M615 756q0 -28 -13 -41.5t-42 -24.5l-344 -128q-26 -10 -39 -10q-25 0 -34 40q-20 18 -20 43q0 32 28.5 59t60.5 27q19 0 34 -10l290 109q20 8 41 8q38 0 38 -72zM943 397q0 -43 -15.5 -60.5t-57.5 -18.5l-541 -18q-37 -1 -45 28q-22 17 -22 43q0 33 29 60t62 27
q27 0 47 -21l481 17q34 1 48 -11t14 -46zM612 0q0 -23 -14 -52q-15 -34 -35 -34t-46 13l-307 147q-47 22 -47 51q0 7 2 16q-1 6 -1 12q0 32 31 55t64 23q55 0 57 -58l249 -120q47 -22 47 -53z" />
    <glyph glyph-name="asciitilde" unicode="~" horiz-adv-x="802" 
d="M754 436v-4q-14 -81 -115 -154q-96 -70 -181 -70q-61 0 -98 40q-21 23 -35 97q-9 52 -53 52q-42 0 -77 -26q-17 -12 -51 -48q-24 -27 -37 -27q-17 0 -37 27t-20 44q0 6 2 12q23 63 94 109q68 44 138 44q72 0 110 -45q27 -31 36 -84q4 -25 7 -50q10 -8 33 -8q49 0 102 35
q49 32 75 77q25 41 43 41q20 0 43 -21.5t21 -40.5z" />
    <glyph glyph-name="cent" unicode="&#xa2;" horiz-adv-x="670" 
d="M613 260q0 -81 -152 -126q16 -127 16 -138q0 -30 -21 -45.5t-53 -15.5q-31 0 -38 56q-6 42 -16 125q-15 -1 -31 -1q-108 0 -180 42q-88 52 -88 153q0 95 68 180q60 74 153 120q-10 79 -10 88q0 17 2 29q4 18 29 30q21 10 43 10q28 0 38 -54q4 -38 8 -77q50 1 96 -23
q49 -27 68 -70q2 -5 2 -12q0 -22 -19 -52q-21 -33 -41 -33q-13 0 -45 27.5t-65 27.5q-56 0 -111.5 -36t-86.5 -87q-19 -31 -19 -52q0 -49 113 -70q68 -13 152 -13q69 0 76 7q0 69 60 69q52 0 52 -59z" />
    <glyph glyph-name="copyright" unicode="&#xa9;" 
d="M995 459q0 -128 -98 -236q-87 -95 -227 -153q-133 -54 -257 -54q-139 0 -237 69q-110 77 -110 211q0 128 97 236q87 95 227 152q132 55 256 55q139 0 237 -69q112 -78 112 -211zM883 446q0 80 -92 123q-72 33 -162 33q-104 0 -209 -42t-174 -113t-69 -138q0 -82 88 -123
q66 -30 159 -30q138 0 264 59q146 69 187 185q8 23 8 46zM700 321q0 -46 -72 -72q-55 -20 -110 -20q-69 0 -115 27q-56 33 -56 97q0 73 70 135q67 61 140 61q38 0 67 -20q33 -22 33 -58q0 -22 -15 -35.5t-37 -13.5q-40 0 -42 37q-5 1 -11 1q-36 0 -80.5 -34t-44.5 -69
q0 -41 93 -41q63 0 89 11q14 35 51 35q40 0 40 -41z" />
    <glyph glyph-name="registered" unicode="&#xae;" 
d="M995 459q0 -128 -98 -236q-87 -95 -227 -153q-133 -54 -257 -54q-139 0 -237 69q-110 77 -110 211q0 128 97 236q87 95 227 152q132 55 256 55q139 0 237 -69q112 -78 112 -211zM883 446q0 80 -92 123q-72 33 -162 33q-104 0 -209 -42t-174 -113t-69 -138q0 -82 88 -123
q66 -30 159 -30q138 0 264 59q146 69 187 185q8 23 8 46zM704 287q0 -21 -15 -36.5t-36 -15.5q-23 0 -85 29q-72 35 -90 40q2 -22 2 -30q0 -49 -42 -49q-16 0 -25 14q-6 8 -13 214q-18 9 -18 36q0 23 14 35q9 8 63 14q44 5 70 5q57 0 99 -16q60 -22 60 -68q0 -36 -31 -71
q-25 -28 -63 -47q34 -17 53 -23q8 6 19 6q38 0 38 -37zM616 454q-6 11 -54 11q-39 0 -90 -6l2 -69q36 4 81 19q56 21 61 45z" />
    <glyph glyph-name="quoteleft" unicode="&#x2018;" horiz-adv-x="374" 
d="M288 464q0 -36 -32 -58q-28 -20 -64 -20q-25 0 -37 12q-7 7 -19 34q-33 78 -33 128q0 109 80 192q28 28 46 28q17 0 34.5 -27.5t17.5 -46.5q0 -21 -33.5 -57.5t-33.5 -71.5q0 -27 15 -61q59 -2 59 -52z" />
    <glyph glyph-name="quoteright" unicode="&#x2019;" horiz-adv-x="357" 
d="M267 600q0 -109 -81 -192q-27 -29 -45 -29q-17 0 -34.5 28t-17.5 47q0 21 33.5 57.5t33.5 71.5q0 27 -16 61q-58 2 -58 52q0 35 31 58q29 19 65 19q25 0 36 -11q8 -7 19 -34q34 -78 34 -128z" />
    <glyph glyph-name="quotedblleft" unicode="&#x201c;" horiz-adv-x="629" 
d="M540 464q0 -35 -31 -58q-29 -19 -65 -19q-25 0 -36 11q-8 7 -19 34q-34 78 -34 128q0 109 81 192q27 29 45 29q17 0 34.5 -28t17.5 -47q0 -21 -33.5 -57.5t-33.5 -71.5q0 -27 16 -61q58 -2 58 -52zM276 462q0 -36 -32 -58q-28 -20 -64 -20q-25 0 -37 12q-7 7 -19 34
q-33 78 -33 128q0 109 80 192q28 28 46 28q17 0 34.5 -27.5t17.5 -46.5q0 -21 -33.5 -57.5t-33.5 -71.5q0 -27 15 -61q59 -2 59 -52z" />
    <glyph glyph-name="quotedblright" unicode="&#x201d;" horiz-adv-x="611" 
d="M531 602q0 -109 -80 -192q-28 -28 -46 -28q-17 0 -34.5 27.5t-17.5 46.5q0 21 33.5 57.5t33.5 71.5q0 27 -15 61q-59 2 -59 52q0 36 32 58q28 20 64 20q25 0 37 -12q7 -7 19 -34q33 -78 33 -128zM267 600q0 -109 -81 -192q-27 -29 -45 -29q-17 0 -34.5 28t-17.5 47
q0 21 33.5 57.5t33.5 71.5q0 27 -16 61q-58 2 -58 52q0 35 31 58q29 19 65 19q25 0 36 -11q8 -7 19 -34q34 -78 34 -128z" />
    <glyph glyph-name="trademark" unicode="&#x2122;" horiz-adv-x="828" 
d="M768 498q0 -49 -42 -49q-16 0 -30 8q-17 11 -17 25q0 4 1.5 10.5t1.5 9.5q0 18 -37 118q-51 -102 -51 -132q0 -18 -14 -29t-32 -11q-23 0 -33.5 14.5t-6.5 37.5q-12 41 -41 123q-55 -121 -55 -127q0 -2 1 -7t1 -8q0 -17 -15 -28.5t-33 -11.5q-41 0 -41 47q0 27 32 99
q22 50 45 101q1 2 18 52q12 34 49 34q23 0 38.5 -30t50.5 -127q11 21 45 123q12 35 47 35q22 0 35 -19q20 -31 51.5 -127t31.5 -131zM350 743q0 -23 -16.5 -39t-40.5 -16q-14 0 -25 7l-39 -4q9 -197 9 -209q0 -19 -12 -32.5t-32 -13.5q-19 0 -30 15q-6 10 -14 234l-37 -3
q-15 -10 -35 -10q-42 0 -42 35q0 28 9 41t37 16q179 18 227 18q41 0 41 -39z" />
    <glyph glyph-name="glyph104" horiz-adv-x="550" 
 />
  </font>
</defs>
</svg>
